<svg width="100%" height="100%" viewBox="0 0 32 32" xmlns="http://www.w3.org/2000/svg"><path fill="url(#a)" d="M8.399 9.116c.075-.912.604-1.578.859-1.797-.192-.118-.526-.153-.781-.148a.63.63 0 0 1-.484-.186.453.453 0 0 1-.005-.609c.557-.61 1.398-1.33 2.332-1.42.96-.092 2.13.323 2.61.5.473-.5 1.493-1.48 3.105-1.48 2.348.054 2.82 1.402 3.614 1.687.968.305 1.867.371 2.878 1.266 1.75 1.64.973 3.242 1.63 4.054s1.265.594 1.882 1.219c1.06.967 1.202 2.343 1.129 3.285-.024.311-.302.529-.614.514a.62.62 0 0 1-.392-.163c-.248-.23-.5-.462-.774-.653-.104-.073-.246-.065-.326.034-.45.554-.242 1.465-.085 1.881.11.292.515 1.203-.375 3.047-.713 1.475-3.047 2.23-4.125 2.422l-4.563-2.281-4.133 2.203c-2.727-.323-3.793-1.508-4.343-2.516-.075-.136-.19-.118-.25-.082a1 1 0 0 1-.393.132c-.144.016-.3.005-.415-.084a.47.47 0 0 1-.18-.31c-.217-1.769.328-2.244.742-2.82.32-.582.414-.941.242-1.379-.313-.937-.242-2.277.37-3.27.69-1.113.75-1.905.845-3.046"/><path fill="url(#b)" d="M8.399 9.116c.075-.912.604-1.578.859-1.797-.192-.118-.526-.153-.781-.148a.63.63 0 0 1-.484-.186.453.453 0 0 1-.005-.609c.557-.61 1.398-1.33 2.332-1.42.96-.092 2.13.323 2.61.5.473-.5 1.493-1.48 3.105-1.48 2.348.054 2.82 1.402 3.614 1.687.968.305 1.867.371 2.878 1.266 1.75 1.64.973 3.242 1.63 4.054s1.265.594 1.882 1.219c1.06.967 1.202 2.343 1.129 3.285-.024.311-.302.529-.614.514a.62.62 0 0 1-.392-.163c-.248-.23-.5-.462-.774-.653-.104-.073-.246-.065-.326.034-.45.554-.242 1.465-.085 1.881.11.292.515 1.203-.375 3.047-.713 1.475-3.047 2.23-4.125 2.422l-4.563-2.281-4.133 2.203c-2.727-.323-3.793-1.508-4.343-2.516-.075-.136-.19-.118-.25-.082a1 1 0 0 1-.393.132c-.144.016-.3.005-.415-.084a.47.47 0 0 1-.18-.31c-.217-1.769.328-2.244.742-2.82.32-.582.414-.941.242-1.379-.313-.937-.242-2.277.37-3.27.69-1.113.75-1.905.845-3.046"/><path fill="url(#c)" d="m7.5 29.897-2.077-3.596a11.99 11.99 0 0 1 10.187-5.654h1.375c3.966 0 7.483 1.925 9.668 4.89l-2.517 4.36z"/><rect width="4.969" height="6.172" x="13.533" y="18.1" fill="url(#d)" rx="2.484"/><rect width="4.969" height="6.172" x="13.533" y="18.1" fill="url(#e)" rx="2.484"/><g filter="url(#f)"><path fill="url(#g)" d="M10.085 11.872c.017-.253.093-.71.237-1.014.181-.383.779-.698 1.089-.861l.099-.053c.258-.14.758-.601.969-1.125.168-.419.445-.55.562-.562.574.789 1.645 2.148 4.008 2.148h3.047c.325-.01 1.059.042 1.39.336.414.367.5 1.121.5 1.477v3.55a5.953 5.953 0 0 1-11.901-.246z"/><path fill="url(#h)" d="M10.085 11.872c.017-.253.093-.71.237-1.014.181-.383.779-.698 1.089-.861l.099-.053c.258-.14.758-.601.969-1.125.168-.419.445-.55.562-.562.574.789 1.645 2.148 4.008 2.148h3.047c.325-.01 1.059.042 1.39.336.414.367.5 1.121.5 1.477v3.55a5.953 5.953 0 0 1-11.901-.246z"/><path fill="url(#i)" d="M10.085 11.872c.017-.253.093-.71.237-1.014.181-.383.779-.698 1.089-.861l.099-.053c.258-.14.758-.601.969-1.125.168-.419.445-.55.562-.562.574.789 1.645 2.148 4.008 2.148h3.047c.325-.01 1.059.042 1.39.336.414.367.5 1.121.5 1.477v3.55a5.953 5.953 0 0 1-11.901-.246z"/></g><path fill="url(#j)" d="M10.085 11.872c.017-.253.093-.71.237-1.014.181-.383.779-.698 1.089-.861l.099-.053c.258-.14.758-.601.969-1.125.168-.419.445-.55.562-.562.574.789 1.645 2.148 4.008 2.148h3.047c.325-.01 1.059.042 1.39.336.414.367.5 1.121.5 1.477v3.55a5.953 5.953 0 0 1-11.901-.246z"/><path fill="url(#k)" d="M10.085 11.872c.017-.253.093-.71.237-1.014.181-.383.779-.698 1.089-.861l.099-.053c.258-.14.758-.601.969-1.125.168-.419.445-.55.562-.562.574.789 1.645 2.148 4.008 2.148h3.047c.325-.01 1.059.042 1.39.336.414.367.5 1.121.5 1.477v3.55a5.953 5.953 0 0 1-11.901-.246z"/><path fill="url(#l)" d="M10.085 11.872c.017-.253.093-.71.237-1.014.181-.383.779-.698 1.089-.861l.099-.053c.258-.14.758-.601.969-1.125.168-.419.445-.55.562-.562.574.789 1.645 2.148 4.008 2.148h3.047c.325-.01 1.059.042 1.39.336.414.367.5 1.121.5 1.477v3.55a5.953 5.953 0 0 1-11.901-.246z"/><path fill="url(#m)" d="M10.085 11.872c.017-.253.093-.71.237-1.014.181-.383.779-.698 1.089-.861l.099-.053c.258-.14.758-.601.969-1.125.168-.419.445-.55.562-.562.574.789 1.645 2.148 4.008 2.148h3.047c.325-.01 1.059.042 1.39.336.414.367.5 1.121.5 1.477v3.55a5.953 5.953 0 0 1-11.901-.246z"/><g filter="url(#n)"><path stroke="url(#o)" stroke-width=".2" d="M12.977 18.174c0-.645.522-1.168 1.168-1.168h.503a2.336 2.336 0 0 1 2.336 2.336h-2.84a1.17 1.17 0 0 1-1.167-1.168Z"/></g><path fill="url(#p)" d="M12.977 18.174c0-.645.522-1.168 1.168-1.168h.503a2.336 2.336 0 0 1 2.336 2.336h-2.84a1.17 1.17 0 0 1-1.167-1.168"/><path fill="#FBA65C" d="M16.452 17.858h-2.097a.3.3 0 0 1-.3-.3v-.548q.045-.003.09-.004h.503c.727 0 1.376.332 1.804.852"/><path fill="url(#q)" d="M16.452 17.858h-2.097a.3.3 0 0 1-.3-.3v-.548q.045-.003.09-.004h.503c.727 0 1.376.332 1.804.852"/><g filter="url(#r)"><path fill="#6A9DA1" d="m3.423 27.499-.757-.68.703-1.953.855.648a.1.1 0 0 0 .108.009l.154-.083-.469-1.777 1.02-1.031 1.164 1.626a.1.1 0 0 0 .134.027l.166-.103-.218-1.824 1.375-.648.622 1.427a.226.226 0 0 0 .264.129.25.25 0 0 0 .181-.231v-.737l1.956.013.018 3.956c.001.196.092.38.246.5.167.13.387.166.594.12.759-.166 1.623-.119 2.048-.013.422.137.657.451.657.854a.896.896 0 0 1-.896.896h-.62c-.71 0-.945.11-1.648.695-.563.469-1.443.58-1.813.578H6.173c-1.015 0-1.312-.406-1.64-.773-.263-.294-.85-1.206-1.11-1.625"/><path fill="url(#s)" d="m3.423 27.499-.757-.68.703-1.953.855.648a.1.1 0 0 0 .108.009l.154-.083-.469-1.777 1.02-1.031 1.164 1.626a.1.1 0 0 0 .134.027l.166-.103-.218-1.824 1.375-.648.622 1.427a.226.226 0 0 0 .264.129.25.25 0 0 0 .181-.231v-.737l1.956.013.018 3.956c.001.196.092.38.246.5.167.13.387.166.594.12.759-.166 1.623-.119 2.048-.013.422.137.657.451.657.854a.896.896 0 0 1-.896.896h-.62c-.71 0-.945.11-1.648.695-.563.469-1.443.58-1.813.578H6.173c-1.015 0-1.312-.406-1.64-.773-.263-.294-.85-1.206-1.11-1.625"/><path fill="url(#t)" d="m3.423 27.499-.757-.68.703-1.953.855.648a.1.1 0 0 0 .108.009l.154-.083-.469-1.777 1.02-1.031 1.164 1.626a.1.1 0 0 0 .134.027l.166-.103-.218-1.824 1.375-.648.622 1.427a.226.226 0 0 0 .264.129.25.25 0 0 0 .181-.231v-.737l1.956.013.018 3.956c.001.196.092.38.246.5.167.13.387.166.594.12.759-.166 1.623-.119 2.048-.013.422.137.657.451.657.854a.896.896 0 0 1-.896.896h-.62c-.71 0-.945.11-1.648.695-.563.469-1.443.58-1.813.578H6.173c-1.015 0-1.312-.406-1.64-.773-.263-.294-.85-1.206-1.11-1.625"/><path fill="url(#u)" d="m3.423 27.499-.757-.68.703-1.953.855.648a.1.1 0 0 0 .108.009l.154-.083-.469-1.777 1.02-1.031 1.164 1.626a.1.1 0 0 0 .134.027l.166-.103-.218-1.824 1.375-.648.622 1.427a.226.226 0 0 0 .264.129.25.25 0 0 0 .181-.231v-.737l1.956.013.018 3.956c.001.196.092.38.246.5.167.13.387.166.594.12.759-.166 1.623-.119 2.048-.013.422.137.657.451.657.854a.896.896 0 0 1-.896.896h-.62c-.71 0-.945.11-1.648.695-.563.469-1.443.58-1.813.578H6.173c-1.015 0-1.312-.406-1.64-.773-.263-.294-.85-1.206-1.11-1.625"/></g><rect width="1.961" height="3.691" x="8.72" y="20.917" fill="url(#v)" rx=".98"/><rect width="1.961" height="3.691" x="8.72" y="20.917" fill="url(#w)" rx=".98"/><rect width="1.961" height="3.691" x="8.72" y="20.917" fill="url(#x)" rx=".98"/><rect width="1.961" height="3.691" x="8.72" y="20.917" fill="url(#y)" rx=".98"/><rect width="1.976" height="3.721" x="5.516" y="21.469" fill="url(#z)" rx=".988" transform="rotate(-17.452 5.516 21.469)"/><rect width="1.976" height="3.721" x="5.516" y="21.469" fill="url(#A)" rx=".988" transform="rotate(-17.452 5.516 21.469)"/><rect width="1.976" height="3.721" x="5.516" y="21.469" fill="url(#B)" rx=".988" transform="rotate(-17.452 5.516 21.469)"/><rect width="1.976" height="3.721" x="5.516" y="21.469" fill="url(#C)" rx=".988" transform="rotate(-17.452 5.516 21.469)"/><rect width="1.995" height="3.756" x="2.878" y="22.868" fill="url(#D)" rx=".998" transform="rotate(-30.06 2.878 22.868)"/><rect width="1.995" height="3.756" x="2.878" y="22.868" fill="url(#E)" rx=".998" transform="rotate(-30.06 2.878 22.868)"/><rect width="1.995" height="3.756" x="2.878" y="22.868" fill="url(#F)" rx=".998" transform="rotate(-30.06 2.878 22.868)"/><rect width="1.995" height="3.756" x="2.878" y="22.868" fill="url(#G)" rx=".998" transform="rotate(-30.06 2.878 22.868)"/><rect width="1.988" height="2.636" x="1.35" y="25.317" fill="url(#H)" rx=".994" transform="rotate(-32.714 1.35 25.317)"/><rect width="1.988" height="2.636" x="1.35" y="25.317" fill="url(#I)" rx=".994" transform="rotate(-32.714 1.35 25.317)"/><rect width="1.988" height="2.636" x="1.35" y="25.317" fill="url(#J)" rx=".994" transform="rotate(-32.714 1.35 25.317)"/><g filter="url(#K)"><path fill="#618C93" d="m28.577 27.499.757-.68-.687-1.976-.87.67a.1.1 0 0 1-.11.01l-.153-.083.469-1.777-1.036-1.008-1.148 1.603a.1.1 0 0 1-.134.027l-.166-.103.218-1.824-1.406-.586-.59 1.365a.226.226 0 0 1-.265.129.24.24 0 0 1-.175-.225v-.737l-1.962.007-.018 3.956c-.001.196-.092.38-.246.5a.72.72 0 0 1-.594.12c-.759-.166-1.623-.119-2.048-.013-.422.137-.657.451-.657.854 0 .495.401.896.896.896h.62c.71 0 .945.11 1.648.695.563.469 1.443.58 1.813.578h3.094c1.015 0 1.312-.406 1.64-.773.263-.294.85-1.206 1.11-1.625"/><path fill="url(#L)" d="m28.577 27.499.757-.68-.687-1.976-.87.67a.1.1 0 0 1-.11.01l-.153-.083.469-1.777-1.036-1.008-1.148 1.603a.1.1 0 0 1-.134.027l-.166-.103.218-1.824-1.406-.586-.59 1.365a.226.226 0 0 1-.265.129.24.24 0 0 1-.175-.225v-.737l-1.962.007-.018 3.956c-.001.196-.092.38-.246.5a.72.72 0 0 1-.594.12c-.759-.166-1.623-.119-2.048-.013-.422.137-.657.451-.657.854 0 .495.401.896.896.896h.62c.71 0 .945.11 1.648.695.563.469 1.443.58 1.813.578h3.094c1.015 0 1.312-.406 1.64-.773.263-.294.85-1.206 1.11-1.625"/><path fill="url(#M)" d="m28.577 27.499.757-.68-.687-1.976-.87.67a.1.1 0 0 1-.11.01l-.153-.083.469-1.777-1.036-1.008-1.148 1.603a.1.1 0 0 1-.134.027l-.166-.103.218-1.824-1.406-.586-.59 1.365a.226.226 0 0 1-.265.129.24.24 0 0 1-.175-.225v-.737l-1.962.007-.018 3.956c-.001.196-.092.38-.246.5a.72.72 0 0 1-.594.12c-.759-.166-1.623-.119-2.048-.013-.422.137-.657.451-.657.854 0 .495.401.896.896.896h.62c.71 0 .945.11 1.648.695.563.469 1.443.58 1.813.578h3.094c1.015 0 1.312-.406 1.64-.773.263-.294.85-1.206 1.11-1.625"/><path fill="url(#N)" d="m28.577 27.499.757-.68-.687-1.976-.87.67a.1.1 0 0 1-.11.01l-.153-.083.469-1.777-1.036-1.008-1.148 1.603a.1.1 0 0 1-.134.027l-.166-.103.218-1.824-1.406-.586-.59 1.365a.226.226 0 0 1-.265.129.24.24 0 0 1-.175-.225v-.737l-1.962.007-.018 3.956c-.001.196-.092.38-.246.5a.72.72 0 0 1-.594.12c-.759-.166-1.623-.119-2.048-.013-.422.137-.657.451-.657.854 0 .495.401.896.896.896h.62c.71 0 .945.11 1.648.695.563.469 1.443.58 1.813.578h3.094c1.015 0 1.312-.406 1.64-.773.263-.294.85-1.206 1.11-1.625"/><path fill="url(#O)" d="m28.577 27.499.757-.68-.687-1.976-.87.67a.1.1 0 0 1-.11.01l-.153-.083.469-1.777-1.036-1.008-1.148 1.603a.1.1 0 0 1-.134.027l-.166-.103.218-1.824-1.406-.586-.59 1.365a.226.226 0 0 1-.265.129.24.24 0 0 1-.175-.225v-.737l-1.962.007-.018 3.956c-.001.196-.092.38-.246.5a.72.72 0 0 1-.594.12c-.759-.166-1.623-.119-2.048-.013-.422.137-.657.451-.657.854 0 .495.401.896.896.896h.62c.71 0 .945.11 1.648.695.563.469 1.443.58 1.813.578h3.094c1.015 0 1.312-.406 1.64-.773.263-.294.85-1.206 1.11-1.625"/><path fill="url(#P)" d="m28.577 27.499.757-.68-.687-1.976-.87.67a.1.1 0 0 1-.11.01l-.153-.083.469-1.777-1.036-1.008-1.148 1.603a.1.1 0 0 1-.134.027l-.166-.103.218-1.824-1.406-.586-.59 1.365a.226.226 0 0 1-.265.129.24.24 0 0 1-.175-.225v-.737l-1.962.007-.018 3.956c-.001.196-.092.38-.246.5a.72.72 0 0 1-.594.12c-.759-.166-1.623-.119-2.048-.013-.422.137-.657.451-.657.854 0 .495.401.896.896.896h.62c.71 0 .945.11 1.648.695.563.469 1.443.58 1.813.578h3.094c1.015 0 1.312-.406 1.64-.773.263-.294.85-1.206 1.11-1.625"/><path fill="url(#Q)" d="m28.577 27.499.757-.68-.687-1.976-.87.67a.1.1 0 0 1-.11.01l-.153-.083.469-1.777-1.036-1.008-1.148 1.603a.1.1 0 0 1-.134.027l-.166-.103.218-1.824-1.406-.586-.59 1.365a.226.226 0 0 1-.265.129.24.24 0 0 1-.175-.225v-.737l-1.962.007-.018 3.956c-.001.196-.092.38-.246.5a.72.72 0 0 1-.594.12c-.759-.166-1.623-.119-2.048-.013-.422.137-.657.451-.657.854 0 .495.401.896.896.896h.62c.71 0 .945.11 1.648.695.563.469 1.443.58 1.813.578h3.094c1.015 0 1.312-.406 1.64-.773.263-.294.85-1.206 1.11-1.625"/></g><rect width="1.961" height="3.691" fill="#5E9886" rx=".98" transform="matrix(-1 0 0 1 23.28 20.917)"/><rect width="1.961" height="3.691" fill="url(#R)" rx=".98" transform="matrix(-1 0 0 1 23.28 20.917)"/><rect width="1.961" height="3.691" fill="url(#S)" rx=".98" transform="matrix(-1 0 0 1 23.28 20.917)"/><rect width="1.976" height="3.721" fill="#5E9886" rx=".988" transform="scale(-1 1)rotate(-17.452 56.697 97.01)"/><rect width="1.976" height="3.721" fill="url(#T)" rx=".988" transform="scale(-1 1)rotate(-17.452 56.697 97.01)"/><rect width="1.976" height="3.721" fill="url(#U)" rx=".988" transform="scale(-1 1)rotate(-17.452 56.697 97.01)"/><rect width="1.995" height="3.756" fill="#5E9886" rx=".998" transform="scale(-1 1)rotate(-30.061 28.02 65.66)"/><rect width="1.995" height="3.756" fill="url(#V)" rx=".998" transform="scale(-1 1)rotate(-30.061 28.02 65.66)"/><rect width="1.995" height="3.756" fill="url(#W)" rx=".998" transform="scale(-1 1)rotate(-30.061 28.02 65.66)"/><rect width="1.988" height="2.636" fill="url(#X)" rx=".994" transform="scale(-1 1)rotate(-32.714 27.803 64.872)"/><rect width="1.988" height="2.636" fill="url(#Y)" rx=".994" transform="scale(-1 1)rotate(-32.714 27.803 64.872)"/><rect width="1.988" height="2.636" fill="url(#Z)" rx=".994" transform="scale(-1 1)rotate(-32.714 27.803 64.872)"/><path fill="url(#aa)" d="M10.098 15.917a6 6 0 0 1-.013-.395v-.06c.274.03.544.101.8.238.357.19.67.499.923.96.253.463.39 1.044.46 1.568.072.527.08 1.017.067 1.312l-.45-.02a7.3 7.3 0 0 0-.062-1.231c-.068-.502-.195-1.02-.41-1.413-.216-.395-.47-.635-.74-.78a1.7 1.7 0 0 0-.575-.18"/><path fill="url(#ab)" d="M21.991 15.464v.058q0 .201-.013.398a1.7 1.7 0 0 0-.554.177c-.27.144-.524.384-.74.78-.215.393-.342.91-.41 1.412a7 7 0 0 0-.063 1.23l-.45.021a7.7 7.7 0 0 1 .067-1.312c.071-.524.208-1.105.461-1.568.253-.46.566-.77.923-.96.25-.133.513-.205.78-.236"/><path stroke="url(#ac)" stroke-linecap="round" stroke-width=".65" d="M11.8 11.538c.289-.209 1.082-.535 2.074-.34"/><path stroke="url(#ad)" stroke-linecap="round" stroke-width=".65" d="M20.32 11.546c-.29-.209-1.11-.532-2.102-.336"/><g filter="url(#ae)"><circle cx="13.357" cy="13.677" r="1.893" fill="url(#af)"/></g><circle cx="13.576" cy="13.442" r="1.549" fill="url(#ag)"/><circle cx="13.595" cy="13.442" r=".623" fill="#A01B3C"/><g filter="url(#ah)"><circle r="1.893" fill="url(#ai)" transform="matrix(-1 0 0 1 18.74 13.677)"/></g><circle r="1.549" fill="url(#aj)" transform="matrix(-1 0 0 1 18.521 13.442)"/><circle r="1.549" fill="url(#ak)" transform="matrix(-1 0 0 1 18.521 13.442)"/><circle r=".623" fill="#9E1539" transform="matrix(-1 0 0 1 18.502 13.442)"/><g filter="url(#al)"><path fill="url(#am)" d="M20.59 13.272h-3.7a1.893 1.893 0 0 1 3.7 0"/></g><g filter="url(#an)"><path fill="url(#ao)" d="M15.87 13.554a.51.51 0 0 0-.489.372l-.6 2.18a.65.65 0 0 0 .627.822h.926a.65.65 0 0 0 .627-.822l-.6-2.18a.51.51 0 0 0-.49-.373"/></g><path fill="#5F8783" d="M16.017 13.35a.51.51 0 0 0-.49.373l-.6 2.18a.65.65 0 0 0 .627.822h.926a.65.65 0 0 0 .627-.822l-.6-2.18a.51.51 0 0 0-.49-.373"/><path fill="url(#ap)" d="M16.017 13.35a.51.51 0 0 0-.49.373l-.6 2.18a.65.65 0 0 0 .627.822h.926a.65.65 0 0 0 .627-.822l-.6-2.18a.51.51 0 0 0-.49-.373"/><path fill="url(#aq)" d="M16.017 13.35a.51.51 0 0 0-.49.373l-.6 2.18a.65.65 0 0 0 .627.822h.926a.65.65 0 0 0 .627-.822l-.6-2.18a.51.51 0 0 0-.49-.373"/><path fill="url(#ar)" d="M16.017 13.35a.51.51 0 0 0-.49.373l-.6 2.18a.65.65 0 0 0 .627.822h.926a.65.65 0 0 0 .627-.822l-.6-2.18a.51.51 0 0 0-.49-.373"/><path fill="url(#as)" d="M16.017 13.35a.51.51 0 0 0-.49.373l-.6 2.18a.65.65 0 0 0 .627.822h.926a.65.65 0 0 0 .627-.822l-.6-2.18a.51.51 0 0 0-.49-.373"/><path fill="url(#at)" d="M16.017 13.35a.51.51 0 0 0-.49.373l-.6 2.18a.65.65 0 0 0 .627.822h.926a.65.65 0 0 0 .627-.822l-.6-2.18a.51.51 0 0 0-.49-.373"/><g filter="url(#au)"><path stroke="url(#av)" stroke-linecap="round" stroke-width=".4" d="M16.453 4.991c.468.052 1.815.394 3.453 1.344 2.047 1.187 2.547 2.453 2.828 3.828"/></g><defs><radialGradient id="a" cx="0" cy="0" r="1" gradientTransform="rotate(100.841 7.301 11.315)scale(16.593 29.0245)" gradientUnits="userSpaceOnUse"><stop stop-color="#341C3D"/><stop offset="1" stop-color="#211429"/></radialGradient><radialGradient id="b" cx="0" cy="0" r="1" gradientTransform="rotate(115.364 8.514 8.683)scale(4.66882 13.1888)" gradientUnits="userSpaceOnUse"><stop offset=".142" stop-color="#4B365E"/><stop offset="1" stop-color="#3C254A" stop-opacity="0"/></radialGradient><radialGradient id="c" cx="0" cy="0" r="1" gradientTransform="matrix(0 -9.5625 22.9424 0 16.038 29.897)" gradientUnits="userSpaceOnUse"><stop offset=".272" stop-color="#351C47"/><stop offset="1" stop-color="#070608"/></radialGradient><radialGradient id="d" cx="0" cy="0" r="1" gradientTransform="matrix(0 3.6875 -3.80398 0 16.017 20.585)" gradientUnits="userSpaceOnUse"><stop stop-color="#3E597E"/><stop offset=".686" stop-color="#4C7282"/></radialGradient><radialGradient id="e" cx="0" cy="0" r="1" gradientTransform="matrix(.29157 4.32031 -2.99316 .202 15.726 21.186)" gradientUnits="userSpaceOnUse"><stop offset=".529" stop-color="#4F8387" stop-opacity="0"/><stop offset=".924" stop-color="#54958B"/></radialGradient><radialGradient id="h" cx="0" cy="0" r="1" gradientTransform="matrix(-5.38562 0 0 -11.4062 21.986 15.241)" gradientUnits="userSpaceOnUse"><stop offset=".066" stop-color="#6DB3AE"/><stop offset="1" stop-color="#6DB3AE" stop-opacity="0"/></radialGradient><radialGradient id="i" cx="0" cy="0" r="1" gradientTransform="matrix(3.96875 0 0 10.1562 9.632 15.335)" gradientUnits="userSpaceOnUse"><stop offset=".449" stop-color="#719EA0"/><stop offset="1" stop-color="#6F9C9C" stop-opacity="0"/></radialGradient><radialGradient id="k" cx="0" cy="0" r="1" gradientTransform="matrix(1.9375 .6875 -3.37898 9.52257 9.757 10.928)" gradientUnits="userSpaceOnUse"><stop stop-color="#1B2E44"/><stop offset="1" stop-color="#2D4A61" stop-opacity="0"/></radialGradient><radialGradient id="l" cx="0" cy="0" r="1" gradientTransform="rotate(-13.931 66.22 -36.591)scale(12.3314 28.1116)" gradientUnits="userSpaceOnUse"><stop offset=".809" stop-color="#66A9A4" stop-opacity="0"/><stop offset=".98" stop-color="#274E5B"/></radialGradient><radialGradient id="m" cx="0" cy="0" r="1" gradientTransform="rotate(180 9.09 6.714)scale(2.28125)" gradientUnits="userSpaceOnUse"><stop offset=".685" stop-color="#5D8D93"/><stop offset="1" stop-color="#5D8D93" stop-opacity="0"/></radialGradient><radialGradient id="p" cx="0" cy="0" r="1" gradientTransform="rotate(-81.193 18.078 1.31)scale(2.24522 3.5001)" gradientUnits="userSpaceOnUse"><stop stop-color="#291632"/><stop offset="1" stop-color="#0D0512"/></radialGradient><radialGradient id="q" cx="0" cy="0" r="1" gradientTransform="matrix(.51562 -1.05469 2.4217 1.18394 15 18.217)" gradientUnits="userSpaceOnUse"><stop offset=".617" stop-color="#E98F43" stop-opacity="0"/><stop offset=".929" stop-color="#E98F43"/></radialGradient><radialGradient id="s" cx="0" cy="0" r="1" gradientTransform="rotate(73.968 -11.51 15.35)scale(6.46576 13.0703)" gradientUnits="userSpaceOnUse"><stop offset=".301" stop-color="#2F5657"/><stop offset="1" stop-color="#619299" stop-opacity="0"/></radialGradient><radialGradient id="t" cx="0" cy="0" r="1" gradientTransform="matrix(-1.93323 -.03125 .0265 -1.639 14.244 27.178)" gradientUnits="userSpaceOnUse"><stop offset=".165" stop-color="#74ADA5"/><stop offset="1" stop-color="#74ADA5" stop-opacity="0"/></radialGradient><radialGradient id="u" cx="0" cy="0" r="1" gradientTransform="matrix(-2.59378 3.81248 -2.48353 -1.68964 11.842 24.96)" gradientUnits="userSpaceOnUse"><stop offset=".284" stop-color="#72B4AA"/><stop offset="1" stop-color="#659EA4" stop-opacity="0"/></radialGradient><radialGradient id="v" cx="0" cy="0" r="1" gradientTransform="matrix(0 -2.6161 1.22861 0 10.293 23.533)" gradientUnits="userSpaceOnUse"><stop stop-color="#74AD9D"/><stop offset="1" stop-color="#629F8D"/></radialGradient><radialGradient id="w" cx="0" cy="0" r="1" gradientTransform="matrix(-1.22395 0 0 -3.23423 10.681 23.298)" gradientUnits="userSpaceOnUse"><stop stop-color="#7ABFB2"/><stop offset="1" stop-color="#7ABFB2" stop-opacity="0"/></radialGradient><radialGradient id="y" cx="0" cy="0" r="1" gradientTransform="rotate(96.904 -4.609 15.392)scale(2.81122 2.29947)" gradientUnits="userSpaceOnUse"><stop offset=".657" stop-color="#608D97" stop-opacity="0"/><stop offset="1" stop-color="#486686"/></radialGradient><radialGradient id="z" cx="0" cy="0" r="1" gradientTransform="matrix(.20372 -3.21174 1.70613 .10822 6.079 24.683)" gradientUnits="userSpaceOnUse"><stop stop-color="#6FA293"/><stop offset="1" stop-color="#679F8D"/></radialGradient><radialGradient id="B" cx="0" cy="0" r="1" gradientTransform="matrix(-.02888 -2.796 1.23588 -.01277 7.45 24.663)" gradientUnits="userSpaceOnUse"><stop offset=".136" stop-color="#7CBCB2"/><stop offset="1" stop-color="#76B9A7" stop-opacity="0"/></radialGradient><radialGradient id="C" cx="0" cy="0" r="1" gradientTransform="matrix(.4982 -1.16022 3.58632 1.53998 5.806 25.128)" gradientUnits="userSpaceOnUse"><stop offset=".098" stop-color="#466082"/><stop offset="1" stop-color="#608C96" stop-opacity="0"/></radialGradient><radialGradient id="D" cx="0" cy="0" r="1" gradientTransform="matrix(1.52841 -2.3289 3.00123 1.96966 3.07 25.396)" gradientUnits="userSpaceOnUse"><stop stop-color="#70A196"/><stop offset="1" stop-color="#6CA895"/></radialGradient><radialGradient id="E" cx="0" cy="0" r="1" gradientTransform="matrix(-.14765 -2.39628 1.0581 -.0652 4.413 26.1)" gradientUnits="userSpaceOnUse"><stop offset=".238" stop-color="#7EB7AE"/><stop offset="1" stop-color="#7EB7AE" stop-opacity="0"/></radialGradient><radialGradient id="F" cx="0" cy="0" r="1" gradientTransform="rotate(-48.526 30.563 10.128)scale(1.97399 4.7131)" gradientUnits="userSpaceOnUse"><stop stop-color="#4D678A"/><stop offset="1" stop-color="#5E8A91" stop-opacity="0"/></radialGradient><radialGradient id="G" cx="0" cy="0" r="1" gradientTransform="rotate(-68.518 21.065 10.99)scale(3.82598 2.99296)" gradientUnits="userSpaceOnUse"><stop offset=".786" stop-color="#6BA18F" stop-opacity="0"/><stop offset="1" stop-color="#72A292"/></radialGradient><radialGradient id="H" cx="0" cy="0" r="1" gradientTransform="rotate(-103.353 12.242 12.83)scale(2.55343 1.41015)" gradientUnits="userSpaceOnUse"><stop offset=".185" stop-color="#709D99"/><stop offset="1" stop-color="#609180"/></radialGradient><radialGradient id="I" cx="0" cy="0" r="1" gradientTransform="matrix(.64228 -.85953 1.5214 1.13686 1.622 27.76)" gradientUnits="userSpaceOnUse"><stop stop-color="#576A91"/><stop offset="1" stop-color="#588290" stop-opacity="0"/></radialGradient><radialGradient id="J" cx="0" cy="0" r="1" gradientTransform="matrix(.53113 1.91968 -1.32546 .36672 3.298 25.883)" gradientUnits="userSpaceOnUse"><stop offset=".11" stop-color="#456A60"/><stop offset="1" stop-color="#669688" stop-opacity="0"/></radialGradient><radialGradient id="L" cx="0" cy="0" r="1" gradientTransform="rotate(106.149 4.435 20.728)scale(6.42022 13.0626)" gradientUnits="userSpaceOnUse"><stop offset=".301" stop-color="#2F5657"/><stop offset="1" stop-color="#619299" stop-opacity="0"/></radialGradient><radialGradient id="M" cx="0" cy="0" r="1" gradientTransform="matrix(1.93323 -.03101 .0261 1.62651 17.756 27.2)" gradientUnits="userSpaceOnUse"><stop offset=".165" stop-color="#74ADA5"/><stop offset="1" stop-color="#74ADA5" stop-opacity="0"/></radialGradient><radialGradient id="N" cx="0" cy="0" r="1" gradientTransform="rotate(55.567 -13.643 31.629)scale(4.58713 2.99649)" gradientUnits="userSpaceOnUse"><stop offset=".284" stop-color="#72B4AA"/><stop offset="1" stop-color="#659EA4" stop-opacity="0"/></radialGradient><radialGradient id="O" cx="0" cy="0" r="1" gradientTransform="rotate(113.738 6.022 22.127)scale(2.83347 1.67501)" gradientUnits="userSpaceOnUse"><stop offset=".546" stop-color="#476676"/><stop offset="1" stop-color="#476676" stop-opacity="0"/></radialGradient><radialGradient id="P" cx="0" cy="0" r="1" gradientTransform="rotate(116.054 5.457 20.336)scale(3.13062 2.06753)" gradientUnits="userSpaceOnUse"><stop offset=".26" stop-color="#355D5E"/><stop offset="1" stop-color="#547986" stop-opacity="0"/></radialGradient><radialGradient id="Q" cx="0" cy="0" r="1" gradientTransform="matrix(0 4.09375 -3.72984 0 23.545 23.429)" gradientUnits="userSpaceOnUse"><stop stop-color="#2F545A"/><stop offset="1" stop-color="#527483" stop-opacity="0"/></radialGradient><radialGradient id="R" cx="0" cy="0" r="1" gradientTransform="matrix(0 3.43452 -1.62962 0 .207 .257)" gradientUnits="userSpaceOnUse"><stop offset=".29" stop-color="#7CC2B2"/><stop offset="1" stop-color="#7CC2B2" stop-opacity="0"/></radialGradient><radialGradient id="S" cx="0" cy="0" r="1" gradientTransform="matrix(0 2.90968 -2.1392 0 .98 .862)" gradientUnits="userSpaceOnUse"><stop offset=".577" stop-color="#5C818E" stop-opacity="0"/><stop offset="1" stop-color="#4C6489"/></radialGradient><radialGradient id="T" cx="0" cy="0" r="1" gradientTransform="rotate(88.732 .024 .358)scale(3.33388 1.58187)" gradientUnits="userSpaceOnUse"><stop offset=".29" stop-color="#7CC2B2"/><stop offset="1" stop-color="#7CC2B2" stop-opacity="0"/></radialGradient><radialGradient id="U" cx="0" cy="0" r="1" gradientTransform="rotate(97.643 .058 .878)scale(2.7887 2.05026)" gradientUnits="userSpaceOnUse"><stop offset=".577" stop-color="#5C818E" stop-opacity="0"/><stop offset="1" stop-color="#4C6489"/></radialGradient><radialGradient id="V" cx="0" cy="0" r="1" gradientTransform="matrix(.07447 3.3649 -1.59659 .03534 .385 .33)" gradientUnits="userSpaceOnUse"><stop offset=".29" stop-color="#7CC2B2"/><stop offset="1" stop-color="#7CC2B2" stop-opacity="0"/></radialGradient><radialGradient id="W" cx="0" cy="0" r="1" gradientTransform="matrix(-.74734 2.73501 -2.01078 -.54945 1.318 1.001)" gradientUnits="userSpaceOnUse"><stop offset=".577" stop-color="#5C818E" stop-opacity="0"/><stop offset="1" stop-color="#4C6489"/></radialGradient><radialGradient id="X" cx="0" cy="0" r="1" gradientTransform="rotate(86.011 .058 .65)scale(2.14376 1.52149)" gradientUnits="userSpaceOnUse"><stop stop-color="#7DC3B4"/><stop offset="1" stop-color="#508F82"/></radialGradient><radialGradient id="Y" cx="0" cy="0" r="1" gradientTransform="matrix(1.82612 .3373 -.5514 2.98514 .616 .826)" gradientUnits="userSpaceOnUse"><stop offset=".455" stop-color="#396F65" stop-opacity="0"/><stop offset="1" stop-color="#396F65"/></radialGradient><radialGradient id="Z" cx="0" cy="0" r="1" gradientTransform="matrix(-.71567 1.75021 -2.23482 -.91383 1.038 .949)" gradientUnits="userSpaceOnUse"><stop offset=".488" stop-color="#4F7B7F" stop-opacity="0"/><stop offset=".926" stop-color="#586590"/></radialGradient><radialGradient id="af" cx="0" cy="0" r="1" gradientTransform="rotate(69.179 -3.03 15.179)scale(3.15946)" gradientUnits="userSpaceOnUse"><stop stop-color="#684D78"/><stop offset="1" stop-color="#3A2549"/></radialGradient><radialGradient id="ag" cx="0" cy="0" r="1" gradientTransform="rotate(95.856 .824 12.83)scale(1.83772 1.80959)" gradientUnits="userSpaceOnUse"><stop offset=".585" stop-color="#FFDF80"/><stop offset="1" stop-color="#FFAF5A"/></radialGradient><radialGradient id="ai" cx="0" cy="0" r="1" gradientTransform="rotate(48.116 -1.842 1.568)scale(2.66802)" gradientUnits="userSpaceOnUse"><stop stop-color="#493061"/><stop offset="1" stop-color="#3D274C"/></radialGradient><radialGradient id="aj" cx="0" cy="0" r="1" gradientTransform="matrix(-.2461 1.67187 -1.6463 -.24233 1.645 1.426)" gradientUnits="userSpaceOnUse"><stop offset=".618" stop-color="#FFCF77"/><stop offset="1" stop-color="#FFB45C"/></radialGradient><radialGradient id="am" cx="0" cy="0" r="1" gradientTransform="rotate(-179.479 10.194 6.48)scale(3.43734 3.6257)" gradientUnits="userSpaceOnUse"><stop stop-color="#79A7AF"/><stop offset=".808" stop-color="#7498A0"/></radialGradient><radialGradient id="ap" cx="0" cy="0" r="1" gradientTransform="rotate(-99.386 15.182 .897)scale(4.64024 3.52424)" gradientUnits="userSpaceOnUse"><stop offset=".122" stop-color="#81BEB9"/><stop offset="1" stop-color="#608884" stop-opacity="0"/></radialGradient><radialGradient id="as" cx="0" cy="0" r="1" gradientTransform="matrix(0 -1.04687 3.76333 0 16.054 16.725)" gradientUnits="userSpaceOnUse"><stop stop-color="#526C9E"/><stop offset="1" stop-color="#6C8EA7" stop-opacity="0"/></radialGradient><radialGradient id="at" cx="0" cy="0" r="1" gradientTransform="matrix(0 2.9375 -3.86566 0 16.017 13.928)" gradientUnits="userSpaceOnUse"><stop offset=".846" stop-color="#60829E" stop-opacity="0"/><stop offset="1" stop-color="#4D6999"/></radialGradient><radialGradient id="av" cx="0" cy="0" r="1" gradientTransform="rotate(116.934 8.035 9.118)scale(2.17322 4.07335)" gradientUnits="userSpaceOnUse"><stop stop-color="#493959"/><stop offset="1" stop-color="#493959" stop-opacity="0"/></radialGradient><linearGradient id="g" x1="16.03" x2="16.03" y1="6.831" y2="21.475" gradientUnits="userSpaceOnUse"><stop offset=".124" stop-color="#76A1AC"/><stop offset="1" stop-color="#648896"/></linearGradient><linearGradient id="j" x1="16.036" x2="16.036" y1="21.71" y2="16.553" gradientUnits="userSpaceOnUse"><stop offset=".055" stop-color="#5659A3"/><stop offset="1" stop-color="#6A94B4" stop-opacity="0"/></linearGradient><linearGradient id="o" x1="14.218" x2="14.757" y1="19.444" y2="17.694" gradientUnits="userSpaceOnUse"><stop stop-color="#6B8698"/><stop offset="1" stop-color="#6182A0"/></linearGradient><linearGradient id="x" x1="8.72" x2="9.342" y1="22.96" y2="22.944" gradientUnits="userSpaceOnUse"><stop stop-color="#3E6D60"/><stop offset="1" stop-color="#679684" stop-opacity="0"/></linearGradient><linearGradient id="A" x1="5.347" x2="6.407" y1="23.666" y2="23.639" gradientUnits="userSpaceOnUse"><stop stop-color="#407568"/><stop offset="1" stop-color="#6C9E8F" stop-opacity="0"/></linearGradient><linearGradient id="aa" x1="9.382" x2="12.341" y1="15.462" y2="19.178" gradientUnits="userSpaceOnUse"><stop stop-color="#537483"/><stop offset=".717" stop-color="#587B87"/><stop offset="1" stop-color="#587B87" stop-opacity="0"/></linearGradient><linearGradient id="ab" x1="21.991" x2="19.944" y1="15.71" y2="19.272" gradientUnits="userSpaceOnUse"><stop stop-color="#5A8194"/><stop offset=".689" stop-color="#588292"/><stop offset="1" stop-color="#568390" stop-opacity="0"/></linearGradient><linearGradient id="ac" x1="12.895" x2="12.71" y1="11.479" y2="10.854" gradientUnits="userSpaceOnUse"><stop stop-color="#241232"/><stop offset=".615" stop-color="#311A3D"/></linearGradient><linearGradient id="ad" x1="19.21" x2="19.39" y1="11.487" y2="10.866" gradientUnits="userSpaceOnUse"><stop stop-color="#241232"/><stop offset=".615" stop-color="#311A3D"/></linearGradient><linearGradient id="ak" x1="1.549" x2="1.549" y1="1.191" y2="1.801" gradientUnits="userSpaceOnUse"><stop stop-color="#FFB770"/><stop offset="1" stop-color="#FFB770" stop-opacity="0"/></linearGradient><linearGradient id="ao" x1="15.871" x2="15.871" y1="13.553" y2="16.928" gradientUnits="userSpaceOnUse"><stop stop-color="#5C8A89"/><stop offset="1" stop-color="#57779E"/></linearGradient><linearGradient id="aq" x1="16.017" x2="16.017" y1="13.35" y2="14.694" gradientUnits="userSpaceOnUse"><stop stop-color="#709CA5"/><stop offset="1" stop-color="#709CA5" stop-opacity="0"/></linearGradient><linearGradient id="ar" x1="14.903" x2="15.39" y1="15.585" y2="15.678" gradientUnits="userSpaceOnUse"><stop stop-color="#547B7A"/><stop offset="1" stop-color="#6C9B96" stop-opacity="0"/></linearGradient><filter id="f" width="11.901" height="13.419" x="10.085" y="8.257" color-interpolation-filters="sRGB" filterUnits="userSpaceOnUse"><feFlood flood-opacity="0" result="BackgroundImageFix"/><feBlend in="SourceGraphic" in2="BackgroundImageFix" result="shape"/><feColorMatrix in="SourceAlpha" result="hardAlpha" values="0 0 0 0 0 0 0 0 0 0 0 0 0 0 0 0 0 0 127 0"/><feOffset dy=".2"/><feGaussianBlur stdDeviation=".375"/><feComposite in2="hardAlpha" k2="-1" k3="1" operator="arithmetic"/><feColorMatrix values="0 0 0 0 0.294118 0 0 0 0 0.423529 0 0 0 0 0.52549 0 0 0 1 0"/><feBlend in2="shape" result="effect1_innerShadow_2_2133"/></filter><filter id="n" width="4.408" height="2.736" x="12.777" y="16.806" color-interpolation-filters="sRGB" filterUnits="userSpaceOnUse"><feFlood flood-opacity="0" result="BackgroundImageFix"/><feBlend in="SourceGraphic" in2="BackgroundImageFix" result="shape"/><feGaussianBlur result="effect1_foregroundBlur_2_2133" stdDeviation=".05"/></filter><filter id="r" width="11.828" height="8.938" x="2.666" y="20.96" color-interpolation-filters="sRGB" filterUnits="userSpaceOnUse"><feFlood flood-opacity="0" result="BackgroundImageFix"/><feBlend in="SourceGraphic" in2="BackgroundImageFix" result="shape"/><feColorMatrix in="SourceAlpha" result="hardAlpha" values="0 0 0 0 0 0 0 0 0 0 0 0 0 0 0 0 0 0 127 0"/><feOffset dx=".25" dy="-.75"/><feGaussianBlur stdDeviation=".5"/><feComposite in2="hardAlpha" k2="-1" k3="1" operator="arithmetic"/><feColorMatrix values="0 0 0 0 0.341176 0 0 0 0 0.486275 0 0 0 0 0.560784 0 0 0 1 0"/><feBlend in2="shape" result="effect1_innerShadow_2_2133"/><feColorMatrix in="SourceAlpha" result="hardAlpha" values="0 0 0 0 0 0 0 0 0 0 0 0 0 0 0 0 0 0 127 0"/><feOffset dy="-.2"/><feGaussianBlur stdDeviation=".2"/><feComposite in2="hardAlpha" k2="-1" k3="1" operator="arithmetic"/><feColorMatrix values="0 0 0 0 0.364706 0 0 0 0 0.403922 0 0 0 0 0.588235 0 0 0 1 0"/><feBlend in2="effect1_innerShadow_2_2133" result="effect2_innerShadow_2_2133"/></filter><filter id="K" width="11.828" height="8.875" x="17.756" y="21.022" color-interpolation-filters="sRGB" filterUnits="userSpaceOnUse"><feFlood flood-opacity="0" result="BackgroundImageFix"/><feBlend in="SourceGraphic" in2="BackgroundImageFix" result="shape"/><feColorMatrix in="SourceAlpha" result="hardAlpha" values="0 0 0 0 0 0 0 0 0 0 0 0 0 0 0 0 0 0 127 0"/><feOffset dx=".25" dy="-.75"/><feGaussianBlur stdDeviation=".5"/><feComposite in2="hardAlpha" k2="-1" k3="1" operator="arithmetic"/><feColorMatrix values="0 0 0 0 0.341176 0 0 0 0 0.486275 0 0 0 0 0.560784 0 0 0 1 0"/><feBlend in2="shape" result="effect1_innerShadow_2_2133"/><feColorMatrix in="SourceAlpha" result="hardAlpha" values="0 0 0 0 0 0 0 0 0 0 0 0 0 0 0 0 0 0 127 0"/><feOffset dy="-.2"/><feGaussianBlur stdDeviation=".2"/><feComposite in2="hardAlpha" k2="-1" k3="1" operator="arithmetic"/><feColorMatrix values="0 0 0 0 0.364706 0 0 0 0 0.403922 0 0 0 0 0.588235 0 0 0 1 0"/><feBlend in2="effect1_innerShadow_2_2133" result="effect2_innerShadow_2_2133"/></filter><filter id="ae" width="3.885" height="3.935" x="11.464" y="11.634" color-interpolation-filters="sRGB" filterUnits="userSpaceOnUse"><feFlood flood-opacity="0" result="BackgroundImageFix"/><feBlend in="SourceGraphic" in2="BackgroundImageFix" result="shape"/><feColorMatrix in="SourceAlpha" result="hardAlpha" values="0 0 0 0 0 0 0 0 0 0 0 0 0 0 0 0 0 0 127 0"/><feOffset dx=".1" dy="-.15"/><feGaussianBlur stdDeviation=".075"/><feComposite in2="hardAlpha" k2="-1" k3="1" operator="arithmetic"/><feColorMatrix values="0 0 0 0 0.176471 0 0 0 0 0.0784314 0 0 0 0 0.247059 0 0 0 1 0"/><feBlend in2="shape" result="effect1_innerShadow_2_2133"/></filter><filter id="ah" width="3.785" height="3.885" x="16.847" y="11.684" color-interpolation-filters="sRGB" filterUnits="userSpaceOnUse"><feFlood flood-opacity="0" result="BackgroundImageFix"/><feBlend in="SourceGraphic" in2="BackgroundImageFix" result="shape"/><feColorMatrix in="SourceAlpha" result="hardAlpha" values="0 0 0 0 0 0 0 0 0 0 0 0 0 0 0 0 0 0 127 0"/><feOffset dy="-.1"/><feGaussianBlur stdDeviation=".125"/><feComposite in2="hardAlpha" k2="-1" k3="1" operator="arithmetic"/><feColorMatrix values="0 0 0 0 0.168627 0 0 0 0 0.0784314 0 0 0 0 0.247059 0 0 0 1 0"/><feBlend in2="shape" result="effect1_innerShadow_2_2133"/></filter><filter id="al" width="3.799" height="1.588" x="16.891" y="11.784" color-interpolation-filters="sRGB" filterUnits="userSpaceOnUse"><feFlood flood-opacity="0" result="BackgroundImageFix"/><feBlend in="SourceGraphic" in2="BackgroundImageFix" result="shape"/><feColorMatrix in="SourceAlpha" result="hardAlpha" values="0 0 0 0 0 0 0 0 0 0 0 0 0 0 0 0 0 0 127 0"/><feOffset dx=".1" dy=".1"/><feGaussianBlur stdDeviation=".15"/><feComposite in2="hardAlpha" k2="-1" k3="1" operator="arithmetic"/><feColorMatrix values="0 0 0 0 0.321569 0 0 0 0 0.517647 0 0 0 0 0.494118 0 0 0 1 0"/><feBlend in2="shape" result="effect1_innerShadow_2_2133"/></filter><filter id="an" width="3.027" height="4.175" x="14.357" y="13.153" color-interpolation-filters="sRGB" filterUnits="userSpaceOnUse"><feFlood flood-opacity="0" result="BackgroundImageFix"/><feBlend in="SourceGraphic" in2="BackgroundImageFix" result="shape"/><feGaussianBlur result="effect1_foregroundBlur_2_2133" stdDeviation=".2"/></filter><filter id="au" width="7.281" height="6.172" x="15.953" y="4.491" color-interpolation-filters="sRGB" filterUnits="userSpaceOnUse"><feFlood flood-opacity="0" result="BackgroundImageFix"/><feBlend in="SourceGraphic" in2="BackgroundImageFix" result="shape"/><feGaussianBlur result="effect1_foregroundBlur_2_2133" stdDeviation=".15"/></filter></defs></svg>