<svg width="100%" height="100%" viewBox="0 0 32 32" xmlns="http://www.w3.org/2000/svg"><path fill="url(#a)" d="M27.962 25.995V6.35c0-1.437-1.336-2.14-2.43-1.125L21.518 9.18a1 1 0 0 1-.701.287H11.22a1 1 0 0 1-.701-.287L6.505 5.226c-1.094-1.015-2.43-.312-2.43 1.125v19.644c0 2.212 1.76 4.005 3.931 4.005h16.025c2.17 0 3.93-1.793 3.93-4.005"/><path fill="url(#b)" d="M27.962 25.995V6.35c0-1.437-1.336-2.14-2.43-1.125L21.518 9.18a1 1 0 0 1-.701.287H11.22a1 1 0 0 1-.701-.287L6.505 5.226c-1.094-1.015-2.43-.312-2.43 1.125v19.644c0 2.212 1.76 4.005 3.931 4.005h16.025c2.17 0 3.93-1.793 3.93-4.005"/><path fill="url(#c)" d="M27.962 25.995V6.35c0-1.437-1.336-2.14-2.43-1.125L21.518 9.18a1 1 0 0 1-.701.287H11.22a1 1 0 0 1-.701-.287L6.505 5.226c-1.094-1.015-2.43-.312-2.43 1.125v19.644c0 2.212 1.76 4.005 3.931 4.005h16.025c2.17 0 3.93-1.793 3.93-4.005"/><path fill="url(#d)" d="M27.962 25.995V6.35c0-1.437-1.336-2.14-2.43-1.125L21.518 9.18a1 1 0 0 1-.701.287H11.22a1 1 0 0 1-.701-.287L6.505 5.226c-1.094-1.015-2.43-.312-2.43 1.125v19.644c0 2.212 1.76 4.005 3.931 4.005h16.025c2.17 0 3.93-1.793 3.93-4.005"/><path fill="url(#e)" d="M27.962 25.995V6.35c0-1.437-1.336-2.14-2.43-1.125L21.518 9.18a1 1 0 0 1-.701.287H11.22a1 1 0 0 1-.701-.287L6.505 5.226c-1.094-1.015-2.43-.312-2.43 1.125v19.644c0 2.212 1.76 4.005 3.931 4.005h16.025c2.17 0 3.93-1.793 3.93-4.005"/><path fill="url(#f)" d="M27.962 25.995V6.35c0-1.437-1.336-2.14-2.43-1.125L21.518 9.18a1 1 0 0 1-.701.287H11.22a1 1 0 0 1-.701-.287L6.505 5.226c-1.094-1.015-2.43-.312-2.43 1.125v19.644c0 2.212 1.76 4.005 3.931 4.005h16.025c2.17 0 3.93-1.793 3.93-4.005"/><g filter="url(#g)"><rect width="2.727" height="3.698" x="5.054" y="21.75" fill="#D67908" rx="1.363"/></g><g filter="url(#h)"><path fill="url(#i)" d="M20.586 10.165c-2.984.108 5.226 4.954 5.226 4.954l1.125-9.063c.055-.46-.364-.953-1.25-.13l-4.014 3.952c-.187.184-.408.248-.701.287-.15.02-.236-.005-.387 0"/></g><path fill="url(#j)" d="m6.133 13.433 2.8-2.6c.32-.3.32-.78 0-1.07L5.918 7.086c-.383-.336-1.175-.227-1.175.607v5.2c0 .834.88 1.02 1.39.54"/><g filter="url(#k)"><path fill="url(#l)" d="M26.49 5.582a.38.38 0 0 1 .732.142v2.245l-1.417-.688z"/></g><g filter="url(#m)"><path stroke="#FFDF70" stroke-linecap="round" d="m5.406 6.063 3.375 3.219c.754.72.768 1.918.031 2.656v0"/></g><g filter="url(#n)"><path fill="url(#o)" d="m14.805 19.563.065-.015c.473-.11.966-.106 1.438.015.52.098.832.695.392 1.125l-.55.602c-.27.27-.864.27-1.134 0l-.543-.602c-.449-.508-.168-1.015.332-1.125"/></g><path fill="url(#p)" d="m15.227 19.119.064-.015c.473-.11.967-.105 1.438.015.521.098.832.695.392 1.125l-.55.602c-.27.27-.864.27-1.134 0l-.542-.602c-.45-.507-.168-1.015.332-1.125"/><g filter="url(#q)"><ellipse cx="16.27" cy="19.654" fill="url(#r)" rx=".762" ry=".274"/></g><g filter="url(#s)"><path stroke="url(#t)" stroke-linecap="round" stroke-miterlimit="10" stroke-width="1.2" d="m24.785 22.822 3.805-1.813"/></g><g filter="url(#u)"><path stroke="url(#v)" stroke-linecap="round" stroke-miterlimit="10" stroke-width="1.2" d="m24.785 24.853 1.927 1.366"/></g><path stroke="url(#w)" stroke-linecap="round" stroke-miterlimit="10" stroke-width="1.2" d="m25.566 22.469 3.805-1.813"/><g filter="url(#x)"><path stroke="#FF8485" stroke-linecap="round" stroke-miterlimit="10" stroke-width=".3" d="m25.566 22.64 3.805-1.812"/></g><path stroke="url(#y)" stroke-linecap="round" stroke-miterlimit="10" stroke-width="1.2" d="m25.564 24.599 3.801 1.819"/><g filter="url(#z)"><path stroke="#FF8485" stroke-linecap="round" stroke-miterlimit="10" stroke-width=".3" d="m25.498 24.479 3.802 1.819"/></g><path stroke="url(#A)" stroke-linecap="round" stroke-miterlimit="10" stroke-width="1.2" d="m6.528 24.61-3.801 1.82"/><g filter="url(#B)"><path stroke="#FF8485" stroke-linecap="round" stroke-miterlimit="10" stroke-width=".3" d="m6.593 24.49-3.801 1.82"/></g><g filter="url(#C)"><ellipse fill="#FFDD86" rx=".184" ry=".166" transform="scale(-1 1)rotate(-19.477 67.863 31.58)"/></g><path stroke="url(#D)" stroke-linecap="round" stroke-miterlimit="10" stroke-width="1.2" d="M6.54 22.454 2.726 20.66"/><g filter="url(#E)"><path stroke="#FF8485" stroke-linecap="round" stroke-miterlimit="10" stroke-width=".3" d="M6.674 22.428 2.86 20.635"/></g><g filter="url(#F)"><ellipse fill="#FFDD86" rx=".184" ry=".166" transform="scale(-1 1)rotate(-70.238 12.573 16.016)"/></g><g filter="url(#G)"><path fill="url(#H)" d="M22.102 10.031h4.585v14.186h-4.585z"/></g><path fill="#FFB915" d="m25.833 13.433-2.8-2.6a.716.716 0 0 1 0-1.07l3.015-2.677c.382-.336 1.175-.227 1.175.607v5.2c0 .834-.88 1.02-1.39.54"/><path fill="url(#I)" d="m25.833 13.433-2.8-2.6a.716.716 0 0 1 0-1.07l3.015-2.677c.382-.336 1.175-.227 1.175.607v5.2c0 .834-.88 1.02-1.39.54"/><g filter="url(#J)"><path fill="url(#K)" d="m26.634 7.297-3.625 3.125 3.546 2.812z"/></g><g filter="url(#L)"><path stroke="url(#M)" stroke-linecap="round" stroke-width=".5" d="m23.727 10.219 2.532 2.734"/></g><g filter="url(#N)"><path fill="#FEB33E" d="M5.223 7.429v5.908l3.469-3.09z"/></g><g filter="url(#O)"><path stroke="#FFE7A3" stroke-linecap="round" stroke-width=".15" d="M5.223 7.656v5.188"/></g><g filter="url(#P)"><circle cx="22.308" cy="24.985" r="3.191" fill="url(#Q)"/></g><path fill="url(#R)" d="M20.988 23.797a3.984 3.984 0 1 1 7.969 0V30h-7.969z"/><path fill="url(#S)" d="M20.988 23.797a3.984 3.984 0 1 1 7.969 0V30h-7.969z"/><path fill="url(#T)" d="M20.988 23.797a3.984 3.984 0 1 1 7.969 0V30h-7.969z"/><g filter="url(#U)"><path fill="#DA7600" fill-opacity=".5" d="M26.05 20.34a.2.2 0 1 1 .399 0v2.719a.2.2 0 0 1-.399 0z"/></g><g filter="url(#V)"><path fill="#DA7600" fill-opacity=".75" d="M22.973 20.344a.203.203 0 0 1 .406 0v2.61a.203.203 0 0 1-.406 0z"/></g><g filter="url(#W)"><ellipse cx="27.122" cy="22.258" fill="#FDD659" rx=".846" ry="1.357" transform="rotate(-27.209 27.122 22.258)"/></g><path fill="url(#X)" d="M23.113 20.055a.336.336 0 1 1 .672 0v2.765a.336.336 0 1 1-.672 0z"/><path fill="url(#Y)" d="M23.113 20.055a.336.336 0 1 1 .672 0v2.765a.336.336 0 1 1-.672 0z"/><path fill="url(#Z)" d="M23.113 20.055a.336.336 0 1 1 .672 0v2.765a.336.336 0 1 1-.672 0z"/><path fill="url(#aa)" d="M26.16 20.055a.336.336 0 1 1 .672 0v2.765a.336.336 0 1 1-.672 0z"/><path fill="url(#ab)" d="M26.16 20.055a.336.336 0 1 1 .672 0v2.765a.336.336 0 1 1-.672 0z"/><path fill="url(#ac)" d="M26.16 20.055a.336.336 0 1 1 .672 0v2.765a.336.336 0 1 1-.672 0z"/><g filter="url(#ad)"><path stroke="url(#ae)" stroke-linecap="round" stroke-width=".2" d="M26.668 22.68v-2.211"/></g><g filter="url(#af)"><path stroke="url(#ag)" stroke-linecap="round" stroke-width=".2" d="M23.621 22.68v-2.211"/></g><g filter="url(#ah)"><path stroke="url(#ai)" stroke-linecap="round" stroke-width=".2" d="M23.621 22.68v-2.211"/></g><g filter="url(#aj)"><circle cx="11.082" cy="15.977" r="3.492" fill="url(#ak)"/></g><g filter="url(#al)"><circle cx="20.09" cy="16.09" r="3.289" fill="url(#am)"/></g><circle cx="20.484" cy="15.578" r="3.492" fill="#fff"/><circle cx="11.516" cy="15.578" r="3.492" fill="#fff"/><rect width="4.344" height="5.453" x="13.828" y="21.836" fill="url(#an)" rx="2.172"/><path fill="url(#ao)" d="M3.043 23.797a3.984 3.984 0 1 1 7.969 0V30H3.043z"/><path fill="url(#ap)" d="M3.043 23.797a3.984 3.984 0 1 1 7.969 0V30H3.043z"/><path fill="url(#aq)" d="M3.043 23.797a3.984 3.984 0 1 1 7.969 0V30H3.043z"/><g filter="url(#ar)"><ellipse cx="9.176" cy="22.258" fill="#FDD659" rx=".846" ry="1.357" transform="rotate(-27.209 9.176 22.258)"/></g><g filter="url(#as)"><path fill="#DA7600" fill-opacity=".5" d="M8.215 20.344a.203.203 0 0 1 .406 0v2.61a.203.203 0 0 1-.406 0z"/></g><g filter="url(#at)"><path fill="#DA7600" fill-opacity=".75" d="M5.098 20.344a.203.203 0 0 1 .406 0v2.61a.203.203 0 1 1-.406 0z"/></g><path fill="url(#au)" d="M5.168 20.055a.336.336 0 1 1 .672 0v2.765a.336.336 0 1 1-.672 0z"/><path fill="url(#av)" d="M5.168 20.055a.336.336 0 1 1 .672 0v2.765a.336.336 0 1 1-.672 0z"/><path fill="url(#aw)" d="M5.168 20.055a.336.336 0 1 1 .672 0v2.765a.336.336 0 1 1-.672 0z"/><path fill="url(#ax)" d="M8.215 20.055a.336.336 0 1 1 .672 0v2.765a.336.336 0 1 1-.672 0z"/><path fill="url(#ay)" d="M8.215 20.055a.336.336 0 1 1 .672 0v2.765a.336.336 0 1 1-.672 0z"/><path fill="url(#az)" d="M8.215 20.055a.336.336 0 1 1 .672 0v2.765a.336.336 0 1 1-.672 0z"/><g filter="url(#aA)"><path stroke="url(#aB)" stroke-linecap="round" stroke-width=".2" d="M8.723 22.68v-2.211"/></g><g filter="url(#aC)"><path stroke="url(#aD)" stroke-linecap="round" stroke-width=".2" d="M5.676 22.68v-2.211"/></g><defs><linearGradient id="a" x1="7.964" x2="7.964" y1="1.06" y2="31" gradientUnits="userSpaceOnUse"><stop offset=".288" stop-color="#F2CC26"/><stop offset=".762" stop-color="#E99E20"/><stop offset=".993" stop-color="#E3821D"/><stop offset="1" stop-color="#E3801D"/></linearGradient><linearGradient id="b" x1="8.884" x2="1.259" y1="11.851" y2="11.851" gradientUnits="userSpaceOnUse"><stop stop-color="#E99E20" stop-opacity="0"/><stop offset=".993" stop-color="#E3821D"/><stop offset="1" stop-color="#E3801D"/></linearGradient><linearGradient id="c" x1="26.759" x2="30.196" y1="11.851" y2="11.851" gradientUnits="userSpaceOnUse"><stop stop-color="#E99E20" stop-opacity="0"/><stop offset=".993" stop-color="#E3821D"/><stop offset="1" stop-color="#E3801D"/></linearGradient><linearGradient id="d" x1="16.02" x2="16.019" y1="-1.914" y2="30.523" gradientUnits="userSpaceOnUse"><stop offset=".771" stop-color="#F59639" stop-opacity="0"/><stop offset="1" stop-color="#FF63C4"/></linearGradient><linearGradient id="e" x1="16.019" x2="16.019" y1="11.062" y2="32.336" gradientUnits="userSpaceOnUse"><stop offset=".854" stop-color="#fff" stop-opacity="0"/><stop offset=".985" stop-color="#fff"/></linearGradient><linearGradient id="i" x1="23.437" x2="28" y1="8.964" y2="13.66" gradientUnits="userSpaceOnUse"><stop stop-color="#FFA720"/><stop offset="1" stop-color="#FFA720" stop-opacity="0"/></linearGradient><linearGradient id="j" x1="10.602" x2="4.743" y1="10.547" y2="10" gradientUnits="userSpaceOnUse"><stop offset=".437" stop-color="#ED8C1B"/><stop offset="1" stop-color="#FFB03A"/></linearGradient><linearGradient id="l" x1="27.04" x2="26.444" y1="4.891" y2="7.232" gradientUnits="userSpaceOnUse"><stop offset=".286" stop-color="#FFE792"/><stop offset="1" stop-color="#FFDD65" stop-opacity="0"/></linearGradient><linearGradient id="o" x1="15.751" x2="15.079" y1="21.264" y2="22.357" gradientUnits="userSpaceOnUse"><stop stop-color="#E3900E"/><stop offset="1" stop-color="#EA9D26" stop-opacity="0"/></linearGradient><linearGradient id="r" x1="17.204" x2="15.68" y1="19.654" y2="19.654" gradientUnits="userSpaceOnUse"><stop stop-color="#fff" stop-opacity=".9"/><stop offset="1" stop-color="#fff" stop-opacity="0"/></linearGradient><linearGradient id="t" x1="24.29" x2="28.024" y1="23.166" y2="21.25" gradientUnits="userSpaceOnUse"><stop stop-color="#E88105"/><stop offset="1" stop-color="#E37D02" stop-opacity="0"/></linearGradient><linearGradient id="v" x1="24.29" x2="28.024" y1="24.509" y2="26.425" gradientUnits="userSpaceOnUse"><stop offset=".286" stop-color="#DE7D07"/><stop offset=".818" stop-color="#E37D02" stop-opacity="0"/></linearGradient><linearGradient id="w" x1="25.29" x2="29.527" y1="22.875" y2="20.742" gradientUnits="userSpaceOnUse"><stop offset=".751" stop-color="#D64A38"/><stop offset="1" stop-color="#FB7425"/></linearGradient><linearGradient id="y" x1="25.074" x2="29.824" y1="24.639" y2="26.977" gradientUnits="userSpaceOnUse"><stop offset=".792" stop-color="#D64A38"/><stop offset="1" stop-color="#FB7425"/></linearGradient><linearGradient id="A" x1="7.018" x2="2.027" y1="24.651" y2="27.148" gradientUnits="userSpaceOnUse"><stop offset=".752" stop-color="#D64A38"/><stop offset="1" stop-color="#FB7425"/></linearGradient><linearGradient id="D" x1="6.818" x2="2.728" y1="22.859" y2="20.942" gradientUnits="userSpaceOnUse"><stop offset=".665" stop-color="#D64A38"/><stop offset="1" stop-color="#FB7425"/></linearGradient><linearGradient id="H" x1="23.352" x2="22.956" y1="10.768" y2="22.819" gradientUnits="userSpaceOnUse"><stop offset=".548" stop-color="#FFDD65"/><stop offset="1" stop-color="#FFDD65" stop-opacity="0"/></linearGradient><linearGradient id="I" x1="26.54" x2="25.29" y1="15.438" y2="11.969" gradientUnits="userSpaceOnUse"><stop stop-color="#EF8A47"/><stop offset="1" stop-color="#EF8A47" stop-opacity="0"/></linearGradient><linearGradient id="M" x1="25.055" x2="25.055" y1="10.406" y2="12.75" gradientUnits="userSpaceOnUse"><stop offset=".432" stop-color="#FFE7A3"/><stop offset="1" stop-color="#FFDF83" stop-opacity="0"/></linearGradient><linearGradient id="Q" x1="22.308" x2="15.205" y1="26.938" y2="30.458" gradientUnits="userSpaceOnUse"><stop stop-color="#DA7600"/><stop offset="1" stop-color="#DA8400" stop-opacity="0"/></linearGradient><linearGradient id="R" x1="28.957" x2="20.988" y1="30.403" y2="30.403" gradientUnits="userSpaceOnUse"><stop offset=".161" stop-color="#F2CC26"/><stop offset=".642" stop-color="#E99E20"/><stop offset=".993" stop-color="#E3821D"/><stop offset="1" stop-color="#E3801D"/></linearGradient><linearGradient id="S" x1="28.957" x2="20.988" y1="30.403" y2="30.563" gradientUnits="userSpaceOnUse"><stop offset=".866" stop-color="#E3821D" stop-opacity="0"/><stop offset="1" stop-color="#D37516"/></linearGradient><linearGradient id="T" x1="26.621" x2="34.809" y1="30.403" y2="30.403" gradientUnits="userSpaceOnUse"><stop stop-color="#E99E20" stop-opacity="0"/><stop offset="1" stop-color="#E99E20"/></linearGradient><linearGradient id="X" x1="23.785" x2="22.824" y1="22" y2="22" gradientUnits="userSpaceOnUse"><stop stop-color="#FFB445"/><stop offset="1" stop-color="#E9A239" stop-opacity=".922"/></linearGradient><linearGradient id="Y" x1="22.34" x2="23.621" y1="22.109" y2="22.031" gradientUnits="userSpaceOnUse"><stop offset=".367" stop-color="#D6850E"/><stop offset="1" stop-color="#CC861F" stop-opacity="0"/></linearGradient><linearGradient id="Z" x1="23.449" x2="23.449" y1="24.219" y2="22.648" gradientUnits="userSpaceOnUse"><stop stop-color="#FF91B9"/><stop offset="1" stop-color="#FD679E" stop-opacity="0"/></linearGradient><linearGradient id="aa" x1="26.832" x2="25.871" y1="22" y2="22" gradientUnits="userSpaceOnUse"><stop stop-color="#FFB445"/><stop offset="1" stop-color="#E9A239" stop-opacity=".922"/></linearGradient><linearGradient id="ab" x1="25.433" x2="26.371" y1="22.047" y2="22.047" gradientUnits="userSpaceOnUse"><stop offset=".367" stop-color="#D6850E"/><stop offset="1" stop-color="#CC861F" stop-opacity="0"/></linearGradient><linearGradient id="ac" x1="26.496" x2="26.496" y1="24.219" y2="22.648" gradientUnits="userSpaceOnUse"><stop stop-color="#FF91B9"/><stop offset="1" stop-color="#FD679E" stop-opacity="0"/></linearGradient><linearGradient id="ae" x1="27.082" x2="26.541" y1="23.305" y2="18.998" gradientUnits="userSpaceOnUse"><stop stop-color="#FFC270"/><stop offset=".77" stop-color="#FFE2BB" stop-opacity="0"/></linearGradient><linearGradient id="ag" x1="24.035" x2="23.494" y1="23.305" y2="18.998" gradientUnits="userSpaceOnUse"><stop stop-color="#FFC270"/><stop offset=".77" stop-color="#FFE2BB" stop-opacity="0"/></linearGradient><linearGradient id="ai" x1="24.035" x2="23.494" y1="23.305" y2="18.998" gradientUnits="userSpaceOnUse"><stop stop-color="#FFC270"/><stop offset=".77" stop-color="#FFE2BB" stop-opacity="0"/></linearGradient><linearGradient id="ak" x1="16.742" x2="18.069" y1="17.596" y2="26.301" gradientUnits="userSpaceOnUse"><stop stop-color="#CF8209"/><stop offset="1" stop-color="#C88216" stop-opacity="0"/></linearGradient><linearGradient id="am" x1="25.421" x2="26.67" y1="17.616" y2="25.814" gradientUnits="userSpaceOnUse"><stop stop-color="#CF8209"/><stop offset="1" stop-color="#C88216" stop-opacity="0"/></linearGradient><linearGradient id="ao" x1="11.012" x2="3.043" y1="30.403" y2="30.403" gradientUnits="userSpaceOnUse"><stop offset=".161" stop-color="#F2CC26"/><stop offset=".642" stop-color="#E99E20"/><stop offset=".993" stop-color="#E3821D"/><stop offset="1" stop-color="#E3801D"/></linearGradient><linearGradient id="ap" x1="11.012" x2="3.043" y1="30.403" y2="30.563" gradientUnits="userSpaceOnUse"><stop offset=".866" stop-color="#E3821D" stop-opacity="0"/><stop offset="1" stop-color="#D37516"/></linearGradient><linearGradient id="aq" x1="8.676" x2="16.863" y1="30.403" y2="30.403" gradientUnits="userSpaceOnUse"><stop stop-color="#E99E20" stop-opacity="0"/><stop offset="1" stop-color="#E99E20"/></linearGradient><linearGradient id="au" x1="5.84" x2="4.879" y1="22" y2="22" gradientUnits="userSpaceOnUse"><stop stop-color="#FFB445"/><stop offset="1" stop-color="#E9A239" stop-opacity=".922"/></linearGradient><linearGradient id="av" x1="4.394" x2="5.676" y1="22.109" y2="22.031" gradientUnits="userSpaceOnUse"><stop offset=".367" stop-color="#D6850E"/><stop offset="1" stop-color="#CC861F" stop-opacity="0"/></linearGradient><linearGradient id="aw" x1="5.504" x2="5.504" y1="24.219" y2="22.648" gradientUnits="userSpaceOnUse"><stop stop-color="#FF91B9"/><stop offset="1" stop-color="#FD679E" stop-opacity="0"/></linearGradient><linearGradient id="ax" x1="8.887" x2="7.926" y1="22" y2="22" gradientUnits="userSpaceOnUse"><stop stop-color="#FFB445"/><stop offset="1" stop-color="#E9A239" stop-opacity=".922"/></linearGradient><linearGradient id="ay" x1="7.488" x2="8.426" y1="22.047" y2="22.047" gradientUnits="userSpaceOnUse"><stop offset=".367" stop-color="#D6850E"/><stop offset="1" stop-color="#CC861F" stop-opacity="0"/></linearGradient><linearGradient id="az" x1="8.551" x2="8.551" y1="24.219" y2="22.648" gradientUnits="userSpaceOnUse"><stop stop-color="#FF91B9"/><stop offset="1" stop-color="#FD679E" stop-opacity="0"/></linearGradient><linearGradient id="aB" x1="9.137" x2="8.595" y1="23.305" y2="18.998" gradientUnits="userSpaceOnUse"><stop stop-color="#FFC270"/><stop offset=".77" stop-color="#FFE2BB" stop-opacity="0"/></linearGradient><linearGradient id="aD" x1="6.09" x2="5.548" y1="23.305" y2="18.998" gradientUnits="userSpaceOnUse"><stop stop-color="#FFC270"/><stop offset=".77" stop-color="#FFE2BB" stop-opacity="0"/></linearGradient><filter id="g" width="5.727" height="6.698" x="3.554" y="20.25" color-interpolation-filters="sRGB" filterUnits="userSpaceOnUse"><feFlood flood-opacity="0" result="BackgroundImageFix"/><feBlend in="SourceGraphic" in2="BackgroundImageFix" result="shape"/><feGaussianBlur result="effect1_foregroundBlur_6903_5272" stdDeviation=".75"/></filter><filter id="h" width="9.009" height="11.636" x="18.933" y="4.483" color-interpolation-filters="sRGB" filterUnits="userSpaceOnUse"><feFlood flood-opacity="0" result="BackgroundImageFix"/><feBlend in="SourceGraphic" in2="BackgroundImageFix" result="shape"/><feGaussianBlur result="effect1_foregroundBlur_6903_5272" stdDeviation=".5"/></filter><filter id="k" width="3.417" height="4.625" x="24.805" y="4.344" color-interpolation-filters="sRGB" filterUnits="userSpaceOnUse"><feFlood flood-opacity="0" result="BackgroundImageFix"/><feBlend in="SourceGraphic" in2="BackgroundImageFix" result="shape"/><feGaussianBlur result="effect1_foregroundBlur_6903_5272" stdDeviation=".5"/></filter><filter id="m" width="8.95" height="10.729" x="2.906" y="3.563" color-interpolation-filters="sRGB" filterUnits="userSpaceOnUse"><feFlood flood-opacity="0" result="BackgroundImageFix"/><feBlend in="SourceGraphic" in2="BackgroundImageFix" result="shape"/><feGaussianBlur result="effect1_foregroundBlur_6903_5272" stdDeviation="1"/></filter><filter id="n" width="3.661" height="3.024" x="13.748" y="18.968" color-interpolation-filters="sRGB" filterUnits="userSpaceOnUse"><feFlood flood-opacity="0" result="BackgroundImageFix"/><feBlend in="SourceGraphic" in2="BackgroundImageFix" result="shape"/><feGaussianBlur result="effect1_foregroundBlur_6903_5272" stdDeviation=".25"/></filter><filter id="q" width="2.723" height="1.748" x="14.909" y="18.779" color-interpolation-filters="sRGB" filterUnits="userSpaceOnUse"><feFlood flood-opacity="0" result="BackgroundImageFix"/><feBlend in="SourceGraphic" in2="BackgroundImageFix" result="shape"/><feGaussianBlur result="effect1_foregroundBlur_6903_5272" stdDeviation=".3"/></filter><filter id="s" width="6.005" height="4.013" x="23.685" y="19.909" color-interpolation-filters="sRGB" filterUnits="userSpaceOnUse"><feFlood flood-opacity="0" result="BackgroundImageFix"/><feBlend in="SourceGraphic" in2="BackgroundImageFix" result="shape"/><feGaussianBlur result="effect1_foregroundBlur_6903_5272" stdDeviation=".25"/></filter><filter id="u" width="4.127" height="3.566" x="23.685" y="23.753" color-interpolation-filters="sRGB" filterUnits="userSpaceOnUse"><feFlood flood-opacity="0" result="BackgroundImageFix"/><feBlend in="SourceGraphic" in2="BackgroundImageFix" result="shape"/><feGaussianBlur result="effect1_foregroundBlur_6903_5272" stdDeviation=".25"/></filter><filter id="x" width="5.105" height="3.113" x="24.916" y="20.178" color-interpolation-filters="sRGB" filterUnits="userSpaceOnUse"><feFlood flood-opacity="0" result="BackgroundImageFix"/><feBlend in="SourceGraphic" in2="BackgroundImageFix" result="shape"/><feGaussianBlur result="effect1_foregroundBlur_6903_5272" stdDeviation=".25"/></filter><filter id="z" width="5.102" height="3.119" x="24.848" y="23.829" color-interpolation-filters="sRGB" filterUnits="userSpaceOnUse"><feFlood flood-opacity="0" result="BackgroundImageFix"/><feBlend in="SourceGraphic" in2="BackgroundImageFix" result="shape"/><feGaussianBlur result="effect1_foregroundBlur_6903_5272" stdDeviation=".25"/></filter><filter id="B" width="5.102" height="3.119" x="2.142" y="23.84" color-interpolation-filters="sRGB" filterUnits="userSpaceOnUse"><feFlood flood-opacity="0" result="BackgroundImageFix"/><feBlend in="SourceGraphic" in2="BackgroundImageFix" result="shape"/><feGaussianBlur result="effect1_foregroundBlur_6903_5272" stdDeviation=".25"/></filter><filter id="C" width="1.364" height="1.336" x="5.964" y="23.767" color-interpolation-filters="sRGB" filterUnits="userSpaceOnUse"><feFlood flood-opacity="0" result="BackgroundImageFix"/><feBlend in="SourceGraphic" in2="BackgroundImageFix" result="shape"/><feGaussianBlur result="effect1_foregroundBlur_6903_5272" stdDeviation=".25"/></filter><filter id="E" width="5.114" height="3.094" x="2.21" y="19.985" color-interpolation-filters="sRGB" filterUnits="userSpaceOnUse"><feFlood flood-opacity="0" result="BackgroundImageFix"/><feBlend in="SourceGraphic" in2="BackgroundImageFix" result="shape"/><feGaussianBlur result="effect1_foregroundBlur_6903_5272" stdDeviation=".25"/></filter><filter id="F" width="1.336" height="1.364" x="6.083" y="21.752" color-interpolation-filters="sRGB" filterUnits="userSpaceOnUse"><feFlood flood-opacity="0" result="BackgroundImageFix"/><feBlend in="SourceGraphic" in2="BackgroundImageFix" result="shape"/><feGaussianBlur result="effect1_foregroundBlur_6903_5272" stdDeviation=".25"/></filter><filter id="G" width="12.585" height="22.186" x="18.102" y="6.031" color-interpolation-filters="sRGB" filterUnits="userSpaceOnUse"><feFlood flood-opacity="0" result="BackgroundImageFix"/><feBlend in="SourceGraphic" in2="BackgroundImageFix" result="shape"/><feGaussianBlur result="effect1_foregroundBlur_6903_5272" stdDeviation="2"/></filter><filter id="J" width="4.825" height="7.138" x="22.409" y="6.697" color-interpolation-filters="sRGB" filterUnits="userSpaceOnUse"><feFlood flood-opacity="0" result="BackgroundImageFix"/><feBlend in="SourceGraphic" in2="BackgroundImageFix" result="shape"/><feGaussianBlur result="effect1_foregroundBlur_6903_5272" stdDeviation=".3"/></filter><filter id="L" width="4.531" height="4.734" x="22.727" y="9.219" color-interpolation-filters="sRGB" filterUnits="userSpaceOnUse"><feFlood flood-opacity="0" result="BackgroundImageFix"/><feBlend in="SourceGraphic" in2="BackgroundImageFix" result="shape"/><feGaussianBlur result="effect1_foregroundBlur_6903_5272" stdDeviation=".375"/></filter><filter id="N" width="4.469" height="6.908" x="4.723" y="6.929" color-interpolation-filters="sRGB" filterUnits="userSpaceOnUse"><feFlood flood-opacity="0" result="BackgroundImageFix"/><feBlend in="SourceGraphic" in2="BackgroundImageFix" result="shape"/><feGaussianBlur result="effect1_foregroundBlur_6903_5272" stdDeviation=".25"/></filter><filter id="O" width="1.15" height="6.337" x="4.648" y="7.081" color-interpolation-filters="sRGB" filterUnits="userSpaceOnUse"><feFlood flood-opacity="0" result="BackgroundImageFix"/><feBlend in="SourceGraphic" in2="BackgroundImageFix" result="shape"/><feGaussianBlur result="effect1_foregroundBlur_6903_5272" stdDeviation=".25"/></filter><filter id="P" width="10.382" height="10.382" x="17.117" y="19.794" color-interpolation-filters="sRGB" filterUnits="userSpaceOnUse"><feFlood flood-opacity="0" result="BackgroundImageFix"/><feBlend in="SourceGraphic" in2="BackgroundImageFix" result="shape"/><feGaussianBlur result="effect1_foregroundBlur_6903_5272" stdDeviation="1"/></filter><filter id="U" width="1.399" height="4.117" x="25.551" y="19.641" color-interpolation-filters="sRGB" filterUnits="userSpaceOnUse"><feFlood flood-opacity="0" result="BackgroundImageFix"/><feBlend in="SourceGraphic" in2="BackgroundImageFix" result="shape"/><feGaussianBlur result="effect1_foregroundBlur_6903_5272" stdDeviation=".25"/></filter><filter id="V" width="1.406" height="4.016" x="22.473" y="19.641" color-interpolation-filters="sRGB" filterUnits="userSpaceOnUse"><feFlood flood-opacity="0" result="BackgroundImageFix"/><feBlend in="SourceGraphic" in2="BackgroundImageFix" result="shape"/><feGaussianBlur result="effect1_foregroundBlur_6903_5272" stdDeviation=".25"/></filter><filter id="W" width="4.951" height="5.536" x="24.646" y="19.49" color-interpolation-filters="sRGB" filterUnits="userSpaceOnUse"><feFlood flood-opacity="0" result="BackgroundImageFix"/><feBlend in="SourceGraphic" in2="BackgroundImageFix" result="shape"/><feGaussianBlur result="effect1_foregroundBlur_6903_5272" stdDeviation=".75"/></filter><filter id="ad" width=".6" height="2.811" x="26.368" y="20.169" color-interpolation-filters="sRGB" filterUnits="userSpaceOnUse"><feFlood flood-opacity="0" result="BackgroundImageFix"/><feBlend in="SourceGraphic" in2="BackgroundImageFix" result="shape"/><feGaussianBlur result="effect1_foregroundBlur_6903_5272" stdDeviation=".1"/></filter><filter id="af" width=".6" height="2.811" x="23.321" y="20.169" color-interpolation-filters="sRGB" filterUnits="userSpaceOnUse"><feFlood flood-opacity="0" result="BackgroundImageFix"/><feBlend in="SourceGraphic" in2="BackgroundImageFix" result="shape"/><feGaussianBlur result="effect1_foregroundBlur_6903_5272" stdDeviation=".1"/></filter><filter id="ah" width=".6" height="2.811" x="23.321" y="20.169" color-interpolation-filters="sRGB" filterUnits="userSpaceOnUse"><feFlood flood-opacity="0" result="BackgroundImageFix"/><feBlend in="SourceGraphic" in2="BackgroundImageFix" result="shape"/><feGaussianBlur result="effect1_foregroundBlur_6903_5272" stdDeviation=".1"/></filter><filter id="aj" width="8.984" height="8.984" x="6.59" y="11.484" color-interpolation-filters="sRGB" filterUnits="userSpaceOnUse"><feFlood flood-opacity="0" result="BackgroundImageFix"/><feBlend in="SourceGraphic" in2="BackgroundImageFix" result="shape"/><feGaussianBlur result="effect1_foregroundBlur_6903_5272" stdDeviation=".5"/></filter><filter id="al" width="8.578" height="8.578" x="15.801" y="11.801" color-interpolation-filters="sRGB" filterUnits="userSpaceOnUse"><feFlood flood-opacity="0" result="BackgroundImageFix"/><feBlend in="SourceGraphic" in2="BackgroundImageFix" result="shape"/><feGaussianBlur result="effect1_foregroundBlur_6903_5272" stdDeviation=".5"/></filter><filter id="ar" width="4.951" height="5.536" x="6.701" y="19.49" color-interpolation-filters="sRGB" filterUnits="userSpaceOnUse"><feFlood flood-opacity="0" result="BackgroundImageFix"/><feBlend in="SourceGraphic" in2="BackgroundImageFix" result="shape"/><feGaussianBlur result="effect1_foregroundBlur_6903_5272" stdDeviation=".75"/></filter><filter id="as" width="1.406" height="4.016" x="7.715" y="19.641" color-interpolation-filters="sRGB" filterUnits="userSpaceOnUse"><feFlood flood-opacity="0" result="BackgroundImageFix"/><feBlend in="SourceGraphic" in2="BackgroundImageFix" result="shape"/><feGaussianBlur result="effect1_foregroundBlur_6903_5272" stdDeviation=".25"/></filter><filter id="at" width="1.406" height="4.016" x="4.598" y="19.641" color-interpolation-filters="sRGB" filterUnits="userSpaceOnUse"><feFlood flood-opacity="0" result="BackgroundImageFix"/><feBlend in="SourceGraphic" in2="BackgroundImageFix" result="shape"/><feGaussianBlur result="effect1_foregroundBlur_6903_5272" stdDeviation=".25"/></filter><filter id="aA" width=".6" height="2.811" x="8.423" y="20.169" color-interpolation-filters="sRGB" filterUnits="userSpaceOnUse"><feFlood flood-opacity="0" result="BackgroundImageFix"/><feBlend in="SourceGraphic" in2="BackgroundImageFix" result="shape"/><feGaussianBlur result="effect1_foregroundBlur_6903_5272" stdDeviation=".1"/></filter><filter id="aC" width=".6" height="2.811" x="5.376" y="20.169" color-interpolation-filters="sRGB" filterUnits="userSpaceOnUse"><feFlood flood-opacity="0" result="BackgroundImageFix"/><feBlend in="SourceGraphic" in2="BackgroundImageFix" result="shape"/><feGaussianBlur result="effect1_foregroundBlur_6903_5272" stdDeviation=".1"/></filter><radialGradient id="f" cx="0" cy="0" r="1" gradientTransform="rotate(55.85 7.103 23.018)scale(5.39983 10.6704)" gradientUnits="userSpaceOnUse"><stop stop-color="#FFA720"/><stop offset=".921" stop-color="#FFA720" stop-opacity="0"/></radialGradient><radialGradient id="p" cx="0" cy="0" r="1" gradientTransform="matrix(-1.89063 -.95312 .95876 -1.9018 16.446 20.092)" gradientUnits="userSpaceOnUse"><stop stop-color="#EA088B"/><stop offset="1" stop-color="#E61E27"/></radialGradient><radialGradient id="K" cx="0" cy="0" r="1" gradientTransform="matrix(4.40625 6.46875 -7.7559 5.283 22.868 7.703)" gradientUnits="userSpaceOnUse"><stop stop-color="#FFDF70"/><stop offset="1" stop-color="#FFDF70" stop-opacity="0"/></radialGradient><radialGradient id="an" cx="0" cy="0" r="1" gradientTransform="matrix(0 -5.91493 9.37069 0 16 28.5)" gradientUnits="userSpaceOnUse"><stop stop-color="#F70A8D"/><stop offset="1" stop-color="#89029C"/></radialGradient></defs></svg>