<svg width="100%" height="100%" viewBox="0 0 32 32" xmlns="http://www.w3.org/2000/svg"><rect width="6.844" height="9.938" x="16.939" y="2.031" fill="url(#a)" rx=".9"/><rect width="6.844" height="9.938" x="16.939" y="2.031" fill="url(#b)" rx=".9"/><path fill="url(#c)" d="M16.94 11V3.031h6.01V11z"/><path fill="url(#d)" d="M16.94 11V3.031h6.01V11z"/><path fill="url(#e)" d="M16.94 11V3.031h6.01V11z"/><path fill="url(#f)" d="M16.94 11V3.031h6.01V11z"/><g filter="url(#g)"><path fill="url(#h)" d="M21.328 5.93c0-.526.427-.953.954-.953h.876a.954.954 0 1 1 0 1.908.954.954 0 0 1 .305 1.858.955.955 0 0 1-.305 1.859h-.876a.954.954 0 0 1-.362-1.838.954.954 0 0 1 .233-1.88h.129a.954.954 0 0 1-.954-.953"/></g><path fill="#F6C32F" d="M16.62 7.297a1.32 1.32 0 0 0-1.321 1.336v2.684a2.3 2.3 0 0 0 1.28 2.06c.237.118.401.368.349.628l-.296 1.464h5.364l.375-1.422a.75.75 0 0 1 .44-.502l.703-.244c.442-.132.852-.62.999-1.184l.067-.289-.948.054c-.132-.006-.262.02-.392.046q-.073.015-.147.028a1 1 0 0 1-.15.013H17.88a.9.9 0 0 1-.903-.9v-.89a.25.25 0 0 1 .25-.25h.844c.73 0 1.321-.589 1.321-1.316s-.591-1.316-1.321-1.316z"/><path fill="url(#i)" d="M16.62 7.297a1.32 1.32 0 0 0-1.321 1.336v2.684a2.3 2.3 0 0 0 1.28 2.06c.237.118.401.368.349.628l-.296 1.464h5.364l.375-1.422a.75.75 0 0 1 .44-.502l.703-.244c.442-.132.852-.62.999-1.184l.067-.289-.948.054c-.132-.006-.262.02-.392.046q-.073.015-.147.028a1 1 0 0 1-.15.013H17.88a.9.9 0 0 1-.903-.9v-.89a.25.25 0 0 1 .25-.25h.844c.73 0 1.321-.589 1.321-1.316s-.591-1.316-1.321-1.316z"/><path fill="url(#j)" d="M16.62 7.297a1.32 1.32 0 0 0-1.321 1.336v2.684a2.3 2.3 0 0 0 1.28 2.06c.237.118.401.368.349.628l-.296 1.464h5.364l.375-1.422a.75.75 0 0 1 .44-.502l.703-.244c.442-.132.852-.62.999-1.184l.067-.289-.948.054c-.132-.006-.262.02-.392.046q-.073.015-.147.028a1 1 0 0 1-.15.013H17.88a.9.9 0 0 1-.903-.9v-.89a.25.25 0 0 1 .25-.25h.844c.73 0 1.321-.589 1.321-1.316s-.591-1.316-1.321-1.316z"/><path fill="url(#k)" d="M16.62 7.297a1.32 1.32 0 0 0-1.321 1.336v2.684a2.3 2.3 0 0 0 1.28 2.06c.237.118.401.368.349.628l-.296 1.464h5.364l.375-1.422a.75.75 0 0 1 .44-.502l.703-.244c.442-.132.852-.62.999-1.184l.067-.289-.948.054c-.132-.006-.262.02-.392.046q-.073.015-.147.028a1 1 0 0 1-.15.013H17.88a.9.9 0 0 1-.903-.9v-.89a.25.25 0 0 1 .25-.25h.844c.73 0 1.321-.589 1.321-1.316s-.591-1.316-1.321-1.316z"/><path fill="url(#l)" d="M16.62 7.297a1.32 1.32 0 0 0-1.321 1.336v2.684a2.3 2.3 0 0 0 1.28 2.06c.237.118.401.368.349.628l-.296 1.464h5.364l.375-1.422a.75.75 0 0 1 .44-.502l.703-.244c.442-.132.852-.62.999-1.184l.067-.289-.948.054c-.132-.006-.262.02-.392.046q-.073.015-.147.028a1 1 0 0 1-.15.013H17.88a.9.9 0 0 1-.903-.9v-.89a.25.25 0 0 1 .25-.25h.844c.73 0 1.321-.589 1.321-1.316s-.591-1.316-1.321-1.316z"/><g filter="url(#m)"><path fill="#E83896" d="M16.778 15.063a1.2 1.2 0 0 0-1.129.793l-2.023 5.617a.75.75 0 0 1-.706.496H2.598a.6.6 0 0 0-.6.6v6.737a.6.6 0 0 0 .6.6h13.238a4 4 0 0 0 3.819-2.81L23 16.36a1 1 0 0 0-.955-1.297z"/><path fill="url(#n)" d="M16.778 15.063a1.2 1.2 0 0 0-1.129.793l-2.023 5.617a.75.75 0 0 1-.706.496H2.598a.6.6 0 0 0-.6.6v6.737a.6.6 0 0 0 .6.6h13.238a4 4 0 0 0 3.819-2.81L23 16.36a1 1 0 0 0-.955-1.297z"/><path fill="url(#o)" d="M16.778 15.063a1.2 1.2 0 0 0-1.129.793l-2.023 5.617a.75.75 0 0 1-.706.496H2.598a.6.6 0 0 0-.6.6v6.737a.6.6 0 0 0 .6.6h13.238a4 4 0 0 0 3.819-2.81L23 16.36a1 1 0 0 0-.955-1.297z"/></g><rect width="3.027" height="2.094" x="21.572" y="10.602" fill="url(#p)" rx="1.047"/><rect width="3.027" height="2.094" x="21.572" y="10.602" fill="url(#q)" rx="1.047"/><rect width="3.027" height="2.094" x="21.572" y="10.602" fill="url(#r)" rx="1.047"/><rect width="3.027" height="2.094" x="21.572" y="10.602" fill="url(#s)" rx="1.047"/><rect width="3.027" height="2.094" x="21.572" y="10.602" fill="url(#t)" rx="1.047"/><rect width="3.555" height="2.094" x="21.654" y="4.594" fill="url(#u)" rx="1.047"/><rect width="3.555" height="2.094" x="21.654" y="4.594" fill="url(#v)" rx="1.047"/><rect width="3.555" height="2.094" x="21.654" y="4.594" fill="url(#w)" rx="1.047"/><rect width="3.555" height="2.094" x="21.654" y="8.672" fill="url(#x)" rx="1.047"/><rect width="3.555" height="2.094" x="21.654" y="8.672" fill="url(#y)" rx="1.047"/><rect width="3.555" height="2.094" x="21.654" y="8.672" fill="url(#z)" rx="1.047"/><rect width="3.555" height="2.094" x="21.654" y="8.672" fill="url(#A)" rx="1.047"/><rect width="3.719" height="2.094" x="21.49" y="6.688" fill="url(#B)" rx="1.047"/><rect width="3.719" height="2.094" x="21.49" y="6.688" fill="url(#C)" rx="1.047"/><rect width="3.719" height="2.094" x="21.49" y="6.688" fill="url(#D)" rx="1.047"/><rect width="3.719" height="2.094" x="21.49" y="6.688" fill="url(#E)" rx="1.047"/><defs><radialGradient id="c" cx="0" cy="0" r="1" gradientTransform="matrix(-1.45239 7.41865 -5.95467 -1.16578 21.398 4.787)" gradientUnits="userSpaceOnUse"><stop stop-color="#54C4FF"/><stop offset="1" stop-color="#2E8DE8"/></radialGradient><radialGradient id="f" cx="0" cy="0" r="1" gradientTransform="matrix(1.94501 .78125 -.58938 1.46734 18 9.352)" gradientUnits="userSpaceOnUse"><stop stop-color="#267BAE"/><stop offset="1" stop-color="#267BAE" stop-opacity="0"/></radialGradient><radialGradient id="i" cx="0" cy="0" r="1" gradientTransform="matrix(-3.19961 0 0 -3.32917 23.639 12.406)" gradientUnits="userSpaceOnUse"><stop offset=".425" stop-color="#F09B4C"/><stop offset="1" stop-color="#F09B4C" stop-opacity="0"/></radialGradient><radialGradient id="j" cx="0" cy="0" r="1" gradientTransform="rotate(-13.075 59.965 -64.956)scale(2.20367 12.6404)" gradientUnits="userSpaceOnUse"><stop stop-color="#F09B4C"/><stop offset="1" stop-color="#F09B4C" stop-opacity="0"/></radialGradient><radialGradient id="k" cx="0" cy="0" r="1" gradientTransform="matrix(0 -1.71723 3.30237 0 18.362 10.164)" gradientUnits="userSpaceOnUse"><stop stop-color="#F09B4C"/><stop offset="1" stop-color="#F09B4C" stop-opacity="0"/></radialGradient><radialGradient id="l" cx="0" cy="0" r="1" gradientTransform="matrix(-.62745 .62745 -.71264 -.71264 18.89 8.348)" gradientUnits="userSpaceOnUse"><stop stop-color="#FFDC62"/><stop offset="1" stop-color="#FFDC62" stop-opacity="0"/></radialGradient><radialGradient id="n" cx="0" cy="0" r="1" gradientTransform="rotate(140.064 9.005 11.797)scale(3.50502 .92116)" gradientUnits="userSpaceOnUse"><stop stop-color="#FF99B6"/><stop offset="1" stop-color="#FF99B6" stop-opacity="0"/></radialGradient><radialGradient id="p" cx="0" cy="0" r="1" gradientTransform="matrix(-2.29687 0 0 -1.47398 24.263 11.648)" gradientUnits="userSpaceOnUse"><stop stop-color="#FBBE3E"/><stop offset="1" stop-color="#EAA504"/></radialGradient><radialGradient id="q" cx="0" cy="0" r="1" gradientTransform="rotate(145.169 10.308 9.472)scale(.65656 .59164)" gradientUnits="userSpaceOnUse"><stop stop-color="#FFD666"/><stop offset="1" stop-color="#FFD666" stop-opacity="0"/></radialGradient><radialGradient id="r" cx="0" cy="0" r="1" gradientTransform="matrix(.91818 0 0 1.71875 21.16 11.648)" gradientUnits="userSpaceOnUse"><stop stop-color="#DD9D52"/><stop offset="1" stop-color="#DD9D52" stop-opacity="0"/></radialGradient><radialGradient id="v" cx="0" cy="0" r="1" gradientTransform="matrix(-.63281 .375 -.31612 -.53345 24.716 5.352)" gradientUnits="userSpaceOnUse"><stop stop-color="#FFE064"/><stop offset="1" stop-color="#FFE064" stop-opacity="0"/></radialGradient><radialGradient id="w" cx="0" cy="0" r="1" gradientTransform="matrix(1.07813 0 0 1.71875 21.17 5.64)" gradientUnits="userSpaceOnUse"><stop stop-color="#DD9D52"/><stop offset="1" stop-color="#DD9D52" stop-opacity="0"/></radialGradient><radialGradient id="x" cx="0" cy="0" r="1" gradientTransform="matrix(-2.69698 0 0 -1.47398 24.814 9.719)" gradientUnits="userSpaceOnUse"><stop stop-color="#FBBE3E"/><stop offset="1" stop-color="#EAA504"/></radialGradient><radialGradient id="y" cx="0" cy="0" r="1" gradientTransform="matrix(-.63281 .375 -.31612 -.53345 24.716 9.43)" gradientUnits="userSpaceOnUse"><stop stop-color="#FFD666"/><stop offset="1" stop-color="#FFD666" stop-opacity="0"/></radialGradient><radialGradient id="z" cx="0" cy="0" r="1" gradientTransform="matrix(1.07813 0 0 1.71875 21.17 9.719)" gradientUnits="userSpaceOnUse"><stop stop-color="#DD9D52"/><stop offset="1" stop-color="#DD9D52" stop-opacity="0"/></radialGradient><radialGradient id="C" cx="0" cy="0" r="1" gradientTransform="matrix(-.66202 .375 -.3091 -.54569 24.694 7.445)" gradientUnits="userSpaceOnUse"><stop stop-color="#FFE064"/><stop offset="1" stop-color="#FFE064" stop-opacity="0"/></radialGradient><radialGradient id="D" cx="0" cy="0" r="1" gradientTransform="matrix(1.12788 0 0 1.71875 20.983 7.734)" gradientUnits="userSpaceOnUse"><stop stop-color="#DD9D52"/><stop offset="1" stop-color="#DD9D52" stop-opacity="0"/></radialGradient><linearGradient id="a" x1="20.724" x2="24.074" y1="5.663" y2="2.508" gradientUnits="userSpaceOnUse"><stop stop-color="#48427D"/><stop offset="1" stop-color="#5C6193"/></linearGradient><linearGradient id="b" x1="20.361" x2="20.361" y1="12.231" y2="11.45" gradientUnits="userSpaceOnUse"><stop stop-color="#312D58"/><stop offset="1" stop-color="#312D58" stop-opacity="0"/></linearGradient><linearGradient id="d" x1="23.17" x2="22.466" y1="7.294" y2="7.294" gradientUnits="userSpaceOnUse"><stop stop-color="#6CEDFF"/><stop offset="1" stop-color="#6CEDFF" stop-opacity="0"/></linearGradient><linearGradient id="e" x1="16.906" x2="17.334" y1="7.016" y2="7.016" gradientUnits="userSpaceOnUse"><stop stop-color="#5E98C5"/><stop offset="1" stop-color="#5E98C5" stop-opacity="0"/></linearGradient><linearGradient id="h" x1="21.942" x2="21.942" y1="10.602" y2="5.689" gradientUnits="userSpaceOnUse"><stop stop-color="#2E74A1"/><stop offset="1" stop-color="#5192B4"/></linearGradient><linearGradient id="o" x1="11.076" x2="11.076" y1="30.813" y2="27.188" gradientUnits="userSpaceOnUse"><stop stop-color="#DF42C3"/><stop offset="1" stop-color="#DF42C3" stop-opacity="0"/></linearGradient><linearGradient id="s" x1="23.086" x2="23.086" y1="10.602" y2="10.883" gradientUnits="userSpaceOnUse"><stop stop-color="#D68C02"/><stop offset="1" stop-color="#D68C02" stop-opacity="0"/></linearGradient><linearGradient id="t" x1="23.086" x2="23.086" y1="12.261" y2="12.822" gradientUnits="userSpaceOnUse"><stop stop-color="#EB8F72" stop-opacity="0"/><stop offset="1" stop-color="#EB8F72"/></linearGradient><linearGradient id="u" x1="23.431" x2="23.431" y1="4.594" y2="6.688" gradientUnits="userSpaceOnUse"><stop stop-color="#F1C438"/><stop offset="1" stop-color="#F4AF24"/></linearGradient><linearGradient id="A" x1="23.431" x2="23.431" y1="8.625" y2="8.922" gradientUnits="userSpaceOnUse"><stop stop-color="#D68C02"/><stop offset="1" stop-color="#D68C02" stop-opacity="0"/></linearGradient><linearGradient id="B" x1="23.349" x2="23.349" y1="6.688" y2="8.781" gradientUnits="userSpaceOnUse"><stop stop-color="#F9BF3E"/><stop offset="1" stop-color="#F4AF24"/></linearGradient><linearGradient id="E" x1="23.349" x2="23.349" y1="6.563" y2="6.938" gradientUnits="userSpaceOnUse"><stop stop-color="#D68C02"/><stop offset="1" stop-color="#D68C02" stop-opacity="0"/></linearGradient><filter id="g" width="3.914" height="6.625" x="20.699" y="4.477" color-interpolation-filters="sRGB" filterUnits="userSpaceOnUse"><feFlood flood-opacity="0" result="BackgroundImageFix"/><feBlend in="SourceGraphic" in2="BackgroundImageFix" result="shape"/><feGaussianBlur result="effect1_foregroundBlur_20020_5804" stdDeviation=".25"/></filter><filter id="m" width="22.048" height="15.844" x="1.998" y="15.063" color-interpolation-filters="sRGB" filterUnits="userSpaceOnUse"><feFlood flood-opacity="0" result="BackgroundImageFix"/><feBlend in="SourceGraphic" in2="BackgroundImageFix" result="shape"/><feColorMatrix in="SourceAlpha" result="hardAlpha" values="0 0 0 0 0 0 0 0 0 0 0 0 0 0 0 0 0 0 127 0"/><feOffset dx="1" dy="1"/><feGaussianBlur stdDeviation="1"/><feComposite in2="hardAlpha" k2="-1" k3="1" operator="arithmetic"/><feColorMatrix values="0 0 0 0 0.839216 0 0 0 0 0.215686 0 0 0 0 0.380392 0 0 0 1 0"/><feBlend in2="shape" result="effect1_innerShadow_20020_5804"/></filter></defs></svg>