<svg width="100%" height="100%" viewBox="0 0 32 32" xmlns="http://www.w3.org/2000/svg"><g filter="url(#a)"><path fill="#35BB78" d="M13.356 19.136c0-1.425.76-2.101 1.16-2.242l5.66-.34c1.61.719 2.954 2.781 3.141 5.281.188 2.5-.203 4.953-2.265 6.563-1.65 1.287-3.959 1.552-4.938 1.531h-2.472c-2.625 0-3.247-1.89-3.356-2.297a11 11 0 0 0-.184-.598.43.43 0 0 0-.221-.26c-.528-.244-1.52-.486-1.947-1.388a3.1 3.1 0 0 1-.28-1.63c.022-.213.232-.344.441-.296.52.119.95.252 1.57.567a3.4 3.4 0 0 1 1.237 1.226c.065.11.238.112.304.003.206-.342.561-.818 1.045-1.12a4.7 4.7 0 0 1 1.846-.678.347.347 0 0 1 .387.345c.037 1.765-.748 2.275-1.198 2.513-.288.131-.62.277-.865.388-.14.063-.21.223-.141.36.474.956 1.468.869 2.858.869 1.851 0 2.96-1.324 2.843-2.723-.062-1.812-1.562-2.515-2.57-3.148-.523-.329-2.055-1.145-2.055-2.926"/></g><path fill="url(#b)" d="M13.356 19.136c0-1.425.76-2.101 1.16-2.242l5.66-.34c1.61.719 2.954 2.781 3.141 5.281.188 2.5-.203 4.953-2.265 6.563-1.65 1.287-3.959 1.552-4.938 1.531h-2.472c-2.625 0-3.247-1.89-3.356-2.297a11 11 0 0 0-.184-.598.43.43 0 0 0-.221-.26c-.528-.244-1.52-.486-1.947-1.388a3.1 3.1 0 0 1-.28-1.63c.022-.213.232-.344.441-.296.52.119.95.252 1.57.567a3.4 3.4 0 0 1 1.237 1.226c.065.11.238.112.304.003.206-.342.561-.818 1.045-1.12a4.7 4.7 0 0 1 1.846-.678.347.347 0 0 1 .387.345c.037 1.765-.748 2.275-1.198 2.513-.288.131-.62.277-.865.388-.14.063-.21.223-.141.36.474.956 1.468.869 2.858.869 1.851 0 2.96-1.324 2.843-2.723-.062-1.812-1.562-2.515-2.57-3.148-.523-.329-2.055-1.145-2.055-2.926"/><g filter="url(#c)"><path fill="url(#d)" d="M21.317 26.71c0-5.343-3.922-7.968-5.234-9l3.25-1.453c1.125.521 3.035 2.358 3.453 5.11.484 3.187-.927 4.927-1.469 5.343"/></g><path fill="#805755" d="M6.762 16.087a.486.486 0 0 1 .973 0v.775a.486.486 0 1 1-.973 0z"/><path fill="url(#e)" d="M6.762 16.087a.486.486 0 0 1 .973 0v.775a.486.486 0 1 1-.973 0z"/><path fill="url(#f)" d="M6.762 16.087a.486.486 0 0 1 .973 0v.775a.486.486 0 1 1-.973 0z"/><path fill="url(#g)" d="M6.762 16.087a.486.486 0 0 1 .973 0v.775a.486.486 0 1 1-.973 0z"/><g filter="url(#h)"><path fill="url(#i)" d="m6.569 15.067-.755.857a.526.526 0 0 0 .776.71l.554-.583a.384.384 0 0 1 .476-.065l.018.01c.055.034.065.11.019.155l-.317.316a.528.528 0 0 0 .716.774l.557-.479a.2.2 0 0 1 .13-.048h1.765a2.5 2.5 0 0 0 1.64-.613l2.365-2.055v-3.25c-.257.025-.59.285-.723.418l-3.247 3.04a.5.5 0 0 1-.284.132l-3.068.355a.98.98 0 0 0-.622.326"/></g><g filter="url(#j)"><path fill="#AC866C" d="m23.587 12.28-2.844-1.464-.406 2.718 3.348 1.708a1.8 1.8 0 0 0 1.84-.121c.527-.363.82-.979.79-1.618-.06-1.273-.081-2.688-.103-3.586v-1.39a.531.531 0 0 0-1.063 0v.5c0 .14-.14.234-.256.156a1.5 1.5 0 0 1-.238-.2c-.125-.129-.17-.309-.17-.488v-.667a.531.531 0 1 0-1.062 0v1.201a1 1 0 0 0 .235.644l.373.444a.2.2 0 0 1 .046.151c-.065.582-.148 1.353-.197 1.853a.202.202 0 0 1-.293.16"/><path fill="url(#k)" d="m23.587 12.28-2.844-1.464-.406 2.718 3.348 1.708a1.8 1.8 0 0 0 1.84-.121c.527-.363.82-.979.79-1.618-.06-1.273-.081-2.688-.103-3.586v-1.39a.531.531 0 0 0-1.063 0v.5c0 .14-.14.234-.256.156a1.5 1.5 0 0 1-.238-.2c-.125-.129-.17-.309-.17-.488v-.667a.531.531 0 1 0-1.062 0v1.201a1 1 0 0 0 .235.644l.373.444a.2.2 0 0 1 .046.151c-.065.582-.148 1.353-.197 1.853a.202.202 0 0 1-.293.16"/><path fill="url(#l)" d="m23.587 12.28-2.844-1.464-.406 2.718 3.348 1.708a1.8 1.8 0 0 0 1.84-.121c.527-.363.82-.979.79-1.618-.06-1.273-.081-2.688-.103-3.586v-1.39a.531.531 0 0 0-1.063 0v.5c0 .14-.14.234-.256.156a1.5 1.5 0 0 1-.238-.2c-.125-.129-.17-.309-.17-.488v-.667a.531.531 0 1 0-1.062 0v1.201a1 1 0 0 0 .235.644l.373.444a.2.2 0 0 1 .046.151c-.065.582-.148 1.353-.197 1.853a.202.202 0 0 1-.293.16"/><path fill="url(#m)" d="m23.587 12.28-2.844-1.464-.406 2.718 3.348 1.708a1.8 1.8 0 0 0 1.84-.121c.527-.363.82-.979.79-1.618-.06-1.273-.081-2.688-.103-3.586v-1.39a.531.531 0 0 0-1.063 0v.5c0 .14-.14.234-.256.156a1.5 1.5 0 0 1-.238-.2c-.125-.129-.17-.309-.17-.488v-.667a.531.531 0 1 0-1.062 0v1.201a1 1 0 0 0 .235.644l.373.444a.2.2 0 0 1 .046.151c-.065.582-.148 1.353-.197 1.853a.202.202 0 0 1-.293.16"/></g><g filter="url(#n)"><path fill="#A5836B" d="M25.683 7.995h-.003a.53.53 0 0 0-.53.532v.5c0 .14-.14.234-.256.156a1.5 1.5 0 0 1-.24-.2c-.124-.129-.169-.309-.169-.488V7.95l.56-.558a.44.44 0 0 1 .638.604"/><path fill="url(#o)" d="M25.683 7.995h-.003a.53.53 0 0 0-.53.532v.5c0 .14-.14.234-.256.156a1.5 1.5 0 0 1-.24-.2c-.124-.129-.169-.309-.169-.488V7.95l.56-.558a.44.44 0 0 1 .638.604"/><path fill="url(#p)" d="M25.683 7.995h-.003a.53.53 0 0 0-.53.532v.5c0 .14-.14.234-.256.156a1.5 1.5 0 0 1-.24-.2c-.124-.129-.169-.309-.169-.488V7.95l.56-.558a.44.44 0 0 1 .638.604"/></g><g filter="url(#q)"><path fill="url(#r)" d="M14.255 10.891c0-.039.022-.074.058-.09.2-.089.63-.262 1.09-.346a.05.05 0 0 1 .058.049v.778a2.054 2.054 0 1 0 4.107 0v-.778a.05.05 0 0 1 .058-.05c.462.085.92.259 1.125.348.036.015.058.05.058.09v6.386a.6.6 0 0 1-.6.6h-5.354a.6.6 0 0 1-.6-.6z"/><path fill="url(#s)" d="M14.255 10.891c0-.039.022-.074.058-.09.2-.089.63-.262 1.09-.346a.05.05 0 0 1 .058.049v.778a2.054 2.054 0 1 0 4.107 0v-.778a.05.05 0 0 1 .058-.05c.462.085.92.259 1.125.348.036.015.058.05.058.09v6.386a.6.6 0 0 1-.6.6h-5.354a.6.6 0 0 1-.6-.6z"/></g><path fill="url(#t)" d="M14.255 10.891c0-.039.022-.074.058-.09.2-.089.63-.262 1.09-.346a.05.05 0 0 1 .058.049v.778a2.054 2.054 0 1 0 4.107 0v-.778a.05.05 0 0 1 .058-.05c.462.085.92.259 1.125.348.036.015.058.05.058.09v6.386a.6.6 0 0 1-.6.6h-5.354a.6.6 0 0 1-.6-.6z"/><path fill="url(#u)" d="M14.255 10.891c0-.039.022-.074.058-.09.2-.089.63-.262 1.09-.346a.05.05 0 0 1 .058.049v.778a2.054 2.054 0 1 0 4.107 0v-.778a.05.05 0 0 1 .058-.05c.462.085.92.259 1.125.348.036.015.058.05.058.09v6.386a.6.6 0 0 1-.6.6h-5.354a.6.6 0 0 1-.6-.6z"/><g filter="url(#v)"><path fill="#B08370" d="M19.57 10.487c-1.778-.422-3.256-.227-4.111.002l.002.015v.778a2.054 2.054 0 1 0 4.107 0v-.778z"/><path fill="url(#w)" d="M19.57 10.487c-1.778-.422-3.256-.227-4.111.002l.002.015v.778a2.054 2.054 0 1 0 4.107 0v-.778z"/></g><g filter="url(#x)"><path stroke="url(#y)" stroke-linecap="round" stroke-width=".4" d="M11.429 26.909c-.007.65.436 1.948 2.266 1.948h3.177c1.01-.014 3.317-.516 4.469-2.414"/></g><g filter="url(#z)"><path stroke="url(#A)" stroke-linecap="round" stroke-width=".4" d="M8.845 24.473c.41.163 1.402.784 2.096 1.97"/></g><g filter="url(#B)"><path stroke="url(#C)" stroke-linecap="round" stroke-width=".4" d="M13.991 23.955c-.307.353-1.133 1.1-1.885 1.832"/></g><g filter="url(#D)"><path stroke="url(#E)" stroke-linecap="round" stroke-width=".5" d="m21.39 12.46 2.57 1.367"/></g><g filter="url(#F)"><path stroke="#B9937F" stroke-linecap="round" stroke-width=".6" d="M25.156 14.007v-3.781l.594-.406V8.742"/></g><g filter="url(#G)"><path stroke="url(#H)" stroke-linecap="round" stroke-width=".4" d="M23.992 7.765v1.121a.5.5 0 0 0 .146.354l.904.904"/></g><g filter="url(#I)"><path stroke="url(#J)" stroke-linecap="round" stroke-width=".5" d="m13.839 13.023-2.97 2.719H8.558"/></g><path fill="url(#K)" d="M20.304 7.864a.94.94 0 0 0 .52-.177v.534c0 .512-.306.969-.77 1.158q.147-.312.199-.677z"/><path fill="url(#L)" d="M14.725 7.864a.94.94 0 0 1-.519-.177v.534c0 .512.305.969.77 1.158a2.4 2.4 0 0 1-.199-.677z"/><g filter="url(#M)"><path fill="url(#N)" d="M14.746 8.733a2.25 2.25 0 0 0 2.23 1.955h1.082a2.25 2.25 0 0 0 2.23-1.955c.068-1.08.136-2.157.186-3.238a.83.83 0 0 0-.791-.821h-.804a1.39 1.39 0 0 1-1.269-.828.38.38 0 0 0-.353-.24h-.73c-1.06 0-1.918.868-1.918 1.939 0 1.067.067 2.118.137 3.188"/><path fill="url(#O)" d="M14.746 8.733a2.25 2.25 0 0 0 2.23 1.955h1.082a2.25 2.25 0 0 0 2.23-1.955c.068-1.08.136-2.157.186-3.238a.83.83 0 0 0-.791-.821h-.804a1.39 1.39 0 0 1-1.269-.828.38.38 0 0 0-.353-.24h-.73c-1.06 0-1.918.868-1.918 1.939 0 1.067.067 2.118.137 3.188"/></g><path fill="url(#P)" d="M14.746 8.733a2.25 2.25 0 0 0 2.23 1.955h1.082a2.25 2.25 0 0 0 2.23-1.955c.068-1.08.136-2.157.186-3.238a.83.83 0 0 0-.791-.821h-.804a1.39 1.39 0 0 1-1.269-.828.38.38 0 0 0-.353-.24h-.73c-1.06 0-1.918.868-1.918 1.939 0 1.067.067 2.118.137 3.188"/><path fill="url(#Q)" d="M14.746 8.733a2.25 2.25 0 0 0 2.23 1.955h1.082a2.25 2.25 0 0 0 2.23-1.955c.068-1.08.136-2.157.186-3.238a.83.83 0 0 0-.791-.821h-.804a1.39 1.39 0 0 1-1.269-.828.38.38 0 0 0-.353-.24h-.73c-1.06 0-1.918.868-1.918 1.939 0 1.067.067 2.118.137 3.188"/><path fill="url(#R)" d="M14.746 8.733a2.25 2.25 0 0 0 2.23 1.955h1.082a2.25 2.25 0 0 0 2.23-1.955c.068-1.08.136-2.157.186-3.238a.83.83 0 0 0-.791-.821h-.804a1.39 1.39 0 0 1-1.269-.828.38.38 0 0 0-.353-.24h-.73c-1.06 0-1.918.868-1.918 1.939 0 1.067.067 2.118.137 3.188"/><path fill="url(#S)" d="M14.746 8.733a2.25 2.25 0 0 0 2.23 1.955h1.082a2.25 2.25 0 0 0 2.23-1.955c.068-1.08.136-2.157.186-3.238a.83.83 0 0 0-.791-.821h-.804a1.39 1.39 0 0 1-1.269-.828.38.38 0 0 0-.353-.24h-.73c-1.06 0-1.918.868-1.918 1.939 0 1.067.067 2.118.137 3.188"/><path fill="url(#T)" d="M14.746 8.733a2.25 2.25 0 0 0 2.23 1.955h1.082a2.25 2.25 0 0 0 2.23-1.955c.068-1.08.136-2.157.186-3.238a.83.83 0 0 0-.791-.821h-.804a1.39 1.39 0 0 1-1.269-.828.38.38 0 0 0-.353-.24h-.73c-1.06 0-1.918.868-1.918 1.939 0 1.067.067 2.118.137 3.188"/><path fill="url(#U)" d="M14.746 8.733a2.25 2.25 0 0 0 2.23 1.955h1.082a2.25 2.25 0 0 0 2.23-1.955c.068-1.08.136-2.157.186-3.238a.83.83 0 0 0-.791-.821h-.804a1.39 1.39 0 0 1-1.269-.828.38.38 0 0 0-.353-.24h-.73c-1.06 0-1.918.868-1.918 1.939 0 1.067.067 2.118.137 3.188"/><path fill="url(#V)" d="M14.746 8.733a2.25 2.25 0 0 0 2.23 1.955h1.082a2.25 2.25 0 0 0 2.23-1.955c.068-1.08.136-2.157.186-3.238a.83.83 0 0 0-.791-.821h-.804a1.39 1.39 0 0 1-1.269-.828.38.38 0 0 0-.353-.24h-.73c-1.06 0-1.918.868-1.918 1.939 0 1.067.067 2.118.137 3.188"/><path fill="url(#W)" d="M14.746 8.733a2.25 2.25 0 0 0 2.23 1.955h1.082a2.25 2.25 0 0 0 2.23-1.955c.068-1.08.136-2.157.186-3.238a.83.83 0 0 0-.791-.821h-.804a1.39 1.39 0 0 1-1.269-.828.38.38 0 0 0-.353-.24h-.73c-1.06 0-1.918.868-1.918 1.939 0 1.067.067 2.118.137 3.188"/><g filter="url(#X)"><path fill="#6F3F46" d="m17.284 6.849-.339 1.055c-.058.217.081.434.278.434h.42c.197 0 .336-.22.278-.434l-.284-1.055c-.06-.234-.289-.234-.353 0"/></g><g filter="url(#Y)"><path fill="#976B67" d="m17.295 6.736-.305 1.055c-.062.217.088.434.3.434h.45c.212 0 .361-.22.3-.434l-.306-1.055c-.065-.233-.37-.233-.439 0"/><path fill="url(#Z)" d="m17.295 6.736-.305 1.055c-.062.217.088.434.3.434h.45c.212 0 .361-.22.3-.434l-.306-1.055c-.065-.233-.37-.233-.439 0"/><path fill="url(#aa)" d="m17.295 6.736-.305 1.055c-.062.217.088.434.3.434h.45c.212 0 .361-.22.3-.434l-.306-1.055c-.065-.233-.37-.233-.439 0"/><path fill="url(#ab)" d="m17.295 6.736-.305 1.055c-.062.217.088.434.3.434h.45c.212 0 .361-.22.3-.434l-.306-1.055c-.065-.233-.37-.233-.439 0"/><path fill="url(#ac)" d="m17.295 6.736-.305 1.055c-.062.217.088.434.3.434h.45c.212 0 .361-.22.3-.434l-.306-1.055c-.065-.233-.37-.233-.439 0"/><path fill="url(#ad)" d="m17.295 6.736-.305 1.055c-.062.217.088.434.3.434h.45c.212 0 .361-.22.3-.434l-.306-1.055c-.065-.233-.37-.233-.439 0"/></g><g filter="url(#ae)"><path stroke="url(#af)" stroke-width=".1" d="M17.515 8.809c-.292 0-.565-.069-.795-.189-.079-.04-.163.049-.114.12.192.291.527.486.909.486.381 0 .716-.195.908-.486.05-.074-.035-.16-.113-.12-.23.12-.501.189-.795.189Z"/></g><path fill="url(#ag)" d="M17.515 8.809c-.292 0-.565-.069-.795-.189-.079-.04-.163.049-.114.12.192.291.527.486.909.486.381 0 .716-.195.908-.486.05-.074-.035-.16-.113-.12-.23.12-.501.189-.795.189"/><g filter="url(#ah)"><path fill="url(#ai)" d="M20.3 3.335c.296.101.56.307.728.603a1.36 1.36 0 0 1-.06 1.45.9.9 0 0 0-.156.501v.682a1 1 0 0 0-.383-.154l.045-.922a.83.83 0 0 0-.791-.821h-.804a1.39 1.39 0 0 1-1.269-.828.38.38 0 0 0-.353-.24h-.73c-1.06 0-1.918.867-1.918 1.939l.018.882a1 1 0 0 0-.413.151V5.89a.9.9 0 0 0-.156-.501 1.37 1.37 0 0 1-.082-1.404c.168-.317.438-.539.746-.646.329-.117.609-.339.794-.637a1.334 1.334 0 0 1 1.659-.524c.219.096.466.096.685 0a1.334 1.334 0 0 1 1.665.542c.176.293.453.505.776.616"/></g><path fill="url(#aj)" d="M20.3 3.335c.296.101.56.307.728.603a1.36 1.36 0 0 1-.06 1.45.9.9 0 0 0-.156.501v.682a1 1 0 0 0-.383-.154l.045-.922a.83.83 0 0 0-.791-.821h-.804a1.39 1.39 0 0 1-1.269-.828.38.38 0 0 0-.353-.24h-.73c-1.06 0-1.918.867-1.918 1.939l.018.882a1 1 0 0 0-.413.151V5.89a.9.9 0 0 0-.156-.501 1.37 1.37 0 0 1-.082-1.404c.168-.317.438-.539.746-.646.329-.117.609-.339.794-.637a1.334 1.334 0 0 1 1.659-.524c.219.096.466.096.685 0a1.334 1.334 0 0 1 1.665.542c.176.293.453.505.776.616"/><path fill="url(#ak)" d="M20.3 3.335c.296.101.56.307.728.603a1.36 1.36 0 0 1-.06 1.45.9.9 0 0 0-.156.501v.682a1 1 0 0 0-.383-.154l.045-.922a.83.83 0 0 0-.791-.821h-.804a1.39 1.39 0 0 1-1.269-.828.38.38 0 0 0-.353-.24h-.73c-1.06 0-1.918.867-1.918 1.939l.018.882a1 1 0 0 0-.413.151V5.89a.9.9 0 0 0-.156-.501 1.37 1.37 0 0 1-.082-1.404c.168-.317.438-.539.746-.646.329-.117.609-.339.794-.637a1.334 1.334 0 0 1 1.659-.524c.219.096.466.096.685 0a1.334 1.334 0 0 1 1.665.542c.176.293.453.505.776.616"/><path fill="url(#al)" d="M20.3 3.335c.296.101.56.307.728.603a1.36 1.36 0 0 1-.06 1.45.9.9 0 0 0-.156.501v.682a1 1 0 0 0-.383-.154l.045-.922a.83.83 0 0 0-.791-.821h-.804a1.39 1.39 0 0 1-1.269-.828.38.38 0 0 0-.353-.24h-.73c-1.06 0-1.918.867-1.918 1.939l.018.882a1 1 0 0 0-.413.151V5.89a.9.9 0 0 0-.156-.501 1.37 1.37 0 0 1-.082-1.404c.168-.317.438-.539.746-.646.329-.117.609-.339.794-.637a1.334 1.334 0 0 1 1.659-.524c.219.096.466.096.685 0a1.334 1.334 0 0 1 1.665.542c.176.293.453.505.776.616"/><g filter="url(#am)"><path fill="#462D2B" d="M19.657 5.437c-.1-.088-.218-.18-.395-.236-.174-.055-.393-.07-.695-.033a.16.16 0 1 0 .038.316c.276-.034.445-.016.562.02.114.036.19.094.28.173a.16.16 0 0 0 .21-.24"/></g><g filter="url(#an)"><path fill="#462D2B" d="M15.558 5.374a1.592 1.592 0 0 1 .998-.206.159.159 0 1 1-.04.316 1.27 1.27 0 0 0-.838.19l-.01.007-.001.002a.16.16 0 0 1-.195-.252z"/></g><g filter="url(#ao)"><path fill="#533634" d="m17.648 3.923-.038-.078a.38.38 0 0 0-.354-.24h-.73c-1.059 0-1.917.868-1.917 1.939v.158c-.195-.149-.44-.462-.44-.969 0-.615.448-.926.734-1.124.08-.056.149-.103.19-.145l.057-.06c.2-.213.558-.592 1.182-.758a3 3 0 0 1 .52-.086c.471-.036.808.377.808.85v.506z"/><path fill="url(#ap)" d="m17.648 3.923-.038-.078a.38.38 0 0 0-.354-.24h-.73c-1.059 0-1.917.868-1.917 1.939v.158c-.195-.149-.44-.462-.44-.969 0-.615.448-.926.734-1.124.08-.056.149-.103.19-.145l.057-.06c.2-.213.558-.592 1.182-.758a3 3 0 0 1 .52-.086c.471-.036.808.377.808.85v.506z"/><path fill="url(#aq)" d="m17.648 3.923-.038-.078a.38.38 0 0 0-.354-.24h-.73c-1.059 0-1.917.868-1.917 1.939v.158c-.195-.149-.44-.462-.44-.969 0-.615.448-.926.734-1.124.08-.056.149-.103.19-.145l.057-.06c.2-.213.558-.592 1.182-.758a3 3 0 0 1 .52-.086c.471-.036.808.377.808.85v.506z"/></g><g filter="url(#ar)"><path fill="#563936" d="m20.506 5.799-.017-.363a.843.843 0 0 0-.806-.818h-.804a1.39 1.39 0 0 1-1.219-.722s.414-1.194 1.1-1.04c.5.114 1.037.291 1.447.559 1.001.653.826 1.83.299 2.384"/><path fill="url(#as)" d="m20.506 5.799-.017-.363a.843.843 0 0 0-.806-.818h-.804a1.39 1.39 0 0 1-1.219-.722s.414-1.194 1.1-1.04c.5.114 1.037.291 1.447.559 1.001.653.826 1.83.299 2.384"/><path fill="url(#at)" d="m20.506 5.799-.017-.363a.843.843 0 0 0-.806-.818h-.804a1.39 1.39 0 0 1-1.219-.722s.414-1.194 1.1-1.04c.5.114 1.037.291 1.447.559 1.001.653.826 1.83.299 2.384"/><path fill="url(#au)" d="m20.506 5.799-.017-.363a.843.843 0 0 0-.806-.818h-.804a1.39 1.39 0 0 1-1.219-.722s.414-1.194 1.1-1.04c.5.114 1.037.291 1.447.559 1.001.653.826 1.83.299 2.384"/></g><path fill="#fff" d="M18.887 6.191c.375 0 .691.258.777.608a.157.157 0 0 1-.153.195h-1.28a.132.132 0 0 1-.13-.156.8.8 0 0 1 .786-.647"/><path fill="url(#av)" d="M18.768 6.347a.512.512 0 0 1 .494.647h-.99a.514.514 0 0 1 .496-.647"/><path fill="#000" d="M18.475 6.859c0-.163.13-.293.293-.293a.292.292 0 0 1 .26.428h-.518a.27.27 0 0 1-.035-.135"/><g filter="url(#aw)"><path fill="#C7A7A3" d="M18.73 6.455c.036.05-.04.109-.126.173-.087.065-.151.11-.188.062-.036-.049.005-.14.091-.206.087-.064.186-.077.223-.029"/><path fill="url(#ax)" d="M18.73 6.455c.036.05-.04.109-.126.173-.087.065-.151.11-.188.062-.036-.049.005-.14.091-.206.087-.064.186-.077.223-.029"/></g><g filter="url(#ay)"><path fill="url(#az)" d="M19.224 6.791a.5.5 0 0 0-.133-.265l-.149.164.068.13z"/></g><path fill="#fff" d="M16.143 6.191a.8.8 0 0 0-.778.608c-.025.1.051.195.154.195h1.28a.132.132 0 0 0 .13-.156.804.804 0 0 0-.786-.647"/><path fill="url(#aA)" d="M16.262 6.347a.512.512 0 0 0-.494.647h.99a.516.516 0 0 0-.496-.647"/><path fill="#000" d="M16.554 6.859a.29.29 0 0 0-.293-.293.292.292 0 0 0-.26.428h.518a.3.3 0 0 0 .035-.135"/><g filter="url(#aB)"><path fill="url(#aC)" d="M16.729 6.799c0-.166-.135-.276-.17-.31l-.166.16.101.208z"/></g><g filter="url(#aD)" transform="rotate(-27.914 16.107 6.566)"><ellipse cx="16.107" cy="6.566" fill="#C7A7A3" fill-opacity=".9" rx=".223" ry=".113"/><ellipse cx="16.107" cy="6.566" fill="url(#aE)" rx=".223" ry=".113"/></g><path fill="url(#aF)" d="M20.34 7.916q.056-.915.105-1.831a.924.924 0 0 1-.106 1.83"/><path fill="url(#aG)" d="M20.34 7.916q.056-.915.105-1.831a.924.924 0 0 1-.106 1.83"/><path fill="url(#aH)" d="M20.34 7.916q.056-.915.105-1.831a.924.924 0 0 1-.106 1.83"/><path fill="url(#aI)" d="M20.34 7.916q.056-.915.105-1.831a.924.924 0 0 1-.106 1.83"/><path fill="url(#aJ)" d="M14.62 6.077a.923.923 0 0 0 .074 1.839 45 45 0 0 1-.074-1.839"/><path fill="url(#aK)" d="M14.62 6.077a.923.923 0 0 0 .074 1.839 45 45 0 0 1-.074-1.839"/><g filter="url(#aL)"><path fill="url(#aM)" d="M14.597 6.459a.548.548 0 0 0 .047 1.078q-.03-.539-.047-1.078"/></g><g filter="url(#aN)"><path fill="url(#aO)" d="M20.413 7.499q.028-.505.054-1.01c.23.032.408.245.408.503 0 .278-.207.504-.462.507"/></g><g filter="url(#aP)"><path fill="#725050" d="M20.039 3.926h-1.226a.284.284 0 1 1 .045-.567c.318.051.74.122 1.024.192.64.159.816.47.865.692a.9.9 0 0 0-.708-.317"/></g><defs><radialGradient id="b" cx="0" cy="0" r="1" gradientTransform="rotate(-17.313 87.822 -23.113)scale(13.0953 16.0195)" gradientUnits="userSpaceOnUse"><stop offset=".805" stop-color="#4DCD7D" stop-opacity="0"/><stop offset="1" stop-color="#4DCD7D"/></radialGradient><radialGradient id="d" cx="0" cy="0" r="1" gradientTransform="matrix(-3.61906 1.93752 -6.36477 -11.88867 22.702 20.617)" gradientUnits="userSpaceOnUse"><stop stop-color="#4EDD83"/><stop offset="1" stop-color="#4EDD83" stop-opacity="0"/></radialGradient><radialGradient id="f" cx="0" cy="0" r="1" gradientTransform="rotate(-49.88 21.65 1.225)scale(1.27707 1.06889)" gradientUnits="userSpaceOnUse"><stop offset=".603" stop-color="#704138" stop-opacity="0"/><stop offset="1" stop-color="#704138"/></radialGradient><radialGradient id="g" cx="0" cy="0" r="1" gradientTransform="matrix(0 .8737 -1.06183 0 7.249 16.475)" gradientUnits="userSpaceOnUse"><stop offset=".735" stop-color="#91597A" stop-opacity="0"/><stop offset="1" stop-color="#91597A"/></radialGradient><radialGradient id="l" cx="0" cy="0" r="1" gradientTransform="matrix(.88953 2.91279 -1.06086 .32398 23.622 10.366)" gradientUnits="userSpaceOnUse"><stop offset=".263" stop-color="#925E5D"/><stop offset="1" stop-color="#925E5D" stop-opacity="0"/></radialGradient><radialGradient id="m" cx="0" cy="0" r="1" gradientTransform="matrix(.53214 0 0 2.90625 23.327 8.716)" gradientUnits="userSpaceOnUse"><stop stop-color="#916958"/><stop offset="1" stop-color="#916958" stop-opacity="0"/></radialGradient><radialGradient id="o" cx="0" cy="0" r="1" gradientTransform="matrix(-.57032 .46875 -.2011 -.24468 25.71 7.406)" gradientUnits="userSpaceOnUse"><stop stop-color="#B49381"/><stop offset="1" stop-color="#B49381" stop-opacity="0"/></radialGradient><radialGradient id="p" cx="0" cy="0" r="1" gradientTransform="rotate(-140.258 14.327 -.219)scale(.90426 .73334)" gradientUnits="userSpaceOnUse"><stop offset=".193" stop-color="#895B49"/><stop offset="1" stop-color="#895B49" stop-opacity="0"/></radialGradient><radialGradient id="r" cx="0" cy="0" r="1" gradientTransform="matrix(0 6.46875 -5.71107 0 19.177 12.742)" gradientUnits="userSpaceOnUse"><stop offset=".377" stop-color="#FF8738"/><stop offset="1" stop-color="#EB6820"/></radialGradient><radialGradient id="s" cx="0" cy="0" r="1" gradientTransform="rotate(58.499 -1.805 23.135)scale(1.85402 1.92266)" gradientUnits="userSpaceOnUse"><stop offset=".221" stop-color="#FF8E3E"/><stop offset="1" stop-color="#FF8E3E" stop-opacity="0"/></radialGradient><radialGradient id="u" cx="0" cy="0" r="1" gradientTransform="matrix(-4.00003 -7.0781 9.3879 -5.30536 19.333 16.96)" gradientUnits="userSpaceOnUse"><stop offset=".786" stop-color="#E15C10" stop-opacity="0"/><stop offset="1" stop-color="#E15C10"/></radialGradient><radialGradient id="w" cx="0" cy="0" r="1" gradientTransform="matrix(-3.47103 2.30187 -1.86833 -2.81728 17.116 9.537)" gradientUnits="userSpaceOnUse"><stop offset=".206" stop-color="#603A2F"/><stop offset="1" stop-color="#70493C" stop-opacity="0"/></radialGradient><radialGradient id="K" cx="0" cy="0" r="1" gradientTransform="matrix(.42967 1.15888 -1.37666 .51042 20.242 7.687)" gradientUnits="userSpaceOnUse"><stop offset=".215" stop-color="#493B3B"/><stop offset="1" stop-color="#311F2C"/></radialGradient><radialGradient id="L" cx="0" cy="0" r="1" gradientTransform="matrix(.84724 .26628 -.82148 2.6138 14.04 7.968)" gradientUnits="userSpaceOnUse"><stop stop-color="#4C3C39"/><stop offset=".746" stop-color="#2E1C2E"/></radialGradient><radialGradient id="N" cx="0" cy="0" r="1" gradientTransform="matrix(-2.69991 0 0 -4.77611 19.126 7.147)" gradientUnits="userSpaceOnUse"><stop stop-color="#C89980"/><stop offset="1" stop-color="#926763"/></radialGradient><radialGradient id="O" cx="0" cy="0" r="1" gradientTransform="rotate(121.159 8.244 7.476)scale(1.93324 1.59604)" gradientUnits="userSpaceOnUse"><stop offset=".078" stop-color="#AF887B"/><stop offset="1" stop-color="#AF887B" stop-opacity="0"/></radialGradient><radialGradient id="Q" cx="0" cy="0" r="1" gradientTransform="matrix(0 6.64304 -8.71927 0 17.542 4.045)" gradientUnits="userSpaceOnUse"><stop offset=".723" stop-color="#9F6B75" stop-opacity="0"/><stop offset="1" stop-color="#925962"/></radialGradient><radialGradient id="R" cx="0" cy="0" r="1" gradientTransform="matrix(0 -.65896 .81547 0 18.92 6.393)" gradientUnits="userSpaceOnUse"><stop offset=".325" stop-color="#AB7872"/><stop offset="1" stop-color="#AB7872" stop-opacity="0"/></radialGradient><radialGradient id="S" cx="0" cy="0" r="1" gradientTransform="matrix(.00226 -.62793 .68334 .00245 16.195 6.42)" gradientUnits="userSpaceOnUse"><stop offset=".378" stop-color="#8F5D66"/><stop offset="1" stop-color="#8F5D66" stop-opacity="0"/></radialGradient><radialGradient id="T" cx="0" cy="0" r="1" gradientTransform="rotate(176.388 9.62 4.164)scale(4.88499 12.4787)" gradientUnits="userSpaceOnUse"><stop offset=".836" stop-color="#987064" stop-opacity="0"/><stop offset="1" stop-color="#987064"/></radialGradient><radialGradient id="U" cx="0" cy="0" r="1" gradientTransform="matrix(1.94288 -1.67357 .49434 .5739 13.617 5.578)" gradientUnits="userSpaceOnUse"><stop offset=".539" stop-color="#63413D"/><stop offset="1" stop-color="#63413D" stop-opacity="0"/></radialGradient><radialGradient id="V" cx="0" cy="0" r="1" gradientTransform="rotate(95.368 7.857 12.158)scale(1.43943 .5754)" gradientUnits="userSpaceOnUse"><stop offset=".245" stop-color="#BF9980"/><stop offset="1" stop-color="#BF9980" stop-opacity="0"/></radialGradient><radialGradient id="W" cx="0" cy="0" r="1" gradientTransform="matrix(0 .50015 -.96014 0 16.243 6.862)" gradientUnits="userSpaceOnUse"><stop stop-color="#9E7765"/><stop offset="1" stop-color="#9E7765" stop-opacity="0"/></radialGradient><radialGradient id="aa" cx="0" cy="0" r="1" gradientTransform="matrix(0 .14008 -.44023 0 17.782 7.927)" gradientUnits="userSpaceOnUse"><stop stop-color="#C59A8A"/><stop offset="1" stop-color="#C59A8A" stop-opacity="0"/></radialGradient><radialGradient id="ac" cx="0" cy="0" r="1" gradientTransform="matrix(-.97096 .43043 -.69174 -1.56042 17.849 7.6)" gradientUnits="userSpaceOnUse"><stop offset=".702" stop-color="#8A5F5C" stop-opacity="0"/><stop offset="1" stop-color="#744A4A"/><stop offset="1" stop-color="#8A5F5C"/></radialGradient><radialGradient id="ag" cx="0" cy="0" r="1" gradientTransform="matrix(1.2521 -.61557 2.47658 5.0375 17.233 9.226)" gradientUnits="userSpaceOnUse"><stop offset=".562" stop-color="#87014E"/><stop offset="1" stop-color="#87004D"/></radialGradient><radialGradient id="aj" cx="0" cy="0" r="1" gradientTransform="matrix(1.57269 -4.10267 5.82164 2.23163 14.24 6.042)" gradientUnits="userSpaceOnUse"><stop stop-color="#604946"/><stop offset="1" stop-color="#604946" stop-opacity="0"/></radialGradient><radialGradient id="ak" cx="0" cy="0" r="1" gradientTransform="rotate(-103.052 12.8 -5.215)scale(3.8605 5.47802)" gradientUnits="userSpaceOnUse"><stop offset=".303" stop-color="#604946"/><stop offset="1" stop-color="#604946" stop-opacity="0"/></radialGradient><radialGradient id="al" cx="0" cy="0" r="1" gradientTransform="matrix(-.6496 -1.36755 1.61442 -.76686 19.368 3.615)" gradientUnits="userSpaceOnUse"><stop stop-color="#765A55"/><stop offset="1" stop-color="#765A55" stop-opacity="0"/></radialGradient><radialGradient id="ap" cx="0" cy="0" r="1" gradientTransform="matrix(-1.26308 0 0 -.46878 17.66 3.02)" gradientUnits="userSpaceOnUse"><stop stop-color="#654647"/><stop offset="1" stop-color="#654647" stop-opacity="0"/></radialGradient><radialGradient id="aq" cx="0" cy="0" r="1" gradientTransform="matrix(1.8467 -2.92394 3.23942 2.04595 14.398 5.282)" gradientUnits="userSpaceOnUse"><stop offset=".093" stop-color="#37192C"/><stop offset=".311" stop-color="#472438"/><stop offset="1" stop-color="#472438" stop-opacity="0"/></radialGradient><radialGradient id="as" cx="0" cy="0" r="1" gradientTransform="matrix(2.01714 -1.62397 2.5168 3.12614 18.616 4.487)" gradientUnits="userSpaceOnUse"><stop stop-color="#532C3F"/><stop offset=".445" stop-color="#532C3F" stop-opacity="0"/></radialGradient><radialGradient id="at" cx="0" cy="0" r="1" gradientTransform="rotate(-41.829 16.327 -22.289)scale(2.27863 4.17158)" gradientUnits="userSpaceOnUse"><stop offset=".857" stop-color="#685351" stop-opacity="0"/><stop offset="1" stop-color="#685351"/></radialGradient><radialGradient id="au" cx="0" cy="0" r="1" gradientTransform="rotate(12.654 -9.509 85.643)scale(1.89685 .79417)" gradientUnits="userSpaceOnUse"><stop stop-color="#4F2B3C"/><stop offset="1" stop-color="#4F2B3C" stop-opacity="0"/></radialGradient><radialGradient id="av" cx="0" cy="0" r="1" gradientTransform="matrix(0 .46556 -.74053 0 18.767 6.62)" gradientUnits="userSpaceOnUse"><stop offset=".802" stop-color="#7D574A"/><stop offset="1" stop-color="#694B43"/><stop offset="1" stop-color="#804D49"/><stop offset="1" stop-color="#664842"/></radialGradient><radialGradient id="ax" cx="0" cy="0" r="1" gradientTransform="matrix(-.1329 -.17127 .2358 -.18298 18.636 6.669)" gradientUnits="userSpaceOnUse"><stop offset=".766" stop-color="#FFE6E2" stop-opacity="0"/><stop offset=".966" stop-color="#FFE6E2"/></radialGradient><radialGradient id="aA" cx="0" cy="0" r="1" gradientTransform="matrix(0 .46559 -.74057 0 16.263 6.62)" gradientUnits="userSpaceOnUse"><stop offset=".802" stop-color="#7D574A"/><stop offset="1" stop-color="#694B43"/><stop offset="1" stop-color="#804D49"/><stop offset="1" stop-color="#664842"/></radialGradient><radialGradient id="aE" cx="0" cy="0" r="1" gradientTransform="matrix(-.00443 -.28315 .34036 -.00533 16.098 6.746)" gradientUnits="userSpaceOnUse"><stop offset=".766" stop-color="#FFE6E2" stop-opacity="0"/><stop offset=".966" stop-color="#FFE6E2"/></radialGradient><radialGradient id="aG" cx="0" cy="0" r="1" gradientTransform="matrix(.36068 1.28726 -1.22815 .34412 20.165 6.629)" gradientUnits="userSpaceOnUse"><stop offset=".856" stop-color="#9A676A" stop-opacity="0"/><stop offset="1" stop-color="#9A676A"/></radialGradient><radialGradient id="aH" cx="0" cy="0" r="1" gradientTransform="matrix(.45206 -.62037 .52 .37891 20.371 6.941)" gradientUnits="userSpaceOnUse"><stop offset=".664" stop-color="#9E6A5C"/><stop offset="1" stop-color="#9E6A5C" stop-opacity="0"/></radialGradient><radialGradient id="aI" cx="0" cy="0" r="1" gradientTransform="matrix(.33684 -.88969 1.18874 .45006 20.437 7.04)" gradientUnits="userSpaceOnUse"><stop offset=".803" stop-color="#A47F62" stop-opacity="0"/><stop offset="1" stop-color="#A47F62"/></radialGradient><radialGradient id="aK" cx="0" cy="0" r="1" gradientTransform="matrix(-.95156 0 0 -1.06256 14.694 6.997)" gradientUnits="userSpaceOnUse"><stop offset=".778" stop-color="#9D7667" stop-opacity="0"/><stop offset="1" stop-color="#9D7667"/></radialGradient><radialGradient id="aM" cx="0" cy="0" r="1" gradientTransform="rotate(170.259 7.05 4.125)scale(.5336 .5471)" gradientUnits="userSpaceOnUse"><stop stop-color="#714B4D"/><stop offset="1" stop-color="#784E52"/></radialGradient><filter id="a" width="16.97" height="13.626" x="7.639" y="16.304" color-interpolation-filters="sRGB" filterUnits="userSpaceOnUse"><feFlood flood-opacity="0" result="BackgroundImageFix"/><feBlend in="SourceGraphic" in2="BackgroundImageFix" result="shape"/><feColorMatrix in="SourceAlpha" result="hardAlpha" values="0 0 0 0 0 0 0 0 0 0 0 0 0 0 0 0 0 0 127 0"/><feOffset dx="1.25"/><feGaussianBlur stdDeviation="1.25"/><feComposite in2="hardAlpha" k2="-1" k3="1" operator="arithmetic"/><feColorMatrix values="0 0 0 0 0.223529 0 0 0 0 0.623529 0 0 0 0 0.317647 0 0 0 1 0"/><feBlend in2="shape" result="effect1_innerShadow_4002_1296"/><feColorMatrix in="SourceAlpha" result="hardAlpha" values="0 0 0 0 0 0 0 0 0 0 0 0 0 0 0 0 0 0 127 0"/><feOffset dy="-.25"/><feGaussianBlur stdDeviation=".5"/><feComposite in2="hardAlpha" k2="-1" k3="1" operator="arithmetic"/><feColorMatrix values="0 0 0 0 0.313726 0 0 0 0 0.576471 0 0 0 0 0.541176 0 0 0 1 0"/><feBlend in2="effect1_innerShadow_4002_1296" result="effect2_innerShadow_4002_1296"/></filter><filter id="c" width="8.803" height="12.453" x="15.083" y="15.257" color-interpolation-filters="sRGB" filterUnits="userSpaceOnUse"><feFlood flood-opacity="0" result="BackgroundImageFix"/><feBlend in="SourceGraphic" in2="BackgroundImageFix" result="shape"/><feGaussianBlur result="effect1_foregroundBlur_4002_1296" stdDeviation=".5"/></filter><filter id="h" width="9.329" height="6.572" x="5.433" y="10.796" color-interpolation-filters="sRGB" filterUnits="userSpaceOnUse"><feFlood flood-opacity="0" result="BackgroundImageFix"/><feBlend in="SourceGraphic" in2="BackgroundImageFix" result="shape"/><feColorMatrix in="SourceAlpha" result="hardAlpha" values="0 0 0 0 0 0 0 0 0 0 0 0 0 0 0 0 0 0 127 0"/><feOffset dx=".25"/><feGaussianBlur stdDeviation=".375"/><feComposite in2="hardAlpha" k2="-1" k3="1" operator="arithmetic"/><feColorMatrix values="0 0 0 0 0.537255 0 0 0 0 0.415686 0 0 0 0 0.337255 0 0 0 1 0"/><feBlend in2="shape" result="effect1_innerShadow_4002_1296"/><feColorMatrix in="SourceAlpha" result="hardAlpha" values="0 0 0 0 0 0 0 0 0 0 0 0 0 0 0 0 0 0 127 0"/><feOffset dx="-.25"/><feGaussianBlur stdDeviation=".375"/><feComposite in2="hardAlpha" k2="-1" k3="1" operator="arithmetic"/><feColorMatrix values="0 0 0 0 0.584314 0 0 0 0 0.364706 0 0 0 0 0.509804 0 0 0 1 0"/><feBlend in2="effect1_innerShadow_4002_1296" result="effect2_innerShadow_4002_1296"/></filter><filter id="j" width="5.98" height="8.393" x="20.337" y="7.046" color-interpolation-filters="sRGB" filterUnits="userSpaceOnUse"><feFlood flood-opacity="0" result="BackgroundImageFix"/><feBlend in="SourceGraphic" in2="BackgroundImageFix" result="shape"/><feColorMatrix in="SourceAlpha" result="hardAlpha" values="0 0 0 0 0 0 0 0 0 0 0 0 0 0 0 0 0 0 127 0"/><feOffset dy="-.25"/><feGaussianBlur stdDeviation=".375"/><feComposite in2="hardAlpha" k2="-1" k3="1" operator="arithmetic"/><feColorMatrix values="0 0 0 0 0.572549 0 0 0 0 0.372549 0 0 0 0 0.501961 0 0 0 1 0"/><feBlend in2="shape" result="effect1_innerShadow_4002_1296"/></filter><filter id="n" width="1.41" height="1.949" x="24.485" y="7.263" color-interpolation-filters="sRGB" filterUnits="userSpaceOnUse"><feFlood flood-opacity="0" result="BackgroundImageFix"/><feBlend in="SourceGraphic" in2="BackgroundImageFix" result="shape"/><feColorMatrix in="SourceAlpha" result="hardAlpha" values="0 0 0 0 0 0 0 0 0 0 0 0 0 0 0 0 0 0 127 0"/><feOffset dx=".1"/><feGaussianBlur stdDeviation=".125"/><feComposite in2="hardAlpha" k2="-1" k3="1" operator="arithmetic"/><feColorMatrix values="0 0 0 0 0.533333 0 0 0 0 0.352941 0 0 0 0 0.25098 0 0 0 1 0"/><feBlend in2="shape" result="effect1_innerShadow_4002_1296"/></filter><filter id="q" width="6.555" height="7.624" x="14.255" y="10.454" color-interpolation-filters="sRGB" filterUnits="userSpaceOnUse"><feFlood flood-opacity="0" result="BackgroundImageFix"/><feBlend in="SourceGraphic" in2="BackgroundImageFix" result="shape"/><feColorMatrix in="SourceAlpha" result="hardAlpha" values="0 0 0 0 0 0 0 0 0 0 0 0 0 0 0 0 0 0 127 0"/><feOffset dy=".2"/><feGaussianBlur stdDeviation=".15"/><feComposite in2="hardAlpha" k2="-1" k3="1" operator="arithmetic"/><feColorMatrix values="0 0 0 0 1 0 0 0 0 0.470588 0 0 0 0 0.0117647 0 0 0 1 0"/><feBlend in2="shape" result="effect1_innerShadow_4002_1296"/></filter><filter id="v" width="4.212" height="3.197" x="15.358" y="10.239" color-interpolation-filters="sRGB" filterUnits="userSpaceOnUse"><feFlood flood-opacity="0" result="BackgroundImageFix"/><feBlend in="SourceGraphic" in2="BackgroundImageFix" result="shape"/><feColorMatrix in="SourceAlpha" result="hardAlpha" values="0 0 0 0 0 0 0 0 0 0 0 0 0 0 0 0 0 0 127 0"/><feOffset dx="-.1" dy=".1"/><feGaussianBlur stdDeviation=".15"/><feComposite in2="hardAlpha" k2="-1" k3="1" operator="arithmetic"/><feColorMatrix values="0 0 0 0 0.533333 0 0 0 0 0.333333 0 0 0 0 0.231373 0 0 0 1 0"/><feBlend in2="shape" result="effect1_innerShadow_4002_1296"/></filter><filter id="x" width="11.112" height="3.615" x="10.829" y="25.843" color-interpolation-filters="sRGB" filterUnits="userSpaceOnUse"><feFlood flood-opacity="0" result="BackgroundImageFix"/><feBlend in="SourceGraphic" in2="BackgroundImageFix" result="shape"/><feGaussianBlur result="effect1_foregroundBlur_4002_1296" stdDeviation=".2"/></filter><filter id="z" width="3.297" height="3.17" x="8.245" y="23.873" color-interpolation-filters="sRGB" filterUnits="userSpaceOnUse"><feFlood flood-opacity="0" result="BackgroundImageFix"/><feBlend in="SourceGraphic" in2="BackgroundImageFix" result="shape"/><feGaussianBlur result="effect1_foregroundBlur_4002_1296" stdDeviation=".2"/></filter><filter id="B" width="3.085" height="3.032" x="11.506" y="23.355" color-interpolation-filters="sRGB" filterUnits="userSpaceOnUse"><feFlood flood-opacity="0" result="BackgroundImageFix"/><feBlend in="SourceGraphic" in2="BackgroundImageFix" result="shape"/><feGaussianBlur result="effect1_foregroundBlur_4002_1296" stdDeviation=".2"/></filter><filter id="D" width="4.07" height="2.867" x="20.64" y="11.71" color-interpolation-filters="sRGB" filterUnits="userSpaceOnUse"><feFlood flood-opacity="0" result="BackgroundImageFix"/><feBlend in="SourceGraphic" in2="BackgroundImageFix" result="shape"/><feGaussianBlur result="effect1_foregroundBlur_4002_1296" stdDeviation=".25"/></filter><filter id="F" width="2.394" height="7.066" x="24.256" y="7.842" color-interpolation-filters="sRGB" filterUnits="userSpaceOnUse"><feFlood flood-opacity="0" result="BackgroundImageFix"/><feBlend in="SourceGraphic" in2="BackgroundImageFix" result="shape"/><feGaussianBlur result="effect1_foregroundBlur_4002_1296" stdDeviation=".3"/></filter><filter id="G" width="2.251" height="3.579" x="23.392" y="7.165" color-interpolation-filters="sRGB" filterUnits="userSpaceOnUse"><feFlood flood-opacity="0" result="BackgroundImageFix"/><feBlend in="SourceGraphic" in2="BackgroundImageFix" result="shape"/><feGaussianBlur result="effect1_foregroundBlur_4002_1296" stdDeviation=".2"/></filter><filter id="I" width="6.781" height="4.219" x="7.807" y="12.273" color-interpolation-filters="sRGB" filterUnits="userSpaceOnUse"><feFlood flood-opacity="0" result="BackgroundImageFix"/><feBlend in="SourceGraphic" in2="BackgroundImageFix" result="shape"/><feGaussianBlur result="effect1_foregroundBlur_4002_1296" stdDeviation=".25"/></filter><filter id="M" width="6.865" height="7.182" x="14.609" y="3.606" color-interpolation-filters="sRGB" filterUnits="userSpaceOnUse"><feFlood flood-opacity="0" result="BackgroundImageFix"/><feBlend in="SourceGraphic" in2="BackgroundImageFix" result="shape"/><feColorMatrix in="SourceAlpha" result="hardAlpha" values="0 0 0 0 0 0 0 0 0 0 0 0 0 0 0 0 0 0 127 0"/><feOffset dx="1"/><feGaussianBlur stdDeviation=".7"/><feComposite in2="hardAlpha" k2="-1" k3="1" operator="arithmetic"/><feColorMatrix values="0 0 0 0 0.584314 0 0 0 0 0.427451 0 0 0 0 0.376471 0 0 0 1 0"/><feBlend in2="shape" result="effect1_innerShadow_4002_1296"/><feColorMatrix in="SourceAlpha" result="hardAlpha" values="0 0 0 0 0 0 0 0 0 0 0 0 0 0 0 0 0 0 127 0"/><feOffset dy=".1"/><feGaussianBlur stdDeviation=".2"/><feComposite in2="hardAlpha" k2="-1" k3="1" operator="arithmetic"/><feColorMatrix values="0 0 0 0 0.419608 0 0 0 0 0.25098 0 0 0 0 0.262745 0 0 0 1 0"/><feBlend in2="effect1_innerShadow_4002_1296" result="effect2_innerShadow_4002_1296"/></filter><filter id="X" width="3.002" height="3.664" x="15.932" y="5.673" color-interpolation-filters="sRGB" filterUnits="userSpaceOnUse"><feFlood flood-opacity="0" result="BackgroundImageFix"/><feBlend in="SourceGraphic" in2="BackgroundImageFix" result="shape"/><feGaussianBlur result="effect1_foregroundBlur_4002_1296" stdDeviation=".5"/></filter><filter id="Y" width="1.177" height="1.764" x="16.926" y="6.511" color-interpolation-filters="sRGB" filterUnits="userSpaceOnUse"><feFlood flood-opacity="0" result="BackgroundImageFix"/><feBlend in="SourceGraphic" in2="BackgroundImageFix" result="shape"/><feGaussianBlur result="effect1_foregroundBlur_4002_1296" stdDeviation=".025"/></filter><filter id="ae" width="2.047" height=".816" x="16.491" y="8.51" color-interpolation-filters="sRGB" filterUnits="userSpaceOnUse"><feFlood flood-opacity="0" result="BackgroundImageFix"/><feBlend in="SourceGraphic" in2="BackgroundImageFix" result="shape"/><feGaussianBlur result="effect1_foregroundBlur_4002_1296" stdDeviation=".025"/></filter><filter id="ah" width="7.387" height="5.008" x="13.821" y="1.57" color-interpolation-filters="sRGB" filterUnits="userSpaceOnUse"><feFlood flood-opacity="0" result="BackgroundImageFix"/><feBlend in="SourceGraphic" in2="BackgroundImageFix" result="shape"/><feColorMatrix in="SourceAlpha" result="hardAlpha" values="0 0 0 0 0 0 0 0 0 0 0 0 0 0 0 0 0 0 127 0"/><feOffset dy="-.5"/><feGaussianBlur stdDeviation=".625"/><feComposite in2="hardAlpha" k2="-1" k3="1" operator="arithmetic"/><feColorMatrix values="0 0 0 0 0.266667 0 0 0 0 0.152941 0 0 0 0 0.184314 0 0 0 1 0"/><feBlend in2="shape" result="effect1_innerShadow_4002_1296"/><feColorMatrix in="SourceAlpha" result="hardAlpha" values="0 0 0 0 0 0 0 0 0 0 0 0 0 0 0 0 0 0 127 0"/><feOffset dy="-.2"/><feGaussianBlur stdDeviation=".2"/><feComposite in2="hardAlpha" k2="-1" k3="1" operator="arithmetic"/><feColorMatrix values="0 0 0 0 0.258824 0 0 0 0 0.133333 0 0 0 0 0.172549 0 0 0 1 0"/><feBlend in2="effect1_innerShadow_4002_1296" result="effect2_innerShadow_4002_1296"/></filter><filter id="am" width="1.385" height=".768" x="18.427" y="4.948" color-interpolation-filters="sRGB" filterUnits="userSpaceOnUse"><feFlood flood-opacity="0" result="BackgroundImageFix"/><feBlend in="SourceGraphic" in2="BackgroundImageFix" result="shape"/><feColorMatrix in="SourceAlpha" result="hardAlpha" values="0 0 0 0 0 0 0 0 0 0 0 0 0 0 0 0 0 0 127 0"/><feOffset dx=".1" dy="-.2"/><feGaussianBlur stdDeviation=".125"/><feComposite in2="hardAlpha" k2="-1" k3="1" operator="arithmetic"/><feColorMatrix values="0 0 0 0 0.243137 0 0 0 0 0.121569 0 0 0 0 0.2 0 0 0 1 0"/><feBlend in2="shape" result="effect1_innerShadow_4002_1296"/></filter><filter id="an" width="1.385" height=".76" x="15.41" y="4.956" color-interpolation-filters="sRGB" filterUnits="userSpaceOnUse"><feFlood flood-opacity="0" result="BackgroundImageFix"/><feBlend in="SourceGraphic" in2="BackgroundImageFix" result="shape"/><feColorMatrix in="SourceAlpha" result="hardAlpha" values="0 0 0 0 0 0 0 0 0 0 0 0 0 0 0 0 0 0 127 0"/><feOffset dx=".1" dy="-.2"/><feGaussianBlur stdDeviation=".125"/><feComposite in2="hardAlpha" k2="-1" k3="1" operator="arithmetic"/><feColorMatrix values="0 0 0 0 0.243137 0 0 0 0 0.121569 0 0 0 0 0.2 0 0 0 1 0"/><feBlend in2="shape" result="effect1_innerShadow_4002_1296"/></filter><filter id="ao" width="3.791" height="3.444" x="14.018" y="2.408" color-interpolation-filters="sRGB" filterUnits="userSpaceOnUse"><feFlood flood-opacity="0" result="BackgroundImageFix"/><feBlend in="SourceGraphic" in2="BackgroundImageFix" result="shape"/><feColorMatrix in="SourceAlpha" result="hardAlpha" values="0 0 0 0 0 0 0 0 0 0 0 0 0 0 0 0 0 0 127 0"/><feOffset dx=".1" dy=".1"/><feGaussianBlur stdDeviation=".1"/><feComposite in2="hardAlpha" k2="-1" k3="1" operator="arithmetic"/><feColorMatrix values="0 0 0 0 0.364706 0 0 0 0 0.286275 0 0 0 0 0.270588 0 0 0 1 0"/><feBlend in2="shape" result="effect1_innerShadow_4002_1296"/><feGaussianBlur result="effect2_foregroundBlur_4002_1296" stdDeviation=".075"/></filter><filter id="ar" width="4.42" height="3.605" x="17.511" y="2.343" color-interpolation-filters="sRGB" filterUnits="userSpaceOnUse"><feFlood flood-opacity="0" result="BackgroundImageFix"/><feBlend in="SourceGraphic" in2="BackgroundImageFix" result="shape"/><feColorMatrix in="SourceAlpha" result="hardAlpha" values="0 0 0 0 0 0 0 0 0 0 0 0 0 0 0 0 0 0 127 0"/><feOffset dx="1" dy="-.5"/><feGaussianBlur stdDeviation=".5"/><feComposite in2="hardAlpha" k2="-1" k3="1" operator="arithmetic"/><feColorMatrix values="0 0 0 0 0.282353 0 0 0 0 0.168627 0 0 0 0 0.188235 0 0 0 1 0"/><feBlend in2="shape" result="effect1_innerShadow_4002_1296"/><feGaussianBlur result="effect2_foregroundBlur_4002_1296" stdDeviation=".075"/></filter><filter id="aw" width=".536" height=".484" x="18.303" y="6.326" color-interpolation-filters="sRGB" filterUnits="userSpaceOnUse"><feFlood flood-opacity="0" result="BackgroundImageFix"/><feBlend in="SourceGraphic" in2="BackgroundImageFix" result="shape"/><feGaussianBlur result="effect1_foregroundBlur_4002_1296" stdDeviation=".05"/></filter><filter id="ay" width=".682" height=".694" x="18.742" y="6.326" color-interpolation-filters="sRGB" filterUnits="userSpaceOnUse"><feFlood flood-opacity="0" result="BackgroundImageFix"/><feBlend in="SourceGraphic" in2="BackgroundImageFix" result="shape"/><feGaussianBlur result="effect1_foregroundBlur_4002_1296" stdDeviation=".1"/></filter><filter id="aB" width=".736" height=".767" x="16.193" y="6.29" color-interpolation-filters="sRGB" filterUnits="userSpaceOnUse"><feFlood flood-opacity="0" result="BackgroundImageFix"/><feBlend in="SourceGraphic" in2="BackgroundImageFix" result="shape"/><feGaussianBlur result="effect1_foregroundBlur_4002_1296" stdDeviation=".1"/></filter><filter id="aD" width=".609" height=".489" x="15.802" y="6.321" color-interpolation-filters="sRGB" filterUnits="userSpaceOnUse"><feFlood flood-opacity="0" result="BackgroundImageFix"/><feBlend in="SourceGraphic" in2="BackgroundImageFix" result="shape"/><feGaussianBlur result="effect1_foregroundBlur_4002_1296" stdDeviation=".05"/></filter><filter id="aL" width=".976" height="1.578" x="13.919" y="6.209" color-interpolation-filters="sRGB" filterUnits="userSpaceOnUse"><feFlood flood-opacity="0" result="BackgroundImageFix"/><feBlend in="SourceGraphic" in2="BackgroundImageFix" result="shape"/><feGaussianBlur result="effect1_foregroundBlur_4002_1296" stdDeviation=".125"/></filter><filter id="aN" width="1.462" height="2.009" x="19.913" y="5.99" color-interpolation-filters="sRGB" filterUnits="userSpaceOnUse"><feFlood flood-opacity="0" result="BackgroundImageFix"/><feBlend in="SourceGraphic" in2="BackgroundImageFix" result="shape"/><feGaussianBlur result="effect1_foregroundBlur_4002_1296" stdDeviation=".25"/></filter><filter id="aP" width="3.219" height="1.887" x="18.028" y="2.856" color-interpolation-filters="sRGB" filterUnits="userSpaceOnUse"><feFlood flood-opacity="0" result="BackgroundImageFix"/><feBlend in="SourceGraphic" in2="BackgroundImageFix" result="shape"/><feGaussianBlur result="effect1_foregroundBlur_4002_1296" stdDeviation=".25"/></filter><linearGradient id="e" x1="6.762" x2="7.023" y1="16.843" y2="16.843" gradientUnits="userSpaceOnUse"><stop stop-color="#A27C6E"/><stop offset="1" stop-color="#A27C6E" stop-opacity="0"/></linearGradient><linearGradient id="i" x1="10.656" x2="11.312" y1="14.335" y2="16.773" gradientUnits="userSpaceOnUse"><stop stop-color="#95715F"/><stop offset="1" stop-color="#9E6B76"/></linearGradient><linearGradient id="k" x1="22.218" x2="22.984" y1="14.335" y2="12.945" gradientUnits="userSpaceOnUse"><stop stop-color="#9F656A"/><stop offset="1" stop-color="#A57173" stop-opacity="0"/></linearGradient><linearGradient id="t" x1="13.802" x2="15.755" y1="16.085" y2="16.085" gradientUnits="userSpaceOnUse"><stop stop-color="#DB6229"/><stop offset="1" stop-color="#FB711E" stop-opacity="0"/></linearGradient><linearGradient id="y" x1="11.768" x2="20.875" y1="27.015" y2="28.857" gradientUnits="userSpaceOnUse"><stop stop-color="#40B87C"/><stop offset="1" stop-color="#40B87C" stop-opacity="0"/></linearGradient><linearGradient id="A" x1="10.518" x2="8.203" y1="25.808" y2="25.435" gradientUnits="userSpaceOnUse"><stop offset=".302" stop-color="#40B87C"/><stop offset="1" stop-color="#40B87C" stop-opacity="0"/></linearGradient><linearGradient id="C" x1="14.013" x2="13.482" y1="24.145" y2="26.255" gradientUnits="userSpaceOnUse"><stop stop-color="#40B87C"/><stop offset="1" stop-color="#40B87C" stop-opacity="0"/></linearGradient><linearGradient id="E" x1="24.406" x2="22.549" y1="14.21" y2="15.252" gradientUnits="userSpaceOnUse"><stop offset=".358" stop-color="#B38A7A"/><stop offset="1" stop-color="#B38A7A" stop-opacity="0"/></linearGradient><linearGradient id="H" x1="24.517" x2="24.517" y1="7.765" y2="10.144" gradientUnits="userSpaceOnUse"><stop offset=".355" stop-color="#B38D7E"/><stop offset="1" stop-color="#B38D7E" stop-opacity="0"/></linearGradient><linearGradient id="J" x1="13.839" x2="13.674" y1="13.023" y2="17.912" gradientUnits="userSpaceOnUse"><stop stop-color="#A87A74"/><stop offset="1" stop-color="#A87A74" stop-opacity="0"/></linearGradient><linearGradient id="P" x1="20.474" x2="19.023" y1="8.114" y2="8.114" gradientUnits="userSpaceOnUse"><stop stop-color="#C2987E"/><stop offset="1" stop-color="#C2987E" stop-opacity="0"/></linearGradient><linearGradient id="Z" x1="17.996" x2="17.515" y1="7.534" y2="7.554" gradientUnits="userSpaceOnUse"><stop stop-color="#CEA58C"/><stop offset="1" stop-color="#CEA58C" stop-opacity="0"/></linearGradient><linearGradient id="ab" x1="17.515" x2="17.515" y1="8.187" y2="7.921" gradientUnits="userSpaceOnUse"><stop stop-color="#9C6376"/><stop offset="1" stop-color="#9C6376" stop-opacity="0"/></linearGradient><linearGradient id="ad" x1="17.515" x2="17.515" y1="6.743" y2="7.295" gradientUnits="userSpaceOnUse"><stop stop-color="#A2756B"/><stop offset="1" stop-color="#A2756B" stop-opacity="0"/></linearGradient><linearGradient id="af" x1="16.825" x2="17.008" y1="9.089" y2="8.61" gradientUnits="userSpaceOnUse"><stop stop-color="#AB817B"/><stop offset="1" stop-color="#AB817B" stop-opacity="0"/></linearGradient><linearGradient id="ai" x1="21.447" x2="14.783" y1="3.897" y2="3.897" gradientUnits="userSpaceOnUse"><stop offset=".471" stop-color="#614440"/><stop offset="1" stop-color="#543F3C"/></linearGradient><linearGradient id="az" x1="19.213" x2="19.033" y1="6.652" y2="6.762" gradientUnits="userSpaceOnUse"><stop stop-color="#B4948D"/><stop offset="1" stop-color="#B4948D" stop-opacity="0"/></linearGradient><linearGradient id="aC" x1="16.689" x2="16.509" y1="6.652" y2="6.762" gradientUnits="userSpaceOnUse"><stop stop-color="#B4948D"/><stop offset="1" stop-color="#B4948D" stop-opacity="0"/></linearGradient><linearGradient id="aF" x1="21.208" x2="20.516" y1="6.667" y2="7.916" gradientUnits="userSpaceOnUse"><stop stop-color="#C9A188"/><stop offset="1" stop-color="#B08175"/></linearGradient><linearGradient id="aJ" x1="14.158" x2="14.995" y1="7.071" y2="6.998" gradientUnits="userSpaceOnUse"><stop stop-color="#855D5A"/><stop offset="1" stop-color="#7D4D5B"/></linearGradient><linearGradient id="aO" x1="20.644" x2="20.644" y1="6.49" y2="7.499" gradientUnits="userSpaceOnUse"><stop stop-color="#AC7F6F"/><stop offset="1" stop-color="#AD806F"/></linearGradient></defs></svg>