<svg width="100%" height="100%" viewBox="0 0 32 32" xmlns="http://www.w3.org/2000/svg"><path fill="url(#a)" d="M21.572 6.66c.126 1.058-.063 1.734-.309 2.133 2.029.56 3.879 1.974 4.743 3.82.625 1.532.66 3.359.192 5.027 2.483 1.207 4.302 3.907 4.302 6.789 0 3.722-2.723 6.399-6.574 6.624v.016H8.53v-.004C3.76 30.95 1.5 27.75 1.5 24.023c0-2.494 2.149-5.47 4.549-6.49-.002-.22.02-.387.056-.512-.929-1.88.021-3.78.618-4.5l.227-.294.01-.013c.83-1.083 1.331-1.736 4.895-3.279 3.887-1.683 5.269-3.336 5.8-4.006.146-.184.281-.425.42-.672.366-.652.763-1.358 1.478-1.245.987.156 1.761 1.465 2.02 3.647"/><path fill="url(#b)" fill-opacity=".3" d="M21.572 6.66c.126 1.058-.063 1.734-.309 2.133 2.029.56 3.879 1.974 4.743 3.82.625 1.532.66 3.359.192 5.027 2.483 1.207 4.302 3.907 4.302 6.789 0 3.722-2.723 6.399-6.574 6.624v.016H8.53v-.004C3.76 30.95 1.5 27.75 1.5 24.023c0-2.494 2.149-5.47 4.549-6.49-.002-.22.02-.387.056-.512-.929-1.88.021-3.78.618-4.5l.227-.294.01-.013c.83-1.083 1.331-1.736 4.895-3.279 3.887-1.683 5.269-3.336 5.8-4.006.146-.184.281-.425.42-.672.366-.652.763-1.358 1.478-1.245.987.156 1.761 1.465 2.02 3.647"/><path fill="url(#c)" d="M21.572 6.66c.126 1.058-.063 1.734-.309 2.133 2.029.56 3.879 1.974 4.743 3.82.625 1.532.66 3.359.192 5.027 2.483 1.207 4.302 3.907 4.302 6.789 0 3.722-2.723 6.399-6.574 6.624v.016H8.53v-.004C3.76 30.95 1.5 27.75 1.5 24.023c0-2.494 2.149-5.47 4.549-6.49-.002-.22.02-.387.056-.512-.929-1.88.021-3.78.618-4.5l.227-.294.01-.013c.83-1.083 1.331-1.736 4.895-3.279 3.887-1.683 5.269-3.336 5.8-4.006.146-.184.281-.425.42-.672.366-.652.763-1.358 1.478-1.245.987.156 1.761 1.465 2.02 3.647"/><path fill="url(#d)" d="M21.572 6.66c.126 1.058-.063 1.734-.309 2.133 2.029.56 3.879 1.974 4.743 3.82.625 1.532.66 3.359.192 5.027 2.483 1.207 4.302 3.907 4.302 6.789 0 3.722-2.723 6.399-6.574 6.624v.016H8.53v-.004C3.76 30.95 1.5 27.75 1.5 24.023c0-2.494 2.149-5.47 4.549-6.49-.002-.22.02-.387.056-.512-.929-1.88.021-3.78.618-4.5l.227-.294.01-.013c.83-1.083 1.331-1.736 4.895-3.279 3.887-1.683 5.269-3.336 5.8-4.006.146-.184.281-.425.42-.672.366-.652.763-1.358 1.478-1.245.987.156 1.761 1.465 2.02 3.647"/><path fill="url(#e)" fill-opacity=".8" d="M21.572 6.66c.126 1.058-.063 1.734-.309 2.133 2.029.56 3.879 1.974 4.743 3.82.625 1.532.66 3.359.192 5.027 2.483 1.207 4.302 3.907 4.302 6.789 0 3.722-2.723 6.399-6.574 6.624v.016H8.53v-.004C3.76 30.95 1.5 27.75 1.5 24.023c0-2.494 2.149-5.47 4.549-6.49-.002-.22.02-.387.056-.512-.929-1.88.021-3.78.618-4.5l.227-.294.01-.013c.83-1.083 1.331-1.736 4.895-3.279 3.887-1.683 5.269-3.336 5.8-4.006.146-.184.281-.425.42-.672.366-.652.763-1.358 1.478-1.245.987.156 1.761 1.465 2.02 3.647"/><path fill="url(#f)" d="M21.572 6.66c.126 1.058-.063 1.734-.309 2.133 2.029.56 3.879 1.974 4.743 3.82.625 1.532.66 3.359.192 5.027 2.483 1.207 4.302 3.907 4.302 6.789 0 3.722-2.723 6.399-6.574 6.624v.016H8.53v-.004C3.76 30.95 1.5 27.75 1.5 24.023c0-2.494 2.149-5.47 4.549-6.49-.002-.22.02-.387.056-.512-.929-1.88.021-3.78.618-4.5l.227-.294.01-.013c.83-1.083 1.331-1.736 4.895-3.279 3.887-1.683 5.269-3.336 5.8-4.006.146-.184.281-.425.42-.672.366-.652.763-1.358 1.478-1.245.987.156 1.761 1.465 2.02 3.647"/><path fill="url(#g)" d="M21.572 6.66c.126 1.058-.063 1.734-.309 2.133 2.029.56 3.879 1.974 4.743 3.82.625 1.532.66 3.359.192 5.027 2.483 1.207 4.302 3.907 4.302 6.789 0 3.722-2.723 6.399-6.574 6.624v.016H8.53v-.004C3.76 30.95 1.5 27.75 1.5 24.023c0-2.494 2.149-5.47 4.549-6.49-.002-.22.02-.387.056-.512-.929-1.88.021-3.78.618-4.5l.227-.294.01-.013c.83-1.083 1.331-1.736 4.895-3.279 3.887-1.683 5.269-3.336 5.8-4.006.146-.184.281-.425.42-.672.366-.652.763-1.358 1.478-1.245.987.156 1.761 1.465 2.02 3.647"/><path fill="url(#h)" d="M21.572 6.66c.126 1.058-.063 1.734-.309 2.133 2.029.56 3.879 1.974 4.743 3.82.625 1.532.66 3.359.192 5.027 2.483 1.207 4.302 3.907 4.302 6.789 0 3.722-2.723 6.399-6.574 6.624v.016H8.53v-.004C3.76 30.95 1.5 27.75 1.5 24.023c0-2.494 2.149-5.47 4.549-6.49-.002-.22.02-.387.056-.512-.929-1.88.021-3.78.618-4.5l.227-.294.01-.013c.83-1.083 1.331-1.736 4.895-3.279 3.887-1.683 5.269-3.336 5.8-4.006.146-.184.281-.425.42-.672.366-.652.763-1.358 1.478-1.245.987.156 1.761 1.465 2.02 3.647"/><path fill="url(#i)" d="M21.572 6.66c.126 1.058-.063 1.734-.309 2.133 2.029.56 3.879 1.974 4.743 3.82.625 1.532.66 3.359.192 5.027 2.483 1.207 4.302 3.907 4.302 6.789 0 3.722-2.723 6.399-6.574 6.624v.016H8.53v-.004C3.76 30.95 1.5 27.75 1.5 24.023c0-2.494 2.149-5.47 4.549-6.49-.002-.22.02-.387.056-.512-.929-1.88.021-3.78.618-4.5l.227-.294.01-.013c.83-1.083 1.331-1.736 4.895-3.279 3.887-1.683 5.269-3.336 5.8-4.006.146-.184.281-.425.42-.672.366-.652.763-1.358 1.478-1.245.987.156 1.761 1.465 2.02 3.647"/><path fill="url(#j)" d="M21.572 6.66c.126 1.058-.063 1.734-.309 2.133 2.029.56 3.879 1.974 4.743 3.82.625 1.532.66 3.359.192 5.027 2.483 1.207 4.302 3.907 4.302 6.789 0 3.722-2.723 6.399-6.574 6.624v.016H8.53v-.004C3.76 30.95 1.5 27.75 1.5 24.023c0-2.494 2.149-5.47 4.549-6.49-.002-.22.02-.387.056-.512-.929-1.88.021-3.78.618-4.5l.227-.294.01-.013c.83-1.083 1.331-1.736 4.895-3.279 3.887-1.683 5.269-3.336 5.8-4.006.146-.184.281-.425.42-.672.366-.652.763-1.358 1.478-1.245.987.156 1.761 1.465 2.02 3.647"/><path fill="url(#k)" d="M21.572 6.66c.126 1.058-.063 1.734-.309 2.133 2.029.56 3.879 1.974 4.743 3.82.625 1.532.66 3.359.192 5.027 2.483 1.207 4.302 3.907 4.302 6.789 0 3.722-2.723 6.399-6.574 6.624v.016H8.53v-.004C3.76 30.95 1.5 27.75 1.5 24.023c0-2.494 2.149-5.47 4.549-6.49-.002-.22.02-.387.056-.512-.929-1.88.021-3.78.618-4.5l.227-.294.01-.013c.83-1.083 1.331-1.736 4.895-3.279 3.887-1.683 5.269-3.336 5.8-4.006.146-.184.281-.425.42-.672.366-.652.763-1.358 1.478-1.245.987.156 1.761 1.465 2.02 3.647"/><path fill="url(#l)" d="M21.572 6.66c.126 1.058-.063 1.734-.309 2.133 2.029.56 3.879 1.974 4.743 3.82.625 1.532.66 3.359.192 5.027 2.483 1.207 4.302 3.907 4.302 6.789 0 3.722-2.723 6.399-6.574 6.624v.016H8.53v-.004C3.76 30.95 1.5 27.75 1.5 24.023c0-2.494 2.149-5.47 4.549-6.49-.002-.22.02-.387.056-.512-.929-1.88.021-3.78.618-4.5l.227-.294.01-.013c.83-1.083 1.331-1.736 4.895-3.279 3.887-1.683 5.269-3.336 5.8-4.006.146-.184.281-.425.42-.672.366-.652.763-1.358 1.478-1.245.987.156 1.761 1.465 2.02 3.647"/><path fill="url(#m)" d="M21.572 6.66c.126 1.058-.063 1.734-.309 2.133 2.029.56 3.879 1.974 4.743 3.82.625 1.532.66 3.359.192 5.027 2.483 1.207 4.302 3.907 4.302 6.789 0 3.722-2.723 6.399-6.574 6.624v.016H8.53v-.004C3.76 30.95 1.5 27.75 1.5 24.023c0-2.494 2.149-5.47 4.549-6.49-.002-.22.02-.387.056-.512-.929-1.88.021-3.78.618-4.5l.227-.294.01-.013c.83-1.083 1.331-1.736 4.895-3.279 3.887-1.683 5.269-3.336 5.8-4.006.146-.184.281-.425.42-.672.366-.652.763-1.358 1.478-1.245.987.156 1.761 1.465 2.02 3.647"/><path fill="url(#n)" d="M21.572 6.66c.126 1.058-.063 1.734-.309 2.133 2.029.56 3.879 1.974 4.743 3.82.625 1.532.66 3.359.192 5.027 2.483 1.207 4.302 3.907 4.302 6.789 0 3.722-2.723 6.399-6.574 6.624v.016H8.53v-.004C3.76 30.95 1.5 27.75 1.5 24.023c0-2.494 2.149-5.47 4.549-6.49-.002-.22.02-.387.056-.512-.929-1.88.021-3.78.618-4.5l.227-.294.01-.013c.83-1.083 1.331-1.736 4.895-3.279 3.887-1.683 5.269-3.336 5.8-4.006.146-.184.281-.425.42-.672.366-.652.763-1.358 1.478-1.245.987.156 1.761 1.465 2.02 3.647"/><path fill="url(#o)" d="M21.572 6.66c.126 1.058-.063 1.734-.309 2.133 2.029.56 3.879 1.974 4.743 3.82.625 1.532.66 3.359.192 5.027 2.483 1.207 4.302 3.907 4.302 6.789 0 3.722-2.723 6.399-6.574 6.624v.016H8.53v-.004C3.76 30.95 1.5 27.75 1.5 24.023c0-2.494 2.149-5.47 4.549-6.49-.002-.22.02-.387.056-.512-.929-1.88.021-3.78.618-4.5l.227-.294.01-.013c.83-1.083 1.331-1.736 4.895-3.279 3.887-1.683 5.269-3.336 5.8-4.006.146-.184.281-.425.42-.672.366-.652.763-1.358 1.478-1.245.987.156 1.761 1.465 2.02 3.647"/><path fill="url(#p)" d="M21.572 6.66c.126 1.058-.063 1.734-.309 2.133 2.029.56 3.879 1.974 4.743 3.82.625 1.532.66 3.359.192 5.027 2.483 1.207 4.302 3.907 4.302 6.789 0 3.722-2.723 6.399-6.574 6.624v.016H8.53v-.004C3.76 30.95 1.5 27.75 1.5 24.023c0-2.494 2.149-5.47 4.549-6.49-.002-.22.02-.387.056-.512-.929-1.88.021-3.78.618-4.5l.227-.294.01-.013c.83-1.083 1.331-1.736 4.895-3.279 3.887-1.683 5.269-3.336 5.8-4.006.146-.184.281-.425.42-.672.366-.652.763-1.358 1.478-1.245.987.156 1.761 1.465 2.02 3.647"/><path fill="url(#q)" d="M21.572 6.66c.126 1.058-.063 1.734-.309 2.133 2.029.56 3.879 1.974 4.743 3.82.625 1.532.66 3.359.192 5.027 2.483 1.207 4.302 3.907 4.302 6.789 0 3.722-2.723 6.399-6.574 6.624v.016H8.53v-.004C3.76 30.95 1.5 27.75 1.5 24.023c0-2.494 2.149-5.47 4.549-6.49-.002-.22.02-.387.056-.512-.929-1.88.021-3.78.618-4.5l.227-.294.01-.013c.83-1.083 1.331-1.736 4.895-3.279 3.887-1.683 5.269-3.336 5.8-4.006.146-.184.281-.425.42-.672.366-.652.763-1.358 1.478-1.245.987.156 1.761 1.465 2.02 3.647"/><path fill="url(#r)" d="M21.572 6.66c.126 1.058-.063 1.734-.309 2.133 2.029.56 3.879 1.974 4.743 3.82.625 1.532.66 3.359.192 5.027 2.483 1.207 4.302 3.907 4.302 6.789 0 3.722-2.723 6.399-6.574 6.624v.016H8.53v-.004C3.76 30.95 1.5 27.75 1.5 24.023c0-2.494 2.149-5.47 4.549-6.49-.002-.22.02-.387.056-.512-.929-1.88.021-3.78.618-4.5l.227-.294.01-.013c.83-1.083 1.331-1.736 4.895-3.279 3.887-1.683 5.269-3.336 5.8-4.006.146-.184.281-.425.42-.672.366-.652.763-1.358 1.478-1.245.987.156 1.761 1.465 2.02 3.647"/><path fill="url(#s)" d="M20.225 10.91c-.213.546-4.54 1.781-6.18 1.298-1.595-.261-1.25-1.465-.136-2.87 1.64-2.07 4.946-4.579 6.175-5.165.962-.459 1.387 1.815 1.393 1.85.19 1.096.183 1.727-.034 2.39-.184.562-.858 1.831-1.218 2.498"/><path fill="url(#t)" fill-opacity=".4" d="M20.225 10.91c-.213.546-4.54 1.781-6.18 1.298-1.595-.261-1.25-1.465-.136-2.87 1.64-2.07 4.946-4.579 6.175-5.165.962-.459 1.387 1.815 1.393 1.85.19 1.096.183 1.727-.034 2.39-.184.562-.858 1.831-1.218 2.498"/><path fill="url(#u)" d="M20.225 10.91c-.213.546-4.54 1.781-6.18 1.298-1.595-.261-1.25-1.465-.136-2.87 1.64-2.07 4.946-4.579 6.175-5.165.962-.459 1.387 1.815 1.393 1.85.19 1.096.183 1.727-.034 2.39-.184.562-.858 1.831-1.218 2.498"/><path fill="url(#v)" d="M12.125 25.159h7.906c0 2.379-1.77 3.918-3.953 3.918s-3.953-1.476-3.953-3.918"/><path fill="#fff" fill-rule="evenodd" d="M15.085 19.619a4.485 4.485 0 1 1-8.97 0 4.485 4.485 0 0 1 8.97 0m10.899 0a4.485 4.485 0 1 1-8.97 0 4.485 4.485 0 0 1 8.97 0" clip-rule="evenodd"/><path fill="url(#w)" fill-rule="evenodd" d="M11.515 22.131a2.483 2.483 0 1 0 0-4.967 2.483 2.483 0 0 0 0 4.967m9.011 0a2.483 2.483 0 1 0 0-4.967 2.483 2.483 0 0 0 0 4.967" clip-rule="evenodd"/><defs><radialGradient id="b" cx="0" cy="0" r="1" gradientTransform="matrix(0 1.93279 -1.99692 0 16 19.316)" gradientUnits="userSpaceOnUse"><stop stop-color="#822079"/><stop offset="1" stop-color="#B20597" stop-opacity="0"/></radialGradient><radialGradient id="d" cx="0" cy="0" r="1" gradientTransform="rotate(45 -9.262 40.408)scale(.78907 .93419)" gradientUnits="userSpaceOnUse"><stop stop-color="#D9D9D9" stop-opacity=".54"/><stop offset=".523" stop-color="#D9D9D9" stop-opacity=".181"/><stop offset=".95" stop-color="#D9D9D9" stop-opacity="0"/><stop offset="1" stop-color="#D9D9D9" stop-opacity="0"/></radialGradient><radialGradient id="e" cx="0" cy="0" r="1" gradientTransform="rotate(73.544 2.953 21.463)scale(5.19048 14.2032)" gradientUnits="userSpaceOnUse"><stop stop-color="#DD978A" stop-opacity=".74"/><stop offset=".358" stop-color="#DD978A" stop-opacity=".414"/><stop offset=".617" stop-color="#DD978A" stop-opacity="0"/></radialGradient><radialGradient id="f" cx="0" cy="0" r="1" gradientTransform="matrix(4.5301 -.25522 .61006 10.82863 9.893 15.736)" gradientUnits="userSpaceOnUse"><stop stop-color="#754238"/><stop offset="1" stop-color="#7B4A40" stop-opacity="0"/></radialGradient><radialGradient id="g" cx="0" cy="0" r="1" gradientTransform="matrix(1.16215 5.2581 -16.89105 3.73328 23.649 23.203)" gradientUnits="userSpaceOnUse"><stop stop-color="#F7B8AC" stop-opacity=".58"/><stop offset=".818" stop-color="#E09B8E" stop-opacity=".079"/><stop offset="1" stop-color="#DD978A" stop-opacity="0"/></radialGradient><radialGradient id="h" cx="0" cy="0" r="1" gradientTransform="matrix(-5.56339 0 0 -5.74798 20.89 19.882)" gradientUnits="userSpaceOnUse"><stop offset=".53" stop-color="#57292C"/><stop offset=".908" stop-color="#57292C" stop-opacity=".088"/><stop offset="1" stop-color="#57292C" stop-opacity="0"/></radialGradient><radialGradient id="i" cx="0" cy="0" r="1" gradientTransform="matrix(-5.22533 0 0 -5.39871 10.054 19.882)" gradientUnits="userSpaceOnUse"><stop offset=".53" stop-color="#57292C"/><stop offset=".908" stop-color="#57292C" stop-opacity=".088"/><stop offset="1" stop-color="#57292C" stop-opacity="0"/></radialGradient><radialGradient id="j" cx="0" cy="0" r="1" gradientTransform="rotate(-141.79 8.29 3.52)scale(1.55639 .47514)" gradientUnits="userSpaceOnUse"><stop stop-color="#C29186"/><stop offset=".347" stop-color="#BC897E" stop-opacity=".729"/><stop offset=".827" stop-color="#AD776B" stop-opacity=".135"/><stop offset="1" stop-color="#AA7367" stop-opacity="0"/></radialGradient><radialGradient id="k" cx="0" cy="0" r="1" gradientTransform="rotate(56.99 .606 24.047)scale(1.01181 2.21296)" gradientUnits="userSpaceOnUse"><stop offset=".123" stop-color="#622C27"/><stop offset=".389" stop-color="#6C3730" stop-opacity=".787"/><stop offset="1" stop-color="#916053" stop-opacity="0"/></radialGradient><radialGradient id="l" cx="0" cy="0" r="1" gradientTransform="rotate(71.664 1.34 16.128)scale(2.66256 6.08868)" gradientUnits="userSpaceOnUse"><stop stop-color="#DD978A" stop-opacity=".78"/><stop offset=".656" stop-color="#DD978A" stop-opacity=".199"/><stop offset="1" stop-color="#DD978A" stop-opacity="0"/></radialGradient><radialGradient id="m" cx="0" cy="0" r="1" gradientTransform="matrix(2.0668 1.18841 -2.71765 4.72635 19.318 8.78)" gradientUnits="userSpaceOnUse"><stop stop-color="#DD978A" stop-opacity=".78"/><stop offset=".656" stop-color="#DD978A" stop-opacity=".199"/><stop offset=".868" stop-color="#DD978A" stop-opacity=".051"/><stop offset="1" stop-color="#DD978A" stop-opacity="0"/></radialGradient><radialGradient id="n" cx="0" cy="0" r="1" gradientTransform="rotate(-30.018 52.485 3.512)scale(2.45416 4.3786)" gradientUnits="userSpaceOnUse"><stop stop-color="#774E46" stop-opacity=".47"/><stop offset=".331" stop-color="#774E46" stop-opacity=".576"/><stop offset="1" stop-color="#774E46" stop-opacity="0"/></radialGradient><radialGradient id="o" cx="0" cy="0" r="1" gradientTransform="matrix(2.1672 .04072 -.09432 5.01933 3.82 22.95)" gradientUnits="userSpaceOnUse"><stop stop-color="#774E46" stop-opacity=".37"/><stop offset=".225" stop-color="#774E46" stop-opacity=".46"/><stop offset="1" stop-color="#774E46" stop-opacity="0"/></radialGradient><radialGradient id="p" cx="0" cy="0" r="1" gradientTransform="rotate(107.167 2.604 11.703)scale(1.51953 5.72417)" gradientUnits="userSpaceOnUse"><stop stop-color="#B07366"/><stop offset=".734" stop-color="#AD7367" stop-opacity=".185"/><stop offset="1" stop-color="#AC7367" stop-opacity="0"/></radialGradient><radialGradient id="q" cx="0" cy="0" r="1" gradientTransform="rotate(84.472 2.046 16.266)scale(1.22741 4.62324)" gradientUnits="userSpaceOnUse"><stop stop-color="#C47E70"/><stop offset=".705" stop-color="#C47E70" stop-opacity=".198"/><stop offset="1" stop-color="#C47E70" stop-opacity="0"/></radialGradient><radialGradient id="r" cx="0" cy="0" r="1" gradientTransform="matrix(.33398 .83496 -3.145 1.258 19.74 12.113)" gradientUnits="userSpaceOnUse"><stop stop-color="#C47E70"/><stop offset=".705" stop-color="#C47E70" stop-opacity=".198"/><stop offset="1" stop-color="#C47E70" stop-opacity="0"/></radialGradient><radialGradient id="s" cx="0" cy="0" r="1" gradientTransform="matrix(-8.80632 7.20122 -3.29838 -4.03356 16.592 7.641)" gradientUnits="userSpaceOnUse"><stop offset=".408" stop-color="#905243" stop-opacity="0"/><stop offset="1" stop-color="#6C3E31"/></radialGradient><radialGradient id="u" cx="0" cy="0" r="1" gradientTransform="rotate(60.732 3.609 17.445)scale(5.97276 8.96174)" gradientUnits="userSpaceOnUse"><stop offset=".652" stop-color="#965B4F" stop-opacity="0"/><stop offset="1" stop-color="#653120"/></radialGradient><linearGradient id="a" x1="16" x2="16" y1="3" y2="31.723" gradientUnits="userSpaceOnUse"><stop stop-color="#A66150"/><stop offset=".75" stop-color="#A66150"/><stop offset=".907" stop-color="#883854"/><stop offset=".977" stop-color="#6A2B4C"/></linearGradient><linearGradient id="c" x1=".836" x2="16" y1="15.755" y2="31.069" gradientUnits="userSpaceOnUse"><stop stop-color="#7C574F"/><stop offset=".277" stop-color="#7C574F" stop-opacity="0"/></linearGradient><linearGradient id="t" x1="17.913" x2="17.498" y1="12.068" y2="10.436" gradientUnits="userSpaceOnUse"><stop stop-color="#220404"/><stop offset="1" stop-color="#390808" stop-opacity="0"/></linearGradient><linearGradient id="v" x1="16.078" x2="16.078" y1="29.725" y2="24.537" gradientUnits="userSpaceOnUse"><stop stop-color="#DB0C8A"/><stop offset="1" stop-color="#8A077D"/></linearGradient><linearGradient id="w" x1="18.434" x2="17.797" y1="16.337" y2="22.18" gradientUnits="userSpaceOnUse"><stop stop-color="#553B3E"/><stop offset="1" stop-color="#3D2432"/></linearGradient></defs></svg>
<svg width="100%" height="100%" viewBox="0 0 32 32" fill="none" xmlns="http://www.w3.org/2000/svg">
<path d="M21.5722 6.65937C21.6975 7.71783 21.509 8.3944 21.2633 8.79309C23.2919 9.35325 25.1416 10.7668 26.0058 12.6136C26.6307 14.1446 26.666 15.9717 26.1978 17.64C28.6812 18.8467 30.5 21.5467 30.5 24.4286C30.5 28.1505 27.777 30.8278 23.9257 31.0533V31.0687H8.52984V31.0653C3.76055 30.9491 1.49999 27.7486 1.5 24.0233C1.50001 21.5293 3.64893 18.5528 6.04851 17.5321C6.04734 17.3134 6.06912 17.1465 6.10527 17.0206C5.17635 15.1416 6.12616 13.241 6.72304 12.5201C6.80275 12.4183 6.87767 12.3206 6.95 12.2269L6.95989 12.2137C7.79077 11.1309 8.2914 10.4784 11.855 8.93508C15.7419 7.25168 17.1236 5.59945 17.655 4.92921C17.8013 4.7446 17.9361 4.50446 18.0752 4.25678C18.4414 3.60456 18.8377 2.899 19.5529 3.012C20.5398 3.16787 21.3141 4.47719 21.5722 6.65937Z" fill="url(#paint0_linear_31_1466)"/>
<path d="M21.5722 6.65937C21.6975 7.71783 21.509 8.3944 21.2633 8.79309C23.2919 9.35325 25.1416 10.7668 26.0058 12.6136C26.6307 14.1446 26.666 15.9717 26.1978 17.64C28.6812 18.8467 30.5 21.5467 30.5 24.4286C30.5 28.1505 27.777 30.8278 23.9257 31.0533V31.0687H8.52984V31.0653C3.76055 30.9491 1.49999 27.7486 1.5 24.0233C1.50001 21.5293 3.64893 18.5528 6.04851 17.5321C6.04734 17.3134 6.06912 17.1465 6.10527 17.0206C5.17635 15.1416 6.12616 13.241 6.72304 12.5201C6.80275 12.4183 6.87767 12.3206 6.95 12.2269L6.95989 12.2137C7.79077 11.1309 8.2914 10.4784 11.855 8.93508C15.7419 7.25168 17.1236 5.59945 17.655 4.92921C17.8013 4.7446 17.9361 4.50446 18.0752 4.25678C18.4414 3.60456 18.8377 2.899 19.5529 3.012C20.5398 3.16787 21.3141 4.47719 21.5722 6.65937Z" fill="url(#paint1_radial_31_1466)" fill-opacity="0.3"/>
<path d="M21.5722 6.65937C21.6975 7.71783 21.509 8.3944 21.2633 8.79309C23.2919 9.35325 25.1416 10.7668 26.0058 12.6136C26.6307 14.1446 26.666 15.9717 26.1978 17.64C28.6812 18.8467 30.5 21.5467 30.5 24.4286C30.5 28.1505 27.777 30.8278 23.9257 31.0533V31.0687H8.52984V31.0653C3.76055 30.9491 1.49999 27.7486 1.5 24.0233C1.50001 21.5293 3.64893 18.5528 6.04851 17.5321C6.04734 17.3134 6.06912 17.1465 6.10527 17.0206C5.17635 15.1416 6.12616 13.241 6.72304 12.5201C6.80275 12.4183 6.87767 12.3206 6.95 12.2269L6.95989 12.2137C7.79077 11.1309 8.2914 10.4784 11.855 8.93508C15.7419 7.25168 17.1236 5.59945 17.655 4.92921C17.8013 4.7446 17.9361 4.50446 18.0752 4.25678C18.4414 3.60456 18.8377 2.899 19.5529 3.012C20.5398 3.16787 21.3141 4.47719 21.5722 6.65937Z" fill="url(#paint2_linear_31_1466)"/>
<path d="M21.5722 6.65937C21.6975 7.71783 21.509 8.3944 21.2633 8.79309C23.2919 9.35325 25.1416 10.7668 26.0058 12.6136C26.6307 14.1446 26.666 15.9717 26.1978 17.64C28.6812 18.8467 30.5 21.5467 30.5 24.4286C30.5 28.1505 27.777 30.8278 23.9257 31.0533V31.0687H8.52984V31.0653C3.76055 30.9491 1.49999 27.7486 1.5 24.0233C1.50001 21.5293 3.64893 18.5528 6.04851 17.5321C6.04734 17.3134 6.06912 17.1465 6.10527 17.0206C5.17635 15.1416 6.12616 13.241 6.72304 12.5201C6.80275 12.4183 6.87767 12.3206 6.95 12.2269L6.95989 12.2137C7.79077 11.1309 8.2914 10.4784 11.855 8.93508C15.7419 7.25168 17.1236 5.59945 17.655 4.92921C17.8013 4.7446 17.9361 4.50446 18.0752 4.25678C18.4414 3.60456 18.8377 2.899 19.5529 3.012C20.5398 3.16787 21.3141 4.47719 21.5722 6.65937Z" fill="url(#paint3_radial_31_1466)"/>
<path d="M21.5722 6.65937C21.6975 7.71783 21.509 8.3944 21.2633 8.79309C23.2919 9.35325 25.1416 10.7668 26.0058 12.6136C26.6307 14.1446 26.666 15.9717 26.1978 17.64C28.6812 18.8467 30.5 21.5467 30.5 24.4286C30.5 28.1505 27.777 30.8278 23.9257 31.0533V31.0687H8.52984V31.0653C3.76055 30.9491 1.49999 27.7486 1.5 24.0233C1.50001 21.5293 3.64893 18.5528 6.04851 17.5321C6.04734 17.3134 6.06912 17.1465 6.10527 17.0206C5.17635 15.1416 6.12616 13.241 6.72304 12.5201C6.80275 12.4183 6.87767 12.3206 6.95 12.2269L6.95989 12.2137C7.79077 11.1309 8.2914 10.4784 11.855 8.93508C15.7419 7.25168 17.1236 5.59945 17.655 4.92921C17.8013 4.7446 17.9361 4.50446 18.0752 4.25678C18.4414 3.60456 18.8377 2.899 19.5529 3.012C20.5398 3.16787 21.3141 4.47719 21.5722 6.65937Z" fill="url(#paint4_radial_31_1466)" fill-opacity="0.8"/>
<path d="M21.5722 6.65937C21.6975 7.71783 21.509 8.3944 21.2633 8.79309C23.2919 9.35325 25.1416 10.7668 26.0058 12.6136C26.6307 14.1446 26.666 15.9717 26.1978 17.64C28.6812 18.8467 30.5 21.5467 30.5 24.4286C30.5 28.1505 27.777 30.8278 23.9257 31.0533V31.0687H8.52984V31.0653C3.76055 30.9491 1.49999 27.7486 1.5 24.0233C1.50001 21.5293 3.64893 18.5528 6.04851 17.5321C6.04734 17.3134 6.06912 17.1465 6.10527 17.0206C5.17635 15.1416 6.12616 13.241 6.72304 12.5201C6.80275 12.4183 6.87767 12.3206 6.95 12.2269L6.95989 12.2137C7.79077 11.1309 8.2914 10.4784 11.855 8.93508C15.7419 7.25168 17.1236 5.59945 17.655 4.92921C17.8013 4.7446 17.9361 4.50446 18.0752 4.25678C18.4414 3.60456 18.8377 2.899 19.5529 3.012C20.5398 3.16787 21.3141 4.47719 21.5722 6.65937Z" fill="url(#paint5_radial_31_1466)"/>
<path d="M21.5722 6.65937C21.6975 7.71783 21.509 8.3944 21.2633 8.79309C23.2919 9.35325 25.1416 10.7668 26.0058 12.6136C26.6307 14.1446 26.666 15.9717 26.1978 17.64C28.6812 18.8467 30.5 21.5467 30.5 24.4286C30.5 28.1505 27.777 30.8278 23.9257 31.0533V31.0687H8.52984V31.0653C3.76055 30.9491 1.49999 27.7486 1.5 24.0233C1.50001 21.5293 3.64893 18.5528 6.04851 17.5321C6.04734 17.3134 6.06912 17.1465 6.10527 17.0206C5.17635 15.1416 6.12616 13.241 6.72304 12.5201C6.80275 12.4183 6.87767 12.3206 6.95 12.2269L6.95989 12.2137C7.79077 11.1309 8.2914 10.4784 11.855 8.93508C15.7419 7.25168 17.1236 5.59945 17.655 4.92921C17.8013 4.7446 17.9361 4.50446 18.0752 4.25678C18.4414 3.60456 18.8377 2.899 19.5529 3.012C20.5398 3.16787 21.3141 4.47719 21.5722 6.65937Z" fill="url(#paint6_radial_31_1466)"/>
<path d="M21.5722 6.65937C21.6975 7.71783 21.509 8.3944 21.2633 8.79309C23.2919 9.35325 25.1416 10.7668 26.0058 12.6136C26.6307 14.1446 26.666 15.9717 26.1978 17.64C28.6812 18.8467 30.5 21.5467 30.5 24.4286C30.5 28.1505 27.777 30.8278 23.9257 31.0533V31.0687H8.52984V31.0653C3.76055 30.9491 1.49999 27.7486 1.5 24.0233C1.50001 21.5293 3.64893 18.5528 6.04851 17.5321C6.04734 17.3134 6.06912 17.1465 6.10527 17.0206C5.17635 15.1416 6.12616 13.241 6.72304 12.5201C6.80275 12.4183 6.87767 12.3206 6.95 12.2269L6.95989 12.2137C7.79077 11.1309 8.2914 10.4784 11.855 8.93508C15.7419 7.25168 17.1236 5.59945 17.655 4.92921C17.8013 4.7446 17.9361 4.50446 18.0752 4.25678C18.4414 3.60456 18.8377 2.899 19.5529 3.012C20.5398 3.16787 21.3141 4.47719 21.5722 6.65937Z" fill="url(#paint7_radial_31_1466)"/>
<path d="M21.5722 6.65937C21.6975 7.71783 21.509 8.3944 21.2633 8.79309C23.2919 9.35325 25.1416 10.7668 26.0058 12.6136C26.6307 14.1446 26.666 15.9717 26.1978 17.64C28.6812 18.8467 30.5 21.5467 30.5 24.4286C30.5 28.1505 27.777 30.8278 23.9257 31.0533V31.0687H8.52984V31.0653C3.76055 30.9491 1.49999 27.7486 1.5 24.0233C1.50001 21.5293 3.64893 18.5528 6.04851 17.5321C6.04734 17.3134 6.06912 17.1465 6.10527 17.0206C5.17635 15.1416 6.12616 13.241 6.72304 12.5201C6.80275 12.4183 6.87767 12.3206 6.95 12.2269L6.95989 12.2137C7.79077 11.1309 8.2914 10.4784 11.855 8.93508C15.7419 7.25168 17.1236 5.59945 17.655 4.92921C17.8013 4.7446 17.9361 4.50446 18.0752 4.25678C18.4414 3.60456 18.8377 2.899 19.5529 3.012C20.5398 3.16787 21.3141 4.47719 21.5722 6.65937Z" fill="url(#paint8_radial_31_1466)"/>
<path d="M21.5722 6.65937C21.6975 7.71783 21.509 8.3944 21.2633 8.79309C23.2919 9.35325 25.1416 10.7668 26.0058 12.6136C26.6307 14.1446 26.666 15.9717 26.1978 17.64C28.6812 18.8467 30.5 21.5467 30.5 24.4286C30.5 28.1505 27.777 30.8278 23.9257 31.0533V31.0687H8.52984V31.0653C3.76055 30.9491 1.49999 27.7486 1.5 24.0233C1.50001 21.5293 3.64893 18.5528 6.04851 17.5321C6.04734 17.3134 6.06912 17.1465 6.10527 17.0206C5.17635 15.1416 6.12616 13.241 6.72304 12.5201C6.80275 12.4183 6.87767 12.3206 6.95 12.2269L6.95989 12.2137C7.79077 11.1309 8.2914 10.4784 11.855 8.93508C15.7419 7.25168 17.1236 5.59945 17.655 4.92921C17.8013 4.7446 17.9361 4.50446 18.0752 4.25678C18.4414 3.60456 18.8377 2.899 19.5529 3.012C20.5398 3.16787 21.3141 4.47719 21.5722 6.65937Z" fill="url(#paint9_radial_31_1466)"/>
<path d="M21.5722 6.65937C21.6975 7.71783 21.509 8.3944 21.2633 8.79309C23.2919 9.35325 25.1416 10.7668 26.0058 12.6136C26.6307 14.1446 26.666 15.9717 26.1978 17.64C28.6812 18.8467 30.5 21.5467 30.5 24.4286C30.5 28.1505 27.777 30.8278 23.9257 31.0533V31.0687H8.52984V31.0653C3.76055 30.9491 1.49999 27.7486 1.5 24.0233C1.50001 21.5293 3.64893 18.5528 6.04851 17.5321C6.04734 17.3134 6.06912 17.1465 6.10527 17.0206C5.17635 15.1416 6.12616 13.241 6.72304 12.5201C6.80275 12.4183 6.87767 12.3206 6.95 12.2269L6.95989 12.2137C7.79077 11.1309 8.2914 10.4784 11.855 8.93508C15.7419 7.25168 17.1236 5.59945 17.655 4.92921C17.8013 4.7446 17.9361 4.50446 18.0752 4.25678C18.4414 3.60456 18.8377 2.899 19.5529 3.012C20.5398 3.16787 21.3141 4.47719 21.5722 6.65937Z" fill="url(#paint10_radial_31_1466)"/>
<path d="M21.5722 6.65937C21.6975 7.71783 21.509 8.3944 21.2633 8.79309C23.2919 9.35325 25.1416 10.7668 26.0058 12.6136C26.6307 14.1446 26.666 15.9717 26.1978 17.64C28.6812 18.8467 30.5 21.5467 30.5 24.4286C30.5 28.1505 27.777 30.8278 23.9257 31.0533V31.0687H8.52984V31.0653C3.76055 30.9491 1.49999 27.7486 1.5 24.0233C1.50001 21.5293 3.64893 18.5528 6.04851 17.5321C6.04734 17.3134 6.06912 17.1465 6.10527 17.0206C5.17635 15.1416 6.12616 13.241 6.72304 12.5201C6.80275 12.4183 6.87767 12.3206 6.95 12.2269L6.95989 12.2137C7.79077 11.1309 8.2914 10.4784 11.855 8.93508C15.7419 7.25168 17.1236 5.59945 17.655 4.92921C17.8013 4.7446 17.9361 4.50446 18.0752 4.25678C18.4414 3.60456 18.8377 2.899 19.5529 3.012C20.5398 3.16787 21.3141 4.47719 21.5722 6.65937Z" fill="url(#paint11_radial_31_1466)"/>
<path d="M21.5722 6.65937C21.6975 7.71783 21.509 8.3944 21.2633 8.79309C23.2919 9.35325 25.1416 10.7668 26.0058 12.6136C26.6307 14.1446 26.666 15.9717 26.1978 17.64C28.6812 18.8467 30.5 21.5467 30.5 24.4286C30.5 28.1505 27.777 30.8278 23.9257 31.0533V31.0687H8.52984V31.0653C3.76055 30.9491 1.49999 27.7486 1.5 24.0233C1.50001 21.5293 3.64893 18.5528 6.04851 17.5321C6.04734 17.3134 6.06912 17.1465 6.10527 17.0206C5.17635 15.1416 6.12616 13.241 6.72304 12.5201C6.80275 12.4183 6.87767 12.3206 6.95 12.2269L6.95989 12.2137C7.79077 11.1309 8.2914 10.4784 11.855 8.93508C15.7419 7.25168 17.1236 5.59945 17.655 4.92921C17.8013 4.7446 17.9361 4.50446 18.0752 4.25678C18.4414 3.60456 18.8377 2.899 19.5529 3.012C20.5398 3.16787 21.3141 4.47719 21.5722 6.65937Z" fill="url(#paint12_radial_31_1466)"/>
<path d="M21.5722 6.65937C21.6975 7.71783 21.509 8.3944 21.2633 8.79309C23.2919 9.35325 25.1416 10.7668 26.0058 12.6136C26.6307 14.1446 26.666 15.9717 26.1978 17.64C28.6812 18.8467 30.5 21.5467 30.5 24.4286C30.5 28.1505 27.777 30.8278 23.9257 31.0533V31.0687H8.52984V31.0653C3.76055 30.9491 1.49999 27.7486 1.5 24.0233C1.50001 21.5293 3.64893 18.5528 6.04851 17.5321C6.04734 17.3134 6.06912 17.1465 6.10527 17.0206C5.17635 15.1416 6.12616 13.241 6.72304 12.5201C6.80275 12.4183 6.87767 12.3206 6.95 12.2269L6.95989 12.2137C7.79077 11.1309 8.2914 10.4784 11.855 8.93508C15.7419 7.25168 17.1236 5.59945 17.655 4.92921C17.8013 4.7446 17.9361 4.50446 18.0752 4.25678C18.4414 3.60456 18.8377 2.899 19.5529 3.012C20.5398 3.16787 21.3141 4.47719 21.5722 6.65937Z" fill="url(#paint13_radial_31_1466)"/>
<path d="M21.5722 6.65937C21.6975 7.71783 21.509 8.3944 21.2633 8.79309C23.2919 9.35325 25.1416 10.7668 26.0058 12.6136C26.6307 14.1446 26.666 15.9717 26.1978 17.64C28.6812 18.8467 30.5 21.5467 30.5 24.4286C30.5 28.1505 27.777 30.8278 23.9257 31.0533V31.0687H8.52984V31.0653C3.76055 30.9491 1.49999 27.7486 1.5 24.0233C1.50001 21.5293 3.64893 18.5528 6.04851 17.5321C6.04734 17.3134 6.06912 17.1465 6.10527 17.0206C5.17635 15.1416 6.12616 13.241 6.72304 12.5201C6.80275 12.4183 6.87767 12.3206 6.95 12.2269L6.95989 12.2137C7.79077 11.1309 8.2914 10.4784 11.855 8.93508C15.7419 7.25168 17.1236 5.59945 17.655 4.92921C17.8013 4.7446 17.9361 4.50446 18.0752 4.25678C18.4414 3.60456 18.8377 2.899 19.5529 3.012C20.5398 3.16787 21.3141 4.47719 21.5722 6.65937Z" fill="url(#paint14_radial_31_1466)"/>
<path d="M21.5722 6.65937C21.6975 7.71783 21.509 8.3944 21.2633 8.79309C23.2919 9.35325 25.1416 10.7668 26.0058 12.6136C26.6307 14.1446 26.666 15.9717 26.1978 17.64C28.6812 18.8467 30.5 21.5467 30.5 24.4286C30.5 28.1505 27.777 30.8278 23.9257 31.0533V31.0687H8.52984V31.0653C3.76055 30.9491 1.49999 27.7486 1.5 24.0233C1.50001 21.5293 3.64893 18.5528 6.04851 17.5321C6.04734 17.3134 6.06912 17.1465 6.10527 17.0206C5.17635 15.1416 6.12616 13.241 6.72304 12.5201C6.80275 12.4183 6.87767 12.3206 6.95 12.2269L6.95989 12.2137C7.79077 11.1309 8.2914 10.4784 11.855 8.93508C15.7419 7.25168 17.1236 5.59945 17.655 4.92921C17.8013 4.7446 17.9361 4.50446 18.0752 4.25678C18.4414 3.60456 18.8377 2.899 19.5529 3.012C20.5398 3.16787 21.3141 4.47719 21.5722 6.65937Z" fill="url(#paint15_radial_31_1466)"/>
<path d="M21.5722 6.65937C21.6975 7.71783 21.509 8.3944 21.2633 8.79309C23.2919 9.35325 25.1416 10.7668 26.0058 12.6136C26.6307 14.1446 26.666 15.9717 26.1978 17.64C28.6812 18.8467 30.5 21.5467 30.5 24.4286C30.5 28.1505 27.777 30.8278 23.9257 31.0533V31.0687H8.52984V31.0653C3.76055 30.9491 1.49999 27.7486 1.5 24.0233C1.50001 21.5293 3.64893 18.5528 6.04851 17.5321C6.04734 17.3134 6.06912 17.1465 6.10527 17.0206C5.17635 15.1416 6.12616 13.241 6.72304 12.5201C6.80275 12.4183 6.87767 12.3206 6.95 12.2269L6.95989 12.2137C7.79077 11.1309 8.2914 10.4784 11.855 8.93508C15.7419 7.25168 17.1236 5.59945 17.655 4.92921C17.8013 4.7446 17.9361 4.50446 18.0752 4.25678C18.4414 3.60456 18.8377 2.899 19.5529 3.012C20.5398 3.16787 21.3141 4.47719 21.5722 6.65937Z" fill="url(#paint16_radial_31_1466)"/>
<path d="M21.5722 6.65937C21.6975 7.71783 21.509 8.3944 21.2633 8.79309C23.2919 9.35325 25.1416 10.7668 26.0058 12.6136C26.6307 14.1446 26.666 15.9717 26.1978 17.64C28.6812 18.8467 30.5 21.5467 30.5 24.4286C30.5 28.1505 27.777 30.8278 23.9257 31.0533V31.0687H8.52984V31.0653C3.76055 30.9491 1.49999 27.7486 1.5 24.0233C1.50001 21.5293 3.64893 18.5528 6.04851 17.5321C6.04734 17.3134 6.06912 17.1465 6.10527 17.0206C5.17635 15.1416 6.12616 13.241 6.72304 12.5201C6.80275 12.4183 6.87767 12.3206 6.95 12.2269L6.95989 12.2137C7.79077 11.1309 8.2914 10.4784 11.855 8.93508C15.7419 7.25168 17.1236 5.59945 17.655 4.92921C17.8013 4.7446 17.9361 4.50446 18.0752 4.25678C18.4414 3.60456 18.8377 2.899 19.5529 3.012C20.5398 3.16787 21.3141 4.47719 21.5722 6.65937Z" fill="url(#paint17_radial_31_1466)"/>
<path d="M20.2246 10.9105C20.0121 11.456 15.6849 12.6913 14.0451 12.2081C12.4501 11.9465 12.7952 10.7432 13.9087 9.33767C15.5485 7.26781 18.8545 4.7592 20.0842 4.17289C21.0459 3.71424 21.4711 5.98811 21.4773 6.02394C21.6671 7.11896 21.6595 7.75023 21.4431 8.41263C21.2595 8.97467 20.5853 10.2442 20.2246 10.9105Z" fill="url(#paint18_radial_31_1466)"/>
<path d="M20.2246 10.9105C20.0121 11.456 15.6849 12.6913 14.0451 12.2081C12.4501 11.9465 12.7952 10.7432 13.9087 9.33767C15.5485 7.26781 18.8545 4.7592 20.0842 4.17289C21.0459 3.71424 21.4711 5.98811 21.4773 6.02394C21.6671 7.11896 21.6595 7.75023 21.4431 8.41263C21.2595 8.97467 20.5853 10.2442 20.2246 10.9105Z" fill="url(#paint19_linear_31_1466)" fill-opacity="0.4"/>
<path d="M20.2246 10.9105C20.0121 11.456 15.6849 12.6913 14.0451 12.2081C12.4501 11.9465 12.7952 10.7432 13.9087 9.33767C15.5485 7.26781 18.8545 4.7592 20.0842 4.17289C21.0459 3.71424 21.4711 5.98811 21.4773 6.02394C21.6671 7.11896 21.6595 7.75023 21.4431 8.41263C21.2595 8.97467 20.5853 10.2442 20.2246 10.9105Z" fill="url(#paint20_radial_31_1466)"/>
<path d="M12.125 25.1589C14.7604 25.1589 17.0664 25.1589 20.0312 25.1589C20.0312 27.5377 18.2614 29.0774 16.0781 29.0774C13.8949 29.0774 12.125 27.6008 12.125 25.1589Z" fill="url(#paint21_linear_31_1466)"/>
<path fill-rule="evenodd" clip-rule="evenodd" d="M15.0849 19.6188C15.0849 22.0959 13.0768 24.1039 10.5998 24.1039C8.12277 24.1039 6.11475 22.0959 6.11475 19.6188C6.11475 17.1418 8.12277 15.1338 10.5998 15.1338C13.0768 15.1338 15.0849 17.1418 15.0849 19.6188ZM25.9838 19.6188C25.9838 22.0959 23.9758 24.1039 21.4987 24.1039C19.0217 24.1039 17.0137 22.0959 17.0137 19.6188C17.0137 17.1418 19.0217 15.1338 21.4987 15.1338C23.9758 15.1338 25.9838 17.1418 25.9838 19.6188Z" fill="white"/>
<path fill-rule="evenodd" clip-rule="evenodd" d="M11.5147 22.1312C12.8863 22.1312 13.9981 21.0193 13.9981 19.6477C13.9981 18.2762 12.8863 17.1643 11.5147 17.1643C10.1431 17.1643 9.03125 18.2762 9.03125 19.6477C9.03125 21.0193 10.1431 22.1312 11.5147 22.1312ZM20.526 22.1312C21.8976 22.1312 23.0094 21.0193 23.0094 19.6477C23.0094 18.2762 21.8976 17.1643 20.526 17.1643C19.1544 17.1643 18.0426 18.2762 18.0426 19.6477C18.0426 21.0193 19.1544 22.1312 20.526 22.1312Z" fill="url(#paint22_linear_31_1466)"/>
<defs>
<linearGradient id="paint0_linear_31_1466" x1="16" y1="3" x2="16" y2="31.7233" gradientUnits="userSpaceOnUse">
<stop stop-color="#A66150"/>
<stop offset="0.750104" stop-color="#A66150"/>
<stop offset="0.906704" stop-color="#883854"/>
<stop offset="0.976674" stop-color="#6A2B4C"/>
</linearGradient>
<radialGradient id="paint1_radial_31_1466" cx="0" cy="0" r="1" gradientUnits="userSpaceOnUse" gradientTransform="translate(16 19.316) rotate(90) scale(1.93279 1.99692)">
<stop stop-color="#822079"/>
<stop offset="1" stop-color="#B20597" stop-opacity="0"/>
</radialGradient>
<linearGradient id="paint2_linear_31_1466" x1="0.835954" y1="15.7554" x2="16" y2="31.0687" gradientUnits="userSpaceOnUse">
<stop stop-color="#7C574F"/>
<stop offset="0.277322" stop-color="#7C574F" stop-opacity="0"/>
</linearGradient>
<radialGradient id="paint3_radial_31_1466" cx="0" cy="0" r="1" gradientUnits="userSpaceOnUse" gradientTransform="translate(25.8598 18.3842) rotate(45) scale(0.789071 0.934187)">
<stop stop-color="#D9D9D9" stop-opacity="0.54"/>
<stop offset="0.523361" stop-color="#D9D9D9" stop-opacity="0.180621"/>
<stop offset="0.950459" stop-color="#D9D9D9" stop-opacity="0"/>
<stop offset="1" stop-color="#D9D9D9" stop-opacity="0"/>
</radialGradient>
<radialGradient id="paint4_radial_31_1466" cx="0" cy="0" r="1" gradientUnits="userSpaceOnUse" gradientTransform="translate(22.7008 12.5508) rotate(73.544) scale(5.19048 14.2032)">
<stop stop-color="#DD978A" stop-opacity="0.74"/>
<stop offset="0.358065" stop-color="#DD978A" stop-opacity="0.414208"/>
<stop offset="0.616525" stop-color="#DD978A" stop-opacity="0"/>
</radialGradient>
<radialGradient id="paint5_radial_31_1466" cx="0" cy="0" r="1" gradientUnits="userSpaceOnUse" gradientTransform="translate(9.89344 15.7357) rotate(-3.22452) scale(4.53728 10.8458)">
<stop stop-color="#754238"/>
<stop offset="1" stop-color="#7B4A40" stop-opacity="0"/>
</radialGradient>
<radialGradient id="paint6_radial_31_1466" cx="0" cy="0" r="1" gradientUnits="userSpaceOnUse" gradientTransform="translate(23.6489 23.2035) rotate(77.5368) scale(5.385 17.2987)">
<stop stop-color="#F7B8AC" stop-opacity="0.58"/>
<stop offset="0.817924" stop-color="#E09B8E" stop-opacity="0.0793759"/>
<stop offset="1" stop-color="#DD978A" stop-opacity="0"/>
</radialGradient>
<radialGradient id="paint7_radial_31_1466" cx="0" cy="0" r="1" gradientUnits="userSpaceOnUse" gradientTransform="translate(20.8891 19.882) rotate(-180) scale(5.56339 5.74798)">
<stop offset="0.529939" stop-color="#57292C"/>
<stop offset="0.90777" stop-color="#57292C" stop-opacity="0.0881993"/>
<stop offset="1" stop-color="#57292C" stop-opacity="0"/>
</radialGradient>
<radialGradient id="paint8_radial_31_1466" cx="0" cy="0" r="1" gradientUnits="userSpaceOnUse" gradientTransform="translate(10.0542 19.882) rotate(180) scale(5.22533 5.39871)">
<stop offset="0.529939" stop-color="#57292C"/>
<stop offset="0.90777" stop-color="#57292C" stop-opacity="0.0881993"/>
<stop offset="1" stop-color="#57292C" stop-opacity="0"/>
</radialGradient>
<radialGradient id="paint9_radial_31_1466" cx="0" cy="0" r="1" gradientUnits="userSpaceOnUse" gradientTransform="translate(12.6286 11.413) rotate(-141.79) scale(1.55639 0.475136)">
<stop stop-color="#C29186"/>
<stop offset="0.347247" stop-color="#BC897E" stop-opacity="0.729175"/>
<stop offset="0.826943" stop-color="#AD776B" stop-opacity="0.134854"/>
<stop offset="1" stop-color="#AA7367" stop-opacity="0"/>
</radialGradient>
<radialGradient id="paint10_radial_31_1466" cx="0" cy="0" r="1" gradientUnits="userSpaceOnUse" gradientTransform="translate(20.4413 10.4383) rotate(56.9902) scale(1.01181 2.21296)">
<stop offset="0.122629" stop-color="#622C27"/>
<stop offset="0.388556" stop-color="#6C3730" stop-opacity="0.78712"/>
<stop offset="1" stop-color="#916053" stop-opacity="0"/>
</radialGradient>
<radialGradient id="paint11_radial_31_1466" cx="0" cy="0" r="1" gradientUnits="userSpaceOnUse" gradientTransform="translate(16.2276 9.78301) rotate(71.6642) scale(2.66256 6.08868)">
<stop stop-color="#DD978A" stop-opacity="0.78"/>
<stop offset="0.656425" stop-color="#DD978A" stop-opacity="0.199397"/>
<stop offset="1" stop-color="#DD978A" stop-opacity="0"/>
</radialGradient>
<radialGradient id="paint12_radial_31_1466" cx="0" cy="0" r="1" gradientUnits="userSpaceOnUse" gradientTransform="translate(19.3177 8.7806) rotate(29.8989) scale(2.38412 5.45197)">
<stop stop-color="#DD978A" stop-opacity="0.78"/>
<stop offset="0.656425" stop-color="#DD978A" stop-opacity="0.199397"/>
<stop offset="0.867912" stop-color="#DD978A" stop-opacity="0.0507554"/>
<stop offset="1" stop-color="#DD978A" stop-opacity="0"/>
</radialGradient>
<radialGradient id="paint13_radial_31_1466" cx="0" cy="0" r="1" gradientUnits="userSpaceOnUse" gradientTransform="translate(5.28299 26.728) rotate(-30.0184) scale(2.45416 4.3786)">
<stop stop-color="#774E46" stop-opacity="0.47"/>
<stop offset="0.331235" stop-color="#774E46" stop-opacity="0.575871"/>
<stop offset="1" stop-color="#774E46" stop-opacity="0"/>
</radialGradient>
<radialGradient id="paint14_radial_31_1466" cx="0" cy="0" r="1" gradientUnits="userSpaceOnUse" gradientTransform="translate(3.81912 22.9503) rotate(1.07649) scale(2.16759 5.02022)">
<stop stop-color="#774E46" stop-opacity="0.37"/>
<stop offset="0.225486" stop-color="#774E46" stop-opacity="0.46"/>
<stop offset="1" stop-color="#774E46" stop-opacity="0"/>
</radialGradient>
<radialGradient id="paint15_radial_31_1466" cx="0" cy="0" r="1" gradientUnits="userSpaceOnUse" gradientTransform="translate(14.5544 12.6696) rotate(107.167) scale(1.51953 5.72417)">
<stop stop-color="#B07366"/>
<stop offset="0.734468" stop-color="#AD7367" stop-opacity="0.185385"/>
<stop offset="1" stop-color="#AC7367" stop-opacity="0"/>
</radialGradient>
<radialGradient id="paint16_radial_31_1466" cx="0" cy="0" r="1" gradientUnits="userSpaceOnUse" gradientTransform="translate(18.0394 12.6633) rotate(84.4724) scale(1.22741 4.62324)">
<stop stop-color="#C47E70"/>
<stop offset="0.704725" stop-color="#C47E70" stop-opacity="0.19827"/>
<stop offset="1" stop-color="#C47E70" stop-opacity="0"/>
</radialGradient>
<radialGradient id="paint17_radial_31_1466" cx="0" cy="0" r="1" gradientUnits="userSpaceOnUse" gradientTransform="translate(19.7407 12.113) rotate(68.1987) scale(0.899274 3.38727)">
<stop stop-color="#C47E70"/>
<stop offset="0.704725" stop-color="#C47E70" stop-opacity="0.19827"/>
<stop offset="1" stop-color="#C47E70" stop-opacity="0"/>
</radialGradient>
<radialGradient id="paint18_radial_31_1466" cx="0" cy="0" r="1" gradientUnits="userSpaceOnUse" gradientTransform="translate(16.5921 7.64106) rotate(140.726) scale(11.3758 5.21046)">
<stop offset="0.407685" stop-color="#905243" stop-opacity="0"/>
<stop offset="1" stop-color="#6C3E31"/>
</radialGradient>
<linearGradient id="paint19_linear_31_1466" x1="17.913" y1="12.0678" x2="17.4982" y2="10.4362" gradientUnits="userSpaceOnUse">
<stop stop-color="#220404"/>
<stop offset="1" stop-color="#390808" stop-opacity="0"/>
</linearGradient>
<radialGradient id="paint20_radial_31_1466" cx="0" cy="0" r="1" gradientUnits="userSpaceOnUse" gradientTransform="translate(17.0628 5.76865) rotate(60.7322) scale(5.97276 8.96174)">
<stop offset="0.652349" stop-color="#965B4F" stop-opacity="0"/>
<stop offset="1" stop-color="#653120"/>
</radialGradient>
<linearGradient id="paint21_linear_31_1466" x1="16.0781" y1="29.7249" x2="16.0781" y2="24.5374" gradientUnits="userSpaceOnUse">
<stop stop-color="#DB0C8A"/>
<stop offset="1" stop-color="#8A077D"/>
</linearGradient>
<linearGradient id="paint22_linear_31_1466" x1="18.4336" y1="16.3365" x2="17.7975" y2="22.1802" gradientUnits="userSpaceOnUse">
<stop stop-color="#553B3E"/>
<stop offset="1" stop-color="#3D2432"/>
</linearGradient>
</defs>
</svg>
