<svg width="100%" height="100%" viewBox="0 0 32 32" xmlns="http://www.w3.org/2000/svg"><g filter="url(#a)"><path fill="url(#b)" d="M3.898 17.284 2.031 19.22v11.282H29.97V13.97l-6.14-9.305a2.3 2.3 0 0 0-3.841.002l-8.916 13.55a.5.5 0 0 1-.715.126l-2.048-1.517c-1.32-.98-3.2-.801-4.41.457"/><path fill="url(#c)" d="M3.898 17.284 2.031 19.22v11.282H29.97V13.97l-6.14-9.305a2.3 2.3 0 0 0-3.841.002l-8.916 13.55a.5.5 0 0 1-.715.126l-2.048-1.517c-1.32-.98-3.2-.801-4.41.457"/></g><g filter="url(#d)"><path fill="url(#e)" d="m17.771 8.036 2.247-1.315a.4.4 0 0 1 .511.091l1.07 1.3a.6.6 0 0 0 .927 0l1.067-1.296a.4.4 0 0 1 .515-.089L25.9 7.804l-2.07-3.138a2.3 2.3 0 0 0-3.841.002z"/></g><path fill="url(#f)" d="m17.771 8.036 2.247-1.315a.4.4 0 0 1 .511.091l1.07 1.3a.6.6 0 0 0 .927 0l1.067-1.296a.4.4 0 0 1 .515-.089L25.9 7.804l-2.07-3.138a2.3 2.3 0 0 0-3.841.002z"/><g filter="url(#g)"><path fill="#97595F" d="m5.663 27.688-3.616 2.158v.672h27.922v-.672l-3.532-2.15a2.4 2.4 0 0 0-2.429-.04l-.817.462a2 2 0 0 1-1.838.067l-1.319-.622a2.25 2.25 0 0 0-1.965.02l-1.176.588a2 2 0 0 1-1.823-.02l-1.126-.591a2 2 0 0 0-1.783-.04l-1.42.67a2 2 0 0 1-1.825-.062l-.855-.476a2.4 2.4 0 0 0-2.398.036"/><path fill="url(#h)" d="m5.663 27.688-3.616 2.158v.672h27.922v-.672l-3.532-2.15a2.4 2.4 0 0 0-2.429-.04l-.817.462a2 2 0 0 1-1.838.067l-1.319-.622a2.25 2.25 0 0 0-1.965.02l-1.176.588a2 2 0 0 1-1.823-.02l-1.126-.591a2 2 0 0 0-1.783-.04l-1.42.67a2 2 0 0 1-1.825-.062l-.855-.476a2.4 2.4 0 0 0-2.398.036"/></g><g filter="url(#i)"><path fill="url(#j)" fill-rule="evenodd" d="M7 21.58a3.969 3.969 0 1 0 0 7.938 3.969 3.969 0 0 0 0-7.937m-4.969 3.97a4.969 4.969 0 1 1 9.938 0 4.969 4.969 0 0 1-9.938 0" clip-rule="evenodd"/></g><g filter="url(#k)"><circle cx="7" cy="25.549" r="4.555" stroke="url(#l)" stroke-width=".3"/></g><path fill="url(#m)" d="m19.131 20.706-1.826-1.989-.424 2.059.924.672z"/><path fill="#413354" d="m17.826 21.439-.3 1.98c-.067.476-.04.887.364 1.167.101.07.237.031.306-.071l1.964-2.902a.2.2 0 0 0-.053-.277l-.952-.645z"/><path fill="url(#n)" d="m17.826 21.439-.3 1.98c-.067.476-.04.887.364 1.167.101.07.237.031.306-.071l1.964-2.902a.2.2 0 0 0-.053-.277l-.952-.645z"/><path fill="url(#o)" d="m17.826 21.439-.3 1.98c-.067.476-.04.887.364 1.167.101.07.237.031.306-.071l1.964-2.902a.2.2 0 0 0-.053-.277l-.952-.645z"/><path fill="url(#p)" fill-rule="evenodd" d="M12.432 12.173a.5.5 0 0 1 .272.653l-2.54 6.247a.5.5 0 0 1-.924-.382l2.54-6.246a.5.5 0 0 1 .652-.272" clip-rule="evenodd"/><path fill="url(#q)" fill-rule="evenodd" d="M12.432 12.173a.5.5 0 0 1 .272.653l-2.54 6.247a.5.5 0 0 1-.924-.382l2.54-6.246a.5.5 0 0 1 .652-.272" clip-rule="evenodd"/><path fill="url(#r)" fill-rule="evenodd" d="M10.498 16.908a.55.55 0 0 1 .3.718l-3.29 8a.55.55 0 1 1-1.017-.419l3.29-8a.55.55 0 0 1 .717-.3" clip-rule="evenodd"/><path fill="url(#s)" fill-rule="evenodd" d="M9.574 19.135c.102-.222.431-.465.673-.281l6.25 4.75a.55.55 0 0 1-.666.875l-6.08-4.61c-.243-.183-.306-.453-.177-.734" clip-rule="evenodd"/><path fill="url(#t)" fill-rule="evenodd" d="M9.574 19.135c.102-.222.431-.465.673-.281l6.25 4.75a.55.55 0 0 1-.666.875l-6.08-4.61c-.243-.183-.306-.453-.177-.734" clip-rule="evenodd"/><g fill-rule="evenodd" clip-rule="evenodd" filter="url(#u)"><path fill="url(#v)" d="M24.945 21.58a3.969 3.969 0 1 0 0 7.938 3.969 3.969 0 0 0 0-7.937m-4.968 3.97a4.969 4.969 0 1 1 9.937 0 4.969 4.969 0 0 1-9.937 0"/><path fill="url(#w)" d="M24.945 21.58a3.969 3.969 0 1 0 0 7.938 3.969 3.969 0 0 0 0-7.937m-4.968 3.97a4.969 4.969 0 1 1 9.937 0 4.969 4.969 0 0 1-9.937 0"/></g><path fill="url(#x)" fill-rule="evenodd" d="M19.683 17.194a.55.55 0 0 0-.172.758l4.72 7.477a.55.55 0 1 0 .93-.587l-4.72-7.477a.55.55 0 0 0-.758-.171" clip-rule="evenodd"/><path fill="url(#y)" fill-rule="evenodd" d="M19.987 17.114a.55.55 0 0 1 .417.657l-1.578 7.078a.55.55 0 0 1-1.074-.24l1.578-7.078a.55.55 0 0 1 .657-.417" clip-rule="evenodd"/><path fill="url(#z)" fill-rule="evenodd" d="M19.987 17.114a.55.55 0 0 1 .417.657l-1.578 7.078a.55.55 0 0 1-1.074-.24l1.578-7.078a.55.55 0 0 1 .657-.417" clip-rule="evenodd"/><path fill="url(#A)" fill-rule="evenodd" d="M19.987 17.114a.55.55 0 0 1 .417.657l-1.578 7.078a.55.55 0 0 1-1.074-.24l1.578-7.078a.55.55 0 0 1 .657-.417" clip-rule="evenodd"/><path fill="url(#B)" d="m13.942 16.018 1.34-.836 1.039 1.04-.766 3.53c-.513-.38-1.568-1.16-1.687-1.242-.149-.101-.661-.543-.653-1.238.008-.711.477-1.072.727-1.254"/><path fill="url(#C)" d="m13.942 16.018 1.34-.836 1.039 1.04-.766 3.53c-.513-.38-1.568-1.16-1.687-1.242-.149-.101-.661-.543-.653-1.238.008-.711.477-1.072.727-1.254"/><path fill="url(#D)" d="m13.942 16.018 1.34-.836 1.039 1.04-.766 3.53c-.513-.38-1.568-1.16-1.687-1.242-.149-.101-.661-.543-.653-1.238.008-.711.477-1.072.727-1.254"/><path fill="url(#E)" d="m15.223 15.217 2.64-1.61 1.207.63-2.726 2.476c-.269-.23-.84-1.05-1.121-1.496"/><path fill="url(#F)" d="m15.223 15.217 2.64-1.61 1.207.63-2.726 2.476c-.269-.23-.84-1.05-1.121-1.496"/><g filter="url(#G)"><path fill="url(#H)" d="M18.857 27.373q-.187.04-.384.04a1.863 1.863 0 1 1 .402-3.683l5.898.905a.927.927 0 0 1-.086 1.838z"/><path fill="url(#I)" d="M18.857 27.373q-.187.04-.384.04a1.863 1.863 0 1 1 .402-3.683l5.898.905a.927.927 0 0 1-.086 1.838z"/></g><circle cx="18.316" cy="25.549" r="1.027" fill="url(#J)"/><circle cx="18.316" cy="25.549" r="1.027" fill="url(#K)"/><g filter="url(#L)"><path fill="#5B4E85" d="m16.043 23.799-1.81.86c-.43.213-.756.466-.761.957-.001.123.107.214.23.214h3.504a.2.2 0 0 0 .2-.2v-1.15z"/><path fill="url(#M)" d="m16.043 23.799-1.81.86c-.43.213-.756.466-.761.957-.001.123.107.214.23.214h3.504a.2.2 0 0 0 .2-.2v-1.15z"/><path fill="url(#N)" d="m16.043 23.799-1.81.86c-.43.213-.756.466-.761.957-.001.123.107.214.23.214h3.504a.2.2 0 0 0 .2-.2v-1.15z"/></g><path fill="url(#O)" d="M13.482 8.486h2.154v2.668h-2.154z" transform="rotate(-55.397 13.482 8.486)"/><g filter="url(#P)"><path fill="url(#Q)" d="m16.024 16.573.553-.514 2.04 1.916c-.273.154-.887.463-1.03.582-.11.09-.11.235-.11.328l-.047 5.594-1.406-.672c-.138-.794-.42-2.708-.77-4.3-.395-1.801.377-2.593.77-2.934"/><path fill="url(#R)" d="m16.024 16.573.553-.514 2.04 1.916c-.273.154-.887.463-1.03.582-.11.09-.11.235-.11.328l-.047 5.594-1.406-.672c-.138-.794-.42-2.708-.77-4.3-.395-1.801.377-2.593.77-2.934"/></g><g filter="url(#S)"><path fill="url(#T)" d="m18.308 14.35-.636-.7 4.031-2.476c1.422 1.867 1.5 3.211.836 4.274-.664 1.062-1.582 2.05-2.617 2.945-.271.235-.803.362-1.36-.18-.707-.687-1.578-1.578-2.039-2.113l1.778-1.608a.1.1 0 0 0 .007-.142"/><path fill="url(#U)" d="m18.308 14.35-.636-.7 4.031-2.476c1.422 1.867 1.5 3.211.836 4.274-.664 1.062-1.582 2.05-2.617 2.945-.271.235-.803.362-1.36-.18-.707-.687-1.578-1.578-2.039-2.113l1.778-1.608a.1.1 0 0 0 .007-.142"/></g><g filter="url(#V)"><path fill="url(#W)" d="M16.04 11.73c.663.624 1.362 1.585 1.67 1.968l4.243-2.18c-.586-.976-2.07-2.531-3.539-3.36-1.719-.812-2.672 0-3.305 1.071-.414.852.258 1.781.93 2.5"/></g><g filter="url(#X)"><path fill="#C0B9BC" d="M12.883 12.182a.575.575 0 0 0-.575-.575h-3.05a2.13 2.13 0 0 0 0 4.26h.183a.575.575 0 0 0 0-1.15h-.183a.98.98 0 0 1 0-1.96h3.05a.575.575 0 0 0 .575-.575"/><path fill="url(#Y)" d="M12.883 12.182a.575.575 0 0 0-.575-.575h-3.05a2.13 2.13 0 0 0 0 4.26h.183a.575.575 0 0 0 0-1.15h-.183a.98.98 0 0 1 0-1.96h3.05a.575.575 0 0 0 .575-.575"/></g><path fill="url(#Z)" d="M10.757 8.93c-.199-.14-.201-.298-.133-.648a.8.8 0 0 0-.057-.53l.795.988c-.11.22-.407.329-.605.19"/><path fill="url(#aa)" d="M11.916 9.689c-.764-.74-1.392-1.924-1.643-2.387l3.435-2.04 1.816 1.673a5.2 5.2 0 0 1-.937 1.88c-.708.871-1.668 1.845-2.671.874"/><path fill="url(#ab)" d="M11.916 9.689c-.764-.74-1.392-1.924-1.643-2.387l3.435-2.04 1.816 1.673a5.2 5.2 0 0 1-.937 1.88c-.708.871-1.668 1.845-2.671.874"/><path fill="url(#ac)" d="M11.916 9.689c-.764-.74-1.392-1.924-1.643-2.387l3.435-2.04 1.816 1.673a5.2 5.2 0 0 1-.937 1.88c-.708.871-1.668 1.845-2.671.874"/><path fill="#87004D" fill-rule="evenodd" d="M11.813 9.165a.116.116 0 0 1 .041-.159c.102-.059.237-.206.312-.518a.116.116 0 0 1 .225.054c-.086.356-.25.565-.42.664a.116.116 0 0 1-.158-.041" clip-rule="evenodd"/><g filter="url(#ad)"><path fill="#FFC136" d="m14.512 6.947-1.166-1.213 1.754-.881c.209.362.208 1.044.164 1.295a.504.504 0 0 1 .642.417c.02.192-.153.58-.603.68-.359.08-.677-.165-.792-.298"/><path fill="url(#ae)" d="m14.512 6.947-1.166-1.213 1.754-.881c.209.362.208 1.044.164 1.295a.504.504 0 0 1 .642.417c.02.192-.153.58-.603.68-.359.08-.677-.165-.792-.298"/></g><g filter="url(#af)"><path fill="url(#ag)" d="m14.602 5.118.453-.227c.208.361.207 1.041.164 1.294l-.596.18z"/></g><path fill="#fff" d="M10.953 7.277c-.071.225.061.452.132.567l.881-.511c-.514-.59-.916-.361-1.013-.056"/><path fill="url(#ah)" d="m11.58 7.557-.028-.048c-.156-.248-.39-.38-.524-.296-.133.084-.115.352.04.6l.02.03z"/><path fill="#414141" d="M11.391 7.666a.6.6 0 0 0-.046-.091c-.087-.138-.216-.213-.288-.167s-.06.194.026.331a1 1 0 0 0 .056.074z"/><circle cx="11.065" cy="7.386" r=".083" fill="#DFDFDF" transform="rotate(-63.507 11.065 7.386)"/><circle cx="13.402" cy="6.368" r=".647" fill="url(#ai)" transform="rotate(-63.507 13.402 6.368)"/><path fill="#4D3771" fill-rule="evenodd" d="M12.657 5.653a.29.29 0 0 1 .382.149l1.453 3.304a.29.29 0 0 1-.53.233l-1.454-3.304a.29.29 0 0 1 .149-.382" clip-rule="evenodd"/><path fill="url(#aj)" fill-rule="evenodd" d="M12.657 5.653a.29.29 0 0 1 .382.149l1.453 3.304a.29.29 0 0 1-.53.233l-1.454-3.304a.29.29 0 0 1 .149-.382" clip-rule="evenodd"/><path fill="url(#ak)" fill-rule="evenodd" d="M12.657 5.653a.29.29 0 0 1 .382.149l1.453 3.304a.29.29 0 0 1-.53.233l-1.454-3.304a.29.29 0 0 1 .149-.382" clip-rule="evenodd"/><path fill="url(#al)" fill-rule="evenodd" d="M12.657 5.653a.29.29 0 0 1 .382.149l1.453 3.304a.29.29 0 0 1-.53.233l-1.454-3.304a.29.29 0 0 1 .149-.382" clip-rule="evenodd"/><g filter="url(#am)"><path fill="url(#an)" d="m15.002 5.014-4.671 2.37a.257.257 0 0 1-.335-.078 5.6 5.6 0 0 1-.56-1.127c-.524-1.434.477-2.234.608-2.357.19-.178.714-.62 1.838-1.027 1.317-.476 2.15.111 2.555.657.255.344.533.858.695 1.205a.27.27 0 0 1-.13.357"/></g><g filter="url(#ao)"><path fill="url(#ap)" d="M11.253 5.734a.35.35 0 0 1 .162-.467l1.294-.63a.35.35 0 0 1 .306.63l-1.294.63a.35.35 0 0 1-.468-.163"/></g><g filter="url(#aq)"><path fill="#2B174F" fill-rule="evenodd" d="M8.277 13.795v-.021a.572.572 0 1 0-1.144 0v.021h-.004a2.13 2.13 0 0 0 2.129 2.072h.183a.575.575 0 1 0 0-1.15h-.183a.98.98 0 0 1-.978-.922z" clip-rule="evenodd"/></g><g fill-rule="evenodd" clip-rule="evenodd" filter="url(#ar)"><path fill="#FFC435" d="M17.07 8.847c.478.327.6.98.273 1.46-.782 1.144-3.151 4.302-7.932 4.787-.577.059-1.595-.32-1.653-.896s.864-1.135 1.441-1.193c3.844-.39 5.74-2.904 6.411-3.884a1.05 1.05 0 0 1 1.46-.274"/><path fill="url(#as)" d="M17.07 8.847c.478.327.6.98.273 1.46-.782 1.144-3.151 4.302-7.932 4.787-.577.059-1.595-.32-1.653-.896s.864-1.135 1.441-1.193c3.844-.39 5.74-2.904 6.411-3.884a1.05 1.05 0 0 1 1.46-.274"/></g><path fill="url(#at)" fill-rule="evenodd" d="M9.264 13.495a.35.35 0 0 1-.35.35c-.173 0-.435.042-.662.15-.226.106-.37.252-.416.438a.35.35 0 0 1-.68-.166c.114-.466.462-.748.797-.906.334-.157.7-.216.961-.216a.35.35 0 0 1 .35.35" clip-rule="evenodd"/><g filter="url(#au)"><path fill="url(#av)" d="m20.934 13.468-.524-.864 1.125-.656c.969 1.313 1.344 2.297.735 2.875-.488.463-2.87 1.724-4 2.297l2.503-2.414a1 1 0 0 0 .16-1.238"/></g><path fill="url(#aw)" fill-rule="evenodd" d="M8.779 14.021a.35.35 0 0 1-.227.44.6.6 0 0 0-.406.457.35.35 0 0 1-.683-.152c.05-.223.235-.767.876-.972a.35.35 0 0 1 .44.227" clip-rule="evenodd"/><path fill="url(#ax)" fill-rule="evenodd" d="M9.016 14.28a.33.33 0 0 1 0 .402c-.152.126-.343.39-.373.594a.35.35 0 1 1-.693-.101c.02-.129.077-.285.155-.43.08-.147.197-.312.354-.442.149-.124.433-.172.557-.023" clip-rule="evenodd"/><g filter="url(#ay)"><circle cx="9.168" cy="13.997" r=".885" fill="url(#az)"/></g><defs><radialGradient id="f" cx="0" cy="0" r="1" gradientTransform="rotate(150.331 11.737 6.31)scale(3.70975 8.36641)" gradientUnits="userSpaceOnUse"><stop offset=".19" stop-color="#EBEAED"/><stop offset="1" stop-color="#D9D1DF" stop-opacity="0"/></radialGradient><radialGradient id="h" cx="0" cy="0" r="1" gradientTransform="matrix(4.42529 4.18325 -2.33905 2.47438 19.748 27.33)" gradientUnits="userSpaceOnUse"><stop stop-color="#8A4C56"/><stop offset="1" stop-color="#8A4C56" stop-opacity="0"/></radialGradient><radialGradient id="j" cx="0" cy="0" r="1" gradientTransform="rotate(126.943 -.28 13.374)scale(9.77501 9.43553)" gradientUnits="userSpaceOnUse"><stop stop-color="#32295B"/><stop offset="1" stop-color="#3C2150"/></radialGradient><radialGradient id="o" cx="0" cy="0" r="1" gradientTransform="matrix(-1.53127 2.45312 -.44454 -.27749 20.273 21.526)" gradientUnits="userSpaceOnUse"><stop stop-color="#5D5C7E"/><stop offset="1" stop-color="#5D5C7E" stop-opacity="0"/></radialGradient><radialGradient id="q" cx="0" cy="0" r="1" gradientTransform="rotate(-68.026 17.996 .763)scale(2.88119 .32513)" gradientUnits="userSpaceOnUse"><stop stop-color="#BAA3B9"/><stop offset="1" stop-color="#BAA3B9" stop-opacity="0"/></radialGradient><radialGradient id="s" cx="0" cy="0" r="1" gradientTransform="matrix(6.71875 4.82813 -1.31599 1.83131 10.148 19.088)" gradientUnits="userSpaceOnUse"><stop stop-color="#CE3D5E"/><stop offset="1" stop-color="#932145"/></radialGradient><radialGradient id="v" cx="0" cy="0" r="1" gradientTransform="rotate(134.451 9.878 17.35)scale(9.80603 9.46548)" gradientUnits="userSpaceOnUse"><stop offset=".427" stop-color="#373C67"/><stop offset="1" stop-color="#38144F"/></radialGradient><radialGradient id="z" cx="0" cy="0" r="1" gradientTransform="rotate(103.707 2.976 16.885)scale(4.61583 .44083)" gradientUnits="userSpaceOnUse"><stop stop-color="#E44354"/><stop offset="1" stop-color="#E44354" stop-opacity="0"/></radialGradient><radialGradient id="A" cx="0" cy="0" r="1" gradientTransform="matrix(-.03125 -1.0625 1.65481 -.04867 18.43 24.323)" gradientUnits="userSpaceOnUse"><stop stop-color="#AC2735"/><stop offset="1" stop-color="#AC2735" stop-opacity="0"/></radialGradient><radialGradient id="B" cx="0" cy="0" r="1" gradientTransform="rotate(11.33 -80.711 75.273)scale(2.22699 2.81885)" gradientUnits="userSpaceOnUse"><stop offset=".114" stop-color="#DF9E37"/><stop offset="1" stop-color="#D68B27"/></radialGradient><radialGradient id="C" cx="0" cy="0" r="1" gradientTransform="matrix(1.21875 .45313 -.35 .94138 15.71 17.729)" gradientUnits="userSpaceOnUse"><stop offset=".346" stop-color="#CA7E1E"/><stop offset="1" stop-color="#D88C28" stop-opacity="0"/></radialGradient><radialGradient id="E" cx="0" cy="0" r="1" gradientTransform="rotate(143.881 6.864 10.213)scale(2.86275 1.23215)" gradientUnits="userSpaceOnUse"><stop offset=".255" stop-color="#705050"/><stop offset="1" stop-color="#7B5C60"/></radialGradient><radialGradient id="I" cx="0" cy="0" r="1" gradientTransform="matrix(-.86719 0 0 -.96875 25.547 25.385)" gradientUnits="userSpaceOnUse"><stop stop-color="#FFD359"/><stop offset="1" stop-color="#FFD359" stop-opacity="0"/></radialGradient><radialGradient id="J" cx="0" cy="0" r="1" gradientTransform="matrix(1.5625 -.65625 .66797 1.5904 17.648 25.745)" gradientUnits="userSpaceOnUse"><stop offset=".47" stop-color="#D8CFE2"/><stop offset="1" stop-color="#C5BFCB"/></radialGradient><radialGradient id="K" cx="0" cy="0" r="1" gradientTransform="rotate(151.189 6.18 15.059)scale(1.78324)" gradientUnits="userSpaceOnUse"><stop offset=".632" stop-color="#E2DFE5" stop-opacity="0"/><stop offset="1" stop-color="#E2DFE5"/></radialGradient><radialGradient id="N" cx="0" cy="0" r="1" gradientTransform="matrix(-1.1094 -2 6.41983 -3.56106 16.227 26.088)" gradientUnits="userSpaceOnUse"><stop offset=".301" stop-color="#5C4F86" stop-opacity="0"/><stop offset=".943" stop-color="#493B63"/></radialGradient><radialGradient id="Q" cx="0" cy="0" r="1" gradientTransform="matrix(-.75 -8.78125 2.52881 -.21598 17.867 24.48)" gradientUnits="userSpaceOnUse"><stop offset=".122" stop-color="#FFCE3C"/><stop offset="1" stop-color="#EDA82B"/></radialGradient><radialGradient id="R" cx="0" cy="0" r="1" gradientTransform="matrix(-1.6875 .0625 -.11168 -3.01554 18.773 18.198)" gradientUnits="userSpaceOnUse"><stop offset=".284" stop-color="#C57C28"/><stop offset="1" stop-color="#E59E31" stop-opacity="0"/></radialGradient><radialGradient id="T" cx="0" cy="0" r="1" gradientTransform="matrix(5.125 -4.9297 2.6132 2.71672 16.742 16.104)" gradientUnits="userSpaceOnUse"><stop offset=".148" stop-color="#927876"/><stop offset="1" stop-color="#A3A1A2"/></radialGradient><radialGradient id="U" cx="0" cy="0" r="1" gradientTransform="matrix(2.59375 -.09375 .01804 .49916 18.164 14.385)" gradientUnits="userSpaceOnUse"><stop offset=".22" stop-color="#8C7675"/><stop offset="1" stop-color="#9C8F8E" stop-opacity="0"/></radialGradient><radialGradient id="W" cx="0" cy="0" r="1" gradientTransform="matrix(-3.49999 -4.06251 1.70908 -1.47243 21.055 12.073)" gradientUnits="userSpaceOnUse"><stop stop-color="#FF8E59"/><stop offset="1" stop-color="#FF6030"/></radialGradient><radialGradient id="Y" cx="0" cy="0" r="1" gradientTransform="matrix(3.25232 0 0 1.29925 10.005 13.51)" gradientUnits="userSpaceOnUse"><stop offset=".254" stop-color="#90757E"/><stop offset="1" stop-color="#B7A6A6" stop-opacity="0"/></radialGradient><radialGradient id="Z" cx="0" cy="0" r="1" gradientTransform="rotate(26.495 -12.398 26.92)scale(.75598 .95099)" gradientUnits="userSpaceOnUse"><stop offset=".515" stop-color="#EBAB2A"/><stop offset="1" stop-color="#EAA630"/></radialGradient><radialGradient id="aa" cx="0" cy="0" r="1" gradientTransform="rotate(-19.402 30.205 -29.373)scale(3.27818 3.4)" gradientUnits="userSpaceOnUse"><stop offset=".164" stop-color="#F5B63D"/><stop offset="1" stop-color="#EAA131"/></radialGradient><radialGradient id="ab" cx="0" cy="0" r="1" gradientTransform="rotate(55.761 1.163 15.12)scale(1.8889 1.52421)" gradientUnits="userSpaceOnUse"><stop stop-color="#CA7D27"/><stop offset="1" stop-color="#CA7D27" stop-opacity="0"/></radialGradient><radialGradient id="ac" cx="0" cy="0" r="1" gradientTransform="matrix(.71875 3.0625 -3.97856 .93374 12.367 7.229)" gradientUnits="userSpaceOnUse"><stop offset=".623" stop-color="#EDA029" stop-opacity="0"/><stop offset=".946" stop-color="#C27744"/></radialGradient><radialGradient id="ae" cx="0" cy="0" r="1" gradientTransform="rotate(-137.387 8.586 .084)scale(1.1686 .67895)" gradientUnits="userSpaceOnUse"><stop stop-color="#FFB232"/><stop offset="1" stop-color="#FFB232" stop-opacity="0"/></radialGradient><radialGradient id="ai" cx="0" cy="0" r="1" gradientTransform="rotate(83.69 3.248 10.575)scale(.94732)" gradientUnits="userSpaceOnUse"><stop offset=".392" stop-color="#E1A337"/><stop offset="1" stop-color="#CE780D"/></radialGradient><radialGradient id="al" cx="0" cy="0" r="1" gradientTransform="matrix(.18817 -.08324 .4879 1.10297 13.338 6.979)" gradientUnits="userSpaceOnUse"><stop stop-color="#564975"/><stop offset="1" stop-color="#4D3A6E" stop-opacity="0"/></radialGradient><radialGradient id="an" cx="0" cy="0" r="1" gradientTransform="rotate(66.186 3.016 11.038)scale(2.35319 2.76584)" gradientUnits="userSpaceOnUse"><stop offset=".045" stop-color="#4FBDFF"/><stop offset=".919" stop-color="#52ABE4"/></radialGradient><radialGradient id="ap" cx="0" cy="0" r="1" gradientTransform="rotate(-114.487 7.972 -1.19)scale(.67588 1.73323)" gradientUnits="userSpaceOnUse"><stop offset=".218" stop-color="#4B89D0"/><stop offset="1" stop-color="#337BCD"/></radialGradient><radialGradient id="as" cx="0" cy="0" r="1" gradientTransform="rotate(158.559 7.88 6.32)scale(1.11134 1.23837)" gradientUnits="userSpaceOnUse"><stop stop-color="#FFDA43"/><stop offset="1" stop-color="#FFDA43" stop-opacity="0"/></radialGradient><radialGradient id="av" cx="0" cy="0" r="1" gradientTransform="matrix(5.5 -1.4375 2.00475 7.67032 17.305 15.26)" gradientUnits="userSpaceOnUse"><stop offset=".625" stop-color="#AFA6A9" stop-opacity="0"/><stop offset=".905" stop-color="#AFA6A9"/></radialGradient><radialGradient id="ax" cx="0" cy="0" r="1" gradientTransform="rotate(-56.677 18.4 .265)scale(1.56434 1.28222)" gradientUnits="userSpaceOnUse"><stop offset=".512" stop-color="#D48D33"/><stop offset="1" stop-color="#F2B135"/></radialGradient><radialGradient id="az" cx="0" cy="0" r="1" gradientTransform="rotate(48.659 -10.466 16.282)scale(1.90423)" gradientUnits="userSpaceOnUse"><stop stop-color="#FFC435"/><stop offset="1" stop-color="#FFC435" stop-opacity="0"/></radialGradient><linearGradient id="b" x1="9.65" x2="27.955" y1="21.576" y2="9.387" gradientUnits="userSpaceOnUse"><stop stop-color="#37C173"/><stop offset="1" stop-color="#36C571"/></linearGradient><linearGradient id="c" x1="29.363" x2="25.903" y1="12.565" y2="14.979" gradientUnits="userSpaceOnUse"><stop offset=".164" stop-color="#4CDD80"/><stop offset="1" stop-color="#36C871" stop-opacity="0"/></linearGradient><linearGradient id="e" x1="21.156" x2="24.898" y1="7.576" y2="5.485" gradientUnits="userSpaceOnUse"><stop stop-color="#D7CFDF"/><stop offset="1" stop-color="#E2DCE7"/></linearGradient><linearGradient id="l" x1="9.211" x2="3.18" y1="21.885" y2="28.916" gradientUnits="userSpaceOnUse"><stop stop-color="#302A5B"/><stop offset="1" stop-color="#302A5B" stop-opacity="0"/></linearGradient><linearGradient id="m" x1="17.68" x2="18.648" y1="21.088" y2="20.082" gradientUnits="userSpaceOnUse"><stop stop-color="#BF7A28"/><stop offset="1" stop-color="#D7AA3D"/></linearGradient><linearGradient id="n" x1="22.195" x2="17.602" y1="22.657" y2="22.198" gradientUnits="userSpaceOnUse"><stop offset=".891" stop-color="#615F76" stop-opacity="0"/><stop offset="1" stop-color="#615F76"/></linearGradient><linearGradient id="p" x1="11.477" x2="10.602" y1="15.479" y2="15.198" gradientUnits="userSpaceOnUse"><stop stop-color="#BFA8C7"/><stop offset="1" stop-color="#908590"/></linearGradient><linearGradient id="r" x1="9.711" x2="8.43" y1="20.432" y2="19.948" gradientUnits="userSpaceOnUse"><stop offset=".146" stop-color="#D4385B"/><stop offset="1" stop-color="#973C50"/></linearGradient><linearGradient id="t" x1="12.93" x2="13.32" y1="22.479" y2="21.979" gradientUnits="userSpaceOnUse"><stop stop-color="#96275E"/><stop offset="1" stop-color="#96275E" stop-opacity="0"/><stop offset="1" stop-color="#9C2649" stop-opacity="0"/></linearGradient><linearGradient id="w" x1="19.977" x2="27.731" y1="27.99" y2="25.549" gradientUnits="userSpaceOnUse"><stop stop-color="#352542"/><stop offset="1" stop-color="#352542" stop-opacity="0"/></linearGradient><linearGradient id="x" x1="23.758" x2="22.695" y1="22.416" y2="23.166" gradientUnits="userSpaceOnUse"><stop stop-color="#FD5A60"/><stop offset="1" stop-color="#AF253C"/></linearGradient><linearGradient id="y" x1="19.555" x2="18.539" y1="21.19" y2="21.042" gradientUnits="userSpaceOnUse"><stop stop-color="#E5435F"/><stop offset="1" stop-color="#A62F2F"/></linearGradient><linearGradient id="D" x1="14.492" x2="14.914" y1="15.448" y2="16.135" gradientUnits="userSpaceOnUse"><stop stop-color="#C79639"/><stop offset="1" stop-color="#C79639" stop-opacity="0"/></linearGradient><linearGradient id="F" x1="16.563" x2="16.93" y1="14.315" y2="14.846" gradientUnits="userSpaceOnUse"><stop stop-color="#796867"/><stop offset="1" stop-color="#7C5C60" stop-opacity="0"/></linearGradient><linearGradient id="H" x1="25.273" x2="16.609" y1="25.549" y2="25.549" gradientUnits="userSpaceOnUse"><stop stop-color="#F7B14E"/><stop offset="1" stop-color="#E8774D"/></linearGradient><linearGradient id="M" x1="17.407" x2="16.648" y1="25.416" y2="25.416" gradientUnits="userSpaceOnUse"><stop stop-color="#605C92"/><stop offset="1" stop-color="#605C92" stop-opacity="0"/></linearGradient><linearGradient id="O" x1="15.66" x2="13.328" y1="9.843" y2="9.572" gradientUnits="userSpaceOnUse"><stop stop-color="#FFD03C"/><stop offset="1" stop-color="#B3642E"/></linearGradient><linearGradient id="ag" x1="15.433" x2="14.711" y1="6.131" y2="5.885" gradientUnits="userSpaceOnUse"><stop offset=".119" stop-color="#FC9E26"/><stop offset="1" stop-color="#FC9E26" stop-opacity="0"/></linearGradient><linearGradient id="ah" x1="11.38" x2="11.054" y1="7.678" y2="7.197" gradientUnits="userSpaceOnUse"><stop stop-color="#6F443D"/><stop offset="1" stop-color="#5A332D"/></linearGradient><linearGradient id="aj" x1="13.7" x2="13.281" y1="7.169" y2="7.375" gradientUnits="userSpaceOnUse"><stop stop-color="#37234C"/><stop offset="1" stop-color="#37234C" stop-opacity="0"/></linearGradient><linearGradient id="ak" x1="13.522" x2="14.048" y1="8.962" y2="8.658" gradientUnits="userSpaceOnUse"><stop offset=".324" stop-color="#72687C"/><stop offset="1" stop-color="#72687C" stop-opacity="0"/></linearGradient><linearGradient id="at" x1="7.807" x2="8.738" y1="14.228" y2="13.255" gradientUnits="userSpaceOnUse"><stop stop-color="#D38E33"/><stop offset="1" stop-color="#FFC435"/></linearGradient><linearGradient id="aw" x1="7.867" x2="8.953" y1="14.76" y2="13.979" gradientUnits="userSpaceOnUse"><stop stop-color="#D38E33"/><stop offset="1" stop-color="#F7B935"/></linearGradient><filter id="a" width="28.938" height="27.87" x="2.031" y="3.633" color-interpolation-filters="sRGB" filterUnits="userSpaceOnUse"><feFlood flood-opacity="0" result="BackgroundImageFix"/><feBlend in="SourceGraphic" in2="BackgroundImageFix" result="shape"/><feColorMatrix in="SourceAlpha" result="hardAlpha" values="0 0 0 0 0 0 0 0 0 0 0 0 0 0 0 0 0 0 127 0"/><feOffset dx="1" dy="1"/><feGaussianBlur stdDeviation="1"/><feComposite in2="hardAlpha" k2="-1" k3="1" operator="arithmetic"/><feColorMatrix values="0 0 0 0 0.219608 0 0 0 0 0.658824 0 0 0 0 0.352941 0 0 0 1 0"/><feBlend in2="shape" result="effect1_innerShadow_3987_23478"/></filter><filter id="d" width="8.378" height="5.198" x="17.771" y="3.633" color-interpolation-filters="sRGB" filterUnits="userSpaceOnUse"><feFlood flood-opacity="0" result="BackgroundImageFix"/><feBlend in="SourceGraphic" in2="BackgroundImageFix" result="shape"/><feColorMatrix in="SourceAlpha" result="hardAlpha" values="0 0 0 0 0 0 0 0 0 0 0 0 0 0 0 0 0 0 127 0"/><feOffset dx=".25" dy=".5"/><feGaussianBlur stdDeviation=".375"/><feComposite in2="hardAlpha" k2="-1" k3="1" operator="arithmetic"/><feColorMatrix values="0 0 0 0 0.705882 0 0 0 0 0.705882 0 0 0 0 0.709804 0 0 0 1 0"/><feBlend in2="shape" result="effect1_innerShadow_3987_23478"/></filter><filter id="g" width="27.922" height="3.388" x="2.047" y="27.33" color-interpolation-filters="sRGB" filterUnits="userSpaceOnUse"><feFlood flood-opacity="0" result="BackgroundImageFix"/><feBlend in="SourceGraphic" in2="BackgroundImageFix" result="shape"/><feColorMatrix in="SourceAlpha" result="hardAlpha" values="0 0 0 0 0 0 0 0 0 0 0 0 0 0 0 0 0 0 127 0"/><feOffset dy=".2"/><feGaussianBlur stdDeviation=".5"/><feComposite in2="hardAlpha" k2="-1" k3="1" operator="arithmetic"/><feColorMatrix values="0 0 0 0 0.47451 0 0 0 0 0.258824 0 0 0 0 0.25098 0 0 0 1 0"/><feBlend in2="shape" result="effect1_innerShadow_3987_23478"/></filter><filter id="i" width="9.938" height="9.938" x="2.031" y="20.581" color-interpolation-filters="sRGB" filterUnits="userSpaceOnUse"><feFlood flood-opacity="0" result="BackgroundImageFix"/><feBlend in="SourceGraphic" in2="BackgroundImageFix" result="shape"/><feColorMatrix in="SourceAlpha" result="hardAlpha" values="0 0 0 0 0 0 0 0 0 0 0 0 0 0 0 0 0 0 127 0"/><feOffset/><feGaussianBlur stdDeviation=".25"/><feComposite in2="hardAlpha" k2="-1" k3="1" operator="arithmetic"/><feColorMatrix values="0 0 0 0 0.227451 0 0 0 0 0.156863 0 0 0 0 0.27451 0 0 0 1 0"/><feBlend in2="shape" result="effect1_innerShadow_3987_23478"/></filter><filter id="k" width="10.409" height="10.409" x="1.795" y="20.345" color-interpolation-filters="sRGB" filterUnits="userSpaceOnUse"><feFlood flood-opacity="0" result="BackgroundImageFix"/><feBlend in="SourceGraphic" in2="BackgroundImageFix" result="shape"/><feGaussianBlur result="effect1_foregroundBlur_3987_23478" stdDeviation=".25"/></filter><filter id="u" width="10.037" height="10.037" x="19.977" y="20.481" color-interpolation-filters="sRGB" filterUnits="userSpaceOnUse"><feFlood flood-opacity="0" result="BackgroundImageFix"/><feBlend in="SourceGraphic" in2="BackgroundImageFix" result="shape"/><feColorMatrix in="SourceAlpha" result="hardAlpha" values="0 0 0 0 0 0 0 0 0 0 0 0 0 0 0 0 0 0 127 0"/><feOffset dx=".1" dy="-.1"/><feGaussianBlur stdDeviation=".2"/><feComposite in2="hardAlpha" k2="-1" k3="1" operator="arithmetic"/><feColorMatrix values="0 0 0 0 0.152941 0 0 0 0 0.0862745 0 0 0 0 0.164706 0 0 0 1 0"/><feBlend in2="shape" result="effect1_innerShadow_3987_23478"/></filter><filter id="G" width="9.188" height="4.077" x="16.609" y="23.436" color-interpolation-filters="sRGB" filterUnits="userSpaceOnUse"><feFlood flood-opacity="0" result="BackgroundImageFix"/><feBlend in="SourceGraphic" in2="BackgroundImageFix" result="shape"/><feColorMatrix in="SourceAlpha" result="hardAlpha" values="0 0 0 0 0 0 0 0 0 0 0 0 0 0 0 0 0 0 127 0"/><feOffset dx=".25" dy="-.25"/><feGaussianBlur stdDeviation=".25"/><feComposite in2="hardAlpha" k2="-1" k3="1" operator="arithmetic"/><feColorMatrix values="0 0 0 0 0.701961 0 0 0 0 0.341176 0 0 0 0 0.254902 0 0 0 1 0"/><feBlend in2="shape" result="effect1_innerShadow_3987_23478"/><feColorMatrix in="SourceAlpha" result="hardAlpha" values="0 0 0 0 0 0 0 0 0 0 0 0 0 0 0 0 0 0 127 0"/><feOffset dx=".25" dy=".1"/><feGaussianBlur stdDeviation=".25"/><feComposite in2="hardAlpha" k2="-1" k3="1" operator="arithmetic"/><feColorMatrix values="0 0 0 0 0.894118 0 0 0 0 0.490196 0 0 0 0 0.196078 0 0 0 1 0"/><feBlend in2="effect1_innerShadow_3987_23478" result="effect2_innerShadow_3987_23478"/></filter><filter id="L" width="4.034" height="2.181" x="13.472" y="23.649" color-interpolation-filters="sRGB" filterUnits="userSpaceOnUse"><feFlood flood-opacity="0" result="BackgroundImageFix"/><feBlend in="SourceGraphic" in2="BackgroundImageFix" result="shape"/><feColorMatrix in="SourceAlpha" result="hardAlpha" values="0 0 0 0 0 0 0 0 0 0 0 0 0 0 0 0 0 0 127 0"/><feOffset dx=".1" dy="-.15"/><feGaussianBlur stdDeviation=".125"/><feComposite in2="hardAlpha" k2="-1" k3="1" operator="arithmetic"/><feColorMatrix values="0 0 0 0 0.27451 0 0 0 0 0.188235 0 0 0 0 0.52549 0 0 0 1 0"/><feBlend in2="shape" result="effect1_innerShadow_3987_23478"/></filter><filter id="P" width="3.572" height="8.62" x="15.145" y="16.059" color-interpolation-filters="sRGB" filterUnits="userSpaceOnUse"><feFlood flood-opacity="0" result="BackgroundImageFix"/><feBlend in="SourceGraphic" in2="BackgroundImageFix" result="shape"/><feColorMatrix in="SourceAlpha" result="hardAlpha" values="0 0 0 0 0 0 0 0 0 0 0 0 0 0 0 0 0 0 127 0"/><feOffset dx=".1" dy=".2"/><feGaussianBlur stdDeviation=".2"/><feComposite in2="hardAlpha" k2="-1" k3="1" operator="arithmetic"/><feColorMatrix values="0 0 0 0 0.858824 0 0 0 0 0.611765 0 0 0 0 0.211765 0 0 0 1 0"/><feBlend in2="shape" result="effect1_innerShadow_3987_23478"/></filter><filter id="S" width="6.668" height="7.67" x="16.523" y="10.924" color-interpolation-filters="sRGB" filterUnits="userSpaceOnUse"><feFlood flood-opacity="0" result="BackgroundImageFix"/><feBlend in="SourceGraphic" in2="BackgroundImageFix" result="shape"/><feColorMatrix in="SourceAlpha" result="hardAlpha" values="0 0 0 0 0 0 0 0 0 0 0 0 0 0 0 0 0 0 127 0"/><feOffset dx=".25" dy="-.25"/><feGaussianBlur stdDeviation=".625"/><feComposite in2="hardAlpha" k2="-1" k3="1" operator="arithmetic"/><feColorMatrix values="0 0 0 0 0.521569 0 0 0 0 0.372549 0 0 0 0 0.533333 0 0 0 1 0"/><feBlend in2="shape" result="effect1_innerShadow_3987_23478"/></filter><filter id="V" width="7.971" height="5.869" x="14.982" y="7.828" color-interpolation-filters="sRGB" filterUnits="userSpaceOnUse"><feFlood flood-opacity="0" result="BackgroundImageFix"/><feBlend in="SourceGraphic" in2="BackgroundImageFix" result="shape"/><feColorMatrix in="SourceAlpha" result="hardAlpha" values="0 0 0 0 0 0 0 0 0 0 0 0 0 0 0 0 0 0 127 0"/><feOffset dx="1"/><feGaussianBlur stdDeviation=".75"/><feComposite in2="hardAlpha" k2="-1" k3="1" operator="arithmetic"/><feColorMatrix values="0 0 0 0 0.85098 0 0 0 0 0.286275 0 0 0 0 0.317647 0 0 0 1 0"/><feBlend in2="shape" result="effect1_innerShadow_3987_23478"/></filter><filter id="X" width="6.005" height="4.259" x="6.878" y="11.607" color-interpolation-filters="sRGB" filterUnits="userSpaceOnUse"><feFlood flood-opacity="0" result="BackgroundImageFix"/><feBlend in="SourceGraphic" in2="BackgroundImageFix" result="shape"/><feColorMatrix in="SourceAlpha" result="hardAlpha" values="0 0 0 0 0 0 0 0 0 0 0 0 0 0 0 0 0 0 127 0"/><feOffset dx="-.25"/><feGaussianBlur stdDeviation=".5"/><feComposite in2="hardAlpha" k2="-1" k3="1" operator="arithmetic"/><feColorMatrix values="0 0 0 0 0.631373 0 0 0 0 0.501961 0 0 0 0 0.466667 0 0 0 1 0"/><feBlend in2="shape" result="effect1_innerShadow_3987_23478"/></filter><filter id="ad" width="2.812" height="2.658" x="13.346" y="4.603" color-interpolation-filters="sRGB" filterUnits="userSpaceOnUse"><feFlood flood-opacity="0" result="BackgroundImageFix"/><feBlend in="SourceGraphic" in2="BackgroundImageFix" result="shape"/><feColorMatrix in="SourceAlpha" result="hardAlpha" values="0 0 0 0 0 0 0 0 0 0 0 0 0 0 0 0 0 0 127 0"/><feOffset dx=".25" dy="-.25"/><feGaussianBlur stdDeviation=".25"/><feComposite in2="hardAlpha" k2="-1" k3="1" operator="arithmetic"/><feColorMatrix values="0 0 0 0 0.92549 0 0 0 0 0.447059 0 0 0 0 0.027451 0 0 0 1 0"/><feBlend in2="shape" result="effect1_innerShadow_3987_23478"/></filter><filter id="af" width=".84" height="1.674" x="14.502" y="4.791" color-interpolation-filters="sRGB" filterUnits="userSpaceOnUse"><feFlood flood-opacity="0" result="BackgroundImageFix"/><feBlend in="SourceGraphic" in2="BackgroundImageFix" result="shape"/><feGaussianBlur result="effect1_foregroundBlur_3987_23478" stdDeviation=".05"/></filter><filter id="am" width="5.871" height="4.945" x="9.285" y="2.47" color-interpolation-filters="sRGB" filterUnits="userSpaceOnUse"><feFlood flood-opacity="0" result="BackgroundImageFix"/><feBlend in="SourceGraphic" in2="BackgroundImageFix" result="shape"/><feColorMatrix in="SourceAlpha" result="hardAlpha" values="0 0 0 0 0 0 0 0 0 0 0 0 0 0 0 0 0 0 127 0"/><feOffset dy="-.15"/><feGaussianBlur stdDeviation=".3"/><feComposite in2="hardAlpha" k2="-1" k3="1" operator="arithmetic"/><feColorMatrix values="0 0 0 0 0.305882 0 0 0 0 0.556863 0 0 0 0 0.882353 0 0 0 1 0"/><feBlend in2="shape" result="effect1_innerShadow_3987_23478"/></filter><filter id="ao" width="1.994" height="1.329" x="11.218" y="4.602" color-interpolation-filters="sRGB" filterUnits="userSpaceOnUse"><feFlood flood-opacity="0" result="BackgroundImageFix"/><feBlend in="SourceGraphic" in2="BackgroundImageFix" result="shape"/><feColorMatrix in="SourceAlpha" result="hardAlpha" values="0 0 0 0 0 0 0 0 0 0 0 0 0 0 0 0 0 0 127 0"/><feOffset/><feGaussianBlur stdDeviation=".25"/><feComposite in2="hardAlpha" k2="-1" k3="1" operator="arithmetic"/><feColorMatrix values="0 0 0 0 0.137255 0 0 0 0 0.482353 0 0 0 0 0.796078 0 0 0 1 0"/><feBlend in2="shape" result="effect1_innerShadow_3987_23478"/></filter><filter id="aq" width="3.137" height="2.915" x="6.879" y="13.202" color-interpolation-filters="sRGB" filterUnits="userSpaceOnUse"><feFlood flood-opacity="0" result="BackgroundImageFix"/><feBlend in="SourceGraphic" in2="BackgroundImageFix" result="shape"/><feColorMatrix in="SourceAlpha" result="hardAlpha" values="0 0 0 0 0 0 0 0 0 0 0 0 0 0 0 0 0 0 127 0"/><feOffset dx="-.25" dy=".25"/><feGaussianBlur stdDeviation=".25"/><feComposite in2="hardAlpha" k2="-1" k3="1" operator="arithmetic"/><feColorMatrix values="0 0 0 0 0.164706 0 0 0 0 0.117647 0 0 0 0 0.231373 0 0 0 1 0"/><feBlend in2="shape" result="effect1_innerShadow_3987_23478"/></filter><filter id="ar" width="10.272" height="6.937" x="7.755" y="8.163" color-interpolation-filters="sRGB" filterUnits="userSpaceOnUse"><feFlood flood-opacity="0" result="BackgroundImageFix"/><feBlend in="SourceGraphic" in2="BackgroundImageFix" result="shape"/><feColorMatrix in="SourceAlpha" result="hardAlpha" values="0 0 0 0 0 0 0 0 0 0 0 0 0 0 0 0 0 0 127 0"/><feOffset dx=".5" dy="-.5"/><feGaussianBlur stdDeviation=".375"/><feComposite in2="hardAlpha" k2="-1" k3="1" operator="arithmetic"/><feColorMatrix values="0 0 0 0 0.823529 0 0 0 0 0.517647 0 0 0 0 0.211765 0 0 0 1 0"/><feBlend in2="shape" result="effect1_innerShadow_3987_23478"/></filter><filter id="au" width="5.496" height="6.372" x="17.669" y="11.348" color-interpolation-filters="sRGB" filterUnits="userSpaceOnUse"><feFlood flood-opacity="0" result="BackgroundImageFix"/><feBlend in="SourceGraphic" in2="BackgroundImageFix" result="shape"/><feGaussianBlur result="effect1_foregroundBlur_3987_23478" stdDeviation=".3"/></filter><filter id="ay" width="2.969" height="2.969" x="7.683" y="12.512" color-interpolation-filters="sRGB" filterUnits="userSpaceOnUse"><feFlood flood-opacity="0" result="BackgroundImageFix"/><feBlend in="SourceGraphic" in2="BackgroundImageFix" result="shape"/><feGaussianBlur result="effect1_foregroundBlur_3987_23478" stdDeviation=".3"/></filter></defs></svg>