<svg width="100%" height="100%" viewBox="0 0 32 32" xmlns="http://www.w3.org/2000/svg"><g clip-path="url(#a)"><path fill="url(#b)" d="M15.999 29.998c9.334 0 13.999-6.268 13.999-14 0-7.73-4.665-13.998-14-13.998C6.665 2 2 8.268 2 15.999s4.664 13.999 13.999 13.999"/><path fill="url(#c)" d="M15.999 29.998c9.334 0 13.999-6.268 13.999-14 0-7.73-4.665-13.998-14-13.998C6.665 2 2 8.268 2 15.999s4.664 13.999 13.999 13.999"/><path fill="url(#d)" fill-opacity=".6" d="M15.999 29.998c9.334 0 13.999-6.268 13.999-14 0-7.73-4.665-13.998-14-13.998C6.665 2 2 8.268 2 15.999s4.664 13.999 13.999 13.999"/><circle cx="9" cy="16" r="5" fill="url(#e)"/><circle cx="19.5" cy="16.5" r="4.5" fill="url(#f)"/><path fill="#fff" d="M10.5 19a4.5 4.5 0 1 0 0-9 4.5 4.5 0 0 0 0 9M21.5 19a4.5 4.5 0 1 0 0-9 4.5 4.5 0 0 0 0 9"/><path fill="url(#g)" d="M12 17a2 2 0 1 0 0-4 2 2 0 0 0 0 4"/><path fill="url(#h)" d="M20 17a2 2 0 1 0 0-4 2 2 0 0 0 0 4"/><path stroke="url(#i)" stroke-linecap="round" stroke-linejoin="round" stroke-width="1.25" d="M10.5 5.5s-.5 3-4 3"/><path stroke="url(#j)" stroke-linecap="round" stroke-linejoin="round" stroke-width="1.25" d="M10.5 5.5s-.5 3-4 3"/><path stroke="url(#k)" stroke-linecap="round" stroke-linejoin="round" stroke-width="1.25" d="M21.5 5.5s.5 3 4 3"/><path stroke="url(#l)" stroke-linecap="round" stroke-width="2" d="M14 22h4"/><path stroke="url(#m)" stroke-linecap="round" stroke-width="2" d="M10 19c1.167 0 3 .6 3 3s-1.833 3-3 3"/><path stroke="url(#n)" stroke-linecap="round" stroke-width="2" d="M22 19c-1.167 0-3 .6-3 3s1.833 3 3 3"/></g><defs><radialGradient id="b" cx="0" cy="0" r="1" gradientTransform="rotate(100.923 6.61 11.342)scale(29.0258)" gradientUnits="userSpaceOnUse"><stop stop-color="#00F397"/><stop offset=".493" stop-color="#00D26A"/><stop offset="1" stop-color="#8D65C5"/></radialGradient><radialGradient id="c" cx="0" cy="0" r="1" gradientTransform="matrix(0 19.5 -19.5 0 16 12.5)" gradientUnits="userSpaceOnUse"><stop offset=".811" stop-color="#A7A1F6" stop-opacity="0"/><stop offset=".973" stop-color="#A092FF"/></radialGradient><radialGradient id="d" cx="0" cy="0" r="1" gradientTransform="matrix(-29 29 -29 -29 18 14)" gradientUnits="userSpaceOnUse"><stop offset=".315" stop-opacity="0"/><stop offset="1"/></radialGradient><radialGradient id="e" cx="0" cy="0" r="1" gradientTransform="rotate(135 3.936 8.725)scale(9.74236 5.04232)" gradientUnits="userSpaceOnUse"><stop stop-color="#392108"/><stop offset="1" stop-color="#C87928" stop-opacity="0"/></radialGradient><radialGradient id="f" cx="0" cy="0" r="1" gradientTransform="matrix(-5.75 5.75 -3.24597 -3.24597 23 13)" gradientUnits="userSpaceOnUse"><stop stop-color="#392108"/><stop offset="1" stop-color="#C87928" stop-opacity="0"/></radialGradient><radialGradient id="j" cx="0" cy="0" r="1" gradientTransform="matrix(2.5 3.5 -3.5 2.5 7 5)" gradientUnits="userSpaceOnUse"><stop offset=".542" stop-color="#493032"/><stop offset=".807" stop-color="#5E445A"/><stop offset=".955" stop-color="#4A2C42"/></radialGradient><radialGradient id="k" cx="0" cy="0" r="1" gradientTransform="rotate(125.538 11.213 8.933)scale(4.30116)" gradientUnits="userSpaceOnUse"><stop stop-color="#C2B4B5"/><stop offset=".887" stop-color="#462B45"/><stop offset="1" stop-color="#4A2C42"/></radialGradient><radialGradient id="m" cx="0" cy="0" r="1" gradientTransform="matrix(4 0 0 4 10 22)" gradientUnits="userSpaceOnUse"><stop offset=".509" stop-color="#3E3537"/><stop offset=".707" stop-color="#523A4F"/><stop offset="1" stop-color="#6A5763"/></radialGradient><radialGradient id="n" cx="0" cy="0" r="1" gradientTransform="matrix(-4 0 0 -4 22 22)" gradientUnits="userSpaceOnUse"><stop offset=".509" stop-color="#3E3537"/><stop offset=".707" stop-color="#523A4F"/><stop offset="1" stop-color="#6A5763"/></radialGradient><linearGradient id="g" x1="20.615" x2="19.927" y1="13" y2="17.03" gradientUnits="userSpaceOnUse"><stop stop-color="#553B3E"/><stop offset="1" stop-color="#3D2432"/></linearGradient><linearGradient id="h" x1="20.615" x2="19.927" y1="13" y2="17.03" gradientUnits="userSpaceOnUse"><stop stop-color="#553B3E"/><stop offset="1" stop-color="#3D2432"/></linearGradient><linearGradient id="i" x1="9.5" x2="9.5" y1="5" y2="6.5" gradientUnits="userSpaceOnUse"><stop offset=".03" stop-color="#524049"/><stop offset="1" stop-color="#4A2C42"/></linearGradient><linearGradient id="l" x1="16" x2="16" y1="21" y2="23" gradientUnits="userSpaceOnUse"><stop stop-color="#4E3F45"/><stop offset=".212" stop-color="#5F4D56"/><stop offset=".957" stop-color="#51275A"/></linearGradient><clipPath id="a"><path fill="#fff" d="M0 0h32v32H0z"/></clipPath></defs></svg>