<svg width="100%" height="100%" viewBox="0 0 32 33" xmlns="http://www.w3.org/2000/svg"><g clip-path="url(#a)"><path fill="url(#b)" d="M30 18.79C29.89 11.17 23.66 6 16 6S2.11 11.17 2 18.79V19c0 4.42 3.58 8 8 8h12c4.42 0 8-3.58 8-8z"/><path fill="url(#c)" d="M30 18.79C29.89 11.17 23.66 6 16 6S2.11 11.17 2 18.79V19c0 4.42 3.58 8 8 8h12c4.42 0 8-3.58 8-8z"/><path fill="url(#d)" d="M30 18.79C29.89 11.17 23.66 6 16 6S2.11 11.17 2 18.79V19c0 4.42 3.58 8 8 8h12c4.42 0 8-3.58 8-8z"/><g filter="url(#e)"><path fill="url(#f)" fill-rule="evenodd" d="M29.281 20.813C29.625 11 23.11 7.063 15.5 7.063c10.563 1.218 13.428 9.412 13.781 13.75" clip-rule="evenodd"/></g><path fill="url(#g)" d="M7.05 19.75c0 1.63 1.32 2.95 2.95 2.95s2.95-1.32 2.95-2.95v-3.88c0-1.63-1.32-2.95-2.95-2.95s-2.95 1.32-2.95 2.95z"/><path stroke="url(#h)" stroke-width=".4" d="M7.05 19.75c0 1.63 1.32 2.95 2.95 2.95s2.95-1.32 2.95-2.95v-3.88c0-1.63-1.32-2.95-2.95-2.95s-2.95 1.32-2.95 2.95z"/><path stroke="url(#i)" stroke-width=".4" d="M7.05 19.75c0 1.63 1.32 2.95 2.95 2.95s2.95-1.32 2.95-2.95v-3.88c0-1.63-1.32-2.95-2.95-2.95s-2.95 1.32-2.95 2.95z"/><path fill="url(#j)" d="M19.05 19.75c0 1.63 1.32 2.95 2.95 2.95s2.95-1.32 2.95-2.95v-3.88c0-1.63-1.32-2.95-2.95-2.95s-2.95 1.32-2.95 2.95z"/><path stroke="url(#k)" stroke-width=".4" d="M19.05 19.75c0 1.63 1.32 2.95 2.95 2.95s2.95-1.32 2.95-2.95v-3.88c0-1.63-1.32-2.95-2.95-2.95s-2.95 1.32-2.95 2.95z"/><path stroke="url(#l)" stroke-width=".4" d="M19.05 19.75c0 1.63 1.32 2.95 2.95 2.95s2.95-1.32 2.95-2.95v-3.88c0-1.63-1.32-2.95-2.95-2.95s-2.95 1.32-2.95 2.95z"/><g filter="url(#m)"><path stroke="url(#n)" stroke-linecap="round" stroke-width=".8" d="M22.397 21.313a1.995 1.995 0 0 1-1.996-1.997V15.22"/></g><g filter="url(#o)"><path stroke="url(#p)" stroke-linecap="round" stroke-width=".8" d="M10.647 21.313a1.995 1.995 0 0 1-1.996-1.997V15.22"/></g></g><defs><linearGradient id="b" x1="16.625" x2="16.625" y1="8.75" y2="27" gradientUnits="userSpaceOnUse"><stop stop-color="#FFB1BA"/><stop offset="1" stop-color="#FC64A3"/></linearGradient><linearGradient id="h" x1="4.906" x2="12.25" y1="20.75" y2="14.469" gradientUnits="userSpaceOnUse"><stop stop-color="#FC8BAD"/><stop offset="1" stop-color="#FC8BAD" stop-opacity="0"/></linearGradient><linearGradient id="i" x1="13.266" x2="10.734" y1="12.609" y2="16.016" gradientUnits="userSpaceOnUse"><stop stop-color="#E789AD"/><stop offset="1" stop-color="#FC8BAD" stop-opacity="0"/></linearGradient><linearGradient id="k" x1="16.906" x2="24.25" y1="20.75" y2="14.469" gradientUnits="userSpaceOnUse"><stop stop-color="#FC8BAD"/><stop offset="1" stop-color="#FC8BAD" stop-opacity="0"/></linearGradient><linearGradient id="l" x1="25.266" x2="22.734" y1="12.609" y2="16.016" gradientUnits="userSpaceOnUse"><stop stop-color="#E789AD"/><stop offset="1" stop-color="#FC8BAD" stop-opacity="0"/></linearGradient><linearGradient id="n" x1="19.313" x2="18.7" y1="22.281" y2="15.724" gradientUnits="userSpaceOnUse"><stop stop-color="#735A69" stop-opacity="0"/><stop offset=".359" stop-color="#735A69"/><stop offset="1" stop-color="#5E4755" stop-opacity=".25"/></linearGradient><linearGradient id="p" x1="7.562" x2="6.95" y1="22.281" y2="15.724" gradientUnits="userSpaceOnUse"><stop stop-color="#735A69" stop-opacity="0"/><stop offset=".359" stop-color="#735A69"/><stop offset="1" stop-color="#5E4755" stop-opacity=".25"/></linearGradient><radialGradient id="c" cx="0" cy="0" r="1" gradientTransform="matrix(0 24.5625 -31.655 0 16 8.25)" gradientUnits="userSpaceOnUse"><stop offset=".588" stop-color="#F13F9E" stop-opacity="0"/><stop offset=".847" stop-color="#F13F9E"/></radialGradient><radialGradient id="d" cx="0" cy="0" r="1" gradientTransform="matrix(-17.25 0 0 -14.4973 18.813 18.625)" gradientUnits="userSpaceOnUse"><stop offset=".891" stop-color="#FCBCC2" stop-opacity="0"/><stop offset="1" stop-color="#FCBCC2"/></radialGradient><radialGradient id="f" cx="0" cy="0" r="1" gradientTransform="rotate(140.972 10.732 9.915)scale(4.14341 37.6194)" gradientUnits="userSpaceOnUse"><stop stop-color="#FFC9D3"/><stop offset="1" stop-color="#FFC9D3" stop-opacity="0"/></radialGradient><radialGradient id="g" cx="0" cy="0" r="1" gradientTransform="matrix(3.40625 0 0 9.65104 10.219 18.188)" gradientUnits="userSpaceOnUse"><stop offset=".172" stop-color="#423450"/><stop offset="1" stop-color="#1F1030"/></radialGradient><radialGradient id="j" cx="0" cy="0" r="1" gradientTransform="matrix(3.40625 0 0 9.65104 22.219 18.188)" gradientUnits="userSpaceOnUse"><stop offset=".172" stop-color="#423450"/><stop offset="1" stop-color="#1F1030"/></radialGradient><filter id="e" width="15.794" height="15.75" x="14.5" y="6.063" color-interpolation-filters="sRGB" filterUnits="userSpaceOnUse"><feFlood flood-opacity="0" result="BackgroundImageFix"/><feBlend in="SourceGraphic" in2="BackgroundImageFix" result="shape"/><feGaussianBlur result="effect1_foregroundBlur_28327_3099" stdDeviation=".5"/></filter><filter id="m" width="3.796" height="7.894" x="19.501" y="14.319" color-interpolation-filters="sRGB" filterUnits="userSpaceOnUse"><feFlood flood-opacity="0" result="BackgroundImageFix"/><feBlend in="SourceGraphic" in2="BackgroundImageFix" result="shape"/><feGaussianBlur result="effect1_foregroundBlur_28327_3099" stdDeviation=".25"/></filter><filter id="o" width="3.796" height="7.894" x="7.751" y="14.319" color-interpolation-filters="sRGB" filterUnits="userSpaceOnUse"><feFlood flood-opacity="0" result="BackgroundImageFix"/><feBlend in="SourceGraphic" in2="BackgroundImageFix" result="shape"/><feGaussianBlur result="effect1_foregroundBlur_28327_3099" stdDeviation=".25"/></filter><clipPath id="a"><path fill="#fff" d="M0 .5h32v32H0z"/></clipPath></defs></svg>