<svg width="100%" height="100%" viewBox="0 0 32 32" xmlns="http://www.w3.org/2000/svg"><g filter="url(#a)"><path fill="url(#b)" d="M6.954 21.668a3.06 3.06 0 1 0 0-6.12 3.06 3.06 0 0 0 0 6.12"/></g><g filter="url(#c)"><path fill="url(#d)" d="M25.046 21.668a3.06 3.06 0 1 0 0-6.12 3.06 3.06 0 0 0 0 6.12"/><path fill="url(#e)" d="M25.046 21.668a3.06 3.06 0 1 0 0-6.12 3.06 3.06 0 0 0 0 6.12"/></g><g filter="url(#f)"><path fill="#845F59" d="M25.046 20.65a2.043 2.043 0 1 0 0-4.086 2.043 2.043 0 0 0 0 4.086"/><path fill="url(#g)" d="M25.046 20.65a2.043 2.043 0 1 0 0-4.086 2.043 2.043 0 0 0 0 4.086"/></g><g filter="url(#h)"><path fill="#5F3C45" d="M6.99 20.65a2.043 2.043 0 1 0 0-4.085 2.043 2.043 0 0 0 0 4.085"/><path fill="url(#i)" d="M6.99 20.65a2.043 2.043 0 1 0 0-4.085 2.043 2.043 0 0 0 0 4.085"/></g><path fill="url(#j)" d="M4.552 10.644c.193 2.806 1.397 3.89 1.761 4.18 0-.515-.074-1.815.476-2.636.801-1.196 1.711-1.285 2.601-1.285h12.96c2.465 0 3.081 1.796 3.081 2.694l-.093 1.146c.217 0 .866-.237 1.115-.728.65-1.285 1.068-3.963 1.161-5.527s.031-2.764-1.192-4.452c-.979-1.35-2.795-2.02-4.42-2.02H10.45c-3.712 0-4.678 1.406-5.42 2.8-.594 1.114-.675 2.2-.674 2.843 0 .759.012 2.128.195 2.985"/><path fill="url(#k)" d="M4.552 10.644c.193 2.806 1.397 3.89 1.761 4.18 0-.515-.074-1.815.476-2.636.801-1.196 1.711-1.285 2.601-1.285h12.96c2.465 0 3.081 1.796 3.081 2.694l-.093 1.146c.217 0 .866-.237 1.115-.728.65-1.285 1.068-3.963 1.161-5.527s.031-2.764-1.192-4.452c-.979-1.35-2.795-2.02-4.42-2.02H10.45c-3.712 0-4.678 1.406-5.42 2.8-.594 1.114-.675 2.2-.674 2.843 0 .759.012 2.128.195 2.985"/><path fill="url(#l)" d="M4.552 10.644c.193 2.806 1.397 3.89 1.761 4.18 0-.515-.074-1.815.476-2.636.801-1.196 1.711-1.285 2.601-1.285h12.96c2.465 0 3.081 1.796 3.081 2.694l-.093 1.146c.217 0 .866-.237 1.115-.728.65-1.285 1.068-3.963 1.161-5.527s.031-2.764-1.192-4.452c-.979-1.35-2.795-2.02-4.42-2.02H10.45c-3.712 0-4.678 1.406-5.42 2.8-.594 1.114-.675 2.2-.674 2.843 0 .759.012 2.128.195 2.985"/><g filter="url(#m)"><path fill="url(#n)" d="m6.29 14.806.023.018-.001-.166c-.007-.59-.02-1.727.477-2.47.801-1.196 1.711-1.285 2.601-1.285h12.96c2.465 0 3.081 1.796 3.081 2.694l-.093 1.146.04-.002-.033 6.335c-.234 5.33-4.396 8.908-9.477 8.908-5.08 0-9.242-3.579-9.477-8.908z"/><path fill="url(#o)" d="m6.29 14.806.023.018-.001-.166c-.007-.59-.02-1.727.477-2.47.801-1.196 1.711-1.285 2.601-1.285h12.96c2.465 0 3.081 1.796 3.081 2.694l-.093 1.146.04-.002-.033 6.335c-.234 5.33-4.396 8.908-9.477 8.908-5.08 0-9.242-3.579-9.477-8.908z"/><path fill="url(#p)" d="m6.29 14.806.023.018-.001-.166c-.007-.59-.02-1.727.477-2.47.801-1.196 1.711-1.285 2.601-1.285h12.96c2.465 0 3.081 1.796 3.081 2.694l-.093 1.146.04-.002-.033 6.335c-.234 5.33-4.396 8.908-9.477 8.908-5.08 0-9.242-3.579-9.477-8.908z"/><path fill="url(#q)" d="m6.29 14.806.023.018-.001-.166c-.007-.59-.02-1.727.477-2.47.801-1.196 1.711-1.285 2.601-1.285h12.96c2.465 0 3.081 1.796 3.081 2.694l-.093 1.146.04-.002-.033 6.335c-.234 5.33-4.396 8.908-9.477 8.908-5.08 0-9.242-3.579-9.477-8.908z"/><path fill="url(#r)" d="m6.29 14.806.023.018-.001-.166c-.007-.59-.02-1.727.477-2.47.801-1.196 1.711-1.285 2.601-1.285h12.96c2.465 0 3.081 1.796 3.081 2.694l-.093 1.146.04-.002-.033 6.335c-.234 5.33-4.396 8.908-9.477 8.908-5.08 0-9.242-3.579-9.477-8.908z"/><path fill="url(#s)" d="m6.29 14.806.023.018-.001-.166c-.007-.59-.02-1.727.477-2.47.801-1.196 1.711-1.285 2.601-1.285h12.96c2.465 0 3.081 1.796 3.081 2.694l-.093 1.146.04-.002-.033 6.335c-.234 5.33-4.396 8.908-9.477 8.908-5.08 0-9.242-3.579-9.477-8.908z"/><path fill="url(#t)" d="m6.29 14.806.023.018-.001-.166c-.007-.59-.02-1.727.477-2.47.801-1.196 1.711-1.285 2.601-1.285h12.96c2.465 0 3.081 1.796 3.081 2.694l-.093 1.146.04-.002-.033 6.335c-.234 5.33-4.396 8.908-9.477 8.908-5.08 0-9.242-3.579-9.477-8.908z"/><path fill="url(#u)" d="m6.29 14.806.023.018-.001-.166c-.007-.59-.02-1.727.477-2.47.801-1.196 1.711-1.285 2.601-1.285h12.96c2.465 0 3.081 1.796 3.081 2.694l-.093 1.146.04-.002-.033 6.335c-.234 5.33-4.396 8.908-9.477 8.908-5.08 0-9.242-3.579-9.477-8.908z"/><path fill="url(#v)" d="m6.29 14.806.023.018-.001-.166c-.007-.59-.02-1.727.477-2.47.801-1.196 1.711-1.285 2.601-1.285h12.96c2.465 0 3.081 1.796 3.081 2.694l-.093 1.146.04-.002-.033 6.335c-.234 5.33-4.396 8.908-9.477 8.908-5.08 0-9.242-3.579-9.477-8.908z"/></g><path fill="url(#w)" d="m6.29 14.806.023.018-.001-.166c-.007-.59-.02-1.727.477-2.47.801-1.196 1.711-1.285 2.601-1.285h12.96c2.465 0 3.081 1.796 3.081 2.694l-.093 1.146.04-.002-.033 6.335c-.234 5.33-4.396 8.908-9.477 8.908-5.08 0-9.242-3.579-9.477-8.908z"/><path fill="url(#x)" d="m6.29 14.806.023.018-.001-.166c-.007-.59-.02-1.727.477-2.47.801-1.196 1.711-1.285 2.601-1.285h12.96c2.465 0 3.081 1.796 3.081 2.694l-.093 1.146.04-.002-.033 6.335c-.234 5.33-4.396 8.908-9.477 8.908-5.08 0-9.242-3.579-9.477-8.908z"/><path fill="url(#y)" d="m6.29 14.806.023.018-.001-.166c-.007-.59-.02-1.727.477-2.47.801-1.196 1.711-1.285 2.601-1.285h12.96c2.465 0 3.081 1.796 3.081 2.694l-.093 1.146.04-.002-.033 6.335c-.234 5.33-4.396 8.908-9.477 8.908-5.08 0-9.242-3.579-9.477-8.908z"/><g filter="url(#z)"><path fill="url(#A)" d="m20.417 2.016.055 2.427c1.224-.031 3.562.082 5.578 1.227.85.482 1.29.992 1.574 1.413-.073-.969-.366-1.894-1.202-3.047-.979-1.35-2.795-2.02-4.42-2.02z"/><path fill="url(#B)" d="m20.417 2.016.055 2.427c1.224-.031 3.562.082 5.578 1.227.85.482 1.29.992 1.574 1.413-.073-.969-.366-1.894-1.202-3.047-.979-1.35-2.795-2.02-4.42-2.02z"/></g><g filter="url(#C)"><path fill="url(#D)" d="M26.99 12.484c.005-1.483-1.085-2.607-1.93-3.106-1.34-.79-3.268-1.004-4.104-.999H19.47l-4.955.806.256 1.718h7.579c2.465 0 3.102 1.792 3.043 2.694l-.055 1.146c.217 0 .866-.236 1.115-.728.203-.4.383-.936.537-1.531"/></g><path fill="url(#E)" d="M26.99 12.484c.005-1.483-1.085-2.607-1.93-3.106-1.34-.79-3.268-1.004-4.104-.999H19.47l-4.955.806.256 1.718h7.579c2.465 0 3.102 1.792 3.043 2.694l-.055 1.146c.217 0 .866-.236 1.115-.728.203-.4.383-.936.537-1.531"/><path fill="url(#F)" d="M26.99 12.484c.005-1.483-1.085-2.607-1.93-3.106-1.34-.79-3.268-1.004-4.104-.999H19.47l-4.955.806.256 1.718h7.579c2.465 0 3.102 1.792 3.043 2.694l-.055 1.146c.217 0 .866-.236 1.115-.728.203-.4.383-.936.537-1.531"/><path fill="url(#G)" d="M26.99 12.484c.005-1.483-1.085-2.607-1.93-3.106-1.34-.79-3.268-1.004-4.104-.999H19.47l-4.955.806.256 1.718h7.579c2.465 0 3.102 1.792 3.043 2.694l-.055 1.146c.217 0 .866-.236 1.115-.728.203-.4.383-.936.537-1.531"/><g filter="url(#H)"><path fill="url(#I)" d="M20.946 2.016c.357 1.961.193 4.54-1.02 6.425-.921 1.434-2.18 2.462-3.472 2.462H9.39c-.89 0-1.8.09-2.6 1.285-.499.743-.485 1.88-.478 2.47l.001.166c-.364-.29-1.568-1.374-1.761-4.18-.183-.857-.195-2.226-.195-2.985 0-.642.08-1.73.673-2.844.743-1.393 1.71-2.8 5.42-2.8z"/></g><path fill="url(#J)" d="M20.946 2.016c.357 1.961.193 4.54-1.02 6.425-.921 1.434-2.18 2.462-3.472 2.462H9.39c-.89 0-1.8.09-2.6 1.285-.499.743-.485 1.88-.478 2.47l.001.166c-.364-.29-1.568-1.374-1.761-4.18-.183-.857-.195-2.226-.195-2.985 0-.642.08-1.73.673-2.844.743-1.393 1.71-2.8 5.42-2.8z"/><path fill="url(#K)" d="M20.946 2.016c.357 1.961.193 4.54-1.02 6.425-.921 1.434-2.18 2.462-3.472 2.462H9.39c-.89 0-1.8.09-2.6 1.285-.499.743-.485 1.88-.478 2.47l.001.166c-.364-.29-1.568-1.374-1.761-4.18-.183-.857-.195-2.226-.195-2.985 0-.642.08-1.73.673-2.844.743-1.393 1.71-2.8 5.42-2.8z"/><path fill="url(#L)" d="M20.946 2.016c.357 1.961.193 4.54-1.02 6.425-.921 1.434-2.18 2.462-3.472 2.462H9.39c-.89 0-1.8.09-2.6 1.285-.499.743-.485 1.88-.478 2.47l.001.166c-.364-.29-1.568-1.374-1.761-4.18-.183-.857-.195-2.226-.195-2.985 0-.642.08-1.73.673-2.844.743-1.393 1.71-2.8 5.42-2.8z"/><path fill="url(#M)" d="M20.946 2.016c.357 1.961.193 4.54-1.02 6.425-.921 1.434-2.18 2.462-3.472 2.462H9.39c-.89 0-1.8.09-2.6 1.285-.499.743-.485 1.88-.478 2.47l.001.166c-.364-.29-1.568-1.374-1.761-4.18-.183-.857-.195-2.226-.195-2.985 0-.642.08-1.73.673-2.844.743-1.393 1.71-2.8 5.42-2.8z"/><path fill="url(#N)" d="M20.946 2.016c.357 1.961.193 4.54-1.02 6.425-.921 1.434-2.18 2.462-3.472 2.462H9.39c-.89 0-1.8.09-2.6 1.285-.499.743-.485 1.88-.478 2.47l.001.166c-.364-.29-1.568-1.374-1.761-4.18-.183-.857-.195-2.226-.195-2.985 0-.642.08-1.73.673-2.844.743-1.393 1.71-2.8 5.42-2.8z"/><g filter="url(#O)"><path fill="url(#P)" d="M4.542 10.595c.457-.912 1.614-2.206 5.677-2.626.406-.042 1.003-.06 1.672-.08 1.666-.05 3.775-.113 4.482-.594.933-.445 1.973-3.245 1.54-5.28h-5.97L4.954 4.965c-.524 1.062-.598 2.081-.597 2.695 0 .745.012 2.077.185 2.936"/><path fill="url(#Q)" d="M4.542 10.595c.457-.912 1.614-2.206 5.677-2.626.406-.042 1.003-.06 1.672-.08 1.666-.05 3.775-.113 4.482-.594.933-.445 1.973-3.245 1.54-5.28h-5.97L4.954 4.965c-.524 1.062-.598 2.081-.597 2.695 0 .745.012 2.077.185 2.936"/><path fill="url(#R)" d="M4.542 10.595c.457-.912 1.614-2.206 5.677-2.626.406-.042 1.003-.06 1.672-.08 1.666-.05 3.775-.113 4.482-.594.933-.445 1.973-3.245 1.54-5.28h-5.97L4.954 4.965c-.524 1.062-.598 2.081-.597 2.695 0 .745.012 2.077.185 2.936"/><path fill="url(#S)" d="M4.542 10.595c.457-.912 1.614-2.206 5.677-2.626.406-.042 1.003-.06 1.672-.08 1.666-.05 3.775-.113 4.482-.594.933-.445 1.973-3.245 1.54-5.28h-5.97L4.954 4.965c-.524 1.062-.598 2.081-.597 2.695 0 .745.012 2.077.185 2.936"/><path fill="url(#T)" d="M4.542 10.595c.457-.912 1.614-2.206 5.677-2.626.406-.042 1.003-.06 1.672-.08 1.666-.05 3.775-.113 4.482-.594.933-.445 1.973-3.245 1.54-5.28h-5.97L4.954 4.965c-.524 1.062-.598 2.081-.597 2.695 0 .745.012 2.077.185 2.936"/></g><g filter="url(#U)"><path fill="url(#V)" d="M4.357 7.752c.557-.67 1.563-1.613 2.897-1.974 1.879-.509 4.836-.733 6.069-.82.45.025 1.556-.442 1.556-1.61 0-.434-.016-.89-.053-1.332H10.45c-3.712 0-4.678 1.406-5.42 2.8-.594 1.114-.675 2.2-.674 2.843z"/></g><path fill="url(#W)" d="M4.357 7.752c.557-.67 1.563-1.613 2.897-1.974 1.879-.509 4.836-.733 6.069-.82.45.025 1.556-.442 1.556-1.61 0-.434-.016-.89-.053-1.332H10.45c-3.712 0-4.678 1.406-5.42 2.8-.594 1.114-.675 2.2-.674 2.843z"/><path fill="url(#X)" d="M4.357 7.752c.557-.67 1.563-1.613 2.897-1.974 1.879-.509 4.836-.733 6.069-.82.45.025 1.556-.442 1.556-1.61 0-.434-.016-.89-.053-1.332H10.45c-3.712 0-4.678 1.406-5.42 2.8-.594 1.114-.675 2.2-.674 2.843z"/><g filter="url(#Y)"><path fill="#70404A" d="m15.119 18.184-1.3 3.233c-.207.665.288 1.33.99 1.33h1.495c.702 0 1.197-.675.99-1.33l-1.01-3.233c-.217-.717-.939-.717-1.165 0"/></g><g filter="url(#Z)"><path fill="#8A6058" d="m15.138 17.92-1.01 3.233c-.207.666.288 1.33.99 1.33h1.495c.701 0 1.196-.675.99-1.33l-1.01-3.233c-.217-.716-1.228-.716-1.455 0"/><path fill="url(#aa)" d="m15.138 17.92-1.01 3.233c-.207.666.288 1.33.99 1.33h1.495c.701 0 1.196-.675.99-1.33l-1.01-3.233c-.217-.716-1.228-.716-1.455 0"/><path fill="url(#ab)" d="m15.138 17.92-1.01 3.233c-.207.666.288 1.33.99 1.33h1.495c.701 0 1.196-.675.99-1.33l-1.01-3.233c-.217-.716-1.228-.716-1.455 0"/><path fill="url(#ac)" d="m15.138 17.92-1.01 3.233c-.207.666.288 1.33.99 1.33h1.495c.701 0 1.196-.675.99-1.33l-1.01-3.233c-.217-.716-1.228-.716-1.455 0"/><path fill="url(#ad)" d="m15.138 17.92-1.01 3.233c-.207.666.288 1.33.99 1.33h1.495c.701 0 1.196-.675.99-1.33l-1.01-3.233c-.217-.716-1.228-.716-1.455 0"/></g><g filter="url(#ae)"><path fill="url(#af)" d="m15.109 17.696-1.01 3.233c-.207.665.288 1.33.99 1.33h1.495c.701 0 1.196-.675.99-1.33l-1.01-3.233c-.217-.716-1.228-.716-1.455 0"/></g><g filter="url(#ag)"><path fill="#88014F" d="M15.865 24.145c-.99 0-1.92-.239-2.703-.656-.268-.139-.555.169-.386.417a3.67 3.67 0 0 0 3.09 1.689 3.67 3.67 0 0 0 3.09-1.689c.168-.258-.12-.556-.387-.417a5.7 5.7 0 0 1-2.704.656"/><path stroke="url(#ah)" stroke-width=".2" d="M15.865 24.145c-.99 0-1.92-.239-2.703-.656-.268-.139-.555.169-.386.417a3.67 3.67 0 0 0 3.09 1.689 3.67 3.67 0 0 0 3.09-1.689c.168-.258-.12-.556-.387-.417a5.7 5.7 0 0 1-2.704.656Z"/></g><path fill="#88014F" d="M15.865 24.145c-.99 0-1.92-.239-2.703-.656-.268-.139-.555.169-.386.417a3.67 3.67 0 0 0 3.09 1.689 3.67 3.67 0 0 0 3.09-1.689c.168-.258-.12-.556-.387-.417a5.7 5.7 0 0 1-2.704.656"/><g filter="url(#ai)"><path fill="#2D2B2E" d="M18.037 17.525c.505-.888 1.272-1.589 2.924-1.589.723 0 1.42.2 2.04.701.511.413.443.942.047 1.14l-1.057.604c-1.24-.401-2.61-.455-3.954-.856"/></g><g filter="url(#aj)"><path fill="#272528" d="M13.694 17.525c-.505-.888-1.272-1.589-2.924-1.589-.723 0-1.42.2-2.04.701-.512.413-.443.942-.047 1.14l1.057.604c1.24-.401 2.61-.455 3.954-.856"/></g><g filter="url(#ak)"><path fill="#352827" d="m9.404 15.226-.009.005a.51.51 0 0 1-.524-.875l.003-.001.005-.004.018-.01.062-.034q.08-.044.22-.112c.188-.09.455-.204.78-.308.647-.206 1.55-.38 2.527-.207a.51.51 0 1 1-.178 1.004c-.758-.134-1.486-.001-2.038.175a5 5 0 0 0-.825.345z"/></g><g filter="url(#al)"><path fill="#352827" fill-rule="evenodd" d="m22.962 14.356-.262.438za.51.51 0 0 1-.524.876l-.01-.006-.04-.023a5.228 5.228 0 0 0-.825-.344c-.552-.176-1.28-.309-2.039-.175a.51.51 0 1 1-.177-1.004c.976-.173 1.88 0 2.526.207a6 6 0 0 1 1 .42l.062.034.018.01.006.004h.002z" clip-rule="evenodd"/></g><path fill="#fff" d="M20.412 16.048c1.242 0 2.292.856 2.577 2.013a.52.52 0 0 1-.51.648h-4.242a.438.438 0 0 1-.432-.516 2.66 2.66 0 0 1 2.607-2.145"/><path fill="url(#am)" d="M20.019 16.565a1.697 1.697 0 0 1 1.636 2.145h-3.28a1.7 1.7 0 0 1-.061-.448c0-.933.764-1.697 1.705-1.697"/><path fill="#000" d="M19.047 18.262c0-.54.432-.972.972-.972s.972.432.972.972a.96.96 0 0 1-.108.448h-1.72a.9.9 0 0 1-.116-.448"/><g filter="url(#an)"><path fill="#C7A7A3" d="M19.894 16.923c.121.162-.132.36-.419.574-.287.215-.5.366-.622.204-.12-.161.015-.466.302-.681s.618-.258.74-.097"/><path fill="url(#ao)" d="M19.894 16.923c.121.162-.132.36-.419.574-.287.215-.5.366-.622.204-.12-.161.015-.466.302-.681s.618-.258.74-.097"/></g><g filter="url(#ap)"><path fill="url(#aq)" d="M21.53 18.039a1.6 1.6 0 0 0-.44-.88l-.494.542.224.434z"/></g><path fill="#fff" d="M11.318 16.048a2.656 2.656 0 0 0-2.577 2.013.52.52 0 0 0 .51.648h4.243c.27 0 .486-.246.432-.516a2.664 2.664 0 0 0-2.608-2.145"/><path fill="url(#ar)" d="M11.712 16.565a1.697 1.697 0 0 0-1.636 2.144h3.279q.059-.217.061-.447a1.71 1.71 0 0 0-1.705-1.698"/><path fill="#000" d="M12.684 18.262a.97.97 0 0 0-.972-.972.97.97 0 0 0-.972.972c0 .162.038.316.108.448h1.72a.96.96 0 0 0 .116-.448"/><g filter="url(#as)"><path fill="url(#at)" d="M13.262 18.063c0-.549-.446-.914-.567-1.025l-.548.53.338.688z"/></g><g filter="url(#au)" transform="rotate(-27.914 11.2 17.29)"><ellipse cx="11.2" cy="17.29" fill="#C7A7A3" fill-opacity=".9" rx=".741" ry=".375"/><ellipse cx="11.2" cy="17.29" fill="url(#av)" rx=".741" ry=".375"/></g><g filter="url(#aw)"><path stroke="#473C3C" stroke-linecap="round" stroke-width=".2" d="M19.554 14.095c.613-.149 2.139-.074 3.158.655"/></g><g filter="url(#ax)"><path stroke="#473C3C" stroke-linecap="round" stroke-width=".2" d="M12.344 14.095c-.613-.149-2.139-.074-3.158.655"/></g><defs><radialGradient id="d" cx="0" cy="0" r="1" gradientTransform="matrix(4.73366 -2.15167 2.62709 5.77958 23.548 19.443)" gradientUnits="userSpaceOnUse"><stop offset=".64" stop-color="#875E5E"/><stop offset=".944" stop-color="#9D7E72"/></radialGradient><radialGradient id="e" cx="0" cy="0" r="1" gradientTransform="matrix(2.5023 1.40257 -.39653 .70744 25.508 15.41)" gradientUnits="userSpaceOnUse"><stop stop-color="#755041"/><stop offset="1" stop-color="#755041" stop-opacity="0"/></radialGradient><radialGradient id="g" cx="0" cy="0" r="1" gradientTransform="matrix(2.8715 -.2136 .16697 2.2447 24.217 18.82)" gradientUnits="userSpaceOnUse"><stop offset=".719" stop-color="#7D4D48" stop-opacity="0"/><stop offset="1" stop-color="#7D4D48"/></radialGradient><radialGradient id="i" cx="0" cy="0" r="1" gradientTransform="rotate(180 3.558 9.304)scale(2.00822)" gradientUnits="userSpaceOnUse"><stop offset=".722" stop-color="#5A3638" stop-opacity="0"/><stop offset="1" stop-color="#5A3638"/></radialGradient><radialGradient id="j" cx="0" cy="0" r="1" gradientTransform="matrix(-.84218 3.75478 -8.78476 -1.97039 25.881 5.042)" gradientUnits="userSpaceOnUse"><stop stop-color="#F8F6FB"/><stop offset=".789" stop-color="#EBE6F2"/></radialGradient><radialGradient id="k" cx="0" cy="0" r="1" gradientTransform="matrix(2.09375 .53125 -1.15317 4.54483 20.347 6.676)" gradientUnits="userSpaceOnUse"><stop offset=".152" stop-color="#CFCAD4"/><stop offset="1" stop-color="#ECE8F1" stop-opacity="0"/></radialGradient><radialGradient id="l" cx="0" cy="0" r="1" gradientTransform="matrix(1.5 -2.625 6.33197 3.61827 22.284 10.52)" gradientUnits="userSpaceOnUse"><stop stop-color="#D3CFD9"/><stop offset="1" stop-color="#D3CFD9" stop-opacity="0"/></radialGradient><radialGradient id="n" cx="0" cy="0" r="1" gradientTransform="matrix(-12.3684 5.70348 -7.63403 -16.55492 21.303 17.585)" gradientUnits="userSpaceOnUse"><stop stop-color="#996B5E"/><stop offset="1" stop-color="#764E4C"/></radialGradient><radialGradient id="o" cx="0" cy="0" r="1" gradientTransform="rotate(156.249 7.787 11.667)scale(4.53012 3.1547)" gradientUnits="userSpaceOnUse"><stop stop-color="#986B5A"/><stop offset="1" stop-color="#986B5A" stop-opacity="0"/></radialGradient><radialGradient id="p" cx="0" cy="0" r="1" gradientTransform="rotate(-71.832 26.56 6.867)scale(7.86291 9.97658)" gradientUnits="userSpaceOnUse"><stop stop-color="#743F5A"/><stop offset="1" stop-color="#743F5A" stop-opacity="0"/></radialGradient><radialGradient id="q" cx="0" cy="0" r="1" gradientTransform="matrix(0 13.0372 -14.085 0 15.86 16.947)" gradientUnits="userSpaceOnUse"><stop offset=".7" stop-color="#78415C" stop-opacity="0"/><stop offset="1" stop-color="#7D4370"/></radialGradient><radialGradient id="r" cx="0" cy="0" r="1" gradientTransform="matrix(-13.03755 .06258 -.10774 -22.44674 19.328 22.635)" gradientUnits="userSpaceOnUse"><stop offset=".753" stop-color="#805C54" stop-opacity="0"/><stop offset=".95" stop-color="#805C54"/></radialGradient><radialGradient id="s" cx="0" cy="0" r="1" gradientTransform="matrix(0 -2.18852 2.68591 0 20.242 16.79)" gradientUnits="userSpaceOnUse"><stop stop-color="#875555"/><stop offset="1" stop-color="#875555" stop-opacity="0"/></radialGradient><radialGradient id="t" cx="0" cy="0" r="1" gradientTransform="matrix(0 -2.49612 2.86073 0 11.916 16.355)" gradientUnits="userSpaceOnUse"><stop stop-color="#714350"/><stop offset="1" stop-color="#714350" stop-opacity="0"/></radialGradient><radialGradient id="u" cx="0" cy="0" r="1" gradientTransform="rotate(105.092 4.504 13.277)scale(6.35581 5.08569)" gradientUnits="userSpaceOnUse"><stop stop-color="#815A5B"/><stop offset="1" stop-color="#815A5B" stop-opacity="0"/></radialGradient><radialGradient id="v" cx="0" cy="0" r="1" gradientTransform="rotate(126.365 7.525 10.127)scale(7.21822 3.61963)" gradientUnits="userSpaceOnUse"><stop stop-color="#997570"/><stop offset="1" stop-color="#997570" stop-opacity="0"/></radialGradient><radialGradient id="w" cx="0" cy="0" r="1" gradientTransform="matrix(-2.414 0 0 -11.3076 25.431 20.444)" gradientUnits="userSpaceOnUse"><stop stop-color="#986F60"/><stop offset="1" stop-color="#986F60" stop-opacity="0"/></radialGradient><radialGradient id="x" cx="0" cy="0" r="1" gradientTransform="rotate(-123.339 19.067 8.207)scale(2.72329 2.97871)" gradientUnits="userSpaceOnUse"><stop stop-color="#836462"/><stop offset="1" stop-color="#836462" stop-opacity="0"/></radialGradient><radialGradient id="y" cx="0" cy="0" r="1" gradientTransform="rotate(-39.827 43.64 2.881)scale(4.27984 5.03126)" gradientUnits="userSpaceOnUse"><stop stop-color="#6E494B"/><stop offset="1" stop-color="#6E494B" stop-opacity="0"/></radialGradient><radialGradient id="A" cx="0" cy="0" r="1" gradientTransform="matrix(.17188 2.91016 -14.53547 .85847 21.253 2.016)" gradientUnits="userSpaceOnUse"><stop stop-color="#DBDBDC"/><stop offset="1" stop-color="#FAFAFA"/></radialGradient><radialGradient id="B" cx="0" cy="0" r="1" gradientTransform="matrix(1.45313 0 0 5.1925 20.8 3.332)" gradientUnits="userSpaceOnUse"><stop offset=".253" stop-color="#E2DCE8"/><stop offset="1" stop-color="#E2DCE8" stop-opacity="0"/></radialGradient><radialGradient id="E" cx="0" cy="0" r="1" gradientTransform="matrix(2.46875 1.71875 -3.03125 4.35398 17.69 9.051)" gradientUnits="userSpaceOnUse"><stop offset=".391" stop-color="#BFB1C9"/><stop offset="1" stop-color="#E0DAE8" stop-opacity="0"/></radialGradient><radialGradient id="F" cx="0" cy="0" r="1" gradientTransform="matrix(0 -2.93844 1.49148 0 24.653 14.5)" gradientUnits="userSpaceOnUse"><stop offset=".306" stop-color="#B384B3"/><stop offset="1" stop-color="#B384B3" stop-opacity="0"/></radialGradient><radialGradient id="G" cx="0" cy="0" r="1" gradientTransform="matrix(3.71875 0 0 .30337 18.753 8.676)" gradientUnits="userSpaceOnUse"><stop stop-color="#D0CCD3"/><stop offset="1" stop-color="#D0CCD3" stop-opacity="0"/></radialGradient><radialGradient id="I" cx="0" cy="0" r="1" gradientTransform="matrix(-4.28125 -.09372 .19553 -8.93238 21.565 5.582)" gradientUnits="userSpaceOnUse"><stop stop-color="#F5F4F6"/><stop offset="1" stop-color="#CFC8D7"/></radialGradient><radialGradient id="J" cx="0" cy="0" r="1" gradientTransform="matrix(11.55068 3.52232 -4.80864 15.76891 9.13 5.736)" gradientUnits="userSpaceOnUse"><stop offset=".633" stop-color="#D1CAD9" stop-opacity="0"/><stop offset=".952" stop-color="#F1EDF4"/></radialGradient><radialGradient id="K" cx="0" cy="0" r="1" gradientTransform="matrix(1.11064 -4.72815 1.61144 .37853 16.84 4.594)" gradientUnits="userSpaceOnUse"><stop offset=".348" stop-color="#C5C2C8"/><stop offset="1" stop-color="#C5C2C8" stop-opacity="0"/></radialGradient><radialGradient id="L" cx="0" cy="0" r="1" gradientTransform="matrix(-.06346 1.33277 -6.75892 -.32185 9.193 7.386)" gradientUnits="userSpaceOnUse"><stop stop-color="#BDBBBE"/><stop offset="1" stop-color="#BDBBBE" stop-opacity="0"/></radialGradient><radialGradient id="M" cx="0" cy="0" r="1" gradientTransform="matrix(-13.48639 2.82409 -3.69438 -17.64244 17.539 7.513)" gradientUnits="userSpaceOnUse"><stop offset=".681" stop-color="#BFB7C6" stop-opacity="0"/><stop offset="1" stop-color="#BFB7C6"/></radialGradient><radialGradient id="N" cx="0" cy="0" r="1" gradientTransform="matrix(.88851 -3.93483 2.3195 .52376 6.94 14.494)" gradientUnits="userSpaceOnUse"><stop offset=".201" stop-color="#A87B9C"/><stop offset="1" stop-color="#A87B9C" stop-opacity="0"/></radialGradient><radialGradient id="P" cx="0" cy="0" r="1" gradientTransform="rotate(137.988 8.553 4.64)scale(9.89862 9.45071)" gradientUnits="userSpaceOnUse"><stop stop-color="#DDDDDE"/><stop offset="1" stop-color="#C0BBC4"/></radialGradient><radialGradient id="Q" cx="0" cy="0" r="1" gradientTransform="matrix(-1.78125 0 0 -4.75 18.44 3.488)" gradientUnits="userSpaceOnUse"><stop stop-color="#EBEAEC"/><stop offset="1" stop-color="#EBEAEC" stop-opacity="0"/></radialGradient><radialGradient id="S" cx="0" cy="0" r="1" gradientTransform="matrix(5.90625 .125 -.02777 1.31192 10.128 4.113)" gradientUnits="userSpaceOnUse"><stop stop-color="#B8B2BE"/><stop offset="1" stop-color="#B8B2BE" stop-opacity="0"/></radialGradient><radialGradient id="T" cx="0" cy="0" r="1" gradientTransform="matrix(1.28125 -.09375 .17757 2.4268 14.128 2.457)" gradientUnits="userSpaceOnUse"><stop offset=".256" stop-color="#BBB9BD"/><stop offset="1" stop-color="#BBB9BD" stop-opacity="0"/></radialGradient><radialGradient id="V" cx="0" cy="0" r="1" gradientTransform="matrix(-8.06249 1.65631 -3.03846 -14.79042 14.534 2.582)" gradientUnits="userSpaceOnUse"><stop stop-color="#D2D1D3"/><stop offset="1" stop-color="#B5B4B6"/></radialGradient><radialGradient id="W" cx="0" cy="0" r="1" gradientTransform="matrix(8.03125 .96875 -1.11478 9.24187 7.253 3.238)" gradientUnits="userSpaceOnUse"><stop offset=".869" stop-color="#A5A0A9" stop-opacity="0"/><stop offset="1" stop-color="#A5A0A9"/></radialGradient><radialGradient id="X" cx="0" cy="0" r="1" gradientTransform="rotate(-40.547 12.791 -2.346)scale(3.5779 2.63113)" gradientUnits="userSpaceOnUse"><stop stop-color="#BCB7C1"/><stop offset="1" stop-color="#BCB7C1" stop-opacity="0"/></radialGradient><radialGradient id="aa" cx="0" cy="0" r="1" gradientTransform="matrix(-.86635 -3.88728 1.19803 -.267 17.357 21)" gradientUnits="userSpaceOnUse"><stop offset=".017" stop-color="#A07A6F"/><stop offset="1" stop-color="#A07A6F" stop-opacity="0"/></radialGradient><radialGradient id="ad" cx="0" cy="0" r="1" gradientTransform="matrix(-1.48226 0 0 -.4144 16.901 21.403)" gradientUnits="userSpaceOnUse"><stop stop-color="#A07A6F"/><stop offset="1" stop-color="#A07A6F" stop-opacity="0"/></radialGradient><radialGradient id="am" cx="0" cy="0" r="1" gradientTransform="matrix(0 1.54295 -2.45424 0 20.015 17.472)" gradientUnits="userSpaceOnUse"><stop offset=".802" stop-color="#7D574A"/><stop offset="1" stop-color="#694B43"/><stop offset="1" stop-color="#804D49"/><stop offset="1" stop-color="#664944"/></radialGradient><radialGradient id="ao" cx="0" cy="0" r="1" gradientTransform="rotate(-127.812 14.108 4.02)scale(.71942 .99047)" gradientUnits="userSpaceOnUse"><stop offset=".766" stop-color="#FFE6E2" stop-opacity="0"/><stop offset=".966" stop-color="#FFE6E2"/></radialGradient><radialGradient id="ar" cx="0" cy="0" r="1" gradientTransform="matrix(0 1.54296 -2.45425 0 11.715 17.472)" gradientUnits="userSpaceOnUse"><stop offset=".802" stop-color="#7D574A"/><stop offset="1" stop-color="#694B43"/><stop offset="1" stop-color="#804D49"/><stop offset="1" stop-color="#664944"/></radialGradient><radialGradient id="av" cx="0" cy="0" r="1" gradientTransform="rotate(-90.897 14.39 3.446)scale(.93971 1.12957)" gradientUnits="userSpaceOnUse"><stop offset=".766" stop-color="#FFE6E2" stop-opacity="0"/><stop offset=".966" stop-color="#FFE6E2"/></radialGradient><filter id="a" width="6.27" height="6.12" x="3.894" y="15.547" color-interpolation-filters="sRGB" filterUnits="userSpaceOnUse"><feFlood flood-opacity="0" result="BackgroundImageFix"/><feBlend in="SourceGraphic" in2="BackgroundImageFix" result="shape"/><feColorMatrix in="SourceAlpha" result="hardAlpha" values="0 0 0 0 0 0 0 0 0 0 0 0 0 0 0 0 0 0 127 0"/><feOffset dx=".15"/><feGaussianBlur stdDeviation=".25"/><feComposite in2="hardAlpha" k2="-1" k3="1" operator="arithmetic"/><feColorMatrix values="0 0 0 0 0.509804 0 0 0 0 0.376471 0 0 0 0 0.34902 0 0 0 1 0"/><feBlend in2="shape" result="effect1_innerShadow_4002_3100"/></filter><filter id="c" width="6.12" height="6.37" x="21.986" y="15.297" color-interpolation-filters="sRGB" filterUnits="userSpaceOnUse"><feFlood flood-opacity="0" result="BackgroundImageFix"/><feBlend in="SourceGraphic" in2="BackgroundImageFix" result="shape"/><feColorMatrix in="SourceAlpha" result="hardAlpha" values="0 0 0 0 0 0 0 0 0 0 0 0 0 0 0 0 0 0 127 0"/><feOffset dy="-.25"/><feGaussianBlur stdDeviation=".25"/><feComposite in2="hardAlpha" k2="-1" k3="1" operator="arithmetic"/><feColorMatrix values="0 0 0 0 0.431373 0 0 0 0 0.243137 0 0 0 0 0.282353 0 0 0 1 0"/><feBlend in2="shape" result="effect1_innerShadow_4002_3100"/></filter><filter id="f" width="5.085" height="5.085" x="22.503" y="16.064" color-interpolation-filters="sRGB" filterUnits="userSpaceOnUse"><feFlood flood-opacity="0" result="BackgroundImageFix"/><feBlend in="SourceGraphic" in2="BackgroundImageFix" result="shape"/><feGaussianBlur result="effect1_foregroundBlur_4002_3100" stdDeviation=".25"/></filter><filter id="h" width="4.585" height="4.585" x="4.698" y="16.314" color-interpolation-filters="sRGB" filterUnits="userSpaceOnUse"><feFlood flood-opacity="0" result="BackgroundImageFix"/><feBlend in="SourceGraphic" in2="BackgroundImageFix" result="shape"/><feGaussianBlur result="effect1_foregroundBlur_4002_3100" stdDeviation=".125"/></filter><filter id="m" width="19.14" height="19.331" x="6.291" y="10.903" color-interpolation-filters="sRGB" filterUnits="userSpaceOnUse"><feFlood flood-opacity="0" result="BackgroundImageFix"/><feBlend in="SourceGraphic" in2="BackgroundImageFix" result="shape"/><feColorMatrix in="SourceAlpha" result="hardAlpha" values="0 0 0 0 0 0 0 0 0 0 0 0 0 0 0 0 0 0 127 0"/><feOffset dy=".25"/><feGaussianBlur stdDeviation=".175"/><feComposite in2="hardAlpha" k2="-1" k3="1" operator="arithmetic"/><feColorMatrix values="0 0 0 0 0.407843 0 0 0 0 0.223529 0 0 0 0 0.25098 0 0 0 1 0"/><feBlend in2="shape" result="effect1_innerShadow_4002_3100"/></filter><filter id="z" width="7.307" height="5.168" x="20.417" y="1.916" color-interpolation-filters="sRGB" filterUnits="userSpaceOnUse"><feFlood flood-opacity="0" result="BackgroundImageFix"/><feBlend in="SourceGraphic" in2="BackgroundImageFix" result="shape"/><feColorMatrix in="SourceAlpha" result="hardAlpha" values="0 0 0 0 0 0 0 0 0 0 0 0 0 0 0 0 0 0 127 0"/><feOffset dx=".1" dy="-.1"/><feGaussianBlur stdDeviation=".15"/><feComposite in2="hardAlpha" k2="-1" k3="1" operator="arithmetic"/><feColorMatrix values="0 0 0 0 0.843137 0 0 0 0 0.8 0 0 0 0 0.890196 0 0 0 1 0"/><feBlend in2="shape" result="effect1_innerShadow_4002_3100"/></filter><filter id="C" width="12.925" height="6.714" x="14.465" y="8.129" color-interpolation-filters="sRGB" filterUnits="userSpaceOnUse"><feFlood flood-opacity="0" result="BackgroundImageFix"/><feBlend in="SourceGraphic" in2="BackgroundImageFix" result="shape"/><feColorMatrix in="SourceAlpha" result="hardAlpha" values="0 0 0 0 0 0 0 0 0 0 0 0 0 0 0 0 0 0 127 0"/><feOffset dx="-.05" dy=".1"/><feGaussianBlur stdDeviation=".125"/><feComposite in2="hardAlpha" k2="-1" k3="1" operator="arithmetic"/><feColorMatrix values="0 0 0 0 1 0 0 0 0 0.992157 0 0 0 0 1 0 0 0 1 0"/><feBlend in2="shape" result="effect1_innerShadow_4002_3100"/><feColorMatrix in="SourceAlpha" result="hardAlpha" values="0 0 0 0 0 0 0 0 0 0 0 0 0 0 0 0 0 0 127 0"/><feOffset dx=".4" dy="-.25"/><feGaussianBlur stdDeviation=".325"/><feComposite in2="hardAlpha" k2="-1" k3="1" operator="arithmetic"/><feColorMatrix values="0 0 0 0 0.670588 0 0 0 0 0.560784 0 0 0 0 0.756863 0 0 0 1 0"/><feBlend in2="effect1_innerShadow_4002_3100" result="effect2_innerShadow_4002_3100"/></filter><filter id="H" width="17.006" height="13.059" x="4.107" y="1.766" color-interpolation-filters="sRGB" filterUnits="userSpaceOnUse"><feFlood flood-opacity="0" result="BackgroundImageFix"/><feBlend in="SourceGraphic" in2="BackgroundImageFix" result="shape"/><feColorMatrix in="SourceAlpha" result="hardAlpha" values="0 0 0 0 0 0 0 0 0 0 0 0 0 0 0 0 0 0 127 0"/><feOffset dx="-.25" dy="-.25"/><feGaussianBlur stdDeviation=".3"/><feComposite in2="hardAlpha" k2="-1" k3="1" operator="arithmetic"/><feColorMatrix values="0 0 0 0 0.603922 0 0 0 0 0.45098 0 0 0 0 0.721569 0 0 0 1 0"/><feBlend in2="shape" result="effect1_innerShadow_4002_3100"/></filter><filter id="O" width="13.757" height="8.679" x="4.257" y="1.916" color-interpolation-filters="sRGB" filterUnits="userSpaceOnUse"><feFlood flood-opacity="0" result="BackgroundImageFix"/><feBlend in="SourceGraphic" in2="BackgroundImageFix" result="shape"/><feColorMatrix in="SourceAlpha" result="hardAlpha" values="0 0 0 0 0 0 0 0 0 0 0 0 0 0 0 0 0 0 127 0"/><feOffset dx="-.1" dy="-.1"/><feGaussianBlur stdDeviation=".15"/><feComposite in2="hardAlpha" k2="-1" k3="1" operator="arithmetic"/><feColorMatrix values="0 0 0 0 0.611765 0 0 0 0 0.588235 0 0 0 0 0.635294 0 0 0 1 0"/><feBlend in2="shape" result="effect1_innerShadow_4002_3100"/></filter><filter id="U" width="10.523" height="5.986" x="4.357" y="1.816" color-interpolation-filters="sRGB" filterUnits="userSpaceOnUse"><feFlood flood-opacity="0" result="BackgroundImageFix"/><feBlend in="SourceGraphic" in2="BackgroundImageFix" result="shape"/><feColorMatrix in="SourceAlpha" result="hardAlpha" values="0 0 0 0 0 0 0 0 0 0 0 0 0 0 0 0 0 0 127 0"/><feOffset dy="-.2"/><feGaussianBlur stdDeviation=".2"/><feComposite in2="hardAlpha" k2="-1" k3="1" operator="arithmetic"/><feColorMatrix values="0 0 0 0 0.686275 0 0 0 0 0.619608 0 0 0 0 0.752941 0 0 0 1 0"/><feBlend in2="shape" result="effect1_innerShadow_4002_3100"/><feColorMatrix in="SourceAlpha" result="hardAlpha" values="0 0 0 0 0 0 0 0 0 0 0 0 0 0 0 0 0 0 127 0"/><feOffset dy=".05"/><feGaussianBlur stdDeviation=".15"/><feComposite in2="hardAlpha" k2="-1" k3="1" operator="arithmetic"/><feColorMatrix values="0 0 0 0 0.705882 0 0 0 0 0.701961 0 0 0 0 0.705882 0 0 0 1 0"/><feBlend in2="effect1_innerShadow_4002_3100" result="effect2_innerShadow_4002_3100"/></filter><filter id="Y" width="4.57" height="6.1" x="13.271" y="17.146" color-interpolation-filters="sRGB" filterUnits="userSpaceOnUse"><feFlood flood-opacity="0" result="BackgroundImageFix"/><feBlend in="SourceGraphic" in2="BackgroundImageFix" result="shape"/><feGaussianBlur result="effect1_foregroundBlur_4002_3100" stdDeviation=".25"/></filter><filter id="Z" width="4.07" height="5.6" x="13.83" y="17.133" color-interpolation-filters="sRGB" filterUnits="userSpaceOnUse"><feFlood flood-opacity="0" result="BackgroundImageFix"/><feBlend in="SourceGraphic" in2="BackgroundImageFix" result="shape"/><feGaussianBlur result="effect1_foregroundBlur_4002_3100" stdDeviation=".125"/></filter><filter id="ae" width="4.07" height="5.6" x="13.801" y="16.909" color-interpolation-filters="sRGB" filterUnits="userSpaceOnUse"><feFlood flood-opacity="0" result="BackgroundImageFix"/><feBlend in="SourceGraphic" in2="BackgroundImageFix" result="shape"/><feGaussianBlur result="effect1_foregroundBlur_4002_3100" stdDeviation=".125"/></filter><filter id="ag" width="6.68" height="2.541" x="12.525" y="23.253" color-interpolation-filters="sRGB" filterUnits="userSpaceOnUse"><feFlood flood-opacity="0" result="BackgroundImageFix"/><feBlend in="SourceGraphic" in2="BackgroundImageFix" result="shape"/><feGaussianBlur result="effect1_foregroundBlur_4002_3100" stdDeviation=".05"/></filter><filter id="ai" width="5.528" height="2.445" x="17.837" y="15.936" color-interpolation-filters="sRGB" filterUnits="userSpaceOnUse"><feFlood flood-opacity="0" result="BackgroundImageFix"/><feBlend in="SourceGraphic" in2="BackgroundImageFix" result="shape"/><feColorMatrix in="SourceAlpha" result="hardAlpha" values="0 0 0 0 0 0 0 0 0 0 0 0 0 0 0 0 0 0 127 0"/><feOffset dx="-.2"/><feGaussianBlur stdDeviation=".2"/><feComposite in2="hardAlpha" k2="-1" k3="1" operator="arithmetic"/><feColorMatrix values="0 0 0 0 0.0941176 0 0 0 0 0.0666667 0 0 0 0 0.117647 0 0 0 1 0"/><feBlend in2="shape" result="effect1_innerShadow_4002_3100"/></filter><filter id="aj" width="5.528" height="2.445" x="8.366" y="15.936" color-interpolation-filters="sRGB" filterUnits="userSpaceOnUse"><feFlood flood-opacity="0" result="BackgroundImageFix"/><feBlend in="SourceGraphic" in2="BackgroundImageFix" result="shape"/><feColorMatrix in="SourceAlpha" result="hardAlpha" values="0 0 0 0 0 0 0 0 0 0 0 0 0 0 0 0 0 0 127 0"/><feOffset dx=".2"/><feGaussianBlur stdDeviation=".125"/><feComposite in2="hardAlpha" k2="-1" k3="1" operator="arithmetic"/><feColorMatrix values="0 0 0 0 0.0862745 0 0 0 0 0.054902 0 0 0 0 0.113725 0 0 0 1 0"/><feBlend in2="shape" result="effect1_innerShadow_4002_3100"/></filter><filter id="ak" width="4.484" height="1.895" x="8.623" y="13.409" color-interpolation-filters="sRGB" filterUnits="userSpaceOnUse"><feFlood flood-opacity="0" result="BackgroundImageFix"/><feBlend in="SourceGraphic" in2="BackgroundImageFix" result="shape"/><feColorMatrix in="SourceAlpha" result="hardAlpha" values="0 0 0 0 0 0 0 0 0 0 0 0 0 0 0 0 0 0 127 0"/><feOffset dx=".2" dy="-.2"/><feGaussianBlur stdDeviation=".15"/><feComposite in2="hardAlpha" k2="-1" k3="1" operator="arithmetic"/><feColorMatrix values="0 0 0 0 0.164706 0 0 0 0 0.0901961 0 0 0 0 0.109804 0 0 0 1 0"/><feBlend in2="shape" result="effect1_innerShadow_4002_3100"/></filter><filter id="al" width="4.484" height="1.895" x="18.925" y="13.409" color-interpolation-filters="sRGB" filterUnits="userSpaceOnUse"><feFlood flood-opacity="0" result="BackgroundImageFix"/><feBlend in="SourceGraphic" in2="BackgroundImageFix" result="shape"/><feColorMatrix in="SourceAlpha" result="hardAlpha" values="0 0 0 0 0 0 0 0 0 0 0 0 0 0 0 0 0 0 127 0"/><feOffset dx=".2" dy="-.2"/><feGaussianBlur stdDeviation=".15"/><feComposite in2="hardAlpha" k2="-1" k3="1" operator="arithmetic"/><feColorMatrix values="0 0 0 0 0.164706 0 0 0 0 0.0901961 0 0 0 0 0.109804 0 0 0 1 0"/><feBlend in2="shape" result="effect1_innerShadow_4002_3100"/></filter><filter id="an" width="1.316" height="1.144" x="18.709" y="16.725" color-interpolation-filters="sRGB" filterUnits="userSpaceOnUse"><feFlood flood-opacity="0" result="BackgroundImageFix"/><feBlend in="SourceGraphic" in2="BackgroundImageFix" result="shape"/><feGaussianBlur result="effect1_foregroundBlur_4002_3100" stdDeviation=".05"/></filter><filter id="ap" width="1.334" height="1.376" x="20.396" y="16.959" color-interpolation-filters="sRGB" filterUnits="userSpaceOnUse"><feFlood flood-opacity="0" result="BackgroundImageFix"/><feBlend in="SourceGraphic" in2="BackgroundImageFix" result="shape"/><feGaussianBlur result="effect1_foregroundBlur_4002_3100" stdDeviation=".1"/></filter><filter id="as" width="1.515" height="1.618" x="11.947" y="16.838" color-interpolation-filters="sRGB" filterUnits="userSpaceOnUse"><feFlood flood-opacity="0" result="BackgroundImageFix"/><feBlend in="SourceGraphic" in2="BackgroundImageFix" result="shape"/><feGaussianBlur result="effect1_foregroundBlur_4002_3100" stdDeviation=".1"/></filter><filter id="au" width="1.556" height="1.159" x="10.421" y="16.71" color-interpolation-filters="sRGB" filterUnits="userSpaceOnUse"><feFlood flood-opacity="0" result="BackgroundImageFix"/><feBlend in="SourceGraphic" in2="BackgroundImageFix" result="shape"/><feGaussianBlur result="effect1_foregroundBlur_4002_3100" stdDeviation=".05"/></filter><filter id="aw" width="3.758" height="1.318" x="19.254" y="13.732" color-interpolation-filters="sRGB" filterUnits="userSpaceOnUse"><feFlood flood-opacity="0" result="BackgroundImageFix"/><feBlend in="SourceGraphic" in2="BackgroundImageFix" result="shape"/><feGaussianBlur result="effect1_foregroundBlur_4002_3100" stdDeviation=".1"/></filter><filter id="ax" width="3.758" height="1.318" x="8.886" y="13.732" color-interpolation-filters="sRGB" filterUnits="userSpaceOnUse"><feFlood flood-opacity="0" result="BackgroundImageFix"/><feBlend in="SourceGraphic" in2="BackgroundImageFix" result="shape"/><feGaussianBlur result="effect1_foregroundBlur_4002_3100" stdDeviation=".1"/></filter><linearGradient id="b" x1="3.991" x2="6.35" y1="18.773" y2="18.773" gradientUnits="userSpaceOnUse"><stop stop-color="#6A4745"/><stop offset="1" stop-color="#533335"/></linearGradient><linearGradient id="D" x1="26.159" x2="15.409" y1="13.582" y2="13.582" gradientUnits="userSpaceOnUse"><stop stop-color="#EEE8F4"/><stop offset="1" stop-color="#DDD6E4"/></linearGradient><linearGradient id="R" x1="4.357" x2="8.534" y1="9.551" y2="8.582" gradientUnits="userSpaceOnUse"><stop stop-color="#B6B0BB"/><stop offset="1" stop-color="#B6B0BB" stop-opacity="0"/></linearGradient><linearGradient id="ab" x1="14.08" x2="15.865" y1="21.139" y2="21.139" gradientUnits="userSpaceOnUse"><stop stop-color="#744C45"/><stop offset="1" stop-color="#744C45" stop-opacity="0"/></linearGradient><linearGradient id="ac" x1="15.865" x2="15.865" y1="22.659" y2="21.498" gradientUnits="userSpaceOnUse"><stop stop-color="#7C455C"/><stop offset="1" stop-color="#7C455C" stop-opacity="0"/></linearGradient><linearGradient id="af" x1="15.836" x2="15.836" y1="17.159" y2="19.422" gradientUnits="userSpaceOnUse"><stop stop-color="#8B6059"/><stop offset="1" stop-color="#8B6059" stop-opacity="0"/></linearGradient><linearGradient id="ah" x1="13.841" x2="14.718" y1="25.34" y2="23.985" gradientUnits="userSpaceOnUse"><stop stop-color="#865E63"/><stop offset=".663" stop-color="#865E63" stop-opacity="0"/></linearGradient><linearGradient id="aq" x1="21.494" x2="20.898" y1="17.575" y2="17.942" gradientUnits="userSpaceOnUse"><stop stop-color="#B4948D"/><stop offset="1" stop-color="#B4948D" stop-opacity="0"/></linearGradient><linearGradient id="at" x1="13.13" x2="12.533" y1="17.575" y2="17.942" gradientUnits="userSpaceOnUse"><stop stop-color="#B4948D"/><stop offset="1" stop-color="#B4948D" stop-opacity="0"/></linearGradient></defs></svg>