<svg width="100%" height="100%" viewBox="0 0 32 32" xmlns="http://www.w3.org/2000/svg"><g filter="url(#a)"><path fill="url(#b)" d="M6.954 21.691a3.06 3.06 0 1 0 0-6.12 3.06 3.06 0 0 0 0 6.12"/></g><g filter="url(#c)"><path fill="url(#d)" d="M25.046 21.691a3.06 3.06 0 1 0 0-6.12 3.06 3.06 0 0 0 0 6.12"/><path fill="url(#e)" d="M25.046 21.691a3.06 3.06 0 1 0 0-6.12 3.06 3.06 0 0 0 0 6.12"/></g><g filter="url(#f)"><path fill="#E5AA8B" d="M25.046 20.673a2.043 2.043 0 1 0 0-4.085 2.043 2.043 0 0 0 0 4.085"/><path fill="url(#g)" d="M25.046 20.673a2.043 2.043 0 1 0 0-4.085 2.043 2.043 0 0 0 0 4.085"/></g><g filter="url(#h)"><path fill="#B47A6C" d="M6.99 20.673a2.043 2.043 0 1 0 0-4.085 2.043 2.043 0 0 0 0 4.085"/><path fill="url(#i)" d="M6.99 20.673a2.043 2.043 0 1 0 0-4.085 2.043 2.043 0 0 0 0 4.085"/></g><g filter="url(#j)"><path fill="url(#k)" d="m6.301 14.814.012.01-.001-.166c-.007-.59-.02-1.727.477-2.47.801-1.196 1.711-1.285 2.601-1.285h12.96c2.465 0 3.081 1.796 3.081 2.694l-.085 1.054-.016.037v6.388c-.234 5.33-4.397 8.908-9.477 8.908s-9.243-3.579-9.477-8.908l-.07-6.129z"/><path fill="url(#l)" d="m6.301 14.814.012.01-.001-.166c-.007-.59-.02-1.727.477-2.47.801-1.196 1.711-1.285 2.601-1.285h12.96c2.465 0 3.081 1.796 3.081 2.694l-.085 1.054-.016.037v6.388c-.234 5.33-4.397 8.908-9.477 8.908s-9.243-3.579-9.477-8.908l-.07-6.129z"/><path fill="url(#m)" d="m6.301 14.814.012.01-.001-.166c-.007-.59-.02-1.727.477-2.47.801-1.196 1.711-1.285 2.601-1.285h12.96c2.465 0 3.081 1.796 3.081 2.694l-.085 1.054-.016.037v6.388c-.234 5.33-4.397 8.908-9.477 8.908s-9.243-3.579-9.477-8.908l-.07-6.129z"/><path fill="url(#n)" d="m6.301 14.814.012.01-.001-.166c-.007-.59-.02-1.727.477-2.47.801-1.196 1.711-1.285 2.601-1.285h12.96c2.465 0 3.081 1.796 3.081 2.694l-.085 1.054-.016.037v6.388c-.234 5.33-4.397 8.908-9.477 8.908s-9.243-3.579-9.477-8.908l-.07-6.129z"/><path fill="url(#o)" d="m6.301 14.814.012.01-.001-.166c-.007-.59-.02-1.727.477-2.47.801-1.196 1.711-1.285 2.601-1.285h12.96c2.465 0 3.081 1.796 3.081 2.694l-.085 1.054-.016.037v6.388c-.234 5.33-4.397 8.908-9.477 8.908s-9.243-3.579-9.477-8.908l-.07-6.129z"/><path fill="url(#p)" d="m6.301 14.814.012.01-.001-.166c-.007-.59-.02-1.727.477-2.47.801-1.196 1.711-1.285 2.601-1.285h12.96c2.465 0 3.081 1.796 3.081 2.694l-.085 1.054-.016.037v6.388c-.234 5.33-4.397 8.908-9.477 8.908s-9.243-3.579-9.477-8.908l-.07-6.129z"/><path fill="url(#q)" d="m6.301 14.814.012.01-.001-.166c-.007-.59-.02-1.727.477-2.47.801-1.196 1.711-1.285 2.601-1.285h12.96c2.465 0 3.081 1.796 3.081 2.694l-.085 1.054-.016.037v6.388c-.234 5.33-4.397 8.908-9.477 8.908s-9.243-3.579-9.477-8.908l-.07-6.129z"/></g><path fill="url(#r)" d="m6.301 14.814.012.01-.001-.166c-.007-.59-.02-1.727.477-2.47.801-1.196 1.711-1.285 2.601-1.285h12.96c2.465 0 3.081 1.796 3.081 2.694l-.085 1.054-.016.037v6.388c-.234 5.33-4.397 8.908-9.477 8.908s-9.243-3.579-9.477-8.908l-.07-6.129z"/><path fill="url(#s)" d="m6.301 14.814.012.01-.001-.166c-.007-.59-.02-1.727.477-2.47.801-1.196 1.711-1.285 2.601-1.285h12.96c2.465 0 3.081 1.796 3.081 2.694l-.085 1.054-.016.037v6.388c-.234 5.33-4.397 8.908-9.477 8.908s-9.243-3.579-9.477-8.908l-.07-6.129z"/><g filter="url(#t)"><path fill="#C28178" d="m15.119 18.207-1.3 3.233c-.206.665.289 1.33.99 1.33h1.496c.7 0 1.196-.675.99-1.33l-1.011-3.233c-.217-.716-.938-.716-1.165 0"/></g><g filter="url(#u)"><path fill="#EFB696" d="m15.138 17.944-1.01 3.233c-.207.665.288 1.33.99 1.33h1.495c.701 0 1.197-.675.99-1.33l-1.01-3.233c-.217-.716-1.228-.716-1.455 0"/><path fill="url(#v)" d="m15.138 17.944-1.01 3.233c-.207.665.288 1.33.99 1.33h1.495c.701 0 1.197-.675.99-1.33l-1.01-3.233c-.217-.716-1.228-.716-1.455 0"/><path fill="url(#w)" d="m15.138 17.944-1.01 3.233c-.207.665.288 1.33.99 1.33h1.495c.701 0 1.197-.675.99-1.33l-1.01-3.233c-.217-.716-1.228-.716-1.455 0"/><path fill="url(#x)" d="m15.138 17.944-1.01 3.233c-.207.665.288 1.33.99 1.33h1.495c.701 0 1.197-.675.99-1.33l-1.01-3.233c-.217-.716-1.228-.716-1.455 0"/></g><g filter="url(#y)"><path fill="url(#z)" d="m15.138 17.598-1.01 3.233c-.207.665.288 1.33.99 1.33h1.495c.701 0 1.197-.675.99-1.33l-1.01-3.233c-.217-.716-1.228-.716-1.455 0"/></g><g filter="url(#A)"><path stroke="url(#B)" stroke-width=".2" d="M15.865 24.168c-.99 0-1.92-.238-2.703-.655-.268-.14-.555.168-.386.417a3.67 3.67 0 0 0 3.09 1.688 3.67 3.67 0 0 0 3.09-1.688c.168-.259-.12-.557-.387-.418a5.7 5.7 0 0 1-2.704.656Z"/></g><path fill="#88014E" d="M15.865 24.168c-.99 0-1.92-.238-2.703-.655-.268-.14-.555.168-.386.417a3.67 3.67 0 0 0 3.09 1.688 3.67 3.67 0 0 0 3.09-1.688c.168-.259-.12-.557-.387-.418a5.7 5.7 0 0 1-2.704.656"/><g filter="url(#C)"><path fill="#635D5F" d="M18.037 17.548c.505-.887 1.273-1.588 2.924-1.588.723 0 1.42.2 2.04.7.512.414.443.942.047 1.14l-1.057.604c-1.24-.4-2.61-.455-3.954-.856"/></g><g filter="url(#D)"><path fill="#635D5F" d="M13.694 17.548c-.505-.887-1.272-1.588-2.924-1.588-.723 0-1.42.2-2.04.7-.512.414-.443.942-.047 1.14l1.057.604c1.24-.4 2.61-.455 3.954-.856"/></g><g filter="url(#E)"><path fill="#956032" d="m9.404 15.25-.009.004a.51.51 0 0 1-.524-.875h.001l.002-.002.006-.003.017-.01.062-.034q.08-.045.22-.112c.188-.09.455-.204.78-.308.647-.206 1.551-.38 2.527-.207a.51.51 0 0 1-.178 1.004c-.758-.134-1.486-.001-2.038.175a5 5 0 0 0-.866.367"/></g><g filter="url(#F)"><path fill="#956032" fill-rule="evenodd" d="m22.962 14.38-.262.437za.51.51 0 0 1-.525.875l-.008-.005-.041-.023a5.206 5.206 0 0 0-.825-.344c-.552-.176-1.28-.309-2.039-.175a.51.51 0 0 1-.177-1.005c.976-.172 1.88.002 2.526.208a6 6 0 0 1 1 .42l.062.034.018.01.006.003.002.002" clip-rule="evenodd"/></g><path fill="#fff" d="M20.412 16.071c1.242 0 2.292.857 2.577 2.014a.52.52 0 0 1-.51.648h-4.242a.438.438 0 0 1-.432-.517 2.66 2.66 0 0 1 2.607-2.145"/><path fill="url(#G)" d="M20.019 16.588a1.697 1.697 0 0 1 1.635 2.145h-3.278a1.7 1.7 0 0 1-.062-.448c0-.933.764-1.697 1.705-1.697"/><path fill="#000" d="M19.047 18.285c0-.54.432-.972.972-.972s.972.432.972.972a.96.96 0 0 1-.108.448h-1.72a.9.9 0 0 1-.116-.448"/><g filter="url(#H)"><path fill="#C7A7A3" d="M19.894 16.947c.121.162-.132.359-.42.574-.287.214-.5.366-.62.204-.121-.162.013-.467.3-.682.288-.215.62-.258.74-.096"/><path fill="url(#I)" d="M19.894 16.947c.121.162-.132.359-.42.574-.287.214-.5.366-.62.204-.121-.162.013-.467.3-.682.288-.215.62-.258.74-.096"/></g><g filter="url(#J)"><path fill="url(#K)" d="M21.53 18.062a1.6 1.6 0 0 0-.44-.88l-.494.542.223.434z"/></g><path fill="#fff" d="M11.318 16.071a2.656 2.656 0 0 0-2.576 2.014.52.52 0 0 0 .509.648h4.243c.27 0 .486-.247.432-.517a2.665 2.665 0 0 0-2.608-2.145"/><path fill="url(#L)" d="M11.712 16.588a1.697 1.697 0 0 0-1.636 2.145h3.279c.038-.147.062-.294.062-.448a1.71 1.71 0 0 0-1.705-1.697"/><path fill="#000" d="M12.684 18.285a.97.97 0 0 0-.972-.972.97.97 0 0 0-.972.972c0 .162.038.316.108.448h1.72a.96.96 0 0 0 .116-.448"/><g filter="url(#M)"><path fill="url(#N)" d="M13.262 18.086c0-.549-.446-.914-.566-1.025l-.549.53.338.688z"/></g><g filter="url(#O)" transform="rotate(-27.914 11.2 17.313)"><ellipse cx="11.2" cy="17.313" fill="#C7A7A3" fill-opacity=".9" rx=".741" ry=".375"/><ellipse cx="11.2" cy="17.313" fill="url(#P)" rx=".741" ry=".375"/></g><g filter="url(#Q)"><path stroke="#A57045" stroke-linecap="round" stroke-width=".2" d="M19.663 14.088c.614-.15 2.139-.075 3.159.655"/></g><g filter="url(#R)"><path stroke="#A57045" stroke-linecap="round" stroke-width=".2" d="M12.192 14.088c-.614-.15-2.139-.075-3.158.655"/></g><path fill="url(#S)" d="M4.552 10.644c.193 2.806 1.397 3.89 1.761 4.18 0-.515-.074-1.815.476-2.636.801-1.196 1.711-1.285 2.601-1.285h12.96c2.465 0 3.081 1.796 3.081 2.694l-.093 1.146c.217 0 .866-.237 1.115-.728.65-1.285 1.068-3.963 1.161-5.527s.031-2.764-1.192-4.452c-.979-1.35-2.795-2.02-4.42-2.02H10.45c-3.712 0-4.678 1.406-5.42 2.8-.594 1.114-.675 2.2-.674 2.843 0 .759.012 2.128.195 2.985"/><path fill="url(#T)" d="M4.552 10.644c.193 2.806 1.397 3.89 1.761 4.18 0-.515-.074-1.815.476-2.636.801-1.196 1.711-1.285 2.601-1.285h12.96c2.465 0 3.081 1.796 3.081 2.694l-.093 1.146c.217 0 .866-.237 1.115-.728.65-1.285 1.068-3.963 1.161-5.527s.031-2.764-1.192-4.452c-.979-1.35-2.795-2.02-4.42-2.02H10.45c-3.712 0-4.678 1.406-5.42 2.8-.594 1.114-.675 2.2-.674 2.843 0 .759.012 2.128.195 2.985"/><path fill="url(#U)" d="M4.552 10.644c.193 2.806 1.397 3.89 1.761 4.18 0-.515-.074-1.815.476-2.636.801-1.196 1.711-1.285 2.601-1.285h12.96c2.465 0 3.081 1.796 3.081 2.694l-.093 1.146c.217 0 .866-.237 1.115-.728.65-1.285 1.068-3.963 1.161-5.527s.031-2.764-1.192-4.452c-.979-1.35-2.795-2.02-4.42-2.02H10.45c-3.712 0-4.678 1.406-5.42 2.8-.594 1.114-.675 2.2-.674 2.843 0 .759.012 2.128.195 2.985"/><g filter="url(#V)"><path fill="url(#W)" d="m20.417 2.016.055 2.427c1.224-.031 3.562.082 5.578 1.227.85.482 1.29.992 1.574 1.413-.073-.969-.366-1.894-1.202-3.047-.979-1.35-2.795-2.02-4.42-2.02z"/><path fill="url(#X)" d="m20.417 2.016.055 2.427c1.224-.031 3.562.082 5.578 1.227.85.482 1.29.992 1.574 1.413-.073-.969-.366-1.894-1.202-3.047-.979-1.35-2.795-2.02-4.42-2.02z"/></g><g filter="url(#Y)"><path fill="url(#Z)" d="M26.99 12.483c.005-1.482-1.085-2.607-1.93-3.105-1.34-.79-3.268-1.004-4.104-.999H19.47l-4.955.805.256 1.719h7.579c2.465 0 3.102 1.792 3.043 2.694l-.055 1.146c.217 0 .866-.237 1.115-.728.203-.4.383-.937.537-1.532"/></g><path fill="url(#aa)" d="M26.99 12.483c.005-1.482-1.085-2.607-1.93-3.105-1.34-.79-3.268-1.004-4.104-.999H19.47l-4.955.805.256 1.719h7.579c2.465 0 3.102 1.792 3.043 2.694l-.055 1.146c.217 0 .866-.237 1.115-.728.203-.4.383-.937.537-1.532"/><path fill="url(#ab)" d="M26.99 12.483c.005-1.482-1.085-2.607-1.93-3.105-1.34-.79-3.268-1.004-4.104-.999H19.47l-4.955.805.256 1.719h7.579c2.465 0 3.102 1.792 3.043 2.694l-.055 1.146c.217 0 .866-.237 1.115-.728.203-.4.383-.937.537-1.532"/><path fill="url(#ac)" d="M26.99 12.483c.005-1.482-1.085-2.607-1.93-3.105-1.34-.79-3.268-1.004-4.104-.999H19.47l-4.955.805.256 1.719h7.579c2.465 0 3.102 1.792 3.043 2.694l-.055 1.146c.217 0 .866-.237 1.115-.728.203-.4.383-.937.537-1.532"/><g filter="url(#ad)"><path fill="url(#ae)" d="M20.946 2.016c.357 1.961.193 4.54-1.02 6.425-.921 1.434-2.18 2.462-3.472 2.462H9.39c-.89 0-1.8.09-2.6 1.285-.499.743-.485 1.88-.478 2.47l.001.166c-.364-.29-1.568-1.374-1.761-4.18-.183-.857-.195-2.226-.195-2.985 0-.642.08-1.73.673-2.844.743-1.393 1.71-2.8 5.42-2.8z"/></g><path fill="url(#af)" d="M20.946 2.016c.357 1.961.193 4.54-1.02 6.425-.921 1.434-2.18 2.462-3.472 2.462H9.39c-.89 0-1.8.09-2.6 1.285-.499.743-.485 1.88-.478 2.47l.001.166c-.364-.29-1.568-1.374-1.761-4.18-.183-.857-.195-2.226-.195-2.985 0-.642.08-1.73.673-2.844.743-1.393 1.71-2.8 5.42-2.8z"/><path fill="url(#ag)" d="M20.946 2.016c.357 1.961.193 4.54-1.02 6.425-.921 1.434-2.18 2.462-3.472 2.462H9.39c-.89 0-1.8.09-2.6 1.285-.499.743-.485 1.88-.478 2.47l.001.166c-.364-.29-1.568-1.374-1.761-4.18-.183-.857-.195-2.226-.195-2.985 0-.642.08-1.73.673-2.844.743-1.393 1.71-2.8 5.42-2.8z"/><path fill="url(#ah)" d="M20.946 2.016c.357 1.961.193 4.54-1.02 6.425-.921 1.434-2.18 2.462-3.472 2.462H9.39c-.89 0-1.8.09-2.6 1.285-.499.743-.485 1.88-.478 2.47l.001.166c-.364-.29-1.568-1.374-1.761-4.18-.183-.857-.195-2.226-.195-2.985 0-.642.08-1.73.673-2.844.743-1.393 1.71-2.8 5.42-2.8z"/><path fill="url(#ai)" d="M20.946 2.016c.357 1.961.193 4.54-1.02 6.425-.921 1.434-2.18 2.462-3.472 2.462H9.39c-.89 0-1.8.09-2.6 1.285-.499.743-.485 1.88-.478 2.47l.001.166c-.364-.29-1.568-1.374-1.761-4.18-.183-.857-.195-2.226-.195-2.985 0-.642.08-1.73.673-2.844.743-1.393 1.71-2.8 5.42-2.8z"/><path fill="url(#aj)" d="M20.946 2.016c.357 1.961.193 4.54-1.02 6.425-.921 1.434-2.18 2.462-3.472 2.462H9.39c-.89 0-1.8.09-2.6 1.285-.499.743-.485 1.88-.478 2.47l.001.166c-.364-.29-1.568-1.374-1.761-4.18-.183-.857-.195-2.226-.195-2.985 0-.642.08-1.73.673-2.844.743-1.393 1.71-2.8 5.42-2.8z"/><g filter="url(#ak)"><path fill="url(#al)" d="M4.542 10.595c.457-.912 1.614-2.206 5.677-2.626.406-.042 1.003-.06 1.672-.08 1.666-.05 3.775-.113 4.482-.594.933-.445 1.973-3.245 1.54-5.28h-5.97L4.954 4.965c-.524 1.062-.598 2.081-.597 2.695 0 .745.012 2.077.185 2.936"/><path fill="url(#am)" d="M4.542 10.595c.457-.912 1.614-2.206 5.677-2.626.406-.042 1.003-.06 1.672-.08 1.666-.05 3.775-.113 4.482-.594.933-.445 1.973-3.245 1.54-5.28h-5.97L4.954 4.965c-.524 1.062-.598 2.081-.597 2.695 0 .745.012 2.077.185 2.936"/><path fill="url(#an)" d="M4.542 10.595c.457-.912 1.614-2.206 5.677-2.626.406-.042 1.003-.06 1.672-.08 1.666-.05 3.775-.113 4.482-.594.933-.445 1.973-3.245 1.54-5.28h-5.97L4.954 4.965c-.524 1.062-.598 2.081-.597 2.695 0 .745.012 2.077.185 2.936"/><path fill="url(#ao)" d="M4.542 10.595c.457-.912 1.614-2.206 5.677-2.626.406-.042 1.003-.06 1.672-.08 1.666-.05 3.775-.113 4.482-.594.933-.445 1.973-3.245 1.54-5.28h-5.97L4.954 4.965c-.524 1.062-.598 2.081-.597 2.695 0 .745.012 2.077.185 2.936"/><path fill="url(#ap)" d="M4.542 10.595c.457-.912 1.614-2.206 5.677-2.626.406-.042 1.003-.06 1.672-.08 1.666-.05 3.775-.113 4.482-.594.933-.445 1.973-3.245 1.54-5.28h-5.97L4.954 4.965c-.524 1.062-.598 2.081-.597 2.695 0 .745.012 2.077.185 2.936"/></g><g filter="url(#aq)"><path fill="url(#ar)" d="M4.357 7.752c.557-.67 1.563-1.613 2.897-1.974 1.879-.509 4.836-.733 6.069-.82.45.025 1.556-.442 1.556-1.61 0-.434-.016-.89-.053-1.332H10.45c-3.712 0-4.678 1.406-5.42 2.8-.594 1.114-.675 2.2-.674 2.843z"/></g><path fill="url(#as)" d="M4.357 7.752c.557-.67 1.563-1.613 2.897-1.974 1.879-.509 4.836-.733 6.069-.82.45.025 1.556-.442 1.556-1.61 0-.434-.016-.89-.053-1.332H10.45c-3.712 0-4.678 1.406-5.42 2.8-.594 1.114-.675 2.2-.674 2.843z"/><path fill="url(#at)" d="M4.357 7.752c.557-.67 1.563-1.613 2.897-1.974 1.879-.509 4.836-.733 6.069-.82.45.025 1.556-.442 1.556-1.61 0-.434-.016-.89-.053-1.332H10.45c-3.712 0-4.678 1.406-5.42 2.8-.594 1.114-.675 2.2-.674 2.843z"/><defs><radialGradient id="d" cx="0" cy="0" r="1" gradientTransform="rotate(-24.444 56.708 -44.622)scale(5.1997 6.34859)" gradientUnits="userSpaceOnUse"><stop offset=".572" stop-color="#E1A792"/><stop offset=".905" stop-color="#F6C3A3"/></radialGradient><radialGradient id="e" cx="0" cy="0" r="1" gradientTransform="matrix(1.89663 .5419 -.2849 .99714 25.492 15.242)" gradientUnits="userSpaceOnUse"><stop stop-color="#D59566"/><stop offset="1" stop-color="#D59566" stop-opacity="0"/></radialGradient><radialGradient id="g" cx="0" cy="0" r="1" gradientTransform="rotate(-20.298 65.603 -59.17)scale(2.48103)" gradientUnits="userSpaceOnUse"><stop offset=".71" stop-color="#E3A280" stop-opacity="0"/><stop offset="1" stop-color="#E3A280"/></radialGradient><radialGradient id="i" cx="0" cy="0" r="1" gradientTransform="matrix(-2.3142 0 0 -2.21368 6.99 18.63)" gradientUnits="userSpaceOnUse"><stop offset=".573" stop-color="#B0725A" stop-opacity="0"/><stop offset="1" stop-color="#B0725A"/></radialGradient><radialGradient id="k" cx="0" cy="0" r="1" gradientTransform="matrix(-12.36831 5.70344 -7.63398 -16.55483 21.303 17.608)" gradientUnits="userSpaceOnUse"><stop stop-color="#FFC59D"/><stop offset="1" stop-color="#D39B88"/></radialGradient><radialGradient id="l" cx="0" cy="0" r="1" gradientTransform="matrix(-4.01225 2.12222 -1.80055 -3.4041 19.48 18.935)" gradientUnits="userSpaceOnUse"><stop stop-color="#FFC89E"/><stop offset="1" stop-color="#FFC89E" stop-opacity="0"/></radialGradient><radialGradient id="m" cx="0" cy="0" r="1" gradientTransform="rotate(-78.311 24.593 8.057)scale(7.85587 9.96764)" gradientUnits="userSpaceOnUse"><stop stop-color="#B97783"/><stop offset="1" stop-color="#B97783" stop-opacity="0"/></radialGradient><radialGradient id="n" cx="0" cy="0" r="1" gradientTransform="matrix(-.80672 13.70548 -16.4139 -.96614 16.672 16.857)" gradientUnits="userSpaceOnUse"><stop offset=".62" stop-color="#C3828A" stop-opacity="0"/><stop offset="1" stop-color="#B36F92"/></radialGradient><radialGradient id="o" cx="0" cy="0" r="1" gradientTransform="rotate(172.34 7.8 11.596)scale(10.9999 18.9384)" gradientUnits="userSpaceOnUse"><stop offset=".813" stop-color="#E3AB91" stop-opacity="0"/><stop offset="1" stop-color="#E3AB91"/></radialGradient><radialGradient id="p" cx="0" cy="0" r="1" gradientTransform="matrix(0 -2.18851 3.14623 0 20.242 16.813)" gradientUnits="userSpaceOnUse"><stop offset=".259" stop-color="#E3A48E"/><stop offset="1" stop-color="#E3A48E" stop-opacity="0"/></radialGradient><radialGradient id="q" cx="0" cy="0" r="1" gradientTransform="matrix(0 -2.58642 2.96421 0 12.217 16.979)" gradientUnits="userSpaceOnUse"><stop stop-color="#C2847A"/><stop offset="1" stop-color="#C2847A" stop-opacity="0"/></radialGradient><radialGradient id="r" cx="0" cy="0" r="1" gradientTransform="matrix(-2.52846 0 0 -7.77903 25.431 20.444)" gradientUnits="userSpaceOnUse"><stop stop-color="#F4C099"/><stop offset="1" stop-color="#F4C099" stop-opacity="0"/></radialGradient><radialGradient id="s" cx="0" cy="0" r="1" gradientTransform="matrix(2.17047 7.40105 -16.2008 4.75114 11.173 8.909)" gradientUnits="userSpaceOnUse"><stop stop-color="#BE7C5A"/><stop offset="1" stop-color="#BE7C5A" stop-opacity="0"/></radialGradient><radialGradient id="v" cx="0" cy="0" r="1" gradientTransform="rotate(-105.892 16.616 3.96)scale(4.844 2.7718)" gradientUnits="userSpaceOnUse"><stop offset=".017" stop-color="#FDC9A8"/><stop offset="1" stop-color="#FDC9A8" stop-opacity="0"/></radialGradient><radialGradient id="G" cx="0" cy="0" r="1" gradientTransform="matrix(0 1.54294 -2.45422 0 20.015 17.495)" gradientUnits="userSpaceOnUse"><stop offset=".802" stop-color="#925C51"/><stop offset="1" stop-color="#694B43"/><stop offset="1" stop-color="#804D49"/><stop offset="1" stop-color="#85534D"/></radialGradient><radialGradient id="I" cx="0" cy="0" r="1" gradientTransform="matrix(-.44105 -.56836 .7825 -.60723 19.581 17.655)" gradientUnits="userSpaceOnUse"><stop offset=".766" stop-color="#FFE6E2" stop-opacity="0"/><stop offset=".966" stop-color="#FFE6E2"/></radialGradient><radialGradient id="L" cx="0" cy="0" r="1" gradientTransform="matrix(0 1.54295 -2.45424 0 11.716 17.495)" gradientUnits="userSpaceOnUse"><stop offset=".802" stop-color="#925C51"/><stop offset="1" stop-color="#694B43"/><stop offset="1" stop-color="#804D49"/><stop offset="1" stop-color="#85534D"/></radialGradient><radialGradient id="P" cx="0" cy="0" r="1" gradientTransform="rotate(-90.897 14.402 3.457)scale(.93971 1.12957)" gradientUnits="userSpaceOnUse"><stop offset=".766" stop-color="#FFE6E2" stop-opacity="0"/><stop offset=".966" stop-color="#FFE6E2"/></radialGradient><radialGradient id="S" cx="0" cy="0" r="1" gradientTransform="matrix(-.84218 3.75478 -8.78476 -1.97039 25.881 5.042)" gradientUnits="userSpaceOnUse"><stop stop-color="#F8F6FB"/><stop offset=".789" stop-color="#EBE6F2"/></radialGradient><radialGradient id="T" cx="0" cy="0" r="1" gradientTransform="matrix(2.09375 .53125 -1.15317 4.54483 20.347 6.676)" gradientUnits="userSpaceOnUse"><stop offset=".152" stop-color="#CFCAD4"/><stop offset="1" stop-color="#ECE8F1" stop-opacity="0"/></radialGradient><radialGradient id="U" cx="0" cy="0" r="1" gradientTransform="matrix(1.5 -2.625 6.33197 3.61827 22.284 10.52)" gradientUnits="userSpaceOnUse"><stop stop-color="#D3CFD9"/><stop offset="1" stop-color="#D3CFD9" stop-opacity="0"/></radialGradient><radialGradient id="W" cx="0" cy="0" r="1" gradientTransform="matrix(.17188 2.91016 -14.53547 .85847 21.253 2.016)" gradientUnits="userSpaceOnUse"><stop stop-color="#DBDBDC"/><stop offset="1" stop-color="#FAFAFA"/></radialGradient><radialGradient id="X" cx="0" cy="0" r="1" gradientTransform="matrix(1.45313 0 0 5.1925 20.8 3.332)" gradientUnits="userSpaceOnUse"><stop offset=".253" stop-color="#E2DCE8"/><stop offset="1" stop-color="#E2DCE8" stop-opacity="0"/></radialGradient><radialGradient id="aa" cx="0" cy="0" r="1" gradientTransform="matrix(2.46875 1.71875 -3.03125 4.35398 17.69 9.05)" gradientUnits="userSpaceOnUse"><stop offset=".391" stop-color="#BFB1C9"/><stop offset="1" stop-color="#E0DAE8" stop-opacity="0"/></radialGradient><radialGradient id="ab" cx="0" cy="0" r="1" gradientTransform="matrix(0 -2.93844 1.49148 0 24.653 14.5)" gradientUnits="userSpaceOnUse"><stop offset=".306" stop-color="#B384B3"/><stop offset="1" stop-color="#B384B3" stop-opacity="0"/></radialGradient><radialGradient id="ac" cx="0" cy="0" r="1" gradientTransform="matrix(3.71875 0 0 .30337 18.753 8.675)" gradientUnits="userSpaceOnUse"><stop stop-color="#D0CCD3"/><stop offset="1" stop-color="#D0CCD3" stop-opacity="0"/></radialGradient><radialGradient id="ae" cx="0" cy="0" r="1" gradientTransform="matrix(-4.28125 -.09372 .19553 -8.93238 21.565 5.582)" gradientUnits="userSpaceOnUse"><stop stop-color="#F5F4F6"/><stop offset="1" stop-color="#CFC8D7"/></radialGradient><radialGradient id="af" cx="0" cy="0" r="1" gradientTransform="matrix(11.55068 3.52232 -4.80864 15.76891 9.13 5.736)" gradientUnits="userSpaceOnUse"><stop offset=".633" stop-color="#D1CAD9" stop-opacity="0"/><stop offset=".952" stop-color="#F1EDF4"/></radialGradient><radialGradient id="ag" cx="0" cy="0" r="1" gradientTransform="matrix(1.11064 -4.72815 1.61144 .37853 16.84 4.594)" gradientUnits="userSpaceOnUse"><stop offset=".348" stop-color="#C5C2C8"/><stop offset="1" stop-color="#C5C2C8" stop-opacity="0"/></radialGradient><radialGradient id="ah" cx="0" cy="0" r="1" gradientTransform="matrix(-.06346 1.33277 -6.75892 -.32185 9.193 7.386)" gradientUnits="userSpaceOnUse"><stop stop-color="#BDBBBE"/><stop offset="1" stop-color="#BDBBBE" stop-opacity="0"/></radialGradient><radialGradient id="ai" cx="0" cy="0" r="1" gradientTransform="matrix(-13.48639 2.82409 -3.69438 -17.64244 17.539 7.513)" gradientUnits="userSpaceOnUse"><stop offset=".681" stop-color="#BFB7C6" stop-opacity="0"/><stop offset="1" stop-color="#BFB7C6"/></radialGradient><radialGradient id="aj" cx="0" cy="0" r="1" gradientTransform="matrix(.88851 -3.93483 2.3195 .52376 6.94 14.494)" gradientUnits="userSpaceOnUse"><stop offset=".201" stop-color="#A87B9C"/><stop offset="1" stop-color="#A87B9C" stop-opacity="0"/></radialGradient><radialGradient id="al" cx="0" cy="0" r="1" gradientTransform="rotate(137.988 8.553 4.64)scale(9.89862 9.45071)" gradientUnits="userSpaceOnUse"><stop stop-color="#DDDDDE"/><stop offset="1" stop-color="#C0BBC4"/></radialGradient><radialGradient id="am" cx="0" cy="0" r="1" gradientTransform="matrix(-1.78125 0 0 -4.75 18.44 3.488)" gradientUnits="userSpaceOnUse"><stop stop-color="#EBEAEC"/><stop offset="1" stop-color="#EBEAEC" stop-opacity="0"/></radialGradient><radialGradient id="ao" cx="0" cy="0" r="1" gradientTransform="matrix(5.90625 .125 -.02777 1.31192 10.128 4.113)" gradientUnits="userSpaceOnUse"><stop stop-color="#B8B2BE"/><stop offset="1" stop-color="#B8B2BE" stop-opacity="0"/></radialGradient><radialGradient id="ap" cx="0" cy="0" r="1" gradientTransform="matrix(1.28125 -.09375 .17757 2.4268 14.128 2.457)" gradientUnits="userSpaceOnUse"><stop offset=".256" stop-color="#BBB9BD"/><stop offset="1" stop-color="#BBB9BD" stop-opacity="0"/></radialGradient><radialGradient id="ar" cx="0" cy="0" r="1" gradientTransform="matrix(-8.06249 1.65631 -3.03846 -14.79042 14.534 2.582)" gradientUnits="userSpaceOnUse"><stop stop-color="#D2D1D3"/><stop offset="1" stop-color="#B5B4B6"/></radialGradient><radialGradient id="as" cx="0" cy="0" r="1" gradientTransform="matrix(8.03125 .96875 -1.11478 9.24187 7.253 3.238)" gradientUnits="userSpaceOnUse"><stop offset=".869" stop-color="#A5A0A9" stop-opacity="0"/><stop offset="1" stop-color="#A5A0A9"/></radialGradient><radialGradient id="at" cx="0" cy="0" r="1" gradientTransform="rotate(-40.547 12.791 -2.346)scale(3.5779 2.63113)" gradientUnits="userSpaceOnUse"><stop stop-color="#BCB7C1"/><stop offset="1" stop-color="#BCB7C1" stop-opacity="0"/></radialGradient><filter id="a" width="6.27" height="6.37" x="3.894" y="15.571" color-interpolation-filters="sRGB" filterUnits="userSpaceOnUse"><feFlood flood-opacity="0" result="BackgroundImageFix"/><feBlend in="SourceGraphic" in2="BackgroundImageFix" result="shape"/><feColorMatrix in="SourceAlpha" result="hardAlpha" values="0 0 0 0 0 0 0 0 0 0 0 0 0 0 0 0 0 0 127 0"/><feOffset dx=".15" dy=".25"/><feGaussianBlur stdDeviation=".25"/><feComposite in2="hardAlpha" k2="-1" k3="1" operator="arithmetic"/><feColorMatrix values="0 0 0 0 0.858824 0 0 0 0 0.635294 0 0 0 0 0.533333 0 0 0 1 0"/><feBlend in2="shape" result="effect1_innerShadow_4002_3106"/></filter><filter id="c" width="6.12" height="6.37" x="21.986" y="15.321" color-interpolation-filters="sRGB" filterUnits="userSpaceOnUse"><feFlood flood-opacity="0" result="BackgroundImageFix"/><feBlend in="SourceGraphic" in2="BackgroundImageFix" result="shape"/><feColorMatrix in="SourceAlpha" result="hardAlpha" values="0 0 0 0 0 0 0 0 0 0 0 0 0 0 0 0 0 0 127 0"/><feOffset dy="-.25"/><feGaussianBlur stdDeviation=".25"/><feComposite in2="hardAlpha" k2="-1" k3="1" operator="arithmetic"/><feColorMatrix values="0 0 0 0 0.827451 0 0 0 0 0.568627 0 0 0 0 0.505882 0 0 0 1 0"/><feBlend in2="shape" result="effect1_innerShadow_4002_3106"/></filter><filter id="f" width="5.085" height="5.085" x="22.503" y="16.088" color-interpolation-filters="sRGB" filterUnits="userSpaceOnUse"><feFlood flood-opacity="0" result="BackgroundImageFix"/><feBlend in="SourceGraphic" in2="BackgroundImageFix" result="shape"/><feGaussianBlur result="effect1_foregroundBlur_4002_3106" stdDeviation=".25"/></filter><filter id="h" width="4.885" height="4.885" x="4.548" y="16.188" color-interpolation-filters="sRGB" filterUnits="userSpaceOnUse"><feFlood flood-opacity="0" result="BackgroundImageFix"/><feBlend in="SourceGraphic" in2="BackgroundImageFix" result="shape"/><feGaussianBlur result="effect1_foregroundBlur_4002_3106" stdDeviation=".2"/></filter><filter id="j" width="19.13" height="19.331" x="6.301" y="10.903" color-interpolation-filters="sRGB" filterUnits="userSpaceOnUse"><feFlood flood-opacity="0" result="BackgroundImageFix"/><feBlend in="SourceGraphic" in2="BackgroundImageFix" result="shape"/><feColorMatrix in="SourceAlpha" result="hardAlpha" values="0 0 0 0 0 0 0 0 0 0 0 0 0 0 0 0 0 0 127 0"/><feOffset dy=".25"/><feGaussianBlur stdDeviation=".125"/><feComposite in2="hardAlpha" k2="-1" k3="1" operator="arithmetic"/><feColorMatrix values="0 0 0 0 0.745098 0 0 0 0 0.486275 0 0 0 0 0.384314 0 0 0 1 0"/><feBlend in2="shape" result="effect1_innerShadow_4002_3106"/></filter><filter id="t" width="4.57" height="6.1" x="13.272" y="17.17" color-interpolation-filters="sRGB" filterUnits="userSpaceOnUse"><feFlood flood-opacity="0" result="BackgroundImageFix"/><feBlend in="SourceGraphic" in2="BackgroundImageFix" result="shape"/><feGaussianBlur result="effect1_foregroundBlur_4002_3106" stdDeviation=".25"/></filter><filter id="u" width="4.07" height="5.6" x="13.83" y="17.157" color-interpolation-filters="sRGB" filterUnits="userSpaceOnUse"><feFlood flood-opacity="0" result="BackgroundImageFix"/><feBlend in="SourceGraphic" in2="BackgroundImageFix" result="shape"/><feGaussianBlur result="effect1_foregroundBlur_4002_3106" stdDeviation=".125"/></filter><filter id="y" width="4.07" height="5.6" x="13.83" y="16.811" color-interpolation-filters="sRGB" filterUnits="userSpaceOnUse"><feFlood flood-opacity="0" result="BackgroundImageFix"/><feBlend in="SourceGraphic" in2="BackgroundImageFix" result="shape"/><feGaussianBlur result="effect1_foregroundBlur_4002_3106" stdDeviation=".125"/></filter><filter id="A" width="6.68" height="2.541" x="12.525" y="23.277" color-interpolation-filters="sRGB" filterUnits="userSpaceOnUse"><feFlood flood-opacity="0" result="BackgroundImageFix"/><feBlend in="SourceGraphic" in2="BackgroundImageFix" result="shape"/><feGaussianBlur result="effect1_foregroundBlur_4002_3106" stdDeviation=".05"/></filter><filter id="C" width="5.528" height="2.445" x="17.837" y="15.96" color-interpolation-filters="sRGB" filterUnits="userSpaceOnUse"><feFlood flood-opacity="0" result="BackgroundImageFix"/><feBlend in="SourceGraphic" in2="BackgroundImageFix" result="shape"/><feColorMatrix in="SourceAlpha" result="hardAlpha" values="0 0 0 0 0 0 0 0 0 0 0 0 0 0 0 0 0 0 127 0"/><feOffset dx="-.2"/><feGaussianBlur stdDeviation=".2"/><feComposite in2="hardAlpha" k2="-1" k3="1" operator="arithmetic"/><feColorMatrix values="0 0 0 0 0.141176 0 0 0 0 0.0862745 0 0 0 0 0.176471 0 0 0 1 0"/><feBlend in2="shape" result="effect1_innerShadow_4002_3106"/></filter><filter id="D" width="5.528" height="2.445" x="8.366" y="15.96" color-interpolation-filters="sRGB" filterUnits="userSpaceOnUse"><feFlood flood-opacity="0" result="BackgroundImageFix"/><feBlend in="SourceGraphic" in2="BackgroundImageFix" result="shape"/><feColorMatrix in="SourceAlpha" result="hardAlpha" values="0 0 0 0 0 0 0 0 0 0 0 0 0 0 0 0 0 0 127 0"/><feOffset dx=".2"/><feGaussianBlur stdDeviation=".125"/><feComposite in2="hardAlpha" k2="-1" k3="1" operator="arithmetic"/><feColorMatrix values="0 0 0 0 0.133333 0 0 0 0 0.0784314 0 0 0 0 0.168627 0 0 0 1 0"/><feBlend in2="shape" result="effect1_innerShadow_4002_3106"/></filter><filter id="E" width="4.484" height="1.995" x="8.623" y="13.332" color-interpolation-filters="sRGB" filterUnits="userSpaceOnUse"><feFlood flood-opacity="0" result="BackgroundImageFix"/><feBlend in="SourceGraphic" in2="BackgroundImageFix" result="shape"/><feColorMatrix in="SourceAlpha" result="hardAlpha" values="0 0 0 0 0 0 0 0 0 0 0 0 0 0 0 0 0 0 127 0"/><feOffset dx=".2" dy="-.3"/><feGaussianBlur stdDeviation=".15"/><feComposite in2="hardAlpha" k2="-1" k3="1" operator="arithmetic"/><feColorMatrix values="0 0 0 0 0.47451 0 0 0 0 0.262745 0 0 0 0 0.172549 0 0 0 1 0"/><feBlend in2="shape" result="effect1_innerShadow_4002_3106"/></filter><filter id="F" width="4.484" height="1.995" x="18.925" y="13.332" color-interpolation-filters="sRGB" filterUnits="userSpaceOnUse"><feFlood flood-opacity="0" result="BackgroundImageFix"/><feBlend in="SourceGraphic" in2="BackgroundImageFix" result="shape"/><feColorMatrix in="SourceAlpha" result="hardAlpha" values="0 0 0 0 0 0 0 0 0 0 0 0 0 0 0 0 0 0 127 0"/><feOffset dx=".2" dy="-.3"/><feGaussianBlur stdDeviation=".15"/><feComposite in2="hardAlpha" k2="-1" k3="1" operator="arithmetic"/><feColorMatrix values="0 0 0 0 0.47451 0 0 0 0 0.262745 0 0 0 0 0.172549 0 0 0 1 0"/><feBlend in2="shape" result="effect1_innerShadow_4002_3106"/></filter><filter id="H" width="1.316" height="1.144" x="18.709" y="16.749" color-interpolation-filters="sRGB" filterUnits="userSpaceOnUse"><feFlood flood-opacity="0" result="BackgroundImageFix"/><feBlend in="SourceGraphic" in2="BackgroundImageFix" result="shape"/><feGaussianBlur result="effect1_foregroundBlur_4002_3106" stdDeviation=".05"/></filter><filter id="J" width="1.334" height="1.376" x="20.396" y="16.982" color-interpolation-filters="sRGB" filterUnits="userSpaceOnUse"><feFlood flood-opacity="0" result="BackgroundImageFix"/><feBlend in="SourceGraphic" in2="BackgroundImageFix" result="shape"/><feGaussianBlur result="effect1_foregroundBlur_4002_3106" stdDeviation=".1"/></filter><filter id="M" width="1.515" height="1.618" x="11.947" y="16.861" color-interpolation-filters="sRGB" filterUnits="userSpaceOnUse"><feFlood flood-opacity="0" result="BackgroundImageFix"/><feBlend in="SourceGraphic" in2="BackgroundImageFix" result="shape"/><feGaussianBlur result="effect1_foregroundBlur_4002_3106" stdDeviation=".1"/></filter><filter id="O" width="1.556" height="1.159" x="10.421" y="16.733" color-interpolation-filters="sRGB" filterUnits="userSpaceOnUse"><feFlood flood-opacity="0" result="BackgroundImageFix"/><feBlend in="SourceGraphic" in2="BackgroundImageFix" result="shape"/><feGaussianBlur result="effect1_foregroundBlur_4002_3106" stdDeviation=".05"/></filter><filter id="Q" width="3.758" height="1.318" x="19.363" y="13.724" color-interpolation-filters="sRGB" filterUnits="userSpaceOnUse"><feFlood flood-opacity="0" result="BackgroundImageFix"/><feBlend in="SourceGraphic" in2="BackgroundImageFix" result="shape"/><feGaussianBlur result="effect1_foregroundBlur_4002_3106" stdDeviation=".1"/></filter><filter id="R" width="3.758" height="1.318" x="8.734" y="13.724" color-interpolation-filters="sRGB" filterUnits="userSpaceOnUse"><feFlood flood-opacity="0" result="BackgroundImageFix"/><feBlend in="SourceGraphic" in2="BackgroundImageFix" result="shape"/><feGaussianBlur result="effect1_foregroundBlur_4002_3106" stdDeviation=".1"/></filter><filter id="V" width="7.307" height="5.168" x="20.417" y="1.916" color-interpolation-filters="sRGB" filterUnits="userSpaceOnUse"><feFlood flood-opacity="0" result="BackgroundImageFix"/><feBlend in="SourceGraphic" in2="BackgroundImageFix" result="shape"/><feColorMatrix in="SourceAlpha" result="hardAlpha" values="0 0 0 0 0 0 0 0 0 0 0 0 0 0 0 0 0 0 127 0"/><feOffset dx=".1" dy="-.1"/><feGaussianBlur stdDeviation=".15"/><feComposite in2="hardAlpha" k2="-1" k3="1" operator="arithmetic"/><feColorMatrix values="0 0 0 0 0.843137 0 0 0 0 0.8 0 0 0 0 0.890196 0 0 0 1 0"/><feBlend in2="shape" result="effect1_innerShadow_4002_3106"/></filter><filter id="Y" width="12.925" height="6.714" x="14.465" y="8.129" color-interpolation-filters="sRGB" filterUnits="userSpaceOnUse"><feFlood flood-opacity="0" result="BackgroundImageFix"/><feBlend in="SourceGraphic" in2="BackgroundImageFix" result="shape"/><feColorMatrix in="SourceAlpha" result="hardAlpha" values="0 0 0 0 0 0 0 0 0 0 0 0 0 0 0 0 0 0 127 0"/><feOffset dx="-.05" dy=".1"/><feGaussianBlur stdDeviation=".125"/><feComposite in2="hardAlpha" k2="-1" k3="1" operator="arithmetic"/><feColorMatrix values="0 0 0 0 1 0 0 0 0 0.992157 0 0 0 0 1 0 0 0 1 0"/><feBlend in2="shape" result="effect1_innerShadow_4002_3106"/><feColorMatrix in="SourceAlpha" result="hardAlpha" values="0 0 0 0 0 0 0 0 0 0 0 0 0 0 0 0 0 0 127 0"/><feOffset dx=".4" dy="-.25"/><feGaussianBlur stdDeviation=".325"/><feComposite in2="hardAlpha" k2="-1" k3="1" operator="arithmetic"/><feColorMatrix values="0 0 0 0 0.670588 0 0 0 0 0.560784 0 0 0 0 0.756863 0 0 0 1 0"/><feBlend in2="effect1_innerShadow_4002_3106" result="effect2_innerShadow_4002_3106"/></filter><filter id="ad" width="17.006" height="13.059" x="4.107" y="1.766" color-interpolation-filters="sRGB" filterUnits="userSpaceOnUse"><feFlood flood-opacity="0" result="BackgroundImageFix"/><feBlend in="SourceGraphic" in2="BackgroundImageFix" result="shape"/><feColorMatrix in="SourceAlpha" result="hardAlpha" values="0 0 0 0 0 0 0 0 0 0 0 0 0 0 0 0 0 0 127 0"/><feOffset dx="-.25" dy="-.25"/><feGaussianBlur stdDeviation=".3"/><feComposite in2="hardAlpha" k2="-1" k3="1" operator="arithmetic"/><feColorMatrix values="0 0 0 0 0.603922 0 0 0 0 0.45098 0 0 0 0 0.721569 0 0 0 1 0"/><feBlend in2="shape" result="effect1_innerShadow_4002_3106"/></filter><filter id="ak" width="13.757" height="8.679" x="4.257" y="1.916" color-interpolation-filters="sRGB" filterUnits="userSpaceOnUse"><feFlood flood-opacity="0" result="BackgroundImageFix"/><feBlend in="SourceGraphic" in2="BackgroundImageFix" result="shape"/><feColorMatrix in="SourceAlpha" result="hardAlpha" values="0 0 0 0 0 0 0 0 0 0 0 0 0 0 0 0 0 0 127 0"/><feOffset dx="-.1" dy="-.1"/><feGaussianBlur stdDeviation=".15"/><feComposite in2="hardAlpha" k2="-1" k3="1" operator="arithmetic"/><feColorMatrix values="0 0 0 0 0.611765 0 0 0 0 0.588235 0 0 0 0 0.635294 0 0 0 1 0"/><feBlend in2="shape" result="effect1_innerShadow_4002_3106"/></filter><filter id="aq" width="10.523" height="5.986" x="4.357" y="1.816" color-interpolation-filters="sRGB" filterUnits="userSpaceOnUse"><feFlood flood-opacity="0" result="BackgroundImageFix"/><feBlend in="SourceGraphic" in2="BackgroundImageFix" result="shape"/><feColorMatrix in="SourceAlpha" result="hardAlpha" values="0 0 0 0 0 0 0 0 0 0 0 0 0 0 0 0 0 0 127 0"/><feOffset dy="-.2"/><feGaussianBlur stdDeviation=".2"/><feComposite in2="hardAlpha" k2="-1" k3="1" operator="arithmetic"/><feColorMatrix values="0 0 0 0 0.686275 0 0 0 0 0.619608 0 0 0 0 0.752941 0 0 0 1 0"/><feBlend in2="shape" result="effect1_innerShadow_4002_3106"/><feColorMatrix in="SourceAlpha" result="hardAlpha" values="0 0 0 0 0 0 0 0 0 0 0 0 0 0 0 0 0 0 127 0"/><feOffset dy=".05"/><feGaussianBlur stdDeviation=".15"/><feComposite in2="hardAlpha" k2="-1" k3="1" operator="arithmetic"/><feColorMatrix values="0 0 0 0 0.705882 0 0 0 0 0.701961 0 0 0 0 0.705882 0 0 0 1 0"/><feBlend in2="effect1_innerShadow_4002_3106" result="effect2_innerShadow_4002_3106"/></filter><linearGradient id="b" x1="3.894" x2="9.522" y1="18.797" y2="18.797" gradientUnits="userSpaceOnUse"><stop stop-color="#C48B78"/><stop offset="1" stop-color="#B47860"/></linearGradient><linearGradient id="w" x1="13.876" x2="15.5" y1="21.057" y2="21.256" gradientUnits="userSpaceOnUse"><stop stop-color="#D1987A"/><stop offset="1" stop-color="#D1987A" stop-opacity="0"/></linearGradient><linearGradient id="x" x1="15.866" x2="15.866" y1="22.682" y2="21.521" gradientUnits="userSpaceOnUse"><stop stop-color="#C57F82"/><stop offset="1" stop-color="#C57F82" stop-opacity="0"/></linearGradient><linearGradient id="z" x1="15.866" x2="15.866" y1="17.061" y2="19.875" gradientUnits="userSpaceOnUse"><stop stop-color="#EFB696"/><stop offset="1" stop-color="#EFB696" stop-opacity="0"/></linearGradient><linearGradient id="B" x1="14.479" x2="15.34" y1="25.491" y2="23.833" gradientUnits="userSpaceOnUse"><stop stop-color="#D8A29E"/><stop offset="1" stop-color="#D8A29E" stop-opacity="0"/></linearGradient><linearGradient id="K" x1="21.494" x2="20.898" y1="17.598" y2="17.965" gradientUnits="userSpaceOnUse"><stop stop-color="#B4948D"/><stop offset="1" stop-color="#B4948D" stop-opacity="0"/></linearGradient><linearGradient id="N" x1="13.13" x2="12.534" y1="17.598" y2="17.965" gradientUnits="userSpaceOnUse"><stop stop-color="#B4948D"/><stop offset="1" stop-color="#B4948D" stop-opacity="0"/></linearGradient><linearGradient id="Z" x1="26.159" x2="15.409" y1="13.582" y2="13.582" gradientUnits="userSpaceOnUse"><stop stop-color="#EEE8F4"/><stop offset="1" stop-color="#DDD6E4"/></linearGradient><linearGradient id="an" x1="4.357" x2="8.534" y1="9.551" y2="8.582" gradientUnits="userSpaceOnUse"><stop stop-color="#B6B0BB"/><stop offset="1" stop-color="#B6B0BB" stop-opacity="0"/></linearGradient></defs></svg>