<svg width="100%" height="100%" viewBox="0 0 32 32" xmlns="http://www.w3.org/2000/svg"><rect width="4.39" height="8.125" x="12.594" y="2.223" fill="#714E42" rx="2.195"/><rect width="4.39" height="8.125" x="12.594" y="2.223" fill="url(#a)" rx="2.195"/><path fill="url(#b)" d="M14.779 4.737a2.206 2.206 0 0 0-2.206 2.205v5.4a2 2 0 0 1-.69 1.512l-2.33 2.018 6.47 7.624.654-.635c.194-.189.323-.442.323-.713-.024-5.068-.016-10.137-.016-15.206a2.206 2.206 0 0 0-2.206-2.205"/><path fill="url(#c)" d="M14.779 4.737a2.206 2.206 0 0 0-2.206 2.205v5.4a2 2 0 0 1-.69 1.512l-2.33 2.018 6.47 7.624.654-.635c.194-.189.323-.442.323-.713-.024-5.068-.016-10.137-.016-15.206a2.206 2.206 0 0 0-2.206-2.205"/><path fill="url(#d)" d="M14.779 4.737a2.206 2.206 0 0 0-2.206 2.205v5.4a2 2 0 0 1-.69 1.512l-2.33 2.018 6.47 7.624.654-.635c.194-.189.323-.442.323-.713-.024-5.068-.016-10.137-.016-15.206a2.206 2.206 0 0 0-2.206-2.205"/><rect width="4.39" height="8.125" fill="#654338" rx="2.195" transform="matrix(-1 0 0 1 21.375 2.223)"/><rect width="4.39" height="8.125" fill="url(#e)" rx="2.195" transform="matrix(-1 0 0 1 21.375 2.223)"/><rect width="4.39" height="8.125" fill="url(#f)" rx="2.195" transform="matrix(-1 0 0 1 21.375 2.223)"/><path fill="url(#g)" d="M19.19 4.737c1.218 0 2.205.987 2.205 2.205v5.4a2 2 0 0 0 .69 1.512l2.33 2.018-6.47 7.624-.654-.635a.96.96 0 0 1-.303-.7v-4.094l-.004-.128V6.942c0-1.218.988-2.205 2.206-2.205"/><path fill="url(#h)" d="M19.19 4.737c1.218 0 2.205.987 2.205 2.205v5.4a2 2 0 0 0 .69 1.512l2.33 2.018-6.47 7.624-.654-.635a.96.96 0 0 1-.303-.7v-4.094l-.004-.128V6.942c0-1.218.988-2.205 2.206-2.205"/><g filter="url(#i)"><path stroke="url(#j)" stroke-width=".15" d="M24.765 17.143v7.92"/></g><g filter="url(#k)"><path stroke="url(#l)" stroke-width=".15" d="m11.033 16.827 5.034 6.113"/></g><g filter="url(#m)"><path fill="url(#n)" d="M20.898 6.831a1.066 1.066 0 0 0-2.132 0v6.641c0 .734.309 1.435.85 1.93l1.093 1.001a1.19 1.19 0 0 0 1.627-1.734l-.918-.882c-.332-.32-.52-.76-.52-1.221z"/></g><g filter="url(#o)"><path fill="url(#p)" d="M14.147 6.66a1.066 1.066 0 0 1 2.132 0v12.503a2.284 2.284 0 0 1-4.272 1.124l-.643-1.137a3 3 0 0 1 .46-3.567l1.758-1.81a2 2 0 0 0 .565-1.393z"/></g><g filter="url(#q)"><ellipse cx="19.849" cy="3.814" fill="url(#r)" rx=".828" ry="1.134" transform="rotate(-39.49 19.849 3.814)"/></g><g filter="url(#s)"><ellipse cx="15.456" cy="3.855" fill="#997A6B" rx=".764" ry="1.019" transform="rotate(-39.49 15.456 3.855)"/></g><path fill="url(#t)" d="M16.645 22.903 10.36 15.41a.6.6 0 0 0-.822-.093l-.358.27a1 1 0 0 0-.398.799V29.74a.25.25 0 0 0 .41.192l7.38-6.184a.6.6 0 0 0 .074-.846"/><path fill="url(#u)" d="M16.645 22.903 10.36 15.41a.6.6 0 0 0-.822-.093l-.358.27a1 1 0 0 0-.398.799V29.74a.25.25 0 0 0 .41.192l7.38-6.184a.6.6 0 0 0 .074-.846"/><path fill="url(#v)" d="M16.645 22.903 10.36 15.41a.6.6 0 0 0-.822-.093l-.358.27a1 1 0 0 0-.398.799V29.74a.25.25 0 0 0 .41.192l7.38-6.184a.6.6 0 0 0 .074-.846"/><path fill="url(#w)" d="M16.645 22.903 10.36 15.41a.6.6 0 0 0-.822-.093l-.358.27a1 1 0 0 0-.398.799V29.74a.25.25 0 0 0 .41.192l7.38-6.184a.6.6 0 0 0 .074-.846"/><path fill="url(#x)" d="M16.645 22.903 10.36 15.41a.6.6 0 0 0-.822-.093l-.358.27a1 1 0 0 0-.398.799V29.74a.25.25 0 0 0 .41.192l7.38-6.184a.6.6 0 0 0 .074-.846"/><path fill="url(#y)" d="m17.323 22.903 6.287-7.494a.6.6 0 0 1 .821-.093l.358.27a1 1 0 0 1 .398.799V29.74a.25.25 0 0 1-.41.192l-7.38-6.184a.6.6 0 0 1-.074-.846"/><path fill="url(#z)" d="m17.323 22.903 6.287-7.494a.6.6 0 0 1 .821-.093l.358.27a1 1 0 0 1 .398.799V29.74a.25.25 0 0 1-.41.192l-7.38-6.184a.6.6 0 0 1-.074-.846"/><path fill="url(#A)" d="m17.323 22.903 6.287-7.494a.6.6 0 0 1 .821-.093l.358.27a1 1 0 0 1 .398.799V29.74a.25.25 0 0 1-.41.192l-7.38-6.184a.6.6 0 0 1-.074-.846"/><path fill="url(#B)" d="m17.323 22.903 6.287-7.494a.6.6 0 0 1 .821-.093l.358.27a1 1 0 0 1 .398.799V29.74a.25.25 0 0 1-.41.192l-7.38-6.184a.6.6 0 0 1-.074-.846"/><defs><linearGradient id="a" x1="14.453" x2="14.453" y1="6.938" y2="4" gradientUnits="userSpaceOnUse"><stop stop-color="#402519"/><stop offset="1" stop-color="#402519" stop-opacity="0"/></linearGradient><linearGradient id="b" x1="13.269" x2="13.269" y1="5.125" y2="16.702" gradientUnits="userSpaceOnUse"><stop stop-color="#805B4D"/><stop offset="1" stop-color="#835952"/></linearGradient><linearGradient id="d" x1="16.984" x2="16.297" y1="12.544" y2="12.544" gradientUnits="userSpaceOnUse"><stop stop-color="#67443E"/><stop offset="1" stop-color="#67443E" stop-opacity="0"/></linearGradient><linearGradient id="e" x1="2.922" x2="2.922" y1="6.09" y2="1.496" gradientUnits="userSpaceOnUse"><stop stop-color="#523022"/><stop offset="1" stop-color="#523022" stop-opacity="0"/></linearGradient><linearGradient id="g" x1="20.699" x2="20.699" y1="8.915" y2="24.762" gradientUnits="userSpaceOnUse"><stop stop-color="#805B4D"/><stop offset="1" stop-color="#835952"/></linearGradient><linearGradient id="j" x1="25.265" x2="25.265" y1="16.348" y2="25.857" gradientUnits="userSpaceOnUse"><stop stop-color="#9A69FB" stop-opacity="0"/><stop offset=".49" stop-color="#A578FF"/><stop offset="1" stop-color="#9A69FB" stop-opacity="0"/></linearGradient><linearGradient id="l" x1="10.914" x2="16.958" y1="15.896" y2="23.236" gradientUnits="userSpaceOnUse"><stop offset=".214" stop-color="#9867F8" stop-opacity="0"/><stop offset=".49" stop-color="#9867F8"/><stop offset=".776" stop-color="#9867F8" stop-opacity="0"/></linearGradient><linearGradient id="n" x1="20.954" x2="20.954" y1="5.765" y2="24.331" gradientUnits="userSpaceOnUse"><stop stop-color="#9F7B70"/><stop offset="1" stop-color="#9F7B70" stop-opacity="0"/></linearGradient><linearGradient id="p" x1="16.759" x2="12.234" y1="6.778" y2="31.761" gradientUnits="userSpaceOnUse"><stop stop-color="#9D7B6F"/><stop offset="1" stop-color="#9D7B6F" stop-opacity="0"/></linearGradient><linearGradient id="r" x1="19.849" x2="19.849" y1="2.68" y2="6.352" gradientUnits="userSpaceOnUse"><stop stop-color="#9E7A6A"/><stop offset="1" stop-color="#9E7A6A" stop-opacity="0"/></linearGradient><linearGradient id="t" x1="7.609" x2="13.234" y1="15.195" y2="22.593" gradientUnits="userSpaceOnUse"><stop stop-color="#6640A2"/><stop offset="1" stop-color="#6D43FF"/></linearGradient><linearGradient id="u" x1="13.633" x2="12.784" y1="18.983" y2="19.781" gradientUnits="userSpaceOnUse"><stop stop-color="#6C2AC4"/><stop offset="1" stop-color="#6C2AC4" stop-opacity="0"/></linearGradient><linearGradient id="w" x1="8.357" x2="9.211" y1="22.593" y2="22.593" gradientUnits="userSpaceOnUse"><stop stop-color="#6236AE"/><stop offset="1" stop-color="#6236AE" stop-opacity="0"/></linearGradient><linearGradient id="x" x1="13.297" x2="12.992" y1="26.703" y2="26.359" gradientUnits="userSpaceOnUse"><stop stop-color="#9C6EFF"/><stop offset="1" stop-color="#9C6EFF" stop-opacity="0"/></linearGradient><linearGradient id="y" x1="23.735" x2="19.084" y1="18.733" y2="28.212" gradientUnits="userSpaceOnUse"><stop stop-color="#945BCC"/><stop offset="1" stop-color="#573EFF"/></linearGradient><linearGradient id="A" x1="20.335" x2="20.88" y1="18.983" y2="19.439" gradientUnits="userSpaceOnUse"><stop stop-color="#6C2AC4"/><stop offset="1" stop-color="#6C2AC4" stop-opacity="0"/></linearGradient><linearGradient id="B" x1="20.672" x2="20.914" y1="26.703" y2="26.422" gradientUnits="userSpaceOnUse"><stop stop-color="#9469FF"/><stop offset="1" stop-color="#9469FF" stop-opacity="0"/></linearGradient><filter id="i" width=".65" height="8.419" x="24.44" y="16.893" color-interpolation-filters="sRGB" filterUnits="userSpaceOnUse"><feFlood flood-opacity="0" result="BackgroundImageFix"/><feBlend in="SourceGraphic" in2="BackgroundImageFix" result="shape"/><feGaussianBlur result="effect1_foregroundBlur_20020_4060" stdDeviation=".125"/></filter><filter id="k" width="5.65" height="6.709" x="10.725" y="16.53" color-interpolation-filters="sRGB" filterUnits="userSpaceOnUse"><feFlood flood-opacity="0" result="BackgroundImageFix"/><feBlend in="SourceGraphic" in2="BackgroundImageFix" result="shape"/><feGaussianBlur result="effect1_foregroundBlur_20020_4060" stdDeviation=".125"/></filter><filter id="m" width="6.934" height="13.95" x="17.266" y="4.265" color-interpolation-filters="sRGB" filterUnits="userSpaceOnUse"><feFlood flood-opacity="0" result="BackgroundImageFix"/><feBlend in="SourceGraphic" in2="BackgroundImageFix" result="shape"/><feGaussianBlur result="effect1_foregroundBlur_20020_4060" stdDeviation=".75"/></filter><filter id="o" width="8.303" height="18.853" x="9.476" y="4.094" color-interpolation-filters="sRGB" filterUnits="userSpaceOnUse"><feFlood flood-opacity="0" result="BackgroundImageFix"/><feBlend in="SourceGraphic" in2="BackgroundImageFix" result="shape"/><feGaussianBlur result="effect1_foregroundBlur_20020_4060" stdDeviation=".75"/></filter><filter id="q" width="3.928" height="4.044" x="17.885" y="1.792" color-interpolation-filters="sRGB" filterUnits="userSpaceOnUse"><feFlood flood-opacity="0" result="BackgroundImageFix"/><feBlend in="SourceGraphic" in2="BackgroundImageFix" result="shape"/><feGaussianBlur result="effect1_foregroundBlur_20020_4060" stdDeviation=".5"/></filter><filter id="s" width="3.753" height="3.85" x="13.579" y="1.93" color-interpolation-filters="sRGB" filterUnits="userSpaceOnUse"><feFlood flood-opacity="0" result="BackgroundImageFix"/><feBlend in="SourceGraphic" in2="BackgroundImageFix" result="shape"/><feGaussianBlur result="effect1_foregroundBlur_20020_4060" stdDeviation=".5"/></filter><radialGradient id="c" cx="0" cy="0" r="1" gradientTransform="matrix(0 -3.4089 5.11912 0 15.865 23.496)" gradientUnits="userSpaceOnUse"><stop stop-color="#683754"/><stop offset="1" stop-color="#683754" stop-opacity="0"/></radialGradient><radialGradient id="f" cx="0" cy="0" r="1" gradientTransform="matrix(-3.28212 -3.24419 3.42677 -3.46684 3.636 3.244)" gradientUnits="userSpaceOnUse"><stop offset=".559" stop-color="#997868" stop-opacity="0"/><stop offset=".907" stop-color="#997868"/></radialGradient><radialGradient id="h" cx="0" cy="0" r="1" gradientTransform="matrix(0 -3.4089 5.11912 0 18.103 23.496)" gradientUnits="userSpaceOnUse"><stop stop-color="#602859"/><stop offset="1" stop-color="#602859" stop-opacity="0"/></radialGradient><radialGradient id="v" cx="0" cy="0" r="1" gradientTransform="rotate(-45 34.16 1.731)scale(8.65467 3.14404)" gradientUnits="userSpaceOnUse"><stop stop-color="#8253FF"/><stop offset="1" stop-color="#8253FF" stop-opacity="0"/></radialGradient><radialGradient id="z" cx="0" cy="0" r="1" gradientTransform="rotate(38.555 -13.353 40.094)scale(5.3148 2.79018)" gradientUnits="userSpaceOnUse"><stop stop-color="#9D5BEF"/><stop offset="1" stop-color="#9D5BEF" stop-opacity="0"/></radialGradient></defs></svg>