<svg width="100%" height="100%" viewBox="0 0 32 32" xmlns="http://www.w3.org/2000/svg"><path fill="url(#a)" d="M22.398 28.615h2.008v1.676h-2.008z"/><path fill="url(#b)" d="M3.461 28.615h2.008v1.676H3.461z"/><path fill="#447AC9" d="M4.625 18.537c0-.69.56-1.25 1.25-1.25h6.828c.69 0 1.25.56 1.25 1.25v6.734H4.625z"/><path fill="url(#c)" d="M4.625 18.537c0-.69.56-1.25 1.25-1.25h6.828c.69 0 1.25.56 1.25 1.25v6.734H4.625z"/><path fill="url(#d)" d="M4.625 18.537c0-.69.56-1.25 1.25-1.25h6.828c.69 0 1.25.56 1.25 1.25v6.734H4.625z"/><path fill="url(#e)" d="M4.625 18.537c0-.69.56-1.25 1.25-1.25h6.828c.69 0 1.25.56 1.25 1.25v6.734H4.625z"/><path fill="url(#f)" d="M4.625 18.537c0-.69.56-1.25 1.25-1.25h6.828c.69 0 1.25.56 1.25 1.25v6.734H4.625z"/><path fill="url(#g)" d="M4.625 18.537c0-.69.56-1.25 1.25-1.25h6.828c.69 0 1.25.56 1.25 1.25v6.734H4.625z"/><path fill="#447AC9" d="M23.281 18.537c0-.69-.56-1.25-1.25-1.25h-6.828c-.69 0-1.25.56-1.25 1.25v6.734h9.328z"/><path fill="url(#h)" d="M23.281 18.537c0-.69-.56-1.25-1.25-1.25h-6.828c-.69 0-1.25.56-1.25 1.25v6.734h9.328z"/><path fill="url(#i)" d="M23.281 18.537c0-.69-.56-1.25-1.25-1.25h-6.828c-.69 0-1.25.56-1.25 1.25v6.734h9.328z"/><path fill="url(#j)" d="M23.281 18.537c0-.69-.56-1.25-1.25-1.25h-6.828c-.69 0-1.25.56-1.25 1.25v6.734h9.328z"/><path fill="url(#k)" d="M23.281 18.537c0-.69-.56-1.25-1.25-1.25h-6.828c-.69 0-1.25.56-1.25 1.25v6.734h9.328z"/><path fill="url(#l)" d="M23.281 18.537c0-.69-.56-1.25-1.25-1.25h-6.828c-.69 0-1.25.56-1.25 1.25v6.734h9.328z"/><path fill="url(#m)" d="M23.281 18.537c0-.69-.56-1.25-1.25-1.25h-6.828c-.69 0-1.25.56-1.25 1.25v6.734h9.328z"/><path fill="url(#n)" d="M23.281 18.537c0-.69-.56-1.25-1.25-1.25h-6.828c-.69 0-1.25.56-1.25 1.25v6.734h9.328z"/><g filter="url(#o)"><path fill="#4A7ED9" d="M4.773 24.639h18.32v3.593a1 1 0 0 1-1 1H5.774a1 1 0 0 1-1-1z"/><path fill="url(#p)" d="M4.773 24.639h18.32v3.593a1 1 0 0 1-1 1H5.774a1 1 0 0 1-1-1z"/></g><g filter="url(#q)"><path stroke="#CBC9CC" stroke-width=".9" d="M21.86 9.146V5.342a2.5 2.5 0 0 1 2.5-2.5h.98a2.5 2.5 0 0 1 2.5 2.5v23.586"/></g><path stroke="url(#r)" stroke-width=".9" d="M21.86 9.146V5.342a2.5 2.5 0 0 1 2.5-2.5h.98a2.5 2.5 0 0 1 2.5 2.5v23.586"/><g stroke-width=".3" filter="url(#s)"><path stroke="url(#t)" d="M21.86 9.146V5.342c0-1.381 1.134-2.5 2.534-2.5h.994c1.4 0 2.534 1.119 2.534 2.5v23.586"/><path stroke="url(#u)" d="M21.86 9.146V5.342c0-1.381 1.134-2.5 2.534-2.5h.994c1.4 0 2.534 1.119 2.534 2.5v23.586"/></g><g filter="url(#v)"><path fill="#307ACE" d="M2.438 22.271a1.703 1.703 0 1 1 3.406 0v5.961a1 1 0 0 1-1 1H3.437a1 1 0 0 1-1-1z"/></g><g filter="url(#w)"><path fill="url(#x)" d="M21.867 6.318a3.49 3.49 0 0 0-3.492 3.492v2.758c0 .415.336.75.75.75h5.484a.75.75 0 0 0 .75-.75V9.81a3.49 3.49 0 0 0-3.492-3.492"/><path fill="url(#y)" d="M21.867 6.318a3.49 3.49 0 0 0-3.492 3.492v2.758c0 .415.336.75.75.75h5.484a.75.75 0 0 0 .75-.75V9.81a3.49 3.49 0 0 0-3.492-3.492"/><path fill="url(#z)" d="M21.867 6.318a3.49 3.49 0 0 0-3.492 3.492v2.758c0 .415.336.75.75.75h5.484a.75.75 0 0 0 .75-.75V9.81a3.49 3.49 0 0 0-3.492-3.492"/></g><path fill="url(#A)" d="M25.349 29.783c-.058.275.172.508.453.508h4.119c.28 0 .51-.233.453-.508-.255-1.213-1.297-2.121-2.515-2.121-1.217 0-2.257.908-2.51 2.121"/><path fill="url(#B)" d="M25.349 29.783c-.058.275.172.508.453.508h4.119c.28 0 .51-.233.453-.508-.255-1.213-1.297-2.121-2.515-2.121-1.217 0-2.257.908-2.51 2.121"/><path fill="url(#C)" d="M25.349 29.783c-.058.275.172.508.453.508h4.119c.28 0 .51-.233.453-.508-.255-1.213-1.297-2.121-2.515-2.121-1.217 0-2.257.908-2.51 2.121"/><path fill="url(#D)" d="M25.349 29.783c-.058.275.172.508.453.508h4.119c.28 0 .51-.233.453-.508-.255-1.213-1.297-2.121-2.515-2.121-1.217 0-2.257.908-2.51 2.121"/><g filter="url(#E)"><path stroke="url(#F)" stroke-linecap="round" d="M6.219 18.396h6.344a.25.25 0 0 1 .25.25v5.547"/></g><g filter="url(#G)"><path stroke="url(#H)" stroke-linecap="round" d="M15.578 18.38h6.344a.25.25 0 0 1 .25.25v5.548"/></g><g filter="url(#I)"><path fill="#307ACE" d="M21.867 22.271a1.703 1.703 0 1 1 3.406 0v5.961a1 1 0 0 1-1 1h-1.406a1 1 0 0 1-1-1z"/></g><g filter="url(#J)"><path fill="#4D83D2" d="M6.219 25.271H21.86v.438H6.219z"/></g><g filter="url(#K)"><path fill="url(#L)" d="M4.094 21.959a.531.531 0 0 1 1.063 0v6.156H4.093z"/></g><g filter="url(#M)"><path fill="url(#N)" d="M23.57 21.959a.531.531 0 0 1 1.063 0v6.156H23.57z"/></g><defs><linearGradient id="c" x1="9.289" x2="9.289" y1="17.287" y2="19.146" gradientUnits="userSpaceOnUse"><stop offset=".032" stop-color="#3B77BB"/><stop offset="1" stop-color="#3B77BB" stop-opacity="0"/></linearGradient><linearGradient id="d" x1="4.625" x2="6.5" y1="20.365" y2="20.365" gradientUnits="userSpaceOnUse"><stop stop-color="#3261A8"/><stop offset="1" stop-color="#3261A8" stop-opacity="0"/></linearGradient><linearGradient id="e" x1="7.25" x2="7.25" y1="24.896" y2="23.834" gradientUnits="userSpaceOnUse"><stop stop-color="#3261A8"/><stop offset="1" stop-color="#457BCA" stop-opacity="0"/></linearGradient><linearGradient id="f" x1="14.375" x2="12.531" y1="24.521" y2="24.521" gradientUnits="userSpaceOnUse"><stop stop-color="#1859A4"/><stop offset="1" stop-color="#1859A4" stop-opacity="0"/></linearGradient><linearGradient id="g" x1="14.023" x2="13.508" y1="22.584" y2="22.584" gradientUnits="userSpaceOnUse"><stop stop-color="#022F89"/><stop offset="1" stop-color="#2A67B4" stop-opacity="0"/></linearGradient><linearGradient id="h" x1="18.617" x2="18.617" y1="17.287" y2="19.146" gradientUnits="userSpaceOnUse"><stop offset=".032" stop-color="#3B77BB"/><stop offset="1" stop-color="#3B77BB" stop-opacity="0"/></linearGradient><linearGradient id="i" x1="23.281" x2="21.406" y1="20.365" y2="20.365" gradientUnits="userSpaceOnUse"><stop stop-color="#3261A8"/><stop offset="1" stop-color="#3261A8" stop-opacity="0"/></linearGradient><linearGradient id="j" x1="20.656" x2="20.656" y1="24.896" y2="23.834" gradientUnits="userSpaceOnUse"><stop stop-color="#3261A8"/><stop offset="1" stop-color="#457BCA" stop-opacity="0"/></linearGradient><linearGradient id="k" x1="13.531" x2="15.375" y1="24.521" y2="24.521" gradientUnits="userSpaceOnUse"><stop stop-color="#1859A4"/><stop offset="1" stop-color="#1859A4" stop-opacity="0"/></linearGradient><linearGradient id="l" x1="13.883" x2="14.398" y1="22.584" y2="22.584" gradientUnits="userSpaceOnUse"><stop stop-color="#022F89"/><stop offset="1" stop-color="#2A67B4" stop-opacity="0"/></linearGradient><linearGradient id="m" x1="23.281" x2="19.5" y1="26.084" y2="23.084" gradientUnits="userSpaceOnUse"><stop offset=".331" stop-color="#163883"/><stop offset="1" stop-color="#2A5AA1" stop-opacity="0"/></linearGradient><linearGradient id="p" x1="13.934" x2="13.934" y1="24.639" y2="25.709" gradientUnits="userSpaceOnUse"><stop offset=".241" stop-color="#397AC5"/><stop offset="1" stop-color="#397AC5" stop-opacity="0"/></linearGradient><linearGradient id="u" x1="27.922" x2="27.922" y1="27.74" y2="16.803" gradientUnits="userSpaceOnUse"><stop stop-color="#C5C0C3"/><stop offset="1" stop-color="#C5C0C3" stop-opacity="0"/></linearGradient><linearGradient id="x" x1="18.207" x2="24.912" y1="11.106" y2="11.106" gradientUnits="userSpaceOnUse"><stop offset=".253" stop-color="#F89B2F"/><stop offset=".789" stop-color="#FFDB4E"/></linearGradient><linearGradient id="y" x1="23.406" x2="23.406" y1="13.318" y2="12.85" gradientUnits="userSpaceOnUse"><stop stop-color="#AA665B"/><stop offset="1" stop-color="#EB9434" stop-opacity="0"/></linearGradient><linearGradient id="C" x1="28.813" x2="28.813" y1="30.291" y2="29.928" gradientUnits="userSpaceOnUse"><stop stop-color="#E68945"/><stop offset="1" stop-color="#E68945" stop-opacity="0"/></linearGradient><linearGradient id="F" x1="13.938" x2="6.659" y1="22.615" y2="22.749" gradientUnits="userSpaceOnUse"><stop stop-color="#5284C7"/><stop offset="1" stop-color="#5284C7" stop-opacity="0"/></linearGradient><linearGradient id="H" x1="22.758" x2="20.985" y1="18.099" y2="21.945" gradientUnits="userSpaceOnUse"><stop stop-color="#5284C7"/><stop offset="1" stop-color="#5284C7" stop-opacity="0"/></linearGradient><linearGradient id="L" x1="4.625" x2="4.625" y1="21.428" y2="27.709" gradientUnits="userSpaceOnUse"><stop stop-color="#5C92DB"/><stop offset="1" stop-color="#5487DD"/></linearGradient><linearGradient id="N" x1="24.102" x2="24.102" y1="21.428" y2="27.709" gradientUnits="userSpaceOnUse"><stop stop-color="#5C92DB"/><stop offset="1" stop-color="#5487DD"/></linearGradient><filter id="o" width="19.32" height="5.094" x="3.773" y="24.139" color-interpolation-filters="sRGB" filterUnits="userSpaceOnUse"><feFlood flood-opacity="0" result="BackgroundImageFix"/><feBlend in="SourceGraphic" in2="BackgroundImageFix" result="shape"/><feColorMatrix in="SourceAlpha" result="hardAlpha" values="0 0 0 0 0 0 0 0 0 0 0 0 0 0 0 0 0 0 127 0"/><feOffset dx="-1" dy="-.5"/><feGaussianBlur stdDeviation=".5"/><feComposite in2="hardAlpha" k2="-1" k3="1" operator="arithmetic"/><feColorMatrix values="0 0 0 0 0.215686 0 0 0 0 0.32549 0 0 0 0 0.768627 0 0 0 1 0"/><feBlend in2="shape" result="effect1_innerShadow_18_25664"/></filter><filter id="q" width="7.18" height="26.736" x="21.409" y="2.192" color-interpolation-filters="sRGB" filterUnits="userSpaceOnUse"><feFlood flood-opacity="0" result="BackgroundImageFix"/><feBlend in="SourceGraphic" in2="BackgroundImageFix" result="shape"/><feColorMatrix in="SourceAlpha" result="hardAlpha" values="0 0 0 0 0 0 0 0 0 0 0 0 0 0 0 0 0 0 127 0"/><feOffset dx=".3" dy="-.2"/><feGaussianBlur stdDeviation=".225"/><feComposite in2="hardAlpha" k2="-1" k3="1" operator="arithmetic"/><feColorMatrix values="0 0 0 0 0.666667 0 0 0 0 0.662745 0 0 0 0 0.666667 0 0 0 1 0"/><feBlend in2="shape" result="effect1_innerShadow_18_25664"/><feColorMatrix in="SourceAlpha" result="hardAlpha" values="0 0 0 0 0 0 0 0 0 0 0 0 0 0 0 0 0 0 127 0"/><feOffset dy="-.2"/><feGaussianBlur stdDeviation=".225"/><feComposite in2="hardAlpha" k2="-1" k3="1" operator="arithmetic"/><feColorMatrix values="0 0 0 0 0.6 0 0 0 0 0.521569 0 0 0 0 0.596078 0 0 0 1 0"/><feBlend in2="effect1_innerShadow_18_25664" result="effect2_innerShadow_18_25664"/></filter><filter id="s" width="6.963" height="26.836" x="21.409" y="2.392" color-interpolation-filters="sRGB" filterUnits="userSpaceOnUse"><feFlood flood-opacity="0" result="BackgroundImageFix"/><feBlend in="SourceGraphic" in2="BackgroundImageFix" result="shape"/><feGaussianBlur result="effect1_foregroundBlur_18_25664" stdDeviation=".15"/></filter><filter id="v" width="4.406" height="9.414" x="2.438" y="19.818" color-interpolation-filters="sRGB" filterUnits="userSpaceOnUse"><feFlood flood-opacity="0" result="BackgroundImageFix"/><feBlend in="SourceGraphic" in2="BackgroundImageFix" result="shape"/><feColorMatrix in="SourceAlpha" result="hardAlpha" values="0 0 0 0 0 0 0 0 0 0 0 0 0 0 0 0 0 0 127 0"/><feOffset dx="1" dy="-.75"/><feGaussianBlur stdDeviation=".625"/><feComposite in2="hardAlpha" k2="-1" k3="1" operator="arithmetic"/><feColorMatrix values="0 0 0 0 0.203922 0 0 0 0 0.380392 0 0 0 0 0.745098 0 0 0 1 0"/><feBlend in2="shape" result="effect1_innerShadow_18_25664"/><feColorMatrix in="SourceAlpha" result="hardAlpha" values="0 0 0 0 0 0 0 0 0 0 0 0 0 0 0 0 0 0 127 0"/><feOffset dy="-.5"/><feGaussianBlur stdDeviation=".625"/><feComposite in2="hardAlpha" k2="-1" k3="1" operator="arithmetic"/><feColorMatrix values="0 0 0 0 0.235294 0 0 0 0 0.305882 0 0 0 0 0.733333 0 0 0 1 0"/><feBlend in2="effect1_innerShadow_18_25664" result="effect2_innerShadow_18_25664"/></filter><filter id="w" width="7.484" height="7" x="18.375" y="6.318" color-interpolation-filters="sRGB" filterUnits="userSpaceOnUse"><feFlood flood-opacity="0" result="BackgroundImageFix"/><feBlend in="SourceGraphic" in2="BackgroundImageFix" result="shape"/><feColorMatrix in="SourceAlpha" result="hardAlpha" values="0 0 0 0 0 0 0 0 0 0 0 0 0 0 0 0 0 0 127 0"/><feOffset dx=".5"/><feGaussianBlur stdDeviation=".75"/><feComposite in2="hardAlpha" k2="-1" k3="1" operator="arithmetic"/><feColorMatrix values="0 0 0 0 0.815686 0 0 0 0 0.560784 0 0 0 0 0.384314 0 0 0 1 0"/><feBlend in2="shape" result="effect1_innerShadow_18_25664"/></filter><filter id="E" width="8.594" height="7.797" x="5.219" y="17.396" color-interpolation-filters="sRGB" filterUnits="userSpaceOnUse"><feFlood flood-opacity="0" result="BackgroundImageFix"/><feBlend in="SourceGraphic" in2="BackgroundImageFix" result="shape"/><feGaussianBlur result="effect1_foregroundBlur_18_25664" stdDeviation=".25"/></filter><filter id="G" width="8.594" height="7.797" x="14.578" y="17.381" color-interpolation-filters="sRGB" filterUnits="userSpaceOnUse"><feFlood flood-opacity="0" result="BackgroundImageFix"/><feBlend in="SourceGraphic" in2="BackgroundImageFix" result="shape"/><feGaussianBlur result="effect1_foregroundBlur_18_25664" stdDeviation=".25"/></filter><filter id="I" width="4.406" height="9.414" x="21.867" y="19.818" color-interpolation-filters="sRGB" filterUnits="userSpaceOnUse"><feFlood flood-opacity="0" result="BackgroundImageFix"/><feBlend in="SourceGraphic" in2="BackgroundImageFix" result="shape"/><feColorMatrix in="SourceAlpha" result="hardAlpha" values="0 0 0 0 0 0 0 0 0 0 0 0 0 0 0 0 0 0 127 0"/><feOffset dx="1" dy="-.75"/><feGaussianBlur stdDeviation=".625"/><feComposite in2="hardAlpha" k2="-1" k3="1" operator="arithmetic"/><feColorMatrix values="0 0 0 0 0.203922 0 0 0 0 0.380392 0 0 0 0 0.745098 0 0 0 1 0"/><feBlend in2="shape" result="effect1_innerShadow_18_25664"/><feColorMatrix in="SourceAlpha" result="hardAlpha" values="0 0 0 0 0 0 0 0 0 0 0 0 0 0 0 0 0 0 127 0"/><feOffset dy="-.5"/><feGaussianBlur stdDeviation=".625"/><feComposite in2="hardAlpha" k2="-1" k3="1" operator="arithmetic"/><feColorMatrix values="0 0 0 0 0.235294 0 0 0 0 0.305882 0 0 0 0 0.733333 0 0 0 1 0"/><feBlend in2="effect1_innerShadow_18_25664" result="effect2_innerShadow_18_25664"/></filter><filter id="J" width="16.641" height="1.438" x="5.719" y="24.771" color-interpolation-filters="sRGB" filterUnits="userSpaceOnUse"><feFlood flood-opacity="0" result="BackgroundImageFix"/><feBlend in="SourceGraphic" in2="BackgroundImageFix" result="shape"/><feGaussianBlur result="effect1_foregroundBlur_18_25664" stdDeviation=".25"/></filter><filter id="K" width="2.563" height="8.188" x="3.344" y="20.678" color-interpolation-filters="sRGB" filterUnits="userSpaceOnUse"><feFlood flood-opacity="0" result="BackgroundImageFix"/><feBlend in="SourceGraphic" in2="BackgroundImageFix" result="shape"/><feGaussianBlur result="effect1_foregroundBlur_18_25664" stdDeviation=".375"/></filter><filter id="M" width="2.563" height="8.188" x="22.82" y="20.678" color-interpolation-filters="sRGB" filterUnits="userSpaceOnUse"><feFlood flood-opacity="0" result="BackgroundImageFix"/><feBlend in="SourceGraphic" in2="BackgroundImageFix" result="shape"/><feGaussianBlur result="effect1_foregroundBlur_18_25664" stdDeviation=".375"/></filter><radialGradient id="a" cx="0" cy="0" r="1" gradientTransform="matrix(0 -1.50391 1.80188 0 24.016 30.29)" gradientUnits="userSpaceOnUse"><stop stop-color="#978BFF"/><stop offset="1" stop-color="#7F72FF"/></radialGradient><radialGradient id="b" cx="0" cy="0" r="1" gradientTransform="matrix(0 -1.50391 1.80188 0 5.078 30.29)" gradientUnits="userSpaceOnUse"><stop stop-color="#978BFF"/><stop offset="1" stop-color="#7F72FF"/></radialGradient><radialGradient id="n" cx="0" cy="0" r="1" gradientTransform="rotate(131.934 7.53 13.991)scale(1.23921 1.1939)" gradientUnits="userSpaceOnUse"><stop stop-color="#5289C9"/><stop offset="1" stop-color="#5289C9" stop-opacity="0"/></radialGradient><radialGradient id="r" cx="0" cy="0" r="1" gradientTransform="matrix(0 -11.7907 .46968 0 27.228 27.367)" gradientUnits="userSpaceOnUse"><stop stop-color="#667295"/><stop offset="1" stop-color="#667295" stop-opacity="0"/></radialGradient><radialGradient id="t" cx="0" cy="0" r="1" gradientTransform="rotate(108.091 12.707 11.856)scale(6.31206 7.38492)" gradientUnits="userSpaceOnUse"><stop offset=".11" stop-color="#DDDBDE"/><stop offset="1" stop-color="#DDDBDE" stop-opacity="0"/></radialGradient><radialGradient id="z" cx="0" cy="0" r="1" gradientTransform="rotate(93.814 7.862 15.023)scale(2.34895 4.07743)" gradientUnits="userSpaceOnUse"><stop stop-color="#FFE96C"/><stop offset="1" stop-color="#FFD64C" stop-opacity="0"/></radialGradient><radialGradient id="A" cx="0" cy="0" r="1" gradientTransform="matrix(-3.3125 0 0 -3.28621 29.844 29.584)" gradientUnits="userSpaceOnUse"><stop stop-color="#FFE258"/><stop offset="1" stop-color="#FFAF33"/></radialGradient><radialGradient id="B" cx="0" cy="0" r="1" gradientTransform="matrix(0 -1.0918 1.28125 0 29.297 30.068)" gradientUnits="userSpaceOnUse"><stop stop-color="#FFD96D"/><stop offset="1" stop-color="#FFD96D" stop-opacity="0"/></radialGradient><radialGradient id="D" cx="0" cy="0" r="1" gradientTransform="rotate(-164.204 16.484 12.98)scale(3.60895)" gradientUnits="userSpaceOnUse"><stop offset=".615" stop-color="#D2852C" stop-opacity="0"/><stop offset=".981" stop-color="#884B45"/></radialGradient></defs></svg>