<svg width="100%" height="100%" viewBox="0 0 32 32" xmlns="http://www.w3.org/2000/svg"><path fill="#484749" d="M25.125 8.214c2.469 3.22 1.969 3.594 1.969 4.97l.843.767c1.925-2.025 1.282-4.237.782-5.05s-3.75-3.718-3.75-3.718c-.825 1.4-.188 2.656.156 3.031"/><path fill="url(#a)" d="M25.125 8.214c2.469 3.22 1.969 3.594 1.969 4.97l.843.767c1.925-2.025 1.282-4.237.782-5.05s-3.75-3.718-3.75-3.718c-.825 1.4-.188 2.656.156 3.031"/><g filter="url(#b)"><path fill="url(#c)" d="M24.943 5.228c-.012.705.308 1.773 2.01 3.461 1.985 1.97 1.358 3.491.62 4.93l.364.332c1.925-2.025 1.282-4.237.782-5.05s-3.75-3.718-3.75-3.718q-.015.022-.026.045"/></g><path fill="url(#d)" d="m17.499 21.43 3.04 2.28a2.4 2.4 0 0 1 .48 3.36l-2.24 2.99c-.12.15-.01.37.18.37h1.22c.2 0 .39-.09.52-.25l3.24-4.05c.36-.45.56-1.02.56-1.6v-4.1h-7z"/><path fill="url(#e)" d="m17.499 21.43 3.04 2.28a2.4 2.4 0 0 1 .48 3.36l-2.24 2.99c-.12.15-.01.37.18.37h1.22c.2 0 .39-.09.52-.25l3.24-4.05c.36-.45.56-1.02.56-1.6v-4.1h-7z"/><path fill="url(#f)" d="m17.499 21.43 3.04 2.28a2.4 2.4 0 0 1 .48 3.36l-2.24 2.99c-.12.15-.01.37.18.37h1.22c.2 0 .39-.09.52-.25l3.24-4.05c.36-.45.56-1.02.56-1.6v-4.1h-7z"/><path fill="url(#g)" d="m17.499 21.43 3.04 2.28a2.4 2.4 0 0 1 .48 3.36l-2.24 2.99c-.12.15-.01.37.18.37h1.22c.2 0 .39-.09.52-.25l3.24-4.05c.36-.45.56-1.02.56-1.6v-4.1h-7z"/><path fill="url(#h)" d="m17.499 21.43 3.04 2.28a2.4 2.4 0 0 1 .48 3.36l-2.24 2.99c-.12.15-.01.37.18.37h1.22c.2 0 .39-.09.52-.25l3.24-4.05c.36-.45.56-1.02.56-1.6v-4.1h-7z"/><path fill="url(#i)" d="M12.499 21.43v8.74c0 .14-.12.26-.26.26h-.55c-.11 0-.22-.08-.25-.19l-1.36-4.67c-.38-1.34-.58-2.74-.58-4.14v-2h3z"/><path fill="url(#j)" d="M12.499 21.43v8.74c0 .14-.12.26-.26.26h-.55c-.11 0-.22-.08-.25-.19l-1.36-4.67c-.38-1.34-.58-2.74-.58-4.14v-2h3z"/><path fill="url(#k)" d="M12.499 21.43v8.74c0 .14-.12.26-.26.26h-.55c-.11 0-.22-.08-.25-.19l-1.36-4.67c-.38-1.34-.58-2.74-.58-4.14v-2h3z"/><path fill="#3B3444" d="M12.499 27.46v-1h-2.15l.29 1z"/><path fill="#3E3745" d="M12.499 24.43v-1h-2.86c.05.34.1.67.17 1z"/><path fill="#5E5C61" d="M12.179 4.61C11.054 3.561 9.192 2.7 7.619 2.7c-1.39 0-2.69.53-3.7 1.35-.23.19-.24.55-.02.76l2.72 2.63.415-.054.395.394c.21-.18.49-.29.8-.31.47-.02.92.3 1.12.72.12.2.18.42.17.64-.02.4-.07.8-.13 1.2-.07.94-.19 1.87-.35 2.8h5.48v-3c0-1.77-.66-3.47-1.88-4.77a7 7 0 0 0-.46-.45"/><path fill="url(#l)" d="M12.179 4.61C11.054 3.561 9.192 2.7 7.619 2.7c-1.39 0-2.69.53-3.7 1.35-.23.19-.24.55-.02.76l2.72 2.63.415-.054.395.394c.21-.18.49-.29.8-.31.47-.02.92.3 1.12.72.12.2.18.42.17.64-.02.4-.07.8-.13 1.2-.07.94-.19 1.87-.35 2.8h5.48v-3c0-1.77-.66-3.47-1.88-4.77a7 7 0 0 0-.46-.45"/><path fill="url(#m)" d="M12.179 4.61C11.054 3.561 9.192 2.7 7.619 2.7c-1.39 0-2.69.53-3.7 1.35-.23.19-.24.55-.02.76l2.72 2.63.415-.054.395.394c.21-.18.49-.29.8-.31.47-.02.92.3 1.12.72.12.2.18.42.17.64-.02.4-.07.8-.13 1.2-.07.94-.19 1.87-.35 2.8h5.48v-3c0-1.77-.66-3.47-1.88-4.77a7 7 0 0 0-.46-.45"/><path fill="url(#n)" d="M24.499 12.43h-11.5a.5.5 0 0 1-.5-.5v-2.5a6 6 0 0 0-4.35-5.767c-.41-.117-.813-.266-1.166-.504L5.959 2.47a.312.312 0 0 0-.46.27c0 .878-.325 1.715-.923 2.359C3.468 6.294 1.76 8.13 1.76 8.13c-.22.25-.31.6-.23.94.15.68.84 1.01 1.48.75l3.146-1.271a.25.25 0 0 1 .344.232v7.649a5 5 0 0 0 4.75 4.994c.138.007.25.118.252.256.022 1.316.221 2.63.588 3.89l1.36 4.67c.03.11.13.19.25.19h.55c.14 0 .26-.12.26-.26v-8.34c0-.22.179-.4.4-.4h6.95c.43 0 .84.14 1.18.39l2.52 1.89a2.4 2.4 0 0 1 .48 3.36l-2.24 2.99c-.14.15-.03.37.16.37h1.22c.2 0 .39-.09.52-.25l3.24-4.05c.36-.45.56-1.02.56-1.6v-7.1c0-2.76-2.24-5-5-5"/><path fill="url(#o)" d="M24.499 12.43h-11.5a.5.5 0 0 1-.5-.5v-2.5a6 6 0 0 0-4.35-5.767c-.41-.117-.813-.266-1.166-.504L5.959 2.47a.312.312 0 0 0-.46.27c0 .878-.325 1.715-.923 2.359C3.468 6.294 1.76 8.13 1.76 8.13c-.22.25-.31.6-.23.94.15.68.84 1.01 1.48.75l3.146-1.271a.25.25 0 0 1 .344.232v7.649a5 5 0 0 0 4.75 4.994c.138.007.25.118.252.256.022 1.316.221 2.63.588 3.89l1.36 4.67c.03.11.13.19.25.19h.55c.14 0 .26-.12.26-.26v-8.34c0-.22.179-.4.4-.4h6.95c.43 0 .84.14 1.18.39l2.52 1.89a2.4 2.4 0 0 1 .48 3.36l-2.24 2.99c-.14.15-.03.37.16.37h1.22c.2 0 .39-.09.52-.25l3.24-4.05c.36-.45.56-1.02.56-1.6v-7.1c0-2.76-2.24-5-5-5"/><path fill="url(#p)" d="M24.499 12.43h-11.5a.5.5 0 0 1-.5-.5v-2.5a6 6 0 0 0-4.35-5.767c-.41-.117-.813-.266-1.166-.504L5.959 2.47a.312.312 0 0 0-.46.27c0 .878-.325 1.715-.923 2.359C3.468 6.294 1.76 8.13 1.76 8.13c-.22.25-.31.6-.23.94.15.68.84 1.01 1.48.75l3.146-1.271a.25.25 0 0 1 .344.232v7.649a5 5 0 0 0 4.75 4.994c.138.007.25.118.252.256.022 1.316.221 2.63.588 3.89l1.36 4.67c.03.11.13.19.25.19h.55c.14 0 .26-.12.26-.26v-8.34c0-.22.179-.4.4-.4h6.95c.43 0 .84.14 1.18.39l2.52 1.89a2.4 2.4 0 0 1 .48 3.36l-2.24 2.99c-.14.15-.03.37.16.37h1.22c.2 0 .39-.09.52-.25l3.24-4.05c.36-.45.56-1.02.56-1.6v-7.1c0-2.76-2.24-5-5-5"/><path fill="url(#q)" d="M24.499 12.43h-11.5a.5.5 0 0 1-.5-.5v-2.5a6 6 0 0 0-4.35-5.767c-.41-.117-.813-.266-1.166-.504L5.959 2.47a.312.312 0 0 0-.46.27c0 .878-.325 1.715-.923 2.359C3.468 6.294 1.76 8.13 1.76 8.13c-.22.25-.31.6-.23.94.15.68.84 1.01 1.48.75l3.146-1.271a.25.25 0 0 1 .344.232v7.649a5 5 0 0 0 4.75 4.994c.138.007.25.118.252.256.022 1.316.221 2.63.588 3.89l1.36 4.67c.03.11.13.19.25.19h.55c.14 0 .26-.12.26-.26v-8.34c0-.22.179-.4.4-.4h6.95c.43 0 .84.14 1.18.39l2.52 1.89a2.4 2.4 0 0 1 .48 3.36l-2.24 2.99c-.14.15-.03.37.16.37h1.22c.2 0 .39-.09.52-.25l3.24-4.05c.36-.45.56-1.02.56-1.6v-7.1c0-2.76-2.24-5-5-5"/><path fill="url(#r)" d="M24.499 12.43h-11.5a.5.5 0 0 1-.5-.5v-2.5a6 6 0 0 0-4.35-5.767c-.41-.117-.813-.266-1.166-.504L5.959 2.47a.312.312 0 0 0-.46.27c0 .878-.325 1.715-.923 2.359C3.468 6.294 1.76 8.13 1.76 8.13c-.22.25-.31.6-.23.94.15.68.84 1.01 1.48.75l3.146-1.271a.25.25 0 0 1 .344.232v7.649a5 5 0 0 0 4.75 4.994c.138.007.25.118.252.256.022 1.316.221 2.63.588 3.89l1.36 4.67c.03.11.13.19.25.19h.55c.14 0 .26-.12.26-.26v-8.34c0-.22.179-.4.4-.4h6.95c.43 0 .84.14 1.18.39l2.52 1.89a2.4 2.4 0 0 1 .48 3.36l-2.24 2.99c-.14.15-.03.37.16.37h1.22c.2 0 .39-.09.52-.25l3.24-4.05c.36-.45.56-1.02.56-1.6v-7.1c0-2.76-2.24-5-5-5"/><path fill="url(#s)" d="M24.499 12.43h-11.5a.5.5 0 0 1-.5-.5v-2.5a6 6 0 0 0-4.35-5.767c-.41-.117-.813-.266-1.166-.504L5.959 2.47a.312.312 0 0 0-.46.27c0 .878-.325 1.715-.923 2.359C3.468 6.294 1.76 8.13 1.76 8.13c-.22.25-.31.6-.23.94.15.68.84 1.01 1.48.75l3.146-1.271a.25.25 0 0 1 .344.232v7.649a5 5 0 0 0 4.75 4.994c.138.007.25.118.252.256.022 1.316.221 2.63.588 3.89l1.36 4.67c.03.11.13.19.25.19h.55c.14 0 .26-.12.26-.26v-8.34c0-.22.179-.4.4-.4h6.95c.43 0 .84.14 1.18.39l2.52 1.89a2.4 2.4 0 0 1 .48 3.36l-2.24 2.99c-.14.15-.03.37.16.37h1.22c.2 0 .39-.09.52-.25l3.24-4.05c.36-.45.56-1.02.56-1.6v-7.1c0-2.76-2.24-5-5-5"/><path fill="url(#t)" d="M24.499 12.43h-11.5a.5.5 0 0 1-.5-.5v-2.5a6 6 0 0 0-4.35-5.767c-.41-.117-.813-.266-1.166-.504L5.959 2.47a.312.312 0 0 0-.46.27c0 .878-.325 1.715-.923 2.359C3.468 6.294 1.76 8.13 1.76 8.13c-.22.25-.31.6-.23.94.15.68.84 1.01 1.48.75l3.146-1.271a.25.25 0 0 1 .344.232v7.649a5 5 0 0 0 4.75 4.994c.138.007.25.118.252.256.022 1.316.221 2.63.588 3.89l1.36 4.67c.03.11.13.19.25.19h.55c.14 0 .26-.12.26-.26v-8.34c0-.22.179-.4.4-.4h6.95c.43 0 .84.14 1.18.39l2.52 1.89a2.4 2.4 0 0 1 .48 3.36l-2.24 2.99c-.14.15-.03.37.16.37h1.22c.2 0 .39-.09.52-.25l3.24-4.05c.36-.45.56-1.02.56-1.6v-7.1c0-2.76-2.24-5-5-5"/><path fill="url(#u)" d="M24.499 12.43h-11.5a.5.5 0 0 1-.5-.5v-2.5a6 6 0 0 0-4.35-5.767c-.41-.117-.813-.266-1.166-.504L5.959 2.47a.312.312 0 0 0-.46.27c0 .878-.325 1.715-.923 2.359C3.468 6.294 1.76 8.13 1.76 8.13c-.22.25-.31.6-.23.94.15.68.84 1.01 1.48.75l3.146-1.271a.25.25 0 0 1 .344.232v7.649a5 5 0 0 0 4.75 4.994c.138.007.25.118.252.256.022 1.316.221 2.63.588 3.89l1.36 4.67c.03.11.13.19.25.19h.55c.14 0 .26-.12.26-.26v-8.34c0-.22.179-.4.4-.4h6.95c.43 0 .84.14 1.18.39l2.52 1.89a2.4 2.4 0 0 1 .48 3.36l-2.24 2.99c-.14.15-.03.37.16.37h1.22c.2 0 .39-.09.52-.25l3.24-4.05c.36-.45.56-1.02.56-1.6v-7.1c0-2.76-2.24-5-5-5"/><path fill="url(#v)" d="M24.499 12.43h-11.5a.5.5 0 0 1-.5-.5v-2.5a6 6 0 0 0-4.35-5.767c-.41-.117-.813-.266-1.166-.504L5.959 2.47a.312.312 0 0 0-.46.27c0 .878-.325 1.715-.923 2.359C3.468 6.294 1.76 8.13 1.76 8.13c-.22.25-.31.6-.23.94.15.68.84 1.01 1.48.75l3.146-1.271a.25.25 0 0 1 .344.232v7.649a5 5 0 0 0 4.75 4.994c.138.007.25.118.252.256.022 1.316.221 2.63.588 3.89l1.36 4.67c.03.11.13.19.25.19h.55c.14 0 .26-.12.26-.26v-8.34c0-.22.179-.4.4-.4h6.95c.43 0 .84.14 1.18.39l2.52 1.89a2.4 2.4 0 0 1 .48 3.36l-2.24 2.99c-.14.15-.03.37.16.37h1.22c.2 0 .39-.09.52-.25l3.24-4.05c.36-.45.56-1.02.56-1.6v-7.1c0-2.76-2.24-5-5-5"/><g filter="url(#w)"><path stroke="#EBEAEC" stroke-width=".75" d="M13.34 13.614h10.82a4.216 4.216 0 0 1 4.215 4.215v7.16"/></g><path fill="url(#x)" d="M12.094 25.57c-.39-1.34-.594-2.74-.594-4.14 0-.704.953-.905 1.5-.905s1.516.211 1.516 1.227v8.418a.27.27 0 0 1-.266.26h-.547c-.12 0-.22-.08-.25-.19z"/><path fill="url(#y)" d="M12.094 25.57c-.39-1.34-.594-2.74-.594-4.14 0-.704.953-.905 1.5-.905s1.516.211 1.516 1.227v8.418a.27.27 0 0 1-.266.26h-.547c-.12 0-.22-.08-.25-.19z"/><path fill="url(#z)" d="M12.094 25.57c-.39-1.34-.594-2.74-.594-4.14 0-.704.953-.905 1.5-.905s1.516.211 1.516 1.227v8.418a.27.27 0 0 1-.266.26h-.547c-.12 0-.22-.08-.25-.19z"/><path fill="url(#A)" d="M12.499 12.43v-3a6 6 0 0 0-4.35-5.767c-.41-.117-.813-.266-1.166-.504L5.959 2.47a.312.312 0 0 0-.46.27c0 .878-.325 1.715-.923 2.359C3.468 6.294 1.76 8.13 1.76 8.13c-.22.25-.31.6-.23.94.15.68.84 1.01 1.48.75l3.146-1.271a.25.25 0 0 1 .344.232v7.649c0 1.137.225 2.065 1.02 3.026C9.75 16.43 11 14.87 12.499 12.43"/><path fill="url(#B)" d="M12.499 12.43v-3a6 6 0 0 0-4.35-5.767c-.41-.117-.813-.266-1.166-.504L5.959 2.47a.312.312 0 0 0-.46.27c0 .878-.325 1.715-.923 2.359C3.468 6.294 1.76 8.13 1.76 8.13c-.22.25-.31.6-.23.94.15.68.84 1.01 1.48.75l3.146-1.271a.25.25 0 0 1 .344.232v7.649c0 1.137.225 2.065 1.02 3.026C9.75 16.43 11 14.87 12.499 12.43"/><path fill="url(#C)" d="M12.499 12.43v-3a6 6 0 0 0-4.35-5.767c-.41-.117-.813-.266-1.166-.504L5.959 2.47a.312.312 0 0 0-.46.27c0 .878-.325 1.715-.923 2.359C3.468 6.294 1.76 8.13 1.76 8.13c-.22.25-.31.6-.23.94.15.68.84 1.01 1.48.75l3.146-1.271a.25.25 0 0 1 .344.232v7.649c0 1.137.225 2.065 1.02 3.026C9.75 16.43 11 14.87 12.499 12.43"/><path fill="#636363" d="m21.829 28.76-1.19-1.19-.6.81 1.16 1.17zM21.179 24.43c.18.3.28.64.31 1h2.85c.11-.29.16-.59.16-.9v-.1z"/><path fill="url(#D)" d="M7.529 3.447V4.73a.8.8 0 0 1-.244.576.5.5 0 1 0 .707.708A1.8 1.8 0 0 0 8.53 4.73v-.946c-.322-.115-.638-.185-1-.337"/><path fill="#6F6E70" fill-rule="evenodd" d="M9.249 4.098V5.75c0 .886.714 1.6 1.6 1.6h1.279q-.195-.526-.48-1h-.8a.597.597 0 0 1-.6-.6V4.747a6 6 0 0 0-1-.65" clip-rule="evenodd"/><path fill="url(#E)" d="m6.499 11.34.2-.26c.52-.71 1.36-1.13 2.24-1.13h3.56v-.52a6 6 0 0 0-.02-.48H8.93c-.9 0-1.76.32-2.43.89z"/><path fill="url(#F)" d="M12.499 11.93c0 .191.138.455.45.5h-1.76c-.2 0-.37.1-.48.26-.1.17-.12.36-.04.54l1.28 2.89c.31.69.99 1.13 1.74 1.13h4.49a3 3 0 0 0 2.37-1.14l2.93-3.68h1.037q.067 0 .136.002.05.002.097.008l-3.42 4.29a4 4 0 0 1-3.15 1.52h-4.49c-1.14 0-2.19-.68-2.65-1.73l-1.28-2.89c-.21-.49-.17-1.04.12-1.49.29-.44.78-.71 1.31-.71h1.31z"/><path fill="url(#G)" d="m20.019 12.43-1.83 2.25c-.17.21-.42.33-.69.33-.49 0-.89-.4-.89-.89v-1.69h-1v1.68c0 1.04.85 1.89 1.89 1.89.57 0 1.1-.25 1.46-.7l2.35-2.87z"/><path fill="url(#H)" d="m26.529 12.86-6.62 8.57h1.26l6.23-8.06c-.26-.2-.56-.37-.87-.51"/><path fill="url(#I)" d="M29.499 19.19h-2.5c-.21 0-.31-.15-.34-.21a.37.37 0 0 1 .04-.4l2.38-3.15c-.15-.33-.33-.65-.54-.94l-2.64 3.5c-.32.42-.37.97-.13 1.45.23.47.71.76 1.23.76h2.5z"/><path fill="url(#J)" d="M29.499 22.23h-5.917l1.34 1h4.577z"/><path fill="url(#K)" d="m26.199 26.79 3.12-1.32c.12-.3.18-.62.18-.94v-.22l-3 1.27v.05c0 .41-.1.8-.3 1.16"/><path fill="url(#L)" d="M27.079 28.46h-2.1l-.75 1h2.05z"/><path fill="url(#M)" d="M9.699 18.69c.33-.49.4-1.1.19-1.65l-.89-2.3c-.19-.49-.66-.81-1.18-.81h-1.32v1h1.32c.11 0 .21.07.25.17l.89 2.3c.09.24.06.51-.08.72-.15.22-.38.35-.65.35h-1.3c.16.36.36.69.59 1h.71c.59 0 1.14-.29 1.47-.78"/><path fill="#5B5660" d="M14.516 27.46v-1h-2.15l.29 1z"/><path fill="#646169" d="M14.499 24.43v-1h-2.86c.05.34.1.67.17 1z"/><path fill="url(#N)" d="M2.319 7.53c-.34.36-.56.6-.56.6-.22.25-.31.6-.23.94.15.68.84 1.01 1.48.75l.77-.31z"/><path fill="url(#O)" d="m21.829 28.76-1.19-1.19-.6.81 1.16 1.17z"/><path fill="url(#P)" d="M21.179 24.43c.18.3.28.64.31 1h2.85c.11-.29.16-.59.16-.9v-.1z"/><g filter="url(#Q)"><ellipse cx="4.871" cy="7.033" fill="#9E99A3" rx=".433" ry=".497" transform="rotate(49.457 4.871 7.033)"/></g><circle cx="5" cy="6.933" r=".5" fill="url(#R)"/><g filter="url(#S)"><path stroke="#7B7A7C" stroke-width=".15" d="M8.719 3.267c3.625 1.297 5.687 3.625 5.25 8.876"/></g><g filter="url(#T)"><path stroke="#EBEAEC" stroke-linecap="round" stroke-width=".3" d="M11.639 20.94c.443-.313 1.603-.75 2.703 0"/></g><g filter="url(#U)"><path stroke="#EBEAEC" stroke-linecap="round" stroke-width=".2" d="M13.938 21.002v8.437"/></g><g filter="url(#V)"><path fill="url(#W)" d="m6.781 4.97-.875-2.218 1.36 1.015z"/></g><defs><linearGradient id="d" x1="20.999" x2="20.999" y1="17.596" y2="30.999" gradientUnits="userSpaceOnUse"><stop stop-color="#69587A"/><stop offset="1" stop-color="#BEB4C8"/></linearGradient><linearGradient id="e" x1="23.188" x2="21.246" y1="20.002" y2="22.272" gradientUnits="userSpaceOnUse"><stop stop-color="#5C4C6B"/><stop offset="1" stop-color="#5C4C6B" stop-opacity="0"/></linearGradient><linearGradient id="f" x1="20.999" x2="20.999" y1="20.127" y2="22.533" gradientUnits="userSpaceOnUse"><stop stop-color="#5C4C6B"/><stop offset="1" stop-color="#5C4C6B" stop-opacity="0"/></linearGradient><linearGradient id="h" x1="21.438" x2="21.438" y1="31.939" y2="26.502" gradientUnits="userSpaceOnUse"><stop offset=".149" stop-color="#896BA4"/><stop offset=".425" stop-color="#9179A7" stop-opacity="0"/></linearGradient><linearGradient id="i" x1="13.875" x2="10.999" y1="21.283" y2="31.056" gradientUnits="userSpaceOnUse"><stop stop-color="#69587A"/><stop offset="1" stop-color="#BEB4C8"/></linearGradient><linearGradient id="j" x1="13.688" x2="11.5" y1="28.096" y2="28.096" gradientUnits="userSpaceOnUse"><stop stop-color="#69587A"/><stop offset="1" stop-color="#69587A" stop-opacity="0"/></linearGradient><linearGradient id="k" x1="11.187" x2="11.187" y1="32.09" y2="26.109" gradientUnits="userSpaceOnUse"><stop offset=".149" stop-color="#896BA4"/><stop offset=".425" stop-color="#9179A7" stop-opacity="0"/></linearGradient><linearGradient id="n" x1="15.499" x2="15.499" y1="2.433" y2="39.721" gradientUnits="userSpaceOnUse"><stop stop-color="#CBCACD"/><stop offset="1" stop-color="#BCB2C8"/></linearGradient><linearGradient id="p" x1="16.188" x2="27.75" y1="20.158" y2="19.783" gradientUnits="userSpaceOnUse"><stop stop-color="#CBCACD" stop-opacity="0"/><stop offset="1" stop-color="#BCB2C8"/></linearGradient><linearGradient id="s" x1="17.254" x2="17.254" y1="34.656" y2="19.433" gradientUnits="userSpaceOnUse"><stop offset=".149" stop-color="#896BA4"/><stop offset=".185" stop-color="#896BA4"/><stop offset=".349" stop-color="#9179A7" stop-opacity="0"/></linearGradient><linearGradient id="u" x1="21.625" x2="27.75" y1="19.783" y2="19.783" gradientUnits="userSpaceOnUse"><stop stop-color="#CBCACD" stop-opacity="0"/><stop offset="1" stop-color="#DDD5E6"/></linearGradient><linearGradient id="x" x1="14.516" x2="11.5" y1="23.933" y2="24.533" gradientUnits="userSpaceOnUse"><stop stop-color="#D4CDDC"/><stop offset="1" stop-color="#A8A0B1"/></linearGradient><linearGradient id="y" x1="13.197" x2="13.197" y1="32.033" y2="26.539" gradientUnits="userSpaceOnUse"><stop offset=".149" stop-color="#896BA4"/><stop offset=".425" stop-color="#9179A7" stop-opacity="0"/></linearGradient><linearGradient id="z" x1="13.008" x2="13.008" y1="19.721" y2="21.971" gradientUnits="userSpaceOnUse"><stop stop-color="#9279A9"/><stop offset="1" stop-color="#9279A9" stop-opacity="0"/></linearGradient><linearGradient id="A" x1="8.188" x2="12.499" y1="10.408" y2="7.846" gradientUnits="userSpaceOnUse"><stop stop-color="#E6E6E6" stop-opacity="0"/><stop offset=".894" stop-color="#E6E6E6"/></linearGradient><linearGradient id="D" x1="7.834" x2="7.834" y1="4.221" y2="7.096" gradientUnits="userSpaceOnUse"><stop stop-color="#696869"/><stop offset="1" stop-color="#58545B"/></linearGradient><linearGradient id="E" x1="11.5" x2="6.063" y1="11.34" y2="11.34" gradientUnits="userSpaceOnUse"><stop stop-color="#636363"/><stop offset="1" stop-color="#4B494E"/></linearGradient><linearGradient id="F" x1="13.563" x2="19.875" y1="11.43" y2="17.221" gradientUnits="userSpaceOnUse"><stop stop-color="#69676C"/><stop offset="1" stop-color="#5F5D61"/></linearGradient><linearGradient id="G" x1="18.459" x2="18.459" y1="12.43" y2="16.533" gradientUnits="userSpaceOnUse"><stop stop-color="#5F5F5F"/><stop offset="1" stop-color="#605867"/></linearGradient><linearGradient id="H" x1="27.75" x2="22.75" y1="13.346" y2="21.43" gradientUnits="userSpaceOnUse"><stop stop-color="#686869"/><stop offset="1" stop-color="#58535D"/></linearGradient><linearGradient id="I" x1="30" x2="26.625" y1="15.721" y2="20.2" gradientUnits="userSpaceOnUse"><stop stop-color="#747375"/><stop offset="1" stop-color="#5D5961"/></linearGradient><linearGradient id="J" x1="31.313" x2="24.063" y1="23.23" y2="23.23" gradientUnits="userSpaceOnUse"><stop stop-color="#6C6A6E"/><stop offset="1" stop-color="#453A50"/></linearGradient><linearGradient id="K" x1="29.938" x2="26.938" y1="24.31" y2="26.283" gradientUnits="userSpaceOnUse"><stop stop-color="#666369"/><stop offset="1" stop-color="#524D58"/></linearGradient><linearGradient id="L" x1="24.609" x2="26.594" y1="29.46" y2="29.46" gradientUnits="userSpaceOnUse"><stop stop-color="#5D5763"/><stop offset="1" stop-color="#56515A"/></linearGradient><linearGradient id="M" x1="8.253" x2="8.253" y1="15.564" y2="19.47" gradientUnits="userSpaceOnUse"><stop stop-color="#545158"/><stop offset="1" stop-color="#4E4854"/></linearGradient><linearGradient id="N" x1="2.063" x2="2.953" y1="8.377" y2="10.111" gradientUnits="userSpaceOnUse"><stop stop-color="#595959"/><stop offset="1" stop-color="#493D55"/></linearGradient><linearGradient id="O" x1="20.422" x2="21.5" y1="28.299" y2="29.252" gradientUnits="userSpaceOnUse"><stop stop-color="#4C4653"/><stop offset="1" stop-color="#413C47"/></linearGradient><linearGradient id="P" x1="20.5" x2="24.499" y1="25.43" y2="25.43" gradientUnits="userSpaceOnUse"><stop stop-color="#4C4653"/><stop offset="1" stop-color="#413C47"/></linearGradient><linearGradient id="W" x1="6.344" x2="7.469" y1="2.533" y2="4.596" gradientUnits="userSpaceOnUse"><stop stop-color="#E2E1E3"/><stop offset="1" stop-color="#E2E1E3" stop-opacity="0"/></linearGradient><radialGradient id="a" cx="0" cy="0" r="1" gradientTransform="matrix(3.22261 -1.96875 4.92126 8.05551 26.016 10.252)" gradientUnits="userSpaceOnUse"><stop offset=".536" stop-color="#7D7C7E" stop-opacity="0"/><stop offset="1" stop-color="#7D7C7E"/></radialGradient><radialGradient id="c" cx="0" cy="0" r="1" gradientTransform="matrix(2.582 -1.4375 2.04211 3.66797 26.656 10.283)" gradientUnits="userSpaceOnUse"><stop stop-color="#C3BDC9"/><stop offset="1" stop-color="#7D7C7E" stop-opacity="0"/></radialGradient><radialGradient id="g" cx="0" cy="0" r="1" gradientTransform="matrix(1.48438 -1.64063 3.29557 2.9817 18.094 23.846)" gradientUnits="userSpaceOnUse"><stop offset=".373" stop-color="#6E4694"/><stop offset="1" stop-color="#8152AC" stop-opacity="0"/></radialGradient><radialGradient id="l" cx="0" cy="0" r="1" gradientTransform="matrix(-.76563 .64062 -.73393 -.87714 12.938 11.846)" gradientUnits="userSpaceOnUse"><stop stop-color="#555456"/><stop offset="1" stop-color="#555456" stop-opacity="0"/></radialGradient><radialGradient id="m" cx="0" cy="0" r="1" gradientTransform="matrix(-1.99219 .53906 -.42878 -1.58461 5.969 3.752)" gradientUnits="userSpaceOnUse"><stop offset=".139" stop-color="#444246"/><stop offset="1" stop-color="#444246" stop-opacity="0"/></radialGradient><radialGradient id="o" cx="0" cy="0" r="1" gradientTransform="rotate(114.087 3.629 10.765)scale(11.6384 18.2254)" gradientUnits="userSpaceOnUse"><stop offset=".669" stop-color="#9179A7" stop-opacity="0"/><stop offset=".931" stop-color="#896BA4"/></radialGradient><radialGradient id="q" cx="0" cy="0" r="1" gradientTransform="matrix(0 -6.72652 20.1875 0 16.938 23.158)" gradientUnits="userSpaceOnUse"><stop offset=".204" stop-color="#896BA4"/><stop offset=".697" stop-color="#9179A7" stop-opacity="0"/></radialGradient><radialGradient id="r" cx="0" cy="0" r="1" gradientTransform="matrix(2.8125 -5.03124 5.7643 3.22229 24.813 23.94)" gradientUnits="userSpaceOnUse"><stop stop-color="#896BA4"/><stop offset=".574" stop-color="#9179A7" stop-opacity="0"/></radialGradient><radialGradient id="t" cx="0" cy="0" r="1" gradientTransform="rotate(44.318 -4.222 5.566)scale(3.71257 6.63102)" gradientUnits="userSpaceOnUse"><stop stop-color="#B2B1B3"/><stop offset="1" stop-color="#B2B1B3" stop-opacity="0"/></radialGradient><radialGradient id="v" cx="0" cy="0" r="1" gradientTransform="matrix(-1.06252 4 -9.2506 -2.45725 24.75 12.908)" gradientUnits="userSpaceOnUse"><stop stop-color="#DDD5E6"/><stop offset=".619" stop-color="#CBCACD" stop-opacity="0"/></radialGradient><radialGradient id="B" cx="0" cy="0" r="1" gradientTransform="matrix(6 -11.18751 7.94516 4.26109 2.625 17.72)" gradientUnits="userSpaceOnUse"><stop offset=".347" stop-color="#AFA9B6"/><stop offset=".881" stop-color="#AFA9B6" stop-opacity="0"/></radialGradient><radialGradient id="C" cx="0" cy="0" r="1" gradientTransform="matrix(2.9375 -4.3125 2.85757 1.94646 4.281 11.47)" gradientUnits="userSpaceOnUse"><stop offset=".188" stop-color="#896BA4"/><stop offset=".881" stop-color="#9179A7" stop-opacity="0"/></radialGradient><radialGradient id="R" cx="0" cy="0" r="1" gradientTransform="rotate(118.125 .56 4.95)scale(.72923 .63463)" gradientUnits="userSpaceOnUse"><stop stop-color="#605255"/><stop offset="1" stop-color="#3C273A"/></radialGradient><filter id="b" width="5.296" height="9.768" x="24.442" y="4.683" color-interpolation-filters="sRGB" filterUnits="userSpaceOnUse"><feFlood flood-opacity="0" result="BackgroundImageFix"/><feBlend in="SourceGraphic" in2="BackgroundImageFix" result="shape"/><feGaussianBlur result="effect1_foregroundBlur_28327_2572" stdDeviation=".25"/></filter><filter id="w" width="18.41" height="14.75" x="11.84" y="11.739" color-interpolation-filters="sRGB" filterUnits="userSpaceOnUse"><feFlood flood-opacity="0" result="BackgroundImageFix"/><feBlend in="SourceGraphic" in2="BackgroundImageFix" result="shape"/><feGaussianBlur result="effect1_foregroundBlur_28327_2572" stdDeviation=".75"/></filter><filter id="Q" width="1.442" height="1.422" x="4.15" y="6.322" color-interpolation-filters="sRGB" filterUnits="userSpaceOnUse"><feFlood flood-opacity="0" result="BackgroundImageFix"/><feBlend in="SourceGraphic" in2="BackgroundImageFix" result="shape"/><feGaussianBlur result="effect1_foregroundBlur_28327_2572" stdDeviation=".125"/></filter><filter id="S" width="6.208" height="9.752" x="8.293" y="2.797" color-interpolation-filters="sRGB" filterUnits="userSpaceOnUse"><feFlood flood-opacity="0" result="BackgroundImageFix"/><feBlend in="SourceGraphic" in2="BackgroundImageFix" result="shape"/><feGaussianBlur result="effect1_foregroundBlur_28327_2572" stdDeviation=".2"/></filter><filter id="T" width="5.003" height="2.714" x="10.489" y="19.375" color-interpolation-filters="sRGB" filterUnits="userSpaceOnUse"><feFlood flood-opacity="0" result="BackgroundImageFix"/><feBlend in="SourceGraphic" in2="BackgroundImageFix" result="shape"/><feGaussianBlur result="effect1_foregroundBlur_28327_2572" stdDeviation=".5"/></filter><filter id="U" width="1.6" height="10.037" x="13.137" y="20.202" color-interpolation-filters="sRGB" filterUnits="userSpaceOnUse"><feFlood flood-opacity="0" result="BackgroundImageFix"/><feBlend in="SourceGraphic" in2="BackgroundImageFix" result="shape"/><feGaussianBlur result="effect1_foregroundBlur_28327_2572" stdDeviation=".35"/></filter><filter id="V" width="1.959" height="2.819" x="5.606" y="2.452" color-interpolation-filters="sRGB" filterUnits="userSpaceOnUse"><feFlood flood-opacity="0" result="BackgroundImageFix"/><feBlend in="SourceGraphic" in2="BackgroundImageFix" result="shape"/><feGaussianBlur result="effect1_foregroundBlur_28327_2572" stdDeviation=".15"/></filter></defs></svg>
<svg width="100%" height="100%" viewBox="0 0 32 32" fill="none" xmlns="http://www.w3.org/2000/svg">
<path d="M25.125 8.21442C27.5938 11.4332 27.0938 11.8082 27.0938 13.1832L27.9375 13.9511C29.8625 11.9261 29.2188 9.71442 28.7188 8.90192C28.2188 8.08942 24.9688 5.18317 24.9688 5.18317C24.1438 6.58317 24.7813 7.83942 25.125 8.21442Z" fill="#484749"/>
<path d="M25.125 8.21442C27.5938 11.4332 27.0938 11.8082 27.0938 13.1832L27.9375 13.9511C29.8625 11.9261 29.2188 9.71442 28.7188 8.90192C28.2188 8.08942 24.9688 5.18317 24.9688 5.18317C24.1438 6.58317 24.7813 7.83942 25.125 8.21442Z" fill="url(#paint0_radial_28327_2572)"/>
<g filter="url(#filter0_f_28327_2572)">
<path d="M24.9428 5.22811C24.9308 5.93348 25.2512 7.00086 26.9531 8.68935C28.9375 10.6581 28.3109 12.1803 27.5737 13.6199L27.9375 13.9511C29.8625 11.9261 29.2188 9.71442 28.7188 8.90192C28.2188 8.08942 24.9688 5.18317 24.9688 5.18317C24.9599 5.19816 24.9513 5.21315 24.9428 5.22811Z" fill="url(#paint1_radial_28327_2572)"/>
</g>
<path d="M17.4988 21.43L20.5388 23.71C21.1388 24.16 21.4988 24.87 21.4988 25.63C21.4988 26.15 21.3288 26.65 21.0188 27.07L18.7788 30.06C18.6588 30.21 18.7688 30.43 18.9588 30.43H20.1788C20.3788 30.43 20.5688 30.34 20.6988 30.18L23.9388 26.13C24.2988 25.68 24.4988 25.11 24.4988 24.53V20.43H17.4988V21.43Z" fill="url(#paint2_linear_28327_2572)"/>
<path d="M17.4988 21.43L20.5388 23.71C21.1388 24.16 21.4988 24.87 21.4988 25.63C21.4988 26.15 21.3288 26.65 21.0188 27.07L18.7788 30.06C18.6588 30.21 18.7688 30.43 18.9588 30.43H20.1788C20.3788 30.43 20.5688 30.34 20.6988 30.18L23.9388 26.13C24.2988 25.68 24.4988 25.11 24.4988 24.53V20.43H17.4988V21.43Z" fill="url(#paint3_linear_28327_2572)"/>
<path d="M17.4988 21.43L20.5388 23.71C21.1388 24.16 21.4988 24.87 21.4988 25.63C21.4988 26.15 21.3288 26.65 21.0188 27.07L18.7788 30.06C18.6588 30.21 18.7688 30.43 18.9588 30.43H20.1788C20.3788 30.43 20.5688 30.34 20.6988 30.18L23.9388 26.13C24.2988 25.68 24.4988 25.11 24.4988 24.53V20.43H17.4988V21.43Z" fill="url(#paint4_linear_28327_2572)"/>
<path d="M17.4988 21.43L20.5388 23.71C21.1388 24.16 21.4988 24.87 21.4988 25.63C21.4988 26.15 21.3288 26.65 21.0188 27.07L18.7788 30.06C18.6588 30.21 18.7688 30.43 18.9588 30.43H20.1788C20.3788 30.43 20.5688 30.34 20.6988 30.18L23.9388 26.13C24.2988 25.68 24.4988 25.11 24.4988 24.53V20.43H17.4988V21.43Z" fill="url(#paint5_radial_28327_2572)"/>
<path d="M17.4988 21.43L20.5388 23.71C21.1388 24.16 21.4988 24.87 21.4988 25.63C21.4988 26.15 21.3288 26.65 21.0188 27.07L18.7788 30.06C18.6588 30.21 18.7688 30.43 18.9588 30.43H20.1788C20.3788 30.43 20.5688 30.34 20.6988 30.18L23.9388 26.13C24.2988 25.68 24.4988 25.11 24.4988 24.53V20.43H17.4988V21.43Z" fill="url(#paint6_linear_28327_2572)"/>
<path d="M12.4988 21.43V30.17C12.4988 30.31 12.3788 30.43 12.2388 30.43H11.6888C11.5788 30.43 11.4688 30.35 11.4388 30.24L10.0788 25.57C9.69878 24.23 9.49878 22.83 9.49878 21.43V19.43H12.4988V21.43Z" fill="url(#paint7_linear_28327_2572)"/>
<path d="M12.4988 21.43V30.17C12.4988 30.31 12.3788 30.43 12.2388 30.43H11.6888C11.5788 30.43 11.4688 30.35 11.4388 30.24L10.0788 25.57C9.69878 24.23 9.49878 22.83 9.49878 21.43V19.43H12.4988V21.43Z" fill="url(#paint8_linear_28327_2572)"/>
<path d="M12.4988 21.43V30.17C12.4988 30.31 12.3788 30.43 12.2388 30.43H11.6888C11.5788 30.43 11.4688 30.35 11.4388 30.24L10.0788 25.57C9.69878 24.23 9.49878 22.83 9.49878 21.43V19.43H12.4988V21.43Z" fill="url(#paint9_linear_28327_2572)"/>
<path d="M12.4988 27.46V26.46H10.3488L10.6388 27.46H12.4988Z" fill="#3B3444"/>
<path d="M12.4988 24.43V23.43H9.63879C9.68879 23.77 9.73879 24.1 9.80879 24.43H12.4988Z" fill="#3E3745"/>
<path d="M12.179 4.60922C11.0541 3.56204 9.19217 2.70001 7.61881 2.70001C6.22881 2.70001 4.92881 3.23001 3.91881 4.05001C3.68881 4.24001 3.67881 4.60001 3.89881 4.81001L6.61881 7.44001C6.75733 7.4222 6.89586 7.404 7.03438 7.38564L7.42876 7.78002C7.63876 7.60002 7.91876 7.49002 8.22876 7.47002C8.69876 7.45002 9.14876 7.77002 9.34876 8.19002C9.46876 8.39002 9.52876 8.61002 9.51876 8.83002C9.49876 9.23002 9.44876 9.63002 9.38876 10.03C9.31876 10.97 9.19876 11.9 9.03876 12.83H14.5188V9.83002C14.5188 8.06002 13.8588 6.36002 12.6388 5.06002C12.4918 4.90201 12.3384 4.75166 12.179 4.60922Z" fill="#5E5C61"/>
<path d="M12.179 4.60922C11.0541 3.56204 9.19217 2.70001 7.61881 2.70001C6.22881 2.70001 4.92881 3.23001 3.91881 4.05001C3.68881 4.24001 3.67881 4.60001 3.89881 4.81001L6.61881 7.44001C6.75733 7.4222 6.89586 7.404 7.03438 7.38564L7.42876 7.78002C7.63876 7.60002 7.91876 7.49002 8.22876 7.47002C8.69876 7.45002 9.14876 7.77002 9.34876 8.19002C9.46876 8.39002 9.52876 8.61002 9.51876 8.83002C9.49876 9.23002 9.44876 9.63002 9.38876 10.03C9.31876 10.97 9.19876 11.9 9.03876 12.83H14.5188V9.83002C14.5188 8.06002 13.8588 6.36002 12.6388 5.06002C12.4918 4.90201 12.3384 4.75166 12.179 4.60922Z" fill="url(#paint10_radial_28327_2572)"/>
<path d="M12.179 4.60922C11.0541 3.56204 9.19217 2.70001 7.61881 2.70001C6.22881 2.70001 4.92881 3.23001 3.91881 4.05001C3.68881 4.24001 3.67881 4.60001 3.89881 4.81001L6.61881 7.44001C6.75733 7.4222 6.89586 7.404 7.03438 7.38564L7.42876 7.78002C7.63876 7.60002 7.91876 7.49002 8.22876 7.47002C8.69876 7.45002 9.14876 7.77002 9.34876 8.19002C9.46876 8.39002 9.52876 8.61002 9.51876 8.83002C9.49876 9.23002 9.44876 9.63002 9.38876 10.03C9.31876 10.97 9.19876 11.9 9.03876 12.83H14.5188V9.83002C14.5188 8.06002 13.8588 6.36002 12.6388 5.06002C12.4918 4.90201 12.3384 4.75166 12.179 4.60922Z" fill="url(#paint11_radial_28327_2572)"/>
<path d="M24.4988 12.43H12.9988C12.7226 12.43 12.4988 12.2061 12.4988 11.93V9.42999C12.4988 6.69406 10.662 4.37675 8.14912 3.66256C7.73934 3.54609 7.33599 3.39696 6.98257 3.15909L5.95878 2.46999C5.74878 2.35999 5.49878 2.50999 5.49878 2.73999V2.73999C5.49878 3.61813 5.1736 4.45531 4.57634 5.09905C3.46806 6.29357 1.75878 8.12999 1.75878 8.12999C1.53878 8.37999 1.44878 8.72999 1.52878 9.06999C1.67878 9.74999 2.36878 10.08 3.00878 9.81999L6.15513 8.54883C6.31946 8.48244 6.49878 8.60339 6.49878 8.78063V16.43C6.49878 19.1062 8.60479 21.2935 11.2488 21.4238C11.3867 21.4306 11.4986 21.5419 11.5009 21.68C11.5233 22.9964 11.722 24.3098 12.0888 25.57L13.4488 30.24C13.4788 30.35 13.5788 30.43 13.6988 30.43H14.2488C14.3888 30.43 14.5088 30.31 14.5088 30.17V21.83C14.5088 21.6091 14.6879 21.43 14.9088 21.43H21.8588C22.2888 21.43 22.6988 21.57 23.0388 21.82L25.5588 23.71C26.1588 24.16 26.5188 24.87 26.5188 25.63C26.5188 26.15 26.3488 26.65 26.0388 27.07L23.7988 30.06C23.6588 30.21 23.7688 30.43 23.9588 30.43H25.1788C25.3788 30.43 25.5688 30.34 25.6988 30.18L28.9388 26.13C29.2988 25.68 29.4988 25.11 29.4988 24.53V21.43V20.43V17.43C29.4988 14.67 27.2588 12.43 24.4988 12.43Z" fill="url(#paint12_linear_28327_2572)"/>
<path d="M24.4988 12.43H12.9988C12.7226 12.43 12.4988 12.2061 12.4988 11.93V9.42999C12.4988 6.69406 10.662 4.37675 8.14912 3.66256C7.73934 3.54609 7.33599 3.39696 6.98257 3.15909L5.95878 2.46999C5.74878 2.35999 5.49878 2.50999 5.49878 2.73999V2.73999C5.49878 3.61813 5.1736 4.45531 4.57634 5.09905C3.46806 6.29357 1.75878 8.12999 1.75878 8.12999C1.53878 8.37999 1.44878 8.72999 1.52878 9.06999C1.67878 9.74999 2.36878 10.08 3.00878 9.81999L6.15513 8.54883C6.31946 8.48244 6.49878 8.60339 6.49878 8.78063V16.43C6.49878 19.1062 8.60479 21.2935 11.2488 21.4238C11.3867 21.4306 11.4986 21.5419 11.5009 21.68C11.5233 22.9964 11.722 24.3098 12.0888 25.57L13.4488 30.24C13.4788 30.35 13.5788 30.43 13.6988 30.43H14.2488C14.3888 30.43 14.5088 30.31 14.5088 30.17V21.83C14.5088 21.6091 14.6879 21.43 14.9088 21.43H21.8588C22.2888 21.43 22.6988 21.57 23.0388 21.82L25.5588 23.71C26.1588 24.16 26.5188 24.87 26.5188 25.63C26.5188 26.15 26.3488 26.65 26.0388 27.07L23.7988 30.06C23.6588 30.21 23.7688 30.43 23.9588 30.43H25.1788C25.3788 30.43 25.5688 30.34 25.6988 30.18L28.9388 26.13C29.2988 25.68 29.4988 25.11 29.4988 24.53V21.43V20.43V17.43C29.4988 14.67 27.2588 12.43 24.4988 12.43Z" fill="url(#paint13_radial_28327_2572)"/>
<path d="M24.4988 12.43H12.9988C12.7226 12.43 12.4988 12.2061 12.4988 11.93V9.42999C12.4988 6.69406 10.662 4.37675 8.14912 3.66256C7.73934 3.54609 7.33599 3.39696 6.98257 3.15909L5.95878 2.46999C5.74878 2.35999 5.49878 2.50999 5.49878 2.73999V2.73999C5.49878 3.61813 5.1736 4.45531 4.57634 5.09905C3.46806 6.29357 1.75878 8.12999 1.75878 8.12999C1.53878 8.37999 1.44878 8.72999 1.52878 9.06999C1.67878 9.74999 2.36878 10.08 3.00878 9.81999L6.15513 8.54883C6.31946 8.48244 6.49878 8.60339 6.49878 8.78063V16.43C6.49878 19.1062 8.60479 21.2935 11.2488 21.4238C11.3867 21.4306 11.4986 21.5419 11.5009 21.68C11.5233 22.9964 11.722 24.3098 12.0888 25.57L13.4488 30.24C13.4788 30.35 13.5788 30.43 13.6988 30.43H14.2488C14.3888 30.43 14.5088 30.31 14.5088 30.17V21.83C14.5088 21.6091 14.6879 21.43 14.9088 21.43H21.8588C22.2888 21.43 22.6988 21.57 23.0388 21.82L25.5588 23.71C26.1588 24.16 26.5188 24.87 26.5188 25.63C26.5188 26.15 26.3488 26.65 26.0388 27.07L23.7988 30.06C23.6588 30.21 23.7688 30.43 23.9588 30.43H25.1788C25.3788 30.43 25.5688 30.34 25.6988 30.18L28.9388 26.13C29.2988 25.68 29.4988 25.11 29.4988 24.53V21.43V20.43V17.43C29.4988 14.67 27.2588 12.43 24.4988 12.43Z" fill="url(#paint14_linear_28327_2572)"/>
<path d="M24.4988 12.43H12.9988C12.7226 12.43 12.4988 12.2061 12.4988 11.93V9.42999C12.4988 6.69406 10.662 4.37675 8.14912 3.66256C7.73934 3.54609 7.33599 3.39696 6.98257 3.15909L5.95878 2.46999C5.74878 2.35999 5.49878 2.50999 5.49878 2.73999V2.73999C5.49878 3.61813 5.1736 4.45531 4.57634 5.09905C3.46806 6.29357 1.75878 8.12999 1.75878 8.12999C1.53878 8.37999 1.44878 8.72999 1.52878 9.06999C1.67878 9.74999 2.36878 10.08 3.00878 9.81999L6.15513 8.54883C6.31946 8.48244 6.49878 8.60339 6.49878 8.78063V16.43C6.49878 19.1062 8.60479 21.2935 11.2488 21.4238C11.3867 21.4306 11.4986 21.5419 11.5009 21.68C11.5233 22.9964 11.722 24.3098 12.0888 25.57L13.4488 30.24C13.4788 30.35 13.5788 30.43 13.6988 30.43H14.2488C14.3888 30.43 14.5088 30.31 14.5088 30.17V21.83C14.5088 21.6091 14.6879 21.43 14.9088 21.43H21.8588C22.2888 21.43 22.6988 21.57 23.0388 21.82L25.5588 23.71C26.1588 24.16 26.5188 24.87 26.5188 25.63C26.5188 26.15 26.3488 26.65 26.0388 27.07L23.7988 30.06C23.6588 30.21 23.7688 30.43 23.9588 30.43H25.1788C25.3788 30.43 25.5688 30.34 25.6988 30.18L28.9388 26.13C29.2988 25.68 29.4988 25.11 29.4988 24.53V21.43V20.43V17.43C29.4988 14.67 27.2588 12.43 24.4988 12.43Z" fill="url(#paint15_radial_28327_2572)"/>
<path d="M24.4988 12.43H12.9988C12.7226 12.43 12.4988 12.2061 12.4988 11.93V9.42999C12.4988 6.69406 10.662 4.37675 8.14912 3.66256C7.73934 3.54609 7.33599 3.39696 6.98257 3.15909L5.95878 2.46999C5.74878 2.35999 5.49878 2.50999 5.49878 2.73999V2.73999C5.49878 3.61813 5.1736 4.45531 4.57634 5.09905C3.46806 6.29357 1.75878 8.12999 1.75878 8.12999C1.53878 8.37999 1.44878 8.72999 1.52878 9.06999C1.67878 9.74999 2.36878 10.08 3.00878 9.81999L6.15513 8.54883C6.31946 8.48244 6.49878 8.60339 6.49878 8.78063V16.43C6.49878 19.1062 8.60479 21.2935 11.2488 21.4238C11.3867 21.4306 11.4986 21.5419 11.5009 21.68C11.5233 22.9964 11.722 24.3098 12.0888 25.57L13.4488 30.24C13.4788 30.35 13.5788 30.43 13.6988 30.43H14.2488C14.3888 30.43 14.5088 30.31 14.5088 30.17V21.83C14.5088 21.6091 14.6879 21.43 14.9088 21.43H21.8588C22.2888 21.43 22.6988 21.57 23.0388 21.82L25.5588 23.71C26.1588 24.16 26.5188 24.87 26.5188 25.63C26.5188 26.15 26.3488 26.65 26.0388 27.07L23.7988 30.06C23.6588 30.21 23.7688 30.43 23.9588 30.43H25.1788C25.3788 30.43 25.5688 30.34 25.6988 30.18L28.9388 26.13C29.2988 25.68 29.4988 25.11 29.4988 24.53V21.43V20.43V17.43C29.4988 14.67 27.2588 12.43 24.4988 12.43Z" fill="url(#paint16_radial_28327_2572)"/>
<path d="M24.4988 12.43H12.9988C12.7226 12.43 12.4988 12.2061 12.4988 11.93V9.42999C12.4988 6.69406 10.662 4.37675 8.14912 3.66256C7.73934 3.54609 7.33599 3.39696 6.98257 3.15909L5.95878 2.46999C5.74878 2.35999 5.49878 2.50999 5.49878 2.73999V2.73999C5.49878 3.61813 5.1736 4.45531 4.57634 5.09905C3.46806 6.29357 1.75878 8.12999 1.75878 8.12999C1.53878 8.37999 1.44878 8.72999 1.52878 9.06999C1.67878 9.74999 2.36878 10.08 3.00878 9.81999L6.15513 8.54883C6.31946 8.48244 6.49878 8.60339 6.49878 8.78063V16.43C6.49878 19.1062 8.60479 21.2935 11.2488 21.4238C11.3867 21.4306 11.4986 21.5419 11.5009 21.68C11.5233 22.9964 11.722 24.3098 12.0888 25.57L13.4488 30.24C13.4788 30.35 13.5788 30.43 13.6988 30.43H14.2488C14.3888 30.43 14.5088 30.31 14.5088 30.17V21.83C14.5088 21.6091 14.6879 21.43 14.9088 21.43H21.8588C22.2888 21.43 22.6988 21.57 23.0388 21.82L25.5588 23.71C26.1588 24.16 26.5188 24.87 26.5188 25.63C26.5188 26.15 26.3488 26.65 26.0388 27.07L23.7988 30.06C23.6588 30.21 23.7688 30.43 23.9588 30.43H25.1788C25.3788 30.43 25.5688 30.34 25.6988 30.18L28.9388 26.13C29.2988 25.68 29.4988 25.11 29.4988 24.53V21.43V20.43V17.43C29.4988 14.67 27.2588 12.43 24.4988 12.43Z" fill="url(#paint17_linear_28327_2572)"/>
<path d="M24.4988 12.43H12.9988C12.7226 12.43 12.4988 12.2061 12.4988 11.93V9.42999C12.4988 6.69406 10.662 4.37675 8.14912 3.66256C7.73934 3.54609 7.33599 3.39696 6.98257 3.15909L5.95878 2.46999C5.74878 2.35999 5.49878 2.50999 5.49878 2.73999V2.73999C5.49878 3.61813 5.1736 4.45531 4.57634 5.09905C3.46806 6.29357 1.75878 8.12999 1.75878 8.12999C1.53878 8.37999 1.44878 8.72999 1.52878 9.06999C1.67878 9.74999 2.36878 10.08 3.00878 9.81999L6.15513 8.54883C6.31946 8.48244 6.49878 8.60339 6.49878 8.78063V16.43C6.49878 19.1062 8.60479 21.2935 11.2488 21.4238C11.3867 21.4306 11.4986 21.5419 11.5009 21.68C11.5233 22.9964 11.722 24.3098 12.0888 25.57L13.4488 30.24C13.4788 30.35 13.5788 30.43 13.6988 30.43H14.2488C14.3888 30.43 14.5088 30.31 14.5088 30.17V21.83C14.5088 21.6091 14.6879 21.43 14.9088 21.43H21.8588C22.2888 21.43 22.6988 21.57 23.0388 21.82L25.5588 23.71C26.1588 24.16 26.5188 24.87 26.5188 25.63C26.5188 26.15 26.3488 26.65 26.0388 27.07L23.7988 30.06C23.6588 30.21 23.7688 30.43 23.9588 30.43H25.1788C25.3788 30.43 25.5688 30.34 25.6988 30.18L28.9388 26.13C29.2988 25.68 29.4988 25.11 29.4988 24.53V21.43V20.43V17.43C29.4988 14.67 27.2588 12.43 24.4988 12.43Z" fill="url(#paint18_radial_28327_2572)"/>
<path d="M24.4988 12.43H12.9988C12.7226 12.43 12.4988 12.2061 12.4988 11.93V9.42999C12.4988 6.69406 10.662 4.37675 8.14912 3.66256C7.73934 3.54609 7.33599 3.39696 6.98257 3.15909L5.95878 2.46999C5.74878 2.35999 5.49878 2.50999 5.49878 2.73999V2.73999C5.49878 3.61813 5.1736 4.45531 4.57634 5.09905C3.46806 6.29357 1.75878 8.12999 1.75878 8.12999C1.53878 8.37999 1.44878 8.72999 1.52878 9.06999C1.67878 9.74999 2.36878 10.08 3.00878 9.81999L6.15513 8.54883C6.31946 8.48244 6.49878 8.60339 6.49878 8.78063V16.43C6.49878 19.1062 8.60479 21.2935 11.2488 21.4238C11.3867 21.4306 11.4986 21.5419 11.5009 21.68C11.5233 22.9964 11.722 24.3098 12.0888 25.57L13.4488 30.24C13.4788 30.35 13.5788 30.43 13.6988 30.43H14.2488C14.3888 30.43 14.5088 30.31 14.5088 30.17V21.83C14.5088 21.6091 14.6879 21.43 14.9088 21.43H21.8588C22.2888 21.43 22.6988 21.57 23.0388 21.82L25.5588 23.71C26.1588 24.16 26.5188 24.87 26.5188 25.63C26.5188 26.15 26.3488 26.65 26.0388 27.07L23.7988 30.06C23.6588 30.21 23.7688 30.43 23.9588 30.43H25.1788C25.3788 30.43 25.5688 30.34 25.6988 30.18L28.9388 26.13C29.2988 25.68 29.4988 25.11 29.4988 24.53V21.43V20.43V17.43C29.4988 14.67 27.2588 12.43 24.4988 12.43Z" fill="url(#paint19_linear_28327_2572)"/>
<path d="M24.4988 12.43H12.9988C12.7226 12.43 12.4988 12.2061 12.4988 11.93V9.42999C12.4988 6.69406 10.662 4.37675 8.14912 3.66256C7.73934 3.54609 7.33599 3.39696 6.98257 3.15909L5.95878 2.46999C5.74878 2.35999 5.49878 2.50999 5.49878 2.73999V2.73999C5.49878 3.61813 5.1736 4.45531 4.57634 5.09905C3.46806 6.29357 1.75878 8.12999 1.75878 8.12999C1.53878 8.37999 1.44878 8.72999 1.52878 9.06999C1.67878 9.74999 2.36878 10.08 3.00878 9.81999L6.15513 8.54883C6.31946 8.48244 6.49878 8.60339 6.49878 8.78063V16.43C6.49878 19.1062 8.60479 21.2935 11.2488 21.4238C11.3867 21.4306 11.4986 21.5419 11.5009 21.68C11.5233 22.9964 11.722 24.3098 12.0888 25.57L13.4488 30.24C13.4788 30.35 13.5788 30.43 13.6988 30.43H14.2488C14.3888 30.43 14.5088 30.31 14.5088 30.17V21.83C14.5088 21.6091 14.6879 21.43 14.9088 21.43H21.8588C22.2888 21.43 22.6988 21.57 23.0388 21.82L25.5588 23.71C26.1588 24.16 26.5188 24.87 26.5188 25.63C26.5188 26.15 26.3488 26.65 26.0388 27.07L23.7988 30.06C23.6588 30.21 23.7688 30.43 23.9588 30.43H25.1788C25.3788 30.43 25.5688 30.34 25.6988 30.18L28.9388 26.13C29.2988 25.68 29.4988 25.11 29.4988 24.53V21.43V20.43V17.43C29.4988 14.67 27.2588 12.43 24.4988 12.43Z" fill="url(#paint20_radial_28327_2572)"/>
<g filter="url(#filter1_f_28327_2572)">
<path d="M13.34 13.6137H24.1596C25.313 13.6137 26.416 14.0863 27.2116 14.9213V14.9213C27.9584 15.7052 28.375 16.7464 28.375 17.8291V24.9887" stroke="#EBEAEC" stroke-width="0.75"/>
</g>
<path d="M12.0938 25.57C11.7038 24.23 11.5 22.83 11.5 21.43C11.5 20.7257 12.4531 20.5253 13 20.5253C13.5469 20.5253 14.5156 20.7362 14.5156 21.7518V30.17C14.5156 30.31 14.39 30.43 14.25 30.43H13.7031C13.5831 30.43 13.4831 30.35 13.4531 30.24L12.0938 25.57Z" fill="url(#paint21_linear_28327_2572)"/>
<path d="M12.0938 25.57C11.7038 24.23 11.5 22.83 11.5 21.43C11.5 20.7257 12.4531 20.5253 13 20.5253C13.5469 20.5253 14.5156 20.7362 14.5156 21.7518V30.17C14.5156 30.31 14.39 30.43 14.25 30.43H13.7031C13.5831 30.43 13.4831 30.35 13.4531 30.24L12.0938 25.57Z" fill="url(#paint22_linear_28327_2572)"/>
<path d="M12.0938 25.57C11.7038 24.23 11.5 22.83 11.5 21.43C11.5 20.7257 12.4531 20.5253 13 20.5253C13.5469 20.5253 14.5156 20.7362 14.5156 21.7518V30.17C14.5156 30.31 14.39 30.43 14.25 30.43H13.7031C13.5831 30.43 13.4831 30.35 13.4531 30.24L12.0938 25.57Z" fill="url(#paint23_linear_28327_2572)"/>
<path d="M12.4988 12.43V9.42999C12.4988 6.69406 10.662 4.37675 8.14912 3.66256C7.73934 3.54609 7.33599 3.39696 6.98257 3.15908L5.95878 2.46999C5.74878 2.35999 5.49878 2.50999 5.49878 2.73999V2.73999C5.49878 3.61813 5.1736 4.45531 4.57634 5.09905C3.46806 6.29357 1.75878 8.12999 1.75878 8.12999C1.53878 8.37999 1.44878 8.72999 1.52878 9.06999C1.67878 9.74999 2.36878 10.08 3.00878 9.81999L6.15513 8.54883C6.31946 8.48244 6.49878 8.60339 6.49878 8.78063V16.43C6.49878 17.5669 6.72378 18.4951 7.51878 19.4558C9.75 16.43 11 14.8707 12.4988 12.43Z" fill="url(#paint24_linear_28327_2572)"/>
<path d="M12.4988 12.43V9.42999C12.4988 6.69406 10.662 4.37675 8.14912 3.66256C7.73934 3.54609 7.33599 3.39696 6.98257 3.15908L5.95878 2.46999C5.74878 2.35999 5.49878 2.50999 5.49878 2.73999V2.73999C5.49878 3.61813 5.1736 4.45531 4.57634 5.09905C3.46806 6.29357 1.75878 8.12999 1.75878 8.12999C1.53878 8.37999 1.44878 8.72999 1.52878 9.06999C1.67878 9.74999 2.36878 10.08 3.00878 9.81999L6.15513 8.54883C6.31946 8.48244 6.49878 8.60339 6.49878 8.78063V16.43C6.49878 17.5669 6.72378 18.4951 7.51878 19.4558C9.75 16.43 11 14.8707 12.4988 12.43Z" fill="url(#paint25_radial_28327_2572)"/>
<path d="M12.4988 12.43V9.42999C12.4988 6.69406 10.662 4.37675 8.14912 3.66256C7.73934 3.54609 7.33599 3.39696 6.98257 3.15908L5.95878 2.46999C5.74878 2.35999 5.49878 2.50999 5.49878 2.73999V2.73999C5.49878 3.61813 5.1736 4.45531 4.57634 5.09905C3.46806 6.29357 1.75878 8.12999 1.75878 8.12999C1.53878 8.37999 1.44878 8.72999 1.52878 9.06999C1.67878 9.74999 2.36878 10.08 3.00878 9.81999L6.15513 8.54883C6.31946 8.48244 6.49878 8.60339 6.49878 8.78063V16.43C6.49878 17.5669 6.72378 18.4951 7.51878 19.4558C9.75 16.43 11 14.8707 12.4988 12.43Z" fill="url(#paint26_radial_28327_2572)"/>
<path d="M21.8288 28.76L20.6388 27.57L20.0388 28.38L21.1988 29.55L21.8288 28.76Z" fill="#636363"/>
<path d="M21.1788 24.43C21.3588 24.73 21.4588 25.07 21.4888 25.43H24.3388C24.4488 25.14 24.4988 24.84 24.4988 24.53V24.43H21.1788Z" fill="#636363"/>
<path d="M7.52879 3.44714V4.73002C7.52879 4.94349 7.44428 5.14742 7.28524 5.30647C7.08998 5.50173 7.08998 5.81831 7.28524 6.01357C7.4805 6.20883 7.79709 6.20883 7.99235 6.01357C8.33331 5.67261 8.52879 5.21655 8.52879 4.73002V3.78439C8.20733 3.66916 7.89062 3.59949 7.52879 3.44714Z" fill="url(#paint27_linear_28327_2572)"/>
<path fill-rule="evenodd" clip-rule="evenodd" d="M9.24878 4.09759V5.75C9.24878 6.63614 9.96264 7.35 10.8488 7.35H12.1278C11.9984 7.00023 11.8373 6.66571 11.648 6.35H10.8488C10.5149 6.35 10.2488 6.08385 10.2488 5.75V4.74735C9.93915 4.49915 9.60435 4.28107 9.24878 4.09759Z" fill="#6F6E70"/>
<path d="M6.49878 11.34L6.69878 11.08C7.21878 10.37 8.05878 9.95001 8.93878 9.95001H12.4988V9.42997C12.4988 9.26844 12.4924 9.10838 12.4798 8.95001H8.92878C8.02878 8.95001 7.16878 9.27001 6.49878 9.84001V11.34Z" fill="url(#paint28_linear_28327_2572)"/>
<path d="M12.4988 11.93C12.4988 12.1212 12.6367 12.3846 12.9492 12.43C12.3624 12.43 11.7756 12.43 11.1888 12.43C10.9888 12.43 10.8188 12.53 10.7088 12.69C10.6088 12.86 10.5888 13.05 10.6688 13.23L11.9488 16.12C12.2588 16.81 12.9388 17.25 13.6888 17.25H18.1788C19.1088 17.25 19.9688 16.84 20.5488 16.11L23.4788 12.43L24.4988 12.43C24.5044 12.43 24.5101 12.43 24.5158 12.43C24.5614 12.4301 24.6069 12.4309 24.6522 12.4323C24.6851 12.4337 24.7177 12.4361 24.7488 12.44L21.3288 16.73C20.5588 17.7 19.4088 18.25 18.1788 18.25H13.6888C12.5488 18.25 11.4988 17.57 11.0388 16.52L9.75876 13.63C9.54877 13.14 9.58877 12.59 9.87876 12.14C10.1688 11.7 10.6588 11.43 11.1888 11.43H12.4988V11.93Z" fill="url(#paint29_linear_28327_2572)"/>
<path d="M20.0188 12.43L18.1888 14.68C18.0188 14.89 17.7688 15.01 17.4988 15.01C17.0088 15.01 16.6088 14.61 16.6088 14.12V12.43H15.6088V14.11C15.6088 15.15 16.4588 16 17.4988 16C18.0688 16 18.5988 15.75 18.9588 15.3L21.3088 12.43H20.0188Z" fill="url(#paint30_linear_28327_2572)"/>
<path d="M26.5288 12.86L19.9088 21.43H21.1688L27.3988 13.37C27.1388 13.17 26.8388 13 26.5288 12.86Z" fill="url(#paint31_linear_28327_2572)"/>
<path d="M29.4988 19.19H26.9988C26.7888 19.19 26.6888 19.04 26.6588 18.98C26.6288 18.92 26.5688 18.75 26.6988 18.58L29.0788 15.43C28.9288 15.1 28.7488 14.78 28.5388 14.49L25.8988 17.99C25.5788 18.41 25.5288 18.96 25.7688 19.44C25.9988 19.91 26.4788 20.2 26.9988 20.2H29.4988V19.19Z" fill="url(#paint32_linear_28327_2572)"/>
<path d="M29.4988 22.23H23.582L24.9219 23.23H29.4988V22.23Z" fill="url(#paint33_linear_28327_2572)"/>
<path d="M26.1988 26.79L29.3188 25.47C29.4388 25.17 29.4988 24.85 29.4988 24.53V24.31L26.4988 25.58C26.4988 25.6 26.4988 25.62 26.4988 25.63C26.4988 26.04 26.3988 26.43 26.1988 26.79Z" fill="url(#paint34_linear_28327_2572)"/>
<path d="M27.0788 28.46H24.9788L24.2288 29.46H26.2788L27.0788 28.46Z" fill="url(#paint35_linear_28327_2572)"/>
<path d="M9.69878 18.69C10.0288 18.2 10.0988 17.59 9.88878 17.04L8.99878 14.74C8.80878 14.25 8.33878 13.93 7.81878 13.93H6.49878V14.93H7.81878C7.92878 14.93 8.02878 15 8.06878 15.1L8.95878 17.4C9.04878 17.64 9.01878 17.91 8.87878 18.12C8.72878 18.34 8.49878 18.47 8.22878 18.47H6.92878C7.08878 18.83 7.28878 19.16 7.51878 19.47H8.22878C8.81878 19.47 9.36878 19.18 9.69878 18.69Z" fill="url(#paint36_linear_28327_2572)"/>
<path d="M14.5156 27.46V26.46H12.3656L12.6556 27.46H14.5156Z" fill="#5B5660"/>
<path d="M14.4988 24.43V23.43H11.6388C11.6888 23.77 11.7388 24.1 11.8088 24.43H14.4988Z" fill="#646169"/>
<path d="M2.31878 7.52997C1.97878 7.88997 1.75878 8.12997 1.75878 8.12997C1.53878 8.37997 1.44878 8.72997 1.52878 9.06997C1.67878 9.74997 2.36878 10.08 3.00878 9.81997L3.77878 9.50997L2.31878 7.52997Z" fill="url(#paint37_linear_28327_2572)"/>
<path d="M21.8288 28.76L20.6388 27.57L20.0388 28.38L21.1988 29.55L21.8288 28.76Z" fill="url(#paint38_linear_28327_2572)"/>
<path d="M21.1788 24.43C21.3588 24.73 21.4588 25.07 21.4888 25.43H24.3388C24.4488 25.14 24.4988 24.84 24.4988 24.53V24.43H21.1788Z" fill="url(#paint39_linear_28327_2572)"/>
<g filter="url(#filter2_f_28327_2572)">
<ellipse cx="4.87114" cy="7.03324" rx="0.433208" ry="0.496908" transform="rotate(49.4574 4.87114 7.03324)" fill="#9E99A3"/>
</g>
<circle cx="5" cy="6.93317" r="0.5" fill="url(#paint40_radial_28327_2572)"/>
<g filter="url(#filter3_f_28327_2572)">
<path d="M8.71875 3.26746C12.3438 4.56433 14.4062 6.89246 13.9688 12.1425" stroke="#7B7A7C" stroke-width="0.15"/>
</g>
<g filter="url(#filter4_f_28327_2572)">
<path d="M11.6388 20.9394C12.0815 20.6269 13.2419 20.1894 14.3419 20.9394" stroke="#EBEAEC" stroke-width="0.3" stroke-linecap="round"/>
</g>
<g filter="url(#filter5_f_28327_2572)">
<path d="M13.9375 21.0018V29.4393" stroke="#EBEAEC" stroke-width="0.2" stroke-linecap="round"/>
</g>
<g filter="url(#filter6_f_28327_2572)">
<path d="M6.78125 4.97058L5.90625 2.75183L7.26562 3.76746L6.78125 4.97058Z" fill="url(#paint41_linear_28327_2572)"/>
</g>
<defs>
<filter id="filter0_f_28327_2572" x="24.4424" y="4.68317" width="5.29578" height="9.76788" filterUnits="userSpaceOnUse" color-interpolation-filters="sRGB">
<feFlood flood-opacity="0" result="BackgroundImageFix"/>
<feBlend mode="normal" in="SourceGraphic" in2="BackgroundImageFix" result="shape"/>
<feGaussianBlur stdDeviation="0.25" result="effect1_foregroundBlur_28327_2572"/>
</filter>
<filter id="filter1_f_28327_2572" x="11.84" y="11.7387" width="18.41" height="14.75" filterUnits="userSpaceOnUse" color-interpolation-filters="sRGB">
<feFlood flood-opacity="0" result="BackgroundImageFix"/>
<feBlend mode="normal" in="SourceGraphic" in2="BackgroundImageFix" result="shape"/>
<feGaussianBlur stdDeviation="0.75" result="effect1_foregroundBlur_28327_2572"/>
</filter>
<filter id="filter2_f_28327_2572" x="4.15009" y="6.32202" width="1.44214" height="1.42242" filterUnits="userSpaceOnUse" color-interpolation-filters="sRGB">
<feFlood flood-opacity="0" result="BackgroundImageFix"/>
<feBlend mode="normal" in="SourceGraphic" in2="BackgroundImageFix" result="shape"/>
<feGaussianBlur stdDeviation="0.125" result="effect1_foregroundBlur_28327_2572"/>
</filter>
<filter id="filter3_f_28327_2572" x="8.29348" y="2.79684" width="6.20833" height="9.75184" filterUnits="userSpaceOnUse" color-interpolation-filters="sRGB">
<feFlood flood-opacity="0" result="BackgroundImageFix"/>
<feBlend mode="normal" in="SourceGraphic" in2="BackgroundImageFix" result="shape"/>
<feGaussianBlur stdDeviation="0.2" result="effect1_foregroundBlur_28327_2572"/>
</filter>
<filter id="filter4_f_28327_2572" x="10.4888" y="19.375" width="5.00317" height="2.71442" filterUnits="userSpaceOnUse" color-interpolation-filters="sRGB">
<feFlood flood-opacity="0" result="BackgroundImageFix"/>
<feBlend mode="normal" in="SourceGraphic" in2="BackgroundImageFix" result="shape"/>
<feGaussianBlur stdDeviation="0.5" result="effect1_foregroundBlur_28327_2572"/>
</filter>
<filter id="filter5_f_28327_2572" x="13.1375" y="20.2019" width="1.59995" height="10.0375" filterUnits="userSpaceOnUse" color-interpolation-filters="sRGB">
<feFlood flood-opacity="0" result="BackgroundImageFix"/>
<feBlend mode="normal" in="SourceGraphic" in2="BackgroundImageFix" result="shape"/>
<feGaussianBlur stdDeviation="0.35" result="effect1_foregroundBlur_28327_2572"/>
</filter>
<filter id="filter6_f_28327_2572" x="5.60625" y="2.45183" width="1.95938" height="2.81875" filterUnits="userSpaceOnUse" color-interpolation-filters="sRGB">
<feFlood flood-opacity="0" result="BackgroundImageFix"/>
<feBlend mode="normal" in="SourceGraphic" in2="BackgroundImageFix" result="shape"/>
<feGaussianBlur stdDeviation="0.15" result="effect1_foregroundBlur_28327_2572"/>
</filter>
<radialGradient id="paint0_radial_28327_2572" cx="0" cy="0" r="1" gradientUnits="userSpaceOnUse" gradientTransform="translate(26.0156 10.2519) rotate(-31.4215) scale(3.7764 9.43981)">
<stop offset="0.535596" stop-color="#7D7C7E" stop-opacity="0"/>
<stop offset="1" stop-color="#7D7C7E"/>
</radialGradient>
<radialGradient id="paint1_radial_28327_2572" cx="0" cy="0" r="1" gradientUnits="userSpaceOnUse" gradientTransform="translate(26.6563 10.2831) rotate(-29.1065) scale(2.95518 4.19812)">
<stop stop-color="#C3BDC9"/>
<stop offset="1" stop-color="#7D7C7E" stop-opacity="0"/>
</radialGradient>
<linearGradient id="paint2_linear_28327_2572" x1="20.9988" y1="17.5956" x2="20.9988" y2="30.9991" gradientUnits="userSpaceOnUse">
<stop stop-color="#69587A"/>
<stop offset="1" stop-color="#BEB4C8"/>
</linearGradient>
<linearGradient id="paint3_linear_28327_2572" x1="23.1875" y1="20.0019" x2="21.2463" y2="22.2722" gradientUnits="userSpaceOnUse">
<stop stop-color="#5C4C6B"/>
<stop offset="1" stop-color="#5C4C6B" stop-opacity="0"/>
</linearGradient>
<linearGradient id="paint4_linear_28327_2572" x1="20.9988" y1="20.1269" x2="20.9988" y2="22.5331" gradientUnits="userSpaceOnUse">
<stop stop-color="#5C4C6B"/>
<stop offset="1" stop-color="#5C4C6B" stop-opacity="0"/>
</linearGradient>
<radialGradient id="paint5_radial_28327_2572" cx="0" cy="0" r="1" gradientUnits="userSpaceOnUse" gradientTransform="translate(18.0938 23.8456) rotate(-47.8624) scale(2.21247 4.44425)">
<stop offset="0.373285" stop-color="#6E4694"/>
<stop offset="1" stop-color="#8152AC" stop-opacity="0"/>
</radialGradient>
<linearGradient id="paint6_linear_28327_2572" x1="21.4375" y1="31.9394" x2="21.4375" y2="26.5019" gradientUnits="userSpaceOnUse">
<stop offset="0.148665" stop-color="#896BA4"/>
<stop offset="0.425288" stop-color="#9179A7" stop-opacity="0"/>
</linearGradient>
<linearGradient id="paint7_linear_28327_2572" x1="13.875" y1="21.2831" x2="10.9988" y2="31.056" gradientUnits="userSpaceOnUse">
<stop stop-color="#69587A"/>
<stop offset="1" stop-color="#BEB4C8"/>
</linearGradient>
<linearGradient id="paint8_linear_28327_2572" x1="13.6875" y1="28.0956" x2="11.5" y2="28.0956" gradientUnits="userSpaceOnUse">
<stop stop-color="#69587A"/>
<stop offset="1" stop-color="#69587A" stop-opacity="0"/>
</linearGradient>
<linearGradient id="paint9_linear_28327_2572" x1="11.1868" y1="32.0903" x2="11.1868" y2="26.109" gradientUnits="userSpaceOnUse">
<stop offset="0.148665" stop-color="#896BA4"/>
<stop offset="0.425288" stop-color="#9179A7" stop-opacity="0"/>
</linearGradient>
<radialGradient id="paint10_radial_28327_2572" cx="0" cy="0" r="1" gradientUnits="userSpaceOnUse" gradientTransform="translate(12.9375 11.8456) rotate(140.08) scale(0.998289 1.14369)">
<stop stop-color="#555456"/>
<stop offset="1" stop-color="#555456" stop-opacity="0"/>
</radialGradient>
<radialGradient id="paint11_radial_28327_2572" cx="0" cy="0" r="1" gradientUnits="userSpaceOnUse" gradientTransform="translate(5.96875 3.75185) rotate(164.859) scale(2.06383 1.6416)">
<stop offset="0.139449" stop-color="#444246"/>
<stop offset="1" stop-color="#444246" stop-opacity="0"/>
</radialGradient>
<linearGradient id="paint12_linear_28327_2572" x1="15.4994" y1="2.43317" x2="15.4994" y2="39.7206" gradientUnits="userSpaceOnUse">
<stop stop-color="#CBCACD"/>
<stop offset="1" stop-color="#BCB2C8"/>
</linearGradient>
<radialGradient id="paint13_radial_28327_2572" cx="0" cy="0" r="1" gradientUnits="userSpaceOnUse" gradientTransform="translate(14.9375 11.8456) rotate(114.087) scale(11.6384 18.2254)">
<stop offset="0.669397" stop-color="#9179A7" stop-opacity="0"/>
<stop offset="0.931044" stop-color="#896BA4"/>
</radialGradient>
<linearGradient id="paint14_linear_28327_2572" x1="16.1875" y1="20.1581" x2="27.75" y2="19.7831" gradientUnits="userSpaceOnUse">
<stop stop-color="#CBCACD" stop-opacity="0"/>
<stop offset="1" stop-color="#BCB2C8"/>
</linearGradient>
<radialGradient id="paint15_radial_28327_2572" cx="0" cy="0" r="1" gradientUnits="userSpaceOnUse" gradientTransform="translate(16.9375 23.1581) rotate(-90) scale(6.72652 20.1875)">
<stop offset="0.204415" stop-color="#896BA4"/>
<stop offset="0.696868" stop-color="#9179A7" stop-opacity="0"/>
</radialGradient>
<radialGradient id="paint16_radial_28327_2572" cx="0" cy="0" r="1" gradientUnits="userSpaceOnUse" gradientTransform="translate(24.8125 23.9394) rotate(-60.7945) scale(5.76399 6.60381)">
<stop stop-color="#896BA4"/>
<stop offset="0.573892" stop-color="#9179A7" stop-opacity="0"/>
</radialGradient>
<linearGradient id="paint17_linear_28327_2572" x1="17.2542" y1="34.6557" x2="17.2542" y2="19.4325" gradientUnits="userSpaceOnUse">
<stop offset="0.148665" stop-color="#896BA4"/>
<stop offset="0.184594" stop-color="#896BA4"/>
<stop offset="0.348816" stop-color="#9179A7" stop-opacity="0"/>
</linearGradient>
<radialGradient id="paint18_radial_28327_2572" cx="0" cy="0" r="1" gradientUnits="userSpaceOnUse" gradientTransform="translate(2.6875 4.5331) rotate(44.318) scale(3.71257 6.63102)">
<stop stop-color="#B2B1B3"/>
<stop offset="1" stop-color="#B2B1B3" stop-opacity="0"/>
</radialGradient>
<linearGradient id="paint19_linear_28327_2572" x1="21.625" y1="19.7831" x2="27.75" y2="19.7831" gradientUnits="userSpaceOnUse">
<stop stop-color="#CBCACD" stop-opacity="0"/>
<stop offset="1" stop-color="#DDD5E6"/>
</linearGradient>
<radialGradient id="paint20_radial_28327_2572" cx="0" cy="0" r="1" gradientUnits="userSpaceOnUse" gradientTransform="translate(24.75 12.9081) rotate(104.876) scale(4.13871 9.5714)">
<stop stop-color="#DDD5E6"/>
<stop offset="0.619362" stop-color="#CBCACD" stop-opacity="0"/>
</radialGradient>
<linearGradient id="paint21_linear_28327_2572" x1="14.5156" y1="23.9331" x2="11.5" y2="24.5331" gradientUnits="userSpaceOnUse">
<stop stop-color="#D4CDDC"/>
<stop offset="1" stop-color="#A8A0B1"/>
</linearGradient>
<linearGradient id="paint22_linear_28327_2572" x1="13.1968" y1="32.0331" x2="13.1968" y2="26.5393" gradientUnits="userSpaceOnUse">
<stop offset="0.148665" stop-color="#896BA4"/>
<stop offset="0.425288" stop-color="#9179A7" stop-opacity="0"/>
</linearGradient>
<linearGradient id="paint23_linear_28327_2572" x1="13.0078" y1="19.7206" x2="13.0078" y2="21.9706" gradientUnits="userSpaceOnUse">
<stop stop-color="#9279A9"/>
<stop offset="1" stop-color="#9279A9" stop-opacity="0"/>
</linearGradient>
<linearGradient id="paint24_linear_28327_2572" x1="8.1875" y1="10.4081" x2="12.4988" y2="7.8456" gradientUnits="userSpaceOnUse">
<stop stop-color="#E6E6E6" stop-opacity="0"/>
<stop offset="0.894231" stop-color="#E6E6E6"/>
</linearGradient>
<radialGradient id="paint25_radial_28327_2572" cx="0" cy="0" r="1" gradientUnits="userSpaceOnUse" gradientTransform="translate(2.625 17.7206) rotate(-61.7948) scale(12.6949 9.01568)">
<stop offset="0.347165" stop-color="#AFA9B6"/>
<stop offset="0.881277" stop-color="#AFA9B6" stop-opacity="0"/>
</radialGradient>
<radialGradient id="paint26_radial_28327_2572" cx="0" cy="0" r="1" gradientUnits="userSpaceOnUse" gradientTransform="translate(4.28125 11.4706) rotate(-55.7389) scale(5.21791 3.45752)">
<stop offset="0.187805" stop-color="#896BA4"/>
<stop offset="0.881277" stop-color="#9179A7" stop-opacity="0"/>
</radialGradient>
<linearGradient id="paint27_linear_28327_2572" x1="7.83379" y1="4.22058" x2="7.83379" y2="7.09558" gradientUnits="userSpaceOnUse">
<stop stop-color="#696869"/>
<stop offset="1" stop-color="#58545B"/>
</linearGradient>
<linearGradient id="paint28_linear_28327_2572" x1="11.5" y1="11.34" x2="6.0625" y2="11.34" gradientUnits="userSpaceOnUse">
<stop stop-color="#636363"/>
<stop offset="1" stop-color="#4B494E"/>
</linearGradient>
<linearGradient id="paint29_linear_28327_2572" x1="13.5625" y1="11.43" x2="19.875" y2="17.2206" gradientUnits="userSpaceOnUse">
<stop stop-color="#69676C"/>
<stop offset="1" stop-color="#5F5D61"/>
</linearGradient>
<linearGradient id="paint30_linear_28327_2572" x1="18.4588" y1="12.43" x2="18.4588" y2="16.5331" gradientUnits="userSpaceOnUse">
<stop stop-color="#5F5F5F"/>
<stop offset="1" stop-color="#605867"/>
</linearGradient>
<linearGradient id="paint31_linear_28327_2572" x1="27.75" y1="13.3456" x2="22.75" y2="21.43" gradientUnits="userSpaceOnUse">
<stop stop-color="#686869"/>
<stop offset="1" stop-color="#58535D"/>
</linearGradient>
<linearGradient id="paint32_linear_28327_2572" x1="30" y1="15.7206" x2="26.625" y2="20.2" gradientUnits="userSpaceOnUse">
<stop stop-color="#747375"/>
<stop offset="1" stop-color="#5D5961"/>
</linearGradient>
<linearGradient id="paint33_linear_28327_2572" x1="31.3125" y1="23.23" x2="24.0625" y2="23.23" gradientUnits="userSpaceOnUse">
<stop stop-color="#6C6A6E"/>
<stop offset="1" stop-color="#453A50"/>
</linearGradient>
<linearGradient id="paint34_linear_28327_2572" x1="29.9375" y1="24.31" x2="26.9375" y2="26.2831" gradientUnits="userSpaceOnUse">
<stop stop-color="#666369"/>
<stop offset="1" stop-color="#524D58"/>
</linearGradient>
<linearGradient id="paint35_linear_28327_2572" x1="24.6094" y1="29.46" x2="26.5938" y2="29.46" gradientUnits="userSpaceOnUse">
<stop stop-color="#5D5763"/>
<stop offset="1" stop-color="#56515A"/>
</linearGradient>
<linearGradient id="paint36_linear_28327_2572" x1="8.25338" y1="15.5643" x2="8.25338" y2="19.47" gradientUnits="userSpaceOnUse">
<stop stop-color="#545158"/>
<stop offset="1" stop-color="#4E4854"/>
</linearGradient>
<linearGradient id="paint37_linear_28327_2572" x1="2.0625" y1="8.37685" x2="2.95312" y2="10.1112" gradientUnits="userSpaceOnUse">
<stop stop-color="#595959"/>
<stop offset="1" stop-color="#493D55"/>
</linearGradient>
<linearGradient id="paint38_linear_28327_2572" x1="20.4219" y1="28.2987" x2="21.5" y2="29.2519" gradientUnits="userSpaceOnUse">
<stop stop-color="#4C4653"/>
<stop offset="1" stop-color="#413C47"/>
</linearGradient>
<linearGradient id="paint39_linear_28327_2572" x1="20.5" y1="25.43" x2="24.4988" y2="25.43" gradientUnits="userSpaceOnUse">
<stop stop-color="#4C4653"/>
<stop offset="1" stop-color="#413C47"/>
</linearGradient>
<radialGradient id="paint40_radial_28327_2572" cx="0" cy="0" r="1" gradientUnits="userSpaceOnUse" gradientTransform="translate(5.19061 6.79005) rotate(118.125) scale(0.729225 0.634631)">
<stop stop-color="#605255"/>
<stop offset="1" stop-color="#3C273A"/>
</radialGradient>
<linearGradient id="paint41_linear_28327_2572" x1="6.34375" y1="2.53308" x2="7.46875" y2="4.59558" gradientUnits="userSpaceOnUse">
<stop stop-color="#E2E1E3"/>
<stop offset="1" stop-color="#E2E1E3" stop-opacity="0"/>
</linearGradient>
</defs>
</svg>
