<svg width="100%" height="100%" viewBox="0 0 32 32" xmlns="http://www.w3.org/2000/svg"><g fill-rule="evenodd" clip-rule="evenodd" filter="url(#a)"><path fill="url(#b)" d="M23.407 12.241c.217-.444.33-.94.33-1.457 0-.478-.098-.925-.274-1.334h.006a3.3 3.3 0 0 0-.287-.524l-.002-.003a3.3 3.3 0 0 1-.538-1.809v-.01a3.37 3.37 0 0 0-3.37-3.37.55.55 0 0 1-.465-.237 3.38 3.38 0 0 0-2.739-1.406c-1.127 0-2.13.558-2.739 1.406a.58.58 0 0 1-.465.238h-.087a3.37 3.37 0 0 0-3.283 3.369v.01c0 .641-.186 1.272-.537 1.81l-.002.003a3.37 3.37 0 0 0-.225 3.314.53.53 0 0 1 0 .465 3.282 3.282 0 0 0 2.956 4.724h8.765a3.28 3.28 0 0 0 3.287-3.287c0-.517-.124-1.003-.331-1.437a.53.53 0 0 1 0-.465m-12.522-2.73h-.013l1.225 2.406c.126 2.863 1.243 0 3.971 0 2.729 0 3.918 3.186 4.044.324l1.16-3.265c-.054-1.272-.976-1.361-1.16-1.361h-3.288a3.95 3.95 0 0 1-3.258-1.709.27.27 0 0 0-.471.052l-.084.198a2.35 2.35 0 0 1-1.267 1.282q-.028.013-.053.02c-.24.126-.806.5-.827 1.47l.01.313z"/><path fill="url(#c)" d="M23.407 12.241c.217-.444.33-.94.33-1.457 0-.478-.098-.925-.274-1.334h.006a3.3 3.3 0 0 0-.287-.524l-.002-.003a3.3 3.3 0 0 1-.538-1.809v-.01a3.37 3.37 0 0 0-3.37-3.37.55.55 0 0 1-.465-.237 3.38 3.38 0 0 0-2.739-1.406c-1.127 0-2.13.558-2.739 1.406a.58.58 0 0 1-.465.238h-.087a3.37 3.37 0 0 0-3.283 3.369v.01c0 .641-.186 1.272-.537 1.81l-.002.003a3.37 3.37 0 0 0-.225 3.314.53.53 0 0 1 0 .465 3.282 3.282 0 0 0 2.956 4.724h8.765a3.28 3.28 0 0 0 3.287-3.287c0-.517-.124-1.003-.331-1.437a.53.53 0 0 1 0-.465m-12.522-2.73h-.013l1.225 2.406c.126 2.863 1.243 0 3.971 0 2.729 0 3.918 3.186 4.044.324l1.16-3.265c-.054-1.272-.976-1.361-1.16-1.361h-3.288a3.95 3.95 0 0 1-3.258-1.709.27.27 0 0 0-.471.052l-.084.198a2.35 2.35 0 0 1-1.267 1.282q-.028.013-.053.02c-.24.126-.806.5-.827 1.47l.01.313z"/><path fill="url(#d)" d="M23.407 12.241c.217-.444.33-.94.33-1.457 0-.478-.098-.925-.274-1.334h.006a3.3 3.3 0 0 0-.287-.524l-.002-.003a3.3 3.3 0 0 1-.538-1.809v-.01a3.37 3.37 0 0 0-3.37-3.37.55.55 0 0 1-.465-.237 3.38 3.38 0 0 0-2.739-1.406c-1.127 0-2.13.558-2.739 1.406a.58.58 0 0 1-.465.238h-.087a3.37 3.37 0 0 0-3.283 3.369v.01c0 .641-.186 1.272-.537 1.81l-.002.003a3.37 3.37 0 0 0-.225 3.314.53.53 0 0 1 0 .465 3.282 3.282 0 0 0 2.956 4.724h8.765a3.28 3.28 0 0 0 3.287-3.287c0-.517-.124-1.003-.331-1.437a.53.53 0 0 1 0-.465m-12.522-2.73h-.013l1.225 2.406c.126 2.863 1.243 0 3.971 0 2.729 0 3.918 3.186 4.044.324l1.16-3.265c-.054-1.272-.976-1.361-1.16-1.361h-3.288a3.95 3.95 0 0 1-3.258-1.709.27.27 0 0 0-.471.052l-.084.198a2.35 2.35 0 0 1-1.267 1.282q-.028.013-.053.02c-.24.126-.806.5-.827 1.47l.01.313z"/><path fill="url(#e)" d="M23.407 12.241c.217-.444.33-.94.33-1.457 0-.478-.098-.925-.274-1.334h.006a3.3 3.3 0 0 0-.287-.524l-.002-.003a3.3 3.3 0 0 1-.538-1.809v-.01a3.37 3.37 0 0 0-3.37-3.37.55.55 0 0 1-.465-.237 3.38 3.38 0 0 0-2.739-1.406c-1.127 0-2.13.558-2.739 1.406a.58.58 0 0 1-.465.238h-.087a3.37 3.37 0 0 0-3.283 3.369v.01c0 .641-.186 1.272-.537 1.81l-.002.003a3.37 3.37 0 0 0-.225 3.314.53.53 0 0 1 0 .465 3.282 3.282 0 0 0 2.956 4.724h8.765a3.28 3.28 0 0 0 3.287-3.287c0-.517-.124-1.003-.331-1.437a.53.53 0 0 1 0-.465m-12.522-2.73h-.013l1.225 2.406c.126 2.863 1.243 0 3.971 0 2.729 0 3.918 3.186 4.044.324l1.16-3.265c-.054-1.272-.976-1.361-1.16-1.361h-3.288a3.95 3.95 0 0 1-3.258-1.709.27.27 0 0 0-.471.052l-.084.198a2.35 2.35 0 0 1-1.267 1.282q-.028.013-.053.02c-.24.126-.806.5-.827 1.47l.01.313z"/><path fill="url(#f)" d="M23.407 12.241c.217-.444.33-.94.33-1.457 0-.478-.098-.925-.274-1.334h.006a3.3 3.3 0 0 0-.287-.524l-.002-.003a3.3 3.3 0 0 1-.538-1.809v-.01a3.37 3.37 0 0 0-3.37-3.37.55.55 0 0 1-.465-.237 3.38 3.38 0 0 0-2.739-1.406c-1.127 0-2.13.558-2.739 1.406a.58.58 0 0 1-.465.238h-.087a3.37 3.37 0 0 0-3.283 3.369v.01c0 .641-.186 1.272-.537 1.81l-.002.003a3.37 3.37 0 0 0-.225 3.314.53.53 0 0 1 0 .465 3.282 3.282 0 0 0 2.956 4.724h8.765a3.28 3.28 0 0 0 3.287-3.287c0-.517-.124-1.003-.331-1.437a.53.53 0 0 1 0-.465m-12.522-2.73h-.013l1.225 2.406c.126 2.863 1.243 0 3.971 0 2.729 0 3.918 3.186 4.044.324l1.16-3.265c-.054-1.272-.976-1.361-1.16-1.361h-3.288a3.95 3.95 0 0 1-3.258-1.709.27.27 0 0 0-.471.052l-.084.198a2.35 2.35 0 0 1-1.267 1.282q-.028.013-.053.02c-.24.126-.806.5-.827 1.47l.01.313z"/><path fill="url(#g)" d="M23.407 12.241c.217-.444.33-.94.33-1.457 0-.478-.098-.925-.274-1.334h.006a3.3 3.3 0 0 0-.287-.524l-.002-.003a3.3 3.3 0 0 1-.538-1.809v-.01a3.37 3.37 0 0 0-3.37-3.37.55.55 0 0 1-.465-.237 3.38 3.38 0 0 0-2.739-1.406c-1.127 0-2.13.558-2.739 1.406a.58.58 0 0 1-.465.238h-.087a3.37 3.37 0 0 0-3.283 3.369v.01c0 .641-.186 1.272-.537 1.81l-.002.003a3.37 3.37 0 0 0-.225 3.314.53.53 0 0 1 0 .465 3.282 3.282 0 0 0 2.956 4.724h8.765a3.28 3.28 0 0 0 3.287-3.287c0-.517-.124-1.003-.331-1.437a.53.53 0 0 1 0-.465m-12.522-2.73h-.013l1.225 2.406c.126 2.863 1.243 0 3.971 0 2.729 0 3.918 3.186 4.044.324l1.16-3.265c-.054-1.272-.976-1.361-1.16-1.361h-3.288a3.95 3.95 0 0 1-3.258-1.709.27.27 0 0 0-.471.052l-.084.198a2.35 2.35 0 0 1-1.267 1.282q-.028.013-.053.02c-.24.126-.806.5-.827 1.47l.01.313z"/><path fill="url(#h)" d="M23.407 12.241c.217-.444.33-.94.33-1.457 0-.478-.098-.925-.274-1.334h.006a3.3 3.3 0 0 0-.287-.524l-.002-.003a3.3 3.3 0 0 1-.538-1.809v-.01a3.37 3.37 0 0 0-3.37-3.37.55.55 0 0 1-.465-.237 3.38 3.38 0 0 0-2.739-1.406c-1.127 0-2.13.558-2.739 1.406a.58.58 0 0 1-.465.238h-.087a3.37 3.37 0 0 0-3.283 3.369v.01c0 .641-.186 1.272-.537 1.81l-.002.003a3.37 3.37 0 0 0-.225 3.314.53.53 0 0 1 0 .465 3.282 3.282 0 0 0 2.956 4.724h8.765a3.28 3.28 0 0 0 3.287-3.287c0-.517-.124-1.003-.331-1.437a.53.53 0 0 1 0-.465m-12.522-2.73h-.013l1.225 2.406c.126 2.863 1.243 0 3.971 0 2.729 0 3.918 3.186 4.044.324l1.16-3.265c-.054-1.272-.976-1.361-1.16-1.361h-3.288a3.95 3.95 0 0 1-3.258-1.709.27.27 0 0 0-.471.052l-.084.198a2.35 2.35 0 0 1-1.267 1.282q-.028.013-.053.02c-.24.126-.806.5-.827 1.47l.01.313z"/><path fill="url(#i)" d="M23.407 12.241c.217-.444.33-.94.33-1.457 0-.478-.098-.925-.274-1.334h.006a3.3 3.3 0 0 0-.287-.524l-.002-.003a3.3 3.3 0 0 1-.538-1.809v-.01a3.37 3.37 0 0 0-3.37-3.37.55.55 0 0 1-.465-.237 3.38 3.38 0 0 0-2.739-1.406c-1.127 0-2.13.558-2.739 1.406a.58.58 0 0 1-.465.238h-.087a3.37 3.37 0 0 0-3.283 3.369v.01c0 .641-.186 1.272-.537 1.81l-.002.003a3.37 3.37 0 0 0-.225 3.314.53.53 0 0 1 0 .465 3.282 3.282 0 0 0 2.956 4.724h8.765a3.28 3.28 0 0 0 3.287-3.287c0-.517-.124-1.003-.331-1.437a.53.53 0 0 1 0-.465m-12.522-2.73h-.013l1.225 2.406c.126 2.863 1.243 0 3.971 0 2.729 0 3.918 3.186 4.044.324l1.16-3.265c-.054-1.272-.976-1.361-1.16-1.361h-3.288a3.95 3.95 0 0 1-3.258-1.709.27.27 0 0 0-.471.052l-.084.198a2.35 2.35 0 0 1-1.267 1.282q-.028.013-.053.02c-.24.126-.806.5-.827 1.47l.01.313z"/><path fill="url(#j)" d="M23.407 12.241c.217-.444.33-.94.33-1.457 0-.478-.098-.925-.274-1.334h.006a3.3 3.3 0 0 0-.287-.524l-.002-.003a3.3 3.3 0 0 1-.538-1.809v-.01a3.37 3.37 0 0 0-3.37-3.37.55.55 0 0 1-.465-.237 3.38 3.38 0 0 0-2.739-1.406c-1.127 0-2.13.558-2.739 1.406a.58.58 0 0 1-.465.238h-.087a3.37 3.37 0 0 0-3.283 3.369v.01c0 .641-.186 1.272-.537 1.81l-.002.003a3.37 3.37 0 0 0-.225 3.314.53.53 0 0 1 0 .465 3.282 3.282 0 0 0 2.956 4.724h8.765a3.28 3.28 0 0 0 3.287-3.287c0-.517-.124-1.003-.331-1.437a.53.53 0 0 1 0-.465m-12.522-2.73h-.013l1.225 2.406c.126 2.863 1.243 0 3.971 0 2.729 0 3.918 3.186 4.044.324l1.16-3.265c-.054-1.272-.976-1.361-1.16-1.361h-3.288a3.95 3.95 0 0 1-3.258-1.709.27.27 0 0 0-.471.052l-.084.198a2.35 2.35 0 0 1-1.267 1.282q-.028.013-.053.02c-.24.126-.806.5-.827 1.47l.01.313z"/><path fill="url(#k)" d="M23.407 12.241c.217-.444.33-.94.33-1.457 0-.478-.098-.925-.274-1.334h.006a3.3 3.3 0 0 0-.287-.524l-.002-.003a3.3 3.3 0 0 1-.538-1.809v-.01a3.37 3.37 0 0 0-3.37-3.37.55.55 0 0 1-.465-.237 3.38 3.38 0 0 0-2.739-1.406c-1.127 0-2.13.558-2.739 1.406a.58.58 0 0 1-.465.238h-.087a3.37 3.37 0 0 0-3.283 3.369v.01c0 .641-.186 1.272-.537 1.81l-.002.003a3.37 3.37 0 0 0-.225 3.314.53.53 0 0 1 0 .465 3.282 3.282 0 0 0 2.956 4.724h8.765a3.28 3.28 0 0 0 3.287-3.287c0-.517-.124-1.003-.331-1.437a.53.53 0 0 1 0-.465m-12.522-2.73h-.013l1.225 2.406c.126 2.863 1.243 0 3.971 0 2.729 0 3.918 3.186 4.044.324l1.16-3.265c-.054-1.272-.976-1.361-1.16-1.361h-3.288a3.95 3.95 0 0 1-3.258-1.709.27.27 0 0 0-.471.052l-.084.198a2.35 2.35 0 0 1-1.267 1.282q-.028.013-.053.02c-.24.126-.806.5-.827 1.47l.01.313z"/></g><path fill="url(#l)" fill-rule="evenodd" d="M23.407 12.241c.217-.444.33-.94.33-1.457 0-.478-.098-.925-.274-1.334h.006a3.3 3.3 0 0 0-.287-.524l-.002-.003a3.3 3.3 0 0 1-.538-1.809v-.01a3.37 3.37 0 0 0-3.37-3.37.55.55 0 0 1-.465-.237 3.38 3.38 0 0 0-2.739-1.406c-1.127 0-2.13.558-2.739 1.406a.58.58 0 0 1-.465.238h-.087a3.37 3.37 0 0 0-3.283 3.369v.01c0 .641-.186 1.272-.537 1.81l-.002.003a3.37 3.37 0 0 0-.225 3.314.53.53 0 0 1 0 .465 3.282 3.282 0 0 0 2.956 4.724h8.765a3.28 3.28 0 0 0 3.287-3.287c0-.517-.124-1.003-.331-1.437a.53.53 0 0 1 0-.465m-12.522-2.73h-.013l1.225 2.406c.126 2.863 1.243 0 3.971 0 2.729 0 3.918 3.186 4.044.324l1.16-3.265c-.054-1.272-.976-1.361-1.16-1.361h-3.288a3.95 3.95 0 0 1-3.258-1.709.27.27 0 0 0-.471.052l-.084.198a2.35 2.35 0 0 1-1.267 1.282q-.028.013-.053.02c-.24.126-.806.5-.827 1.47l.01.313z" clip-rule="evenodd"/><path fill="url(#m)" d="m9.157 24.67-3.906.183c.578-5.253 5.03-9.34 10.437-9.34h.625c5.415 0 9.872 4.098 10.44 9.362l-4.378-.206v5.188H9.157z"/><path fill="url(#n)" d="m9.157 24.67-3.906.183c.578-5.253 5.03-9.34 10.437-9.34h.625c5.415 0 9.872 4.098 10.44 9.362l-4.378-.206v5.188H9.157z"/><path fill="url(#o)" d="m9.157 24.67-3.906.183c.578-5.253 5.03-9.34 10.437-9.34h.625c5.415 0 9.872 4.098 10.44 9.362l-4.378-.206v5.188H9.157z"/><path fill="url(#p)" d="m9.157 24.67-3.906.183c.578-5.253 5.03-9.34 10.437-9.34h.625c5.415 0 9.872 4.098 10.44 9.362l-4.378-.206v5.188H9.157z"/><path fill="url(#q)" d="M22.925 17.856a10.48 10.48 0 0 1 3.827 7.02l-3.827-.18z"/><path fill="url(#r)" d="M22.925 17.856a10.48 10.48 0 0 1 3.827 7.02l-3.827-.18z"/><path fill="url(#s)" d="m5.251 24.853 3.847-.16.059.182h.031v-7.109a10.49 10.49 0 0 0-3.937 7.087"/><path fill="url(#t)" d="m5.251 24.853 3.847-.16.059.182h.031v-7.109a10.49 10.49 0 0 0-3.937 7.087"/><path fill="url(#u)" d="m5.251 24.853 3.847-.16.059.182h.031v-7.109a10.49 10.49 0 0 0-3.937 7.087"/><g filter="url(#v)"><path fill="url(#w)" d="M26.374 28.45c.6-1.05.454-2.812.375-3.597l-3.937-.168c-.413.213-1.526.089-2.031 0l-8.898-1.406c-.617-.117-2.096-.232-2.773.133-.766.412-1 1.192-.938 1.578 4.271 1.531 12.632 4.562 13.757 4.812 1.82.313 3.695-.039 4.445-1.351"/><path fill="url(#x)" d="M26.374 28.45c.6-1.05.454-2.812.375-3.597l-3.937-.168c-.413.213-1.526.089-2.031 0l-8.898-1.406c-.617-.117-2.096-.232-2.773.133-.766.412-1 1.192-.938 1.578 4.271 1.531 12.632 4.562 13.757 4.812 1.82.313 3.695-.039 4.445-1.351"/></g><path fill="url(#y)" d="M26.374 28.45c.6-1.05.454-2.812.375-3.597l-3.937-.168c-.413.213-1.526.089-2.031 0l-8.898-1.406c-.617-.117-2.096-.232-2.773.133-.766.412-1 1.192-.938 1.578 4.271 1.531 12.632 4.562 13.757 4.812 1.82.313 3.695-.039 4.445-1.351"/><path fill="url(#z)" d="M26.374 28.45c.6-1.05.454-2.812.375-3.597l-3.937-.168c-.413.213-1.526.089-2.031 0l-8.898-1.406c-.617-.117-2.096-.232-2.773.133-.766.412-1 1.192-.938 1.578 4.271 1.531 12.632 4.562 13.757 4.812 1.82.313 3.695-.039 4.445-1.351"/><path fill="url(#A)" d="M26.374 28.45c.6-1.05.454-2.812.375-3.597l-3.937-.168c-.413.213-1.526.089-2.031 0l-8.898-1.406c-.617-.117-2.096-.232-2.773.133-.766.412-1 1.192-.938 1.578 4.271 1.531 12.632 4.562 13.757 4.812 1.82.313 3.695-.039 4.445-1.351"/><g filter="url(#B)"><path fill="url(#C)" d="M5.626 28.45c-.6-1.05-.454-2.812-.375-3.597l3.937-.168c.413.213 1.526.089 2.031 0l9.672-1.562c.617-.118 1.448-.177 2.125.187.728.392.7.965.642 1.352a.1.1 0 0 1-.063.078c-4.286 1.54-12.404 4.813-13.524 5.062-1.82.313-3.695-.039-4.445-1.351"/><path fill="url(#D)" d="M5.626 28.45c-.6-1.05-.454-2.812-.375-3.597l3.937-.168c.413.213 1.526.089 2.031 0l9.672-1.562c.617-.118 1.448-.177 2.125.187.728.392.7.965.642 1.352a.1.1 0 0 1-.063.078c-4.286 1.54-12.404 4.813-13.524 5.062-1.82.313-3.695-.039-4.445-1.351"/></g><rect width="4.223" height="6.028" x="13.876" y="12.607" fill="url(#E)" rx="2.111"/><g filter="url(#F)"><path fill="url(#G)" d="M11.283 12.445a1.643 1.643 0 1 0 0-3.287 1.643 1.643 0 0 0 0 3.287"/></g><g filter="url(#H)"><path fill="url(#I)" d="M20.999 12.445a1.643 1.643 0 1 0 0-3.287 1.643 1.643 0 0 0 0 3.287"/><path fill="url(#J)" d="M20.999 12.445a1.643 1.643 0 1 0 0-3.287 1.643 1.643 0 0 0 0 3.287"/></g><g filter="url(#K)"><path fill="#E5AA8B" d="M20.999 11.898a1.097 1.097 0 1 0 0-2.194 1.097 1.097 0 0 0 0 2.194"/><path fill="url(#L)" d="M20.999 11.898a1.097 1.097 0 1 0 0-2.194 1.097 1.097 0 0 0 0 2.194"/></g><g filter="url(#M)"><path fill="#B47A6C" d="M11.302 11.898a1.097 1.097 0 1 0 0-2.194 1.097 1.097 0 0 0 0 2.194"/><path fill="url(#N)" d="M11.302 11.898a1.097 1.097 0 1 0 0-2.194 1.097 1.097 0 0 0 0 2.194"/></g><g filter="url(#O)"><path fill="url(#P)" d="m10.875 9.24-.01-.312c.02-.97.586-1.344.827-1.47q.024-.007.052-.02l.052-.021c.545-.25.985-.688 1.215-1.26l.084-.199a.27.27 0 0 1 .471-.052 3.95 3.95 0 0 0 3.258 1.709h3.289c.184 0 1.105.09 1.16 1.36l-.122 3.14c-.126 2.862-2.36 4.784-5.09 4.784-2.728 0-4.963-1.922-5.089-4.785z"/><path fill="url(#Q)" d="m10.875 9.24-.01-.312c.02-.97.586-1.344.827-1.47q.024-.007.052-.02l.052-.021c.545-.25.985-.688 1.215-1.26l.084-.199a.27.27 0 0 1 .471-.052 3.95 3.95 0 0 0 3.258 1.709h3.289c.184 0 1.105.09 1.16 1.36l-.122 3.14c-.126 2.862-2.36 4.784-5.09 4.784-2.728 0-4.963-1.922-5.089-4.785z"/><path fill="url(#R)" d="m10.875 9.24-.01-.312c.02-.97.586-1.344.827-1.47q.024-.007.052-.02l.052-.021c.545-.25.985-.688 1.215-1.26l.084-.199a.27.27 0 0 1 .471-.052 3.95 3.95 0 0 0 3.258 1.709h3.289c.184 0 1.105.09 1.16 1.36l-.122 3.14c-.126 2.862-2.36 4.784-5.09 4.784-2.728 0-4.963-1.922-5.089-4.785z"/><path fill="url(#S)" d="m10.875 9.24-.01-.312c.02-.97.586-1.344.827-1.47q.024-.007.052-.02l.052-.021c.545-.25.985-.688 1.215-1.26l.084-.199a.27.27 0 0 1 .471-.052 3.95 3.95 0 0 0 3.258 1.709h3.289c.184 0 1.105.09 1.16 1.36l-.122 3.14c-.126 2.862-2.36 4.784-5.09 4.784-2.728 0-4.963-1.922-5.089-4.785z"/><path fill="url(#T)" d="m10.875 9.24-.01-.312c.02-.97.586-1.344.827-1.47q.024-.007.052-.02l.052-.021c.545-.25.985-.688 1.215-1.26l.084-.199a.27.27 0 0 1 .471-.052 3.95 3.95 0 0 0 3.258 1.709h3.289c.184 0 1.105.09 1.16 1.36l-.122 3.14c-.126 2.862-2.36 4.784-5.09 4.784-2.728 0-4.963-1.922-5.089-4.785z"/><path fill="url(#U)" d="m10.875 9.24-.01-.312c.02-.97.586-1.344.827-1.47q.024-.007.052-.02l.052-.021c.545-.25.985-.688 1.215-1.26l.084-.199a.27.27 0 0 1 .471-.052 3.95 3.95 0 0 0 3.258 1.709h3.289c.184 0 1.105.09 1.16 1.36l-.122 3.14c-.126 2.862-2.36 4.784-5.09 4.784-2.728 0-4.963-1.922-5.089-4.785z"/><path fill="url(#V)" d="m10.875 9.24-.01-.312c.02-.97.586-1.344.827-1.47q.024-.007.052-.02l.052-.021c.545-.25.985-.688 1.215-1.26l.084-.199a.27.27 0 0 1 .471-.052 3.95 3.95 0 0 0 3.258 1.709h3.289c.184 0 1.105.09 1.16 1.36l-.122 3.14c-.126 2.862-2.36 4.784-5.09 4.784-2.728 0-4.963-1.922-5.089-4.785z"/></g><path fill="url(#W)" d="M10.873 9.512h.012l-.01-.271-.01-.313c.02-.97.586-1.344.827-1.47q.024-.007.052-.02l.052-.021c.545-.25.985-.688 1.215-1.26l.084-.199a.27.27 0 0 1 .471-.052 3.95 3.95 0 0 0 3.258 1.709h3.289c.184 0 1.105.09 1.16 1.36l-.122 3.14c-.126 2.862-2.36 4.784-5.09 4.784-2.728 0-4.963-1.922-5.089-4.785z"/><g filter="url(#X)"><path fill="#C28178" d="m15.667 10.574-.698 1.736a.55.55 0 0 0 .532.714h.803a.553.553 0 0 0 .532-.714l-.543-1.736c-.116-.385-.504-.385-.626 0"/></g><g filter="url(#Y)"><path fill="#EFB696" d="m15.678 10.432-.543 1.737a.55.55 0 0 0 .532.714h.803a.552.552 0 0 0 .532-.714l-.543-1.737c-.116-.384-.66-.384-.781 0"/><path fill="url(#Z)" d="m15.678 10.432-.543 1.737a.55.55 0 0 0 .532.714h.803a.552.552 0 0 0 .532-.714l-.543-1.737c-.116-.384-.66-.384-.781 0"/><path fill="url(#aa)" d="m15.678 10.432-.543 1.737a.55.55 0 0 0 .532.714h.803a.552.552 0 0 0 .532-.714l-.543-1.737c-.116-.384-.66-.384-.781 0"/><path fill="url(#ab)" d="m15.678 10.432-.543 1.737a.55.55 0 0 0 .532.714h.803a.552.552 0 0 0 .532-.714l-.543-1.737c-.116-.384-.66-.384-.781 0"/></g><path fill="url(#ac)" d="m15.678 10.432-.543 1.737a.55.55 0 0 0 .532.714h.803a.552.552 0 0 0 .532-.714l-.543-1.737c-.116-.384-.66-.384-.781 0"/><path fill="url(#ad)" d="m15.678 10.432-.543 1.737a.55.55 0 0 0 .532.714h.803a.552.552 0 0 0 .532-.714l-.543-1.737c-.116-.384-.66-.384-.781 0"/><g filter="url(#ae)"><path fill="#635D5F" d="M17.235 10.22c.27-.477.683-.853 1.57-.853.388 0 .763.107 1.096.376.274.222.237.506.025.612l-.568.325c-.666-.216-1.402-.245-2.123-.46"/></g><g filter="url(#af)"><path fill="#635D5F" d="M14.902 10.22c-.271-.477-.683-.853-1.57-.853-.389 0-.763.107-1.096.376-.275.222-.238.506-.025.612l.568.325c.666-.216 1.402-.245 2.123-.46"/></g><path fill="#fff" d="M18.51 9.427c.667 0 1.23.46 1.384 1.081a.28.28 0 0 1-.273.348h-2.279a.235.235 0 0 1-.232-.278 1.43 1.43 0 0 1 1.4-1.151"/><path fill="url(#ag)" d="M18.299 9.704a.91.91 0 0 1 .878 1.152h-1.76a.915.915 0 0 1 .883-1.152"/><path fill="#000" d="M17.777 10.616a.52.52 0 0 1 .522-.522.52.52 0 0 1 .464.762h-.924a.5.5 0 0 1-.062-.24"/><g filter="url(#ah)"><path fill="#C7A7A3" d="M18.232 9.897c.065.087-.07.193-.225.308s-.27.197-.334.11c-.065-.087.008-.251.162-.366.154-.116.332-.139.397-.052"/><path fill="url(#ai)" d="M18.232 9.897c.065.087-.07.193-.225.308s-.27.197-.334.11c-.065-.087.008-.251.162-.366.154-.116.332-.139.397-.052"/></g><g filter="url(#aj)"><path fill="url(#ak)" d="M19.11 10.496a.86.86 0 0 0-.235-.473l-.266.291.12.233z"/></g><path fill="#fff" d="M13.626 9.427c-.667 0-1.23.46-1.383 1.081a.28.28 0 0 0 .273.348h2.279a.235.235 0 0 0 .232-.278 1.43 1.43 0 0 0-1.4-1.151"/><path fill="url(#al)" d="M13.838 9.704a.912.912 0 0 0-.879 1.152h1.761a1 1 0 0 0 .033-.24.92.92 0 0 0-.915-.912"/><path fill="#000" d="M14.36 10.616a.52.52 0 0 0-.522-.522.52.52 0 0 0-.464.762h.924a.5.5 0 0 0 .062-.24"/><g filter="url(#am)"><path fill="url(#an)" d="M14.67 10.509c0-.295-.24-.491-.304-.55l-.294.284.18.37z"/></g><g filter="url(#ao)" transform="rotate(-27.914 13.563 10.094)"><ellipse cx="13.563" cy="10.094" fill="#C7A7A3" fill-opacity=".9" rx=".398" ry=".201"/><ellipse cx="13.563" cy="10.094" fill="url(#ap)" rx=".398" ry=".201"/></g><g filter="url(#aq)"><path fill="url(#ar)" d="M11.07 4.659c.634-.565 1.549-.57 2.063-.48l.41 1.319c-.262-.04-.496.051-.693.24-.462 1.711-2.208 1.455-2.55 2.738-.155-1.523-.326-2.841.77-3.817"/><path fill="url(#as)" d="M11.07 4.659c.634-.565 1.549-.57 2.063-.48l.41 1.319c-.262-.04-.496.051-.693.24-.462 1.711-2.208 1.455-2.55 2.738-.155-1.523-.326-2.841.77-3.817"/></g><g filter="url(#at)"><path fill="url(#au)" d="M15.452 2.844c-1.157-.255-2.397.976-2.517 1.404 1.576 3.698 3.994 3.345 6.677 3.047 1.606-.178 1.78.554 1.917.908-.445-4.143-3.44-4.777-6.077-5.359"/><path fill="url(#av)" d="M15.452 2.844c-1.157-.255-2.397.976-2.517 1.404 1.576 3.698 3.994 3.345 6.677 3.047 1.606-.178 1.78.554 1.917.908-.445-4.143-3.44-4.777-6.077-5.359"/><path fill="url(#aw)" d="M15.452 2.844c-1.157-.255-2.397.976-2.517 1.404 1.576 3.698 3.994 3.345 6.677 3.047 1.606-.178 1.78.554 1.917.908-.445-4.143-3.44-4.777-6.077-5.359"/></g><g filter="url(#ax)"><path stroke="url(#ay)" stroke-linecap="round" stroke-width=".2" d="M13.116 4.12c.023.248.24 1.18.556 1.746"/></g><g stroke-linecap="round" stroke-linejoin="round" stroke-width=".2" clip-rule="evenodd" filter="url(#az)"><path stroke="url(#aA)" d="M16.952 14.285c-.485-.33-1.193-.33-1.673 0a.2.2 0 1 1-.226-.33c.616-.423 1.504-.423 2.124 0a.2.2 0 1 1-.225.33"/><path stroke="url(#aB)" d="M16.952 14.285c-.485-.33-1.193-.33-1.673 0a.2.2 0 1 1-.226-.33c.616-.423 1.504-.423 2.124 0a.2.2 0 1 1-.225.33"/></g><path fill="#87004D" fill-rule="evenodd" d="M16.952 14.285c-.485-.33-1.193-.33-1.673 0a.2.2 0 1 1-.226-.33c.616-.423 1.504-.423 2.124 0a.2.2 0 1 1-.225.33" clip-rule="evenodd"/><g filter="url(#aC)"><path fill="url(#aD)" d="M16.58 14.955a.512.512 0 1 0-1.024 0z"/></g><g filter="url(#aE)"><rect width="2.648" height=".541" x="12.531" y="8.404" fill="#9F6836" rx=".271"/></g><g filter="url(#aF)"><rect width="2.648" height=".541" x="17.05" y="8.404" fill="#9F6836" rx=".271"/></g><g filter="url(#aG)"><path stroke="#976239" stroke-linecap="round" stroke-width=".25" d="M17.398 8.628h2.07"/></g><g filter="url(#aH)"><path stroke="#976239" stroke-linecap="round" stroke-width=".25" d="M12.903 8.628h2.07"/></g><defs><radialGradient id="c" cx="0" cy="0" r="1" gradientTransform="matrix(1.78038 -3.69773 8.43106 4.0594 20.862 16.745)" gradientUnits="userSpaceOnUse"><stop stop-color="#F9BFA4"/><stop offset="1" stop-color="#FFC3A8" stop-opacity="0"/></radialGradient><radialGradient id="d" cx="0" cy="0" r="1" gradientTransform="matrix(-.13695 5.6493 -5.28812 -.1282 15.383 12.602)" gradientUnits="userSpaceOnUse"><stop offset=".591" stop-color="#C7897D"/><stop offset="1" stop-color="#C7897D" stop-opacity="0"/></radialGradient><radialGradient id="e" cx="0" cy="0" r="1" gradientTransform="matrix(-3.21838 2.4994 -3.07663 -3.96165 12.884 13.63)" gradientUnits="userSpaceOnUse"><stop offset=".205" stop-color="#CF987B"/><stop offset="1" stop-color="#CF987B" stop-opacity="0"/></radialGradient><radialGradient id="f" cx="0" cy="0" r="1" gradientTransform="rotate(125.038 2.693 8.406)scale(1.81903 1.65341)" gradientUnits="userSpaceOnUse"><stop offset=".334" stop-color="#C58E72"/><stop offset="1" stop-color="#C58E72" stop-opacity="0"/></radialGradient><radialGradient id="g" cx="0" cy="0" r="1" gradientTransform="rotate(-167.428 6.358 4.11)scale(2.43801 3.5839)" gradientUnits="userSpaceOnUse"><stop offset=".226" stop-color="#C49070"/><stop offset="1" stop-color="#C49070" stop-opacity="0"/></radialGradient><radialGradient id="h" cx="0" cy="0" r="1" gradientTransform="matrix(2.20844 3.2355 -5.6464 3.85404 12.148 3.067)" gradientUnits="userSpaceOnUse"><stop stop-color="#DCC893"/><stop offset="1" stop-color="#DCC893" stop-opacity="0"/></radialGradient><radialGradient id="i" cx="0" cy="0" r="1" gradientTransform="matrix(-1.12985 1.23258 -1.72251 -1.57895 21.683 4.933)" gradientUnits="userSpaceOnUse"><stop stop-color="#FFFFBF"/><stop offset="1" stop-color="#FFFFBF" stop-opacity="0"/></radialGradient><radialGradient id="j" cx="0" cy="0" r="1" gradientTransform="matrix(-1.88301 .54781 -1.19197 -4.0972 23.738 9.932)" gradientUnits="userSpaceOnUse"><stop stop-color="#FFFABE"/><stop offset="1" stop-color="#FFFABE" stop-opacity="0"/></radialGradient><radialGradient id="k" cx="0" cy="0" r="1" gradientTransform="matrix(-3.2184 1.36951 -2.18205 -5.12789 23.464 12.773)" gradientUnits="userSpaceOnUse"><stop stop-color="#FFF4BC"/><stop offset="1" stop-color="#FFF4BC" stop-opacity="0"/></radialGradient><radialGradient id="l" cx="0" cy="0" r="1" gradientTransform="matrix(0 -6.74992 12.3304 0 16.068 17.087)" gradientUnits="userSpaceOnUse"><stop offset=".321" stop-color="#BD8D6E"/><stop offset="1" stop-color="#ECBA98" stop-opacity="0"/></radialGradient><radialGradient id="m" cx="0" cy="0" r="1" gradientTransform="matrix(0 7.625 -11.8762 0 16.002 15.982)" gradientUnits="userSpaceOnUse"><stop stop-color="#8755A0"/><stop offset="1" stop-color="#9A6ABA"/></radialGradient><radialGradient id="n" cx="0" cy="0" r="1" gradientTransform="rotate(-90 23.774 .83)scale(8.375)" gradientUnits="userSpaceOnUse"><stop stop-color="#B188E7"/><stop offset="1" stop-color="#A270CC" stop-opacity="0"/></radialGradient><radialGradient id="p" cx="0" cy="0" r="1" gradientTransform="matrix(-5.65625 0 0 -3.18983 15.005 15.513)" gradientUnits="userSpaceOnUse"><stop offset=".225" stop-color="#6F3A5F"/><stop offset="1" stop-color="#6F3A5F" stop-opacity="0"/></radialGradient><radialGradient id="q" cx="0" cy="0" r="1" gradientTransform="matrix(2.13456 -.2935 1.15245 8.38143 24.387 23.786)" gradientUnits="userSpaceOnUse"><stop stop-color="#A886E6"/><stop offset="1" stop-color="#9A69B9"/></radialGradient><radialGradient id="s" cx="0" cy="0" r="1" gradientTransform="rotate(18.435 -63.515 28.954)scale(3.1219 5.27347)" gradientUnits="userSpaceOnUse"><stop stop-color="#8E71AF"/><stop offset=".965" stop-color="#795993"/></radialGradient><radialGradient id="u" cx="0" cy="0" r="1" gradientTransform="rotate(-87.766 17.068 7.856)scale(4.4096 .36215)" gradientUnits="userSpaceOnUse"><stop offset=".419" stop-color="#7F5B9C"/><stop offset="1" stop-color="#7F5B9C" stop-opacity="0"/></radialGradient><radialGradient id="w" cx="0" cy="0" r="1" gradientTransform="rotate(5.344 -256.936 190.942)scale(14.4591 1.31818)" gradientUnits="userSpaceOnUse"><stop stop-color="#DEAB99"/><stop offset="1" stop-color="#E8B39A"/></radialGradient><radialGradient id="y" cx="0" cy="0" r="1" gradientTransform="rotate(63.276 -12.789 27.465)scale(1.19884 4.82304)" gradientUnits="userSpaceOnUse"><stop offset=".178" stop-color="#A2606C"/><stop offset="1" stop-color="#A2606C" stop-opacity="0"/></radialGradient><radialGradient id="z" cx="0" cy="0" r="1" gradientTransform="matrix(-4.18419 1.99325 -.46677 -.97983 24.715 23.753)" gradientUnits="userSpaceOnUse"><stop stop-color="#DAA37D"/><stop offset="1" stop-color="#AA8368" stop-opacity="0"/><stop offset="1" stop-color="#DAA37D" stop-opacity="0"/></radialGradient><radialGradient id="A" cx="0" cy="0" r="1" gradientTransform="rotate(-123.262 13.415 8.809)scale(4.08149 11.2931)" gradientUnits="userSpaceOnUse"><stop stop-color="#C49676"/><stop offset=".475" stop-color="#C49676" stop-opacity="0"/></radialGradient><radialGradient id="C" cx="0" cy="0" r="1" gradientTransform="matrix(.59435 2.55245 -38.40477 8.94272 16.219 25.242)" gradientUnits="userSpaceOnUse"><stop offset=".044" stop-color="#F9C6AA"/><stop offset=".198" stop-color="#F1B8A2"/></radialGradient><radialGradient id="E" cx="0" cy="0" r="1" gradientTransform="matrix(2.62845 2.05877 -2.5322 3.2329 15.47 16.576)" gradientUnits="userSpaceOnUse"><stop offset=".322" stop-color="#B97B72"/><stop offset="1" stop-color="#DEA996"/></radialGradient><radialGradient id="I" cx="0" cy="0" r="1" gradientTransform="rotate(-24.444 36.065 -40.99)scale(2.79249 3.4095)" gradientUnits="userSpaceOnUse"><stop offset=".572" stop-color="#E1A792"/><stop offset=".905" stop-color="#F6C3A3"/></radialGradient><radialGradient id="J" cx="0" cy="0" r="1" gradientTransform="matrix(1.01859 .29103 -.153 .53551 21.238 8.982)" gradientUnits="userSpaceOnUse"><stop stop-color="#D59566"/><stop offset="1" stop-color="#D59566" stop-opacity="0"/></radialGradient><radialGradient id="L" cx="0" cy="0" r="1" gradientTransform="rotate(-20.298 41.229 -52.462)scale(1.33243)" gradientUnits="userSpaceOnUse"><stop offset=".71" stop-color="#E3A280" stop-opacity="0"/><stop offset="1" stop-color="#E3A280"/></radialGradient><radialGradient id="N" cx="0" cy="0" r="1" gradientTransform="rotate(180 5.651 5.4)scale(1.24283 1.18885)" gradientUnits="userSpaceOnUse"><stop offset=".573" stop-color="#B0725A" stop-opacity="0"/><stop offset="1" stop-color="#B0725A"/></radialGradient><radialGradient id="P" cx="0" cy="0" r="1" gradientTransform="matrix(-6.6424 3.06303 -4.09982 -8.89074 18.989 10.252)" gradientUnits="userSpaceOnUse"><stop stop-color="#FFC59D"/><stop offset="1" stop-color="#D39B88"/></radialGradient><radialGradient id="Q" cx="0" cy="0" r="1" gradientTransform="matrix(-2.15477 1.13974 -.96698 -1.82817 18.01 10.965)" gradientUnits="userSpaceOnUse"><stop stop-color="#FFC89E"/><stop offset="1" stop-color="#FFC89E" stop-opacity="0"/></radialGradient><radialGradient id="R" cx="0" cy="0" r="1" gradientTransform="matrix(.8548 -4.13148 5.24208 1.08457 13.842 17.18)" gradientUnits="userSpaceOnUse"><stop stop-color="#B97783"/><stop offset="1" stop-color="#B97783" stop-opacity="0"/></radialGradient><radialGradient id="S" cx="0" cy="0" r="1" gradientTransform="matrix(0 7.05158 -8.47508 0 16.38 10.217)" gradientUnits="userSpaceOnUse"><stop offset=".46" stop-color="#DCA38D" stop-opacity="0"/><stop offset="1" stop-color="#B57476"/></radialGradient><radialGradient id="T" cx="0" cy="0" r="1" gradientTransform="matrix(-5.85473 .78743 -1.35571 -10.08004 16.719 12.636)" gradientUnits="userSpaceOnUse"><stop offset=".813" stop-color="#E3AB91" stop-opacity="0"/><stop offset="1" stop-color="#E3AB91"/></radialGradient><radialGradient id="U" cx="0" cy="0" r="1" gradientTransform="matrix(0 -1.17533 1.68968 0 18.419 9.825)" gradientUnits="userSpaceOnUse"><stop offset=".259" stop-color="#E3A48E"/><stop offset="1" stop-color="#E3A48E" stop-opacity="0"/></radialGradient><radialGradient id="V" cx="0" cy="0" r="1" gradientTransform="matrix(0 -1.38903 1.59192 0 14.11 9.914)" gradientUnits="userSpaceOnUse"><stop stop-color="#C2847A"/><stop offset="1" stop-color="#C2847A" stop-opacity="0"/></radialGradient><radialGradient id="W" cx="0" cy="0" r="1" gradientTransform="matrix(-1.3757 0 0 -4.52886 21.273 11.344)" gradientUnits="userSpaceOnUse"><stop stop-color="#F4C099"/><stop offset="1" stop-color="#F4C099" stop-opacity="0"/></radialGradient><radialGradient id="Z" cx="0" cy="0" r="1" gradientTransform="rotate(-105.892 12.998 -.325)scale(2.60146 1.48859)" gradientUnits="userSpaceOnUse"><stop offset=".017" stop-color="#FDC9A8"/><stop offset="1" stop-color="#FDC9A8" stop-opacity="0"/></radialGradient><radialGradient id="ad" cx="0" cy="0" r="1" gradientTransform="matrix(-1.3089 .93493 -1.25227 -1.75316 16.362 11.721)" gradientUnits="userSpaceOnUse"><stop offset=".797" stop-color="#C27B7C" stop-opacity="0"/><stop offset="1" stop-color="#C27B7C"/></radialGradient><radialGradient id="ag" cx="0" cy="0" r="1" gradientTransform="matrix(0 .82863 -1.31804 0 18.297 10.191)" gradientUnits="userSpaceOnUse"><stop offset=".802" stop-color="#925C51"/><stop offset="1" stop-color="#694B43"/><stop offset="1" stop-color="#804D49"/><stop offset="1" stop-color="#85534D"/></radialGradient><radialGradient id="ai" cx="0" cy="0" r="1" gradientTransform="matrix(-.23687 -.30524 .42024 -.3261 18.064 10.277)" gradientUnits="userSpaceOnUse"><stop offset=".766" stop-color="#FFE6E2" stop-opacity="0"/><stop offset=".966" stop-color="#FFE6E2"/></radialGradient><radialGradient id="al" cx="0" cy="0" r="1" gradientTransform="matrix(0 .82864 -1.31804 0 13.84 10.191)" gradientUnits="userSpaceOnUse"><stop offset=".802" stop-color="#925C51"/><stop offset="1" stop-color="#694B43"/><stop offset="1" stop-color="#804D49"/><stop offset="1" stop-color="#85534D"/></radialGradient><radialGradient id="ap" cx="0" cy="0" r="1" gradientTransform="rotate(-90.897 11.9 -1.46)scale(.50467 .60663)" gradientUnits="userSpaceOnUse"><stop offset=".766" stop-color="#FFE6E2" stop-opacity="0"/><stop offset=".966" stop-color="#FFE6E2"/></radialGradient><radialGradient id="ar" cx="0" cy="0" r="1" gradientTransform="rotate(54.19 .673 11.966)scale(3.37752 6.71114)" gradientUnits="userSpaceOnUse"><stop offset=".403" stop-color="#DAA88F" stop-opacity="0"/><stop offset="1" stop-color="#DAA88F"/></radialGradient><radialGradient id="as" cx="0" cy="0" r="1" gradientTransform="matrix(-1.91742 2.53363 -1.98703 -1.50376 13.295 4.659)" gradientUnits="userSpaceOnUse"><stop stop-color="#FEE2A9"/><stop offset="1" stop-color="#FEE2A9" stop-opacity="0"/></radialGradient><radialGradient id="au" cx="0" cy="0" r="1" gradientTransform="matrix(-2.15703 4.4852 -6.37776 -3.06722 18.02 2.707)" gradientUnits="userSpaceOnUse"><stop offset=".595" stop-color="#F0C6A3" stop-opacity="0"/><stop offset="1" stop-color="#F0C6A3"/></radialGradient><radialGradient id="av" cx="0" cy="0" r="1" gradientTransform="rotate(104.957 7.716 9.03)scale(3.39055 6.05224)" gradientUnits="userSpaceOnUse"><stop stop-color="#FFFFC0"/><stop offset="1" stop-color="#FFFFC0" stop-opacity="0"/></radialGradient><radialGradient id="aw" cx="0" cy="0" r="1" gradientTransform="matrix(-3.57796 -6.43679 5.76184 -3.20279 17.387 9.487)" gradientUnits="userSpaceOnUse"><stop offset=".891" stop-color="#DAC493" stop-opacity="0"/><stop offset=".979" stop-color="#DAC493"/></radialGradient><radialGradient id="aA" cx="0" cy="0" r="1" gradientTransform="rotate(116.896 3.996 12.175)scale(.30222 .93391)" gradientUnits="userSpaceOnUse"><stop offset=".236" stop-color="#DDA596"/><stop offset="1" stop-color="#DDA596" stop-opacity="0"/></radialGradient><radialGradient id="aB" cx="0" cy="0" r="1" gradientTransform="rotate(-31.372 32.824 -19.454)scale(.18758 .22697)" gradientUnits="userSpaceOnUse"><stop stop-color="#DDA596"/><stop offset="1" stop-color="#DDA596" stop-opacity="0"/></radialGradient><radialGradient id="aD" cx="0" cy="0" r="1" gradientTransform="matrix(.45361 -.42147 .49908 .53715 15.928 15.07)" gradientUnits="userSpaceOnUse"><stop stop-color="#CF9382"/><stop offset="1" stop-color="#C78572"/></radialGradient><filter id="a" width="15.589" height="16.089" x="8.399" y="1.341" color-interpolation-filters="sRGB" filterUnits="userSpaceOnUse"><feFlood flood-opacity="0" result="BackgroundImageFix"/><feBlend in="SourceGraphic" in2="BackgroundImageFix" result="shape"/><feColorMatrix in="SourceAlpha" result="hardAlpha" values="0 0 0 0 0 0 0 0 0 0 0 0 0 0 0 0 0 0 127 0"/><feOffset dx=".25" dy="-.75"/><feGaussianBlur stdDeviation=".75"/><feComposite in2="hardAlpha" k2="-1" k3="1" operator="arithmetic"/><feColorMatrix values="0 0 0 0 0.886275 0 0 0 0 0.698039 0 0 0 0 0.607843 0 0 0 1 0"/><feBlend in2="shape" result="effect1_innerShadow_13036_4646"/></filter><filter id="v" width="19.161" height="7.244" x="8.163" y="22.665" color-interpolation-filters="sRGB" filterUnits="userSpaceOnUse"><feFlood flood-opacity="0" result="BackgroundImageFix"/><feBlend in="SourceGraphic" in2="BackgroundImageFix" result="shape"/><feColorMatrix in="SourceAlpha" result="hardAlpha" values="0 0 0 0 0 0 0 0 0 0 0 0 0 0 0 0 0 0 127 0"/><feOffset dx=".5" dy="-.5"/><feGaussianBlur stdDeviation=".75"/><feComposite in2="hardAlpha" k2="-1" k3="1" operator="arithmetic"/><feColorMatrix values="0 0 0 0 0.698039 0 0 0 0 0.427451 0 0 0 0 0.537255 0 0 0 1 0"/><feBlend in2="shape" result="effect1_innerShadow_13036_4646"/></filter><filter id="B" width="19.009" height="7.177" x="5.176" y="22.732" color-interpolation-filters="sRGB" filterUnits="userSpaceOnUse"><feFlood flood-opacity="0" result="BackgroundImageFix"/><feBlend in="SourceGraphic" in2="BackgroundImageFix" result="shape"/><feColorMatrix in="SourceAlpha" result="hardAlpha" values="0 0 0 0 0 0 0 0 0 0 0 0 0 0 0 0 0 0 127 0"/><feOffset dx=".5" dy="-.3"/><feGaussianBlur stdDeviation=".5"/><feComposite in2="hardAlpha" k2="-1" k3="1" operator="arithmetic"/><feColorMatrix values="0 0 0 0 0.823529 0 0 0 0 0.6 0 0 0 0 0.490196 0 0 0 1 0"/><feBlend in2="shape" result="effect1_innerShadow_13036_4646"/></filter><filter id="F" width="3.437" height="3.537" x="9.639" y="9.158" color-interpolation-filters="sRGB" filterUnits="userSpaceOnUse"><feFlood flood-opacity="0" result="BackgroundImageFix"/><feBlend in="SourceGraphic" in2="BackgroundImageFix" result="shape"/><feColorMatrix in="SourceAlpha" result="hardAlpha" values="0 0 0 0 0 0 0 0 0 0 0 0 0 0 0 0 0 0 127 0"/><feOffset dx=".15" dy=".25"/><feGaussianBlur stdDeviation=".25"/><feComposite in2="hardAlpha" k2="-1" k3="1" operator="arithmetic"/><feColorMatrix values="0 0 0 0 0.858824 0 0 0 0 0.635294 0 0 0 0 0.533333 0 0 0 1 0"/><feBlend in2="shape" result="effect1_innerShadow_13036_4646"/></filter><filter id="H" width="3.287" height="3.537" x="19.355" y="8.908" color-interpolation-filters="sRGB" filterUnits="userSpaceOnUse"><feFlood flood-opacity="0" result="BackgroundImageFix"/><feBlend in="SourceGraphic" in2="BackgroundImageFix" result="shape"/><feColorMatrix in="SourceAlpha" result="hardAlpha" values="0 0 0 0 0 0 0 0 0 0 0 0 0 0 0 0 0 0 127 0"/><feOffset dy="-.25"/><feGaussianBlur stdDeviation=".25"/><feComposite in2="hardAlpha" k2="-1" k3="1" operator="arithmetic"/><feColorMatrix values="0 0 0 0 0.827451 0 0 0 0 0.568627 0 0 0 0 0.505882 0 0 0 1 0"/><feBlend in2="shape" result="effect1_innerShadow_13036_4646"/></filter><filter id="K" width="3.194" height="3.194" x="19.402" y="9.204" color-interpolation-filters="sRGB" filterUnits="userSpaceOnUse"><feFlood flood-opacity="0" result="BackgroundImageFix"/><feBlend in="SourceGraphic" in2="BackgroundImageFix" result="shape"/><feGaussianBlur result="effect1_foregroundBlur_13036_4646" stdDeviation=".25"/></filter><filter id="M" width="2.994" height="2.994" x="9.805" y="9.304" color-interpolation-filters="sRGB" filterUnits="userSpaceOnUse"><feFlood flood-opacity="0" result="BackgroundImageFix"/><feBlend in="SourceGraphic" in2="BackgroundImageFix" result="shape"/><feGaussianBlur result="effect1_foregroundBlur_13036_4646" stdDeviation=".2"/></filter><filter id="O" width="10.408" height="11.509" x="10.864" y="5.79" color-interpolation-filters="sRGB" filterUnits="userSpaceOnUse"><feFlood flood-opacity="0" result="BackgroundImageFix"/><feBlend in="SourceGraphic" in2="BackgroundImageFix" result="shape"/><feColorMatrix in="SourceAlpha" result="hardAlpha" values="0 0 0 0 0 0 0 0 0 0 0 0 0 0 0 0 0 0 127 0"/><feOffset dy=".4"/><feGaussianBlur stdDeviation=".3"/><feComposite in2="hardAlpha" k2="-1" k3="1" operator="arithmetic"/><feColorMatrix values="0 0 0 0 0.745098 0 0 0 0 0.486275 0 0 0 0 0.384314 0 0 0 1 0"/><feBlend in2="shape" result="effect1_innerShadow_13036_4646"/></filter><filter id="X" width="2.917" height="3.739" x="14.444" y="9.785" color-interpolation-filters="sRGB" filterUnits="userSpaceOnUse"><feFlood flood-opacity="0" result="BackgroundImageFix"/><feBlend in="SourceGraphic" in2="BackgroundImageFix" result="shape"/><feGaussianBlur result="effect1_foregroundBlur_13036_4646" stdDeviation=".25"/></filter><filter id="Y" width="2.417" height="3.239" x="14.86" y="9.894" color-interpolation-filters="sRGB" filterUnits="userSpaceOnUse"><feFlood flood-opacity="0" result="BackgroundImageFix"/><feBlend in="SourceGraphic" in2="BackgroundImageFix" result="shape"/><feGaussianBlur result="effect1_foregroundBlur_13036_4646" stdDeviation=".125"/></filter><filter id="ae" width="3.061" height="1.313" x="17.035" y="9.367" color-interpolation-filters="sRGB" filterUnits="userSpaceOnUse"><feFlood flood-opacity="0" result="BackgroundImageFix"/><feBlend in="SourceGraphic" in2="BackgroundImageFix" result="shape"/><feColorMatrix in="SourceAlpha" result="hardAlpha" values="0 0 0 0 0 0 0 0 0 0 0 0 0 0 0 0 0 0 127 0"/><feOffset dx="-.2"/><feGaussianBlur stdDeviation=".2"/><feComposite in2="hardAlpha" k2="-1" k3="1" operator="arithmetic"/><feColorMatrix values="0 0 0 0 0.141176 0 0 0 0 0.0862745 0 0 0 0 0.176471 0 0 0 1 0"/><feBlend in2="shape" result="effect1_innerShadow_13036_4646"/></filter><filter id="af" width="3.061" height="1.313" x="12.041" y="9.367" color-interpolation-filters="sRGB" filterUnits="userSpaceOnUse"><feFlood flood-opacity="0" result="BackgroundImageFix"/><feBlend in="SourceGraphic" in2="BackgroundImageFix" result="shape"/><feColorMatrix in="SourceAlpha" result="hardAlpha" values="0 0 0 0 0 0 0 0 0 0 0 0 0 0 0 0 0 0 127 0"/><feOffset dx=".2"/><feGaussianBlur stdDeviation=".125"/><feComposite in2="hardAlpha" k2="-1" k3="1" operator="arithmetic"/><feColorMatrix values="0 0 0 0 0.133333 0 0 0 0 0.0784314 0 0 0 0 0.168627 0 0 0 1 0"/><feBlend in2="shape" result="effect1_innerShadow_13036_4646"/></filter><filter id="ah" width=".799" height=".707" x="17.549" y="9.744" color-interpolation-filters="sRGB" filterUnits="userSpaceOnUse"><feFlood flood-opacity="0" result="BackgroundImageFix"/><feBlend in="SourceGraphic" in2="BackgroundImageFix" result="shape"/><feGaussianBlur result="effect1_foregroundBlur_13036_4646" stdDeviation=".05"/></filter><filter id="aj" width=".902" height=".924" x="18.409" y="9.823" color-interpolation-filters="sRGB" filterUnits="userSpaceOnUse"><feFlood flood-opacity="0" result="BackgroundImageFix"/><feBlend in="SourceGraphic" in2="BackgroundImageFix" result="shape"/><feGaussianBlur result="effect1_foregroundBlur_13036_4646" stdDeviation=".1"/></filter><filter id="am" width=".999" height="1.054" x="13.871" y="9.758" color-interpolation-filters="sRGB" filterUnits="userSpaceOnUse"><feFlood flood-opacity="0" result="BackgroundImageFix"/><feBlend in="SourceGraphic" in2="BackgroundImageFix" result="shape"/><feGaussianBlur result="effect1_foregroundBlur_13036_4646" stdDeviation=".1"/></filter><filter id="ao" width=".928" height=".715" x="13.098" y="9.736" color-interpolation-filters="sRGB" filterUnits="userSpaceOnUse"><feFlood flood-opacity="0" result="BackgroundImageFix"/><feBlend in="SourceGraphic" in2="BackgroundImageFix" result="shape"/><feGaussianBlur result="effect1_foregroundBlur_13036_4646" stdDeviation=".05"/></filter><filter id="aq" width="4.357" height="5.341" x="9.686" y="3.636" color-interpolation-filters="sRGB" filterUnits="userSpaceOnUse"><feFlood flood-opacity="0" result="BackgroundImageFix"/><feBlend in="SourceGraphic" in2="BackgroundImageFix" result="shape"/><feGaussianBlur result="effect1_foregroundBlur_13036_4646" stdDeviation=".25"/></filter><filter id="at" width="9.094" height="5.893" x="12.685" y="2.56" color-interpolation-filters="sRGB" filterUnits="userSpaceOnUse"><feFlood flood-opacity="0" result="BackgroundImageFix"/><feBlend in="SourceGraphic" in2="BackgroundImageFix" result="shape"/><feGaussianBlur result="effect1_foregroundBlur_13036_4646" stdDeviation=".125"/></filter><filter id="ax" width="1.156" height="2.346" x="12.816" y="3.82" color-interpolation-filters="sRGB" filterUnits="userSpaceOnUse"><feFlood flood-opacity="0" result="BackgroundImageFix"/><feBlend in="SourceGraphic" in2="BackgroundImageFix" result="shape"/><feGaussianBlur result="effect1_foregroundBlur_13036_4646" stdDeviation=".1"/></filter><filter id="az" width="2.698" height="1.082" x="14.766" y="13.438" color-interpolation-filters="sRGB" filterUnits="userSpaceOnUse"><feFlood flood-opacity="0" result="BackgroundImageFix"/><feBlend in="SourceGraphic" in2="BackgroundImageFix" result="shape"/><feGaussianBlur result="effect1_foregroundBlur_13036_4646" stdDeviation=".05"/></filter><filter id="aC" width="1.224" height=".712" x="15.456" y="14.343" color-interpolation-filters="sRGB" filterUnits="userSpaceOnUse"><feFlood flood-opacity="0" result="BackgroundImageFix"/><feBlend in="SourceGraphic" in2="BackgroundImageFix" result="shape"/><feGaussianBlur result="effect1_foregroundBlur_13036_4646" stdDeviation=".05"/></filter><filter id="aE" width="2.848" height=".741" x="12.531" y="8.204" color-interpolation-filters="sRGB" filterUnits="userSpaceOnUse"><feFlood flood-opacity="0" result="BackgroundImageFix"/><feBlend in="SourceGraphic" in2="BackgroundImageFix" result="shape"/><feColorMatrix in="SourceAlpha" result="hardAlpha" values="0 0 0 0 0 0 0 0 0 0 0 0 0 0 0 0 0 0 127 0"/><feOffset dx=".2" dy="-.2"/><feGaussianBlur stdDeviation=".15"/><feComposite in2="hardAlpha" k2="-1" k3="1" operator="arithmetic"/><feColorMatrix values="0 0 0 0 0.47451 0 0 0 0 0.262745 0 0 0 0 0.164706 0 0 0 1 0"/><feBlend in2="shape" result="effect1_innerShadow_13036_4646"/></filter><filter id="aF" width="2.848" height=".741" x="17.05" y="8.204" color-interpolation-filters="sRGB" filterUnits="userSpaceOnUse"><feFlood flood-opacity="0" result="BackgroundImageFix"/><feBlend in="SourceGraphic" in2="BackgroundImageFix" result="shape"/><feColorMatrix in="SourceAlpha" result="hardAlpha" values="0 0 0 0 0 0 0 0 0 0 0 0 0 0 0 0 0 0 127 0"/><feOffset dx=".2" dy="-.2"/><feGaussianBlur stdDeviation=".15"/><feComposite in2="hardAlpha" k2="-1" k3="1" operator="arithmetic"/><feColorMatrix values="0 0 0 0 0.47451 0 0 0 0 0.262745 0 0 0 0 0.164706 0 0 0 1 0"/><feBlend in2="shape" result="effect1_innerShadow_13036_4646"/></filter><filter id="aG" width="2.62" height=".55" x="17.123" y="8.352" color-interpolation-filters="sRGB" filterUnits="userSpaceOnUse"><feFlood flood-opacity="0" result="BackgroundImageFix"/><feBlend in="SourceGraphic" in2="BackgroundImageFix" result="shape"/><feGaussianBlur result="effect1_foregroundBlur_13036_4646" stdDeviation=".075"/></filter><filter id="aH" width="2.62" height=".55" x="12.628" y="8.352" color-interpolation-filters="sRGB" filterUnits="userSpaceOnUse"><feFlood flood-opacity="0" result="BackgroundImageFix"/><feBlend in="SourceGraphic" in2="BackgroundImageFix" result="shape"/><feGaussianBlur result="effect1_foregroundBlur_13036_4646" stdDeviation=".075"/></filter><linearGradient id="b" x1="20.862" x2="13.911" y1="3.7" y2="16.574" gradientUnits="userSpaceOnUse"><stop stop-color="#FFFFBE"/><stop offset="1" stop-color="#E5AE90"/></linearGradient><linearGradient id="o" x1="16.505" x2="16.505" y1="30.355" y2="26.605" gradientUnits="userSpaceOnUse"><stop stop-color="#7E45BF"/><stop offset="1" stop-color="#7E45BF" stop-opacity="0"/></linearGradient><linearGradient id="r" x1="22.8" x2="23.56" y1="22.852" y2="22.798" gradientUnits="userSpaceOnUse"><stop stop-color="#8559AF"/><stop offset="1" stop-color="#8559AF" stop-opacity="0"/></linearGradient><linearGradient id="t" x1="9.63" x2="8.474" y1="23.855" y2="23.761" gradientUnits="userSpaceOnUse"><stop stop-color="#754897"/><stop offset="1" stop-color="#754897" stop-opacity="0"/></linearGradient><linearGradient id="x" x1="17.493" x2="17.126" y1="29.909" y2="25.468" gradientUnits="userSpaceOnUse"><stop stop-color="#BF8088"/><stop offset="1" stop-color="#BF8088" stop-opacity="0"/></linearGradient><linearGradient id="D" x1="17.064" x2="16.095" y1="29.909" y2="25.312" gradientUnits="userSpaceOnUse"><stop stop-color="#C07684"/><stop offset="1" stop-color="#C07684" stop-opacity="0"/></linearGradient><linearGradient id="G" x1="9.639" x2="12.662" y1="10.89" y2="10.89" gradientUnits="userSpaceOnUse"><stop stop-color="#C48B78"/><stop offset="1" stop-color="#B47860"/></linearGradient><linearGradient id="aa" x1="15" x2="15.872" y1="12.104" y2="12.211" gradientUnits="userSpaceOnUse"><stop stop-color="#D1987A"/><stop offset="1" stop-color="#D1987A" stop-opacity="0"/></linearGradient><linearGradient id="ab" x1="16.068" x2="16.068" y1="12.977" y2="12.354" gradientUnits="userSpaceOnUse"><stop stop-color="#C57F82"/><stop offset="1" stop-color="#C57F82" stop-opacity="0"/></linearGradient><linearGradient id="ac" x1="16.148" x2="16.148" y1="12.95" y2="12.808" gradientUnits="userSpaceOnUse"><stop stop-color="#C27B7C"/><stop offset="1" stop-color="#C27B7C" stop-opacity="0"/></linearGradient><linearGradient id="ak" x1="19.091" x2="18.771" y1="10.246" y2="10.444" gradientUnits="userSpaceOnUse"><stop stop-color="#B4948D"/><stop offset="1" stop-color="#B4948D" stop-opacity="0"/></linearGradient><linearGradient id="an" x1="14.599" x2="14.279" y1="10.246" y2="10.444" gradientUnits="userSpaceOnUse"><stop stop-color="#B4948D"/><stop offset="1" stop-color="#B4948D" stop-opacity="0"/></linearGradient><linearGradient id="ay" x1="13.116" x2="13.672" y1="4.471" y2="5.772" gradientUnits="userSpaceOnUse"><stop stop-color="#EBCE91"/><stop offset="1" stop-color="#E6BD9F"/></linearGradient></defs></svg>